<svg width="84" height="84" viewBox="0 0 84 84" fill="none" xmlns="http://www.w3.org/2000/svg">
<g clip-path="url(#clip0_253_9307)">
<g filter="url(#filter0_d_253_9307)">
<path d="M35.6931 6.96497C41.1268 6.96437 46.4482 8.51224 51.0339 11.4273C55.6196 14.3423 59.2796 18.5037 61.5852 23.4241C63.8909 28.3444 64.7466 33.8199 64.0522 39.2091C63.3578 44.5983 61.142 49.678 57.6643 53.8532L77.3831 73.5719C77.7252 73.8896 77.9753 74.2937 78.107 74.7416C78.2388 75.1895 78.2473 75.6647 78.1316 76.117C78.0159 76.5693 77.7804 76.9821 77.4499 77.3118C77.1193 77.6415 76.7059 77.8759 76.2533 77.9904C75.8015 78.1062 75.3268 78.0982 74.8792 77.967C74.4316 77.8359 74.0275 77.5866 73.7096 77.2453L53.9909 57.5266C50.4625 60.4646 46.2783 62.5095 41.7924 63.4884C37.3065 64.4673 32.6509 64.3514 28.2192 63.1506C23.7876 61.9497 19.7104 59.6992 16.3324 56.5894C12.9545 53.4795 10.3752 49.6019 8.81275 45.2845C7.25031 40.967 6.75066 36.3368 7.35609 31.7855C7.96151 27.2341 9.65419 22.8955 12.2909 19.1366C14.9277 15.3778 18.431 12.3092 22.5044 10.1906C26.5778 8.07199 31.1016 6.96557 35.6931 6.96497ZM12.3009 35.5554C12.3009 38.6273 12.906 41.6691 14.0815 44.5071C15.2571 47.3452 16.9802 49.9239 19.1523 52.0961C21.3245 54.2683 23.9032 55.9913 26.7413 57.1669C29.5793 58.3424 32.6212 58.9475 35.6931 58.9475C38.765 58.9475 41.8068 58.3424 44.6449 57.1669C47.4829 55.9913 50.0616 54.2683 52.2338 52.0961C54.406 49.9239 56.129 47.3452 57.3046 44.5071C58.4801 41.6691 59.0852 38.6273 59.0852 35.5554C59.0852 29.3514 56.6207 23.4015 52.2338 19.0146C47.8469 14.6277 41.897 12.1632 35.6931 12.1632C29.4891 12.1632 23.5392 14.6277 19.1523 19.0146C14.7655 23.4015 12.3009 29.3514 12.3009 35.5554Z" fill="#007FFF"/>
</g>
</g>
<defs>
<filter id="filter0_d_253_9307" x="1.98817" y="6.96497" width="81.343" height="81.3432" filterUnits="userSpaceOnUse" color-interpolation-filters="sRGB">
<feFlood flood-opacity="0" result="BackgroundImageFix"/>
<feColorMatrix in="SourceAlpha" type="matrix" values="0 0 0 0 0 0 0 0 0 0 0 0 0 0 0 0 0 0 127 0" result="hardAlpha"/>
<feOffset dy="5.11828"/>
<feGaussianBlur stdDeviation="2.55914"/>
<feComposite in2="hardAlpha" operator="out"/>
<feColorMatrix type="matrix" values="0 0 0 0 0 0 0 0 0 0.498039 0 0 0 0 1 0 0 0 0.2 0"/>
<feBlend mode="normal" in2="BackgroundImageFix" result="effect1_dropShadow_253_9307"/>
<feBlend mode="normal" in="SourceGraphic" in2="effect1_dropShadow_253_9307" result="shape"/>
</filter>
<clipPath id="clip0_253_9307">
<rect width="83.172" height="83.172" fill="white" transform="translate(0.171875 0.0322266)"/>
</clipPath>
</defs>
</svg>
