<svg width="20" height="20" viewBox="0 0 20 20" fill="none" xmlns="http://www.w3.org/2000/svg">
<path fill-rule="evenodd" clip-rule="evenodd" d="M3.49869 11C2.67026 11 1.99869 10.3284 1.99869 9.5C1.99869 8.67157 2.67026 8 3.49869 8C4.32712 8 4.99869 8.67157 4.99869 9.5C4.99869 10.3284 4.32712 11 3.49869 11ZM9.49869 11C8.67026 11 7.99869 10.3284 7.99869 9.5C7.99869 8.67157 8.67026 8 9.49869 8C10.3271 8 10.9987 8.67157 10.9987 9.5C10.9987 10.3284 10.3271 11 9.49869 11ZM13.9987 9.5C13.9987 10.3284 14.6703 11 15.4987 11C16.3271 11 16.9987 10.3284 16.9987 9.5C16.9987 8.67157 16.3271 8 15.4987 8C14.6703 8 13.9987 8.67157 13.9987 9.5Z" fill="#0B150F"/>
</svg>
