<svg width="18" height="18" viewBox="0 0 18 18" fill="none" xmlns="http://www.w3.org/2000/svg">
<path d="M3.86667 18C3.3716 18 2.8968 17.8104 2.54673 17.4728C2.19667 17.1352 2 16.6774 2 16.2V1.8C2 1.32261 2.19667 0.864773 2.54673 0.527208C2.8968 0.189642 3.3716 0 3.86667 0H14.1333C14.6284 0 15.1032 0.189642 15.4533 0.527208C15.8033 0.864773 16 1.32261 16 1.8V16.2C16 16.6774 15.8033 17.1352 15.4533 17.4728C15.1032 17.8104 14.6284 18 14.1333 18H3.86667ZM3.4 16.2C3.4 16.3193 3.44917 16.4338 3.53668 16.5182C3.6242 16.6026 3.7429 16.65 3.86667 16.65H14.1333C14.2571 16.65 14.3758 16.6026 14.4633 16.5182C14.5508 16.4338 14.6 16.3193 14.6 16.2V1.8C14.6 1.68065 14.5508 1.56619 14.4633 1.4818C14.3758 1.39741 14.2571 1.35 14.1333 1.35H3.86667C3.7429 1.35 3.6242 1.39741 3.53668 1.4818C3.44917 1.56619 3.4 1.68065 3.4 1.8V16.2Z" fill="#007FFF"/>
<path d="M9.24592 5.31658C9.13926 5.20992 8.99459 5.15 8.84375 5.15C8.69291 5.15 8.54824 5.20992 8.44158 5.31658C8.33492 5.42324 8.275 5.56791 8.275 5.71875V8.275H5.71875C5.56791 8.275 5.42324 8.33492 5.31658 8.44158C5.20992 8.54824 5.15 8.69291 5.15 8.84375C5.15 8.99459 5.20992 9.13926 5.31658 9.24592C5.42324 9.35258 5.56791 9.4125 5.71875 9.4125H8.275V11.9688C8.275 12.1196 8.33492 12.2643 8.44158 12.3709C8.54824 12.4776 8.69291 12.5375 8.84375 12.5375C8.99459 12.5375 9.13926 12.4776 9.24592 12.3709C9.35258 12.2643 9.4125 12.1196 9.4125 11.9688V9.4125H11.9688C12.1196 9.4125 12.2643 9.35258 12.3709 9.24592C12.4776 9.13926 12.5375 8.99459 12.5375 8.84375C12.5375 8.69291 12.4776 8.54824 12.3709 8.44158C12.2643 8.33492 12.1196 8.275 11.9688 8.275H9.4125V5.71875C9.4125 5.56791 9.35258 5.42324 9.24592 5.31658Z" fill="#007FFF" stroke="#007FFF" stroke-width="0.2"/>
</svg>
