<svg width="20" height="20" viewBox="0 0 20 20" fill="none" xmlns="http://www.w3.org/2000/svg">
<path d="M15.6509 13.1509C15.7089 13.0929 15.755 13.024 15.7864 12.9483C15.8178 12.8725 15.834 12.7912 15.834 12.7092C15.834 12.6271 15.8178 12.5459 15.7864 12.4701C15.755 12.3943 15.7089 12.3255 15.6509 12.2675L10.4425 7.05919C10.3846 7.00114 10.3157 6.95508 10.2399 6.92366C10.1641 6.89223 10.0829 6.87606 10.0009 6.87606C9.91881 6.87606 9.83758 6.89223 9.76179 6.92366C9.68601 6.95508 9.61716 7.00114 9.55919 7.05919L4.35086 12.2675C4.29286 12.3255 4.24685 12.3944 4.21546 12.4702C4.18407 12.5459 4.16791 12.6272 4.16791 12.7092C4.16791 12.7912 4.18407 12.8724 4.21546 12.9482C4.24685 13.024 4.29286 13.0929 4.35086 13.1509C4.40886 13.2089 4.47771 13.2549 4.55349 13.2863C4.62928 13.3176 4.7105 13.3338 4.79252 13.3338C4.87455 13.3338 4.95577 13.3176 5.03155 13.2863C5.10733 13.2549 5.17619 13.2089 5.23419 13.1509L10.0009 8.38502L14.7675 13.1509C14.8255 13.2089 14.8943 13.255 14.9701 13.2864C15.0459 13.3178 15.1271 13.334 15.2092 13.334C15.2912 13.334 15.3725 13.3178 15.4483 13.2864C15.524 13.255 15.5929 13.2089 15.6509 13.1509Z" fill="white" fill-opacity="0.3"/>
<path d="M15.9711 13.0249C15.9296 13.1249 15.8688 13.2158 15.7922 13.2924L15.6509 13.1509L15.7924 13.2922C15.7158 13.3688 15.6249 13.4296 15.5249 13.4711C15.4248 13.5126 15.3175 13.534 15.2092 13.534C15.1009 13.534 14.9936 13.5126 14.8935 13.4711C14.7935 13.4297 14.7026 13.3689 14.6261 13.2923C14.6261 13.2923 14.626 13.2922 14.626 13.2922L10.0009 8.66784L5.37561 13.2923L15.9711 13.0249ZM15.9711 13.0249C16.0126 12.9248 16.034 12.8175 16.034 12.7092C16.034 12.6009 16.0126 12.4936 15.9711 12.3935C15.9297 12.2935 15.8689 12.2026 15.7922 12.126L15.9711 13.0249ZM15.7922 12.126L10.584 6.91787L15.7922 12.126ZM9.41777 6.91777L9.41767 6.91787L9.55919 7.05919L9.41777 6.91777Z" stroke="white" stroke-opacity="0.3" stroke-width="0.4"/>
</svg>
