<svg width="24" height="24" viewBox="0 0 24 24" fill="none" xmlns="http://www.w3.org/2000/svg">
<path d="M8.22024 18.7802C8.28981 18.8499 8.37242 18.9052 8.46337 18.9429C8.55431 18.9806 8.65179 19 8.75024 19C8.84869 19 8.94618 18.9806 9.03712 18.9429C9.12806 18.9052 9.21068 18.8499 9.28024 18.7802L15.5302 12.5302C15.5999 12.4607 15.6552 12.3781 15.6929 12.2871C15.7306 12.1962 15.75 12.0987 15.75 12.0002C15.75 11.9018 15.7306 11.8043 15.6929 11.7134C15.6552 11.6224 15.5999 11.5398 15.5302 11.4702L9.28024 5.22024C9.21064 5.15064 9.12801 5.09543 9.03708 5.05777C8.94614 5.0201 8.84867 5.00071 8.75024 5.00071C8.65181 5.00071 8.55435 5.0201 8.46341 5.05777C8.37247 5.09543 8.28984 5.15064 8.22024 5.22024C8.15064 5.28984 8.09543 5.37247 8.05776 5.46341C8.0201 5.55435 8.00071 5.65181 8.00071 5.75024C8.00071 5.84867 8.0201 5.94614 8.05776 6.03708C8.09543 6.12802 8.15064 6.21064 8.22024 6.28024L13.9392 12.0002L8.22024 17.7202C8.15058 17.7898 8.09531 17.8724 8.0576 17.9634C8.0199 18.0543 8.00049 18.1518 8.00049 18.2502C8.00049 18.3487 8.0199 18.4462 8.0576 18.5371C8.09531 18.6281 8.15058 18.7107 8.22024 18.7802Z" fill="#0B150F" fill-opacity="0.5"/>
<path d="M8.07872 18.9216C8.16686 19.0098 8.27154 19.0799 8.38676 19.1276L15.5302 12.5302C15.5999 12.4607 15.6552 12.3781 15.6929 12.2871C15.7306 12.1962 15.75 12.0987 15.75 12.0002C15.75 11.9018 15.7306 11.8043 15.6929 11.7134C15.6552 11.6224 15.5999 11.5398 15.5302 11.4702L15.6717 11.3288L15.6716 11.3287L9.42166 5.07882L9.28024 5.22024L9.42166 5.07882C9.33349 4.99065 9.22881 4.92071 9.11361 4.87299L9.03708 5.05777L9.11361 4.87299C8.99841 4.82527 8.87494 4.80071 8.75024 4.80071C8.62555 4.80071 8.50207 4.82527 8.38687 4.87299L8.46341 5.05777L8.38687 4.87299C8.27167 4.92071 8.16699 4.99065 8.07882 5.07882C7.99065 5.167 7.92071 5.27167 7.87299 5.38687C7.82527 5.50208 7.80071 5.62555 7.80071 5.75024C7.80071 5.87494 7.82527 5.99841 7.87299 6.11362C7.92071 6.22882 7.99065 6.33349 8.07882 6.42167L13.6564 12.0002L8.07892 17.5787C8.07888 17.5788 8.07885 17.5788 8.07881 17.5788C7.9906 17.667 7.92061 17.7716 7.87286 17.8868C7.82508 18.002 7.80049 18.1255 7.80049 18.2502C7.80049 18.375 7.82508 18.4985 7.87286 18.6137C7.92063 18.729 7.99066 18.8336 8.07892 18.9218L8.22024 18.7802L8.07872 18.9216ZM9.42176 18.9216L15.6716 12.6718L9.28024 18.7802L9.42166 18.9217L9.42173 18.9216C9.42174 18.9216 9.42175 18.9216 9.42176 18.9216Z" stroke="#0B150F" stroke-opacity="0.5" stroke-width="0.4"/>
</svg>
