<svg width="20" height="20" viewBox="0 0 20 20" fill="none" xmlns="http://www.w3.org/2000/svg">
<path fill-rule="evenodd" clip-rule="evenodd" d="M17.6087 11.7894C18.575 10.7727 18.575 9.22797 17.6087 8.21124C15.9788 6.49644 13.1797 4.16699 10.0001 4.16699C6.82048 4.16699 4.02132 6.49644 2.3915 8.21124C1.42516 9.22797 1.42516 10.7727 2.3915 11.7894C4.02133 13.5042 6.82049 15.8337 10.0001 15.8337C13.1797 15.8337 15.9788 13.5042 17.6087 11.7894ZM10.0001 12.5003C11.3808 12.5003 12.5001 11.381 12.5001 10.0003C12.5001 8.61961 11.3808 7.50033 10.0001 7.50033C8.61937 7.50033 7.50008 8.61961 7.50008 10.0003C7.50008 11.381 8.61937 12.5003 10.0001 12.5003Z" fill="#0B150F"/>
</svg>
