<svg width="16" height="16" viewBox="0 0 16 16" fill="none" xmlns="http://www.w3.org/2000/svg">
<path d="M5.33858 3.33858L5.33858 3.33858L10.3533 8.35333C10.3998 8.30696 10.4366 8.25188 10.4618 8.19125C10.4869 8.13062 10.4998 8.06563 10.4998 8C10.4998 7.93437 10.4869 7.86938 10.4618 7.80875C10.4366 7.74812 10.3998 7.69304 10.3533 7.64667L10.4948 7.50525L10.4947 7.50515L6.32809 3.33858L6.18667 3.48L6.32809 3.33858C6.26311 3.27361 6.18598 3.22207 6.10109 3.18691C6.0162 3.15174 5.92522 3.13365 5.83333 3.13365C5.74145 3.13365 5.65046 3.15174 5.56557 3.1869C5.48068 3.22207 5.40355 3.27361 5.33858 3.33858ZM6.32819 12.6613L10.4947 8.49485L5.48 4.18667L5.33857 4.32808L5.33858 4.32809L9.00985 8L5.33868 11.6718L5.48 11.8133L5.33857 11.6719L5.33865 11.6718C5.27362 11.7368 5.22203 11.8139 5.18682 11.8988C5.15162 11.9837 5.1335 12.0747 5.1335 12.1667C5.1335 12.2586 5.15162 12.3496 5.18682 12.4345C5.22203 12.5194 5.27363 12.5966 5.33868 12.6615L5.48 12.52L5.33848 12.6613C5.40343 12.7264 5.48057 12.778 5.56548 12.8132C5.65039 12.8484 5.74141 12.8665 5.83333 12.8665C5.92525 12.8665 6.01627 12.8484 6.10119 12.8132C6.18605 12.778 6.26316 12.7264 6.32809 12.6614C6.3281 12.6614 6.32811 12.6614 6.32813 12.6614C6.32815 12.6614 6.32817 12.6613 6.32819 12.6613Z" fill="#007FFF" stroke="#007FFF" stroke-width="0.4"/>
</svg>
