<svg width="20" height="20" viewBox="0 0 20 20" fill="none" xmlns="http://www.w3.org/2000/svg">
<path d="M18.75 15V17.5C18.75 18.1894 18.1894 18.75 17.5 18.75H2.5C1.81062 18.75 1.25 18.1894 1.25 17.5V15C1.25 14.8342 1.31585 14.6753 1.43306 14.5581C1.55027 14.4408 1.70924 14.375 1.875 14.375C2.04076 14.375 2.19973 14.4408 2.31694 14.5581C2.43415 14.6753 2.5 14.8342 2.5 15V17.5H17.5V15C17.5 14.8342 17.5658 14.6753 17.6831 14.5581C17.8003 14.4408 17.9592 14.375 18.125 14.375C18.2908 14.375 18.4497 14.4408 18.5669 14.5581C18.6842 14.6753 18.75 14.8342 18.75 15Z" fill="#007FFF"/>
<path d="M5.18325 6.69071C5.12516 6.63272 5.07907 6.56384 5.04763 6.48802C5.01619 6.4122 5 6.33092 5 6.24884C5 6.16675 5.01619 6.08547 5.04763 6.00965C5.07907 5.93383 5.12516 5.86495 5.18325 5.80696L9.55762 1.43258C9.6752 1.31564 9.83429 1.25 10.0001 1.25C10.166 1.25 10.325 1.31564 10.4426 1.43258L14.817 5.80696C14.9342 5.92415 15 6.0831 15 6.24884C15 6.41457 14.9342 6.57352 14.817 6.69071C14.6998 6.8079 14.5409 6.87374 14.3751 6.87374C14.2094 6.87374 14.0504 6.8079 13.9332 6.69071L10.6251 3.38258V14.3738C10.6251 14.5396 10.5593 14.6986 10.4421 14.8158C10.3249 14.933 10.1659 14.9988 10.0001 14.9988C9.83436 14.9988 9.67539 14.933 9.55818 14.8158C9.44097 14.6986 9.37512 14.5396 9.37512 14.3738V3.38258L6.067 6.69071C6.00901 6.7488 5.94013 6.79489 5.86431 6.82633C5.78849 6.85778 5.70721 6.87396 5.62513 6.87396C5.54304 6.87396 5.46176 6.85778 5.38594 6.82633C5.31012 6.79489 5.24124 6.7488 5.18325 6.69071Z" fill="#007FFF"/>
</svg>
