<svg width="18" height="18" viewBox="0 0 18 18" fill="none" xmlns="http://www.w3.org/2000/svg">
<g opacity="0.8">
<path d="M8.08492 14.2729C7.97945 14.3782 7.83648 14.4374 7.68742 14.4374C7.53835 14.4374 7.39539 14.3782 7.28992 14.2729L2.60243 9.58542C2.49709 9.47995 2.43793 9.33698 2.43793 9.18792C2.43793 9.03886 2.49709 8.89589 2.60243 8.79042L7.28992 4.10293C7.35867 4.02889 7.44612 3.97476 7.54306 3.94625C7.64 3.91774 7.74283 3.9159 7.84072 3.94093C7.93861 3.96596 8.02794 4.01693 8.0993 4.08847C8.17065 4.16001 8.22139 4.24948 8.24617 4.34743C8.27123 4.44522 8.26948 4.54794 8.2411 4.64482C8.21273 4.74169 8.15877 4.82913 8.08492 4.89793L4.35743 8.62542H15.1874C15.3366 8.62542 15.4797 8.68468 15.5851 8.79017C15.6906 8.89566 15.7499 9.03873 15.7499 9.18792C15.7499 9.3371 15.6906 9.48018 15.5851 9.58566C15.4797 9.69115 15.3366 9.75042 15.1874 9.75042H4.35743L8.08492 13.4779C8.19025 13.5834 8.24942 13.7263 8.24942 13.8754C8.24942 14.0245 8.19025 14.1674 8.08492 14.2729Z" fill="#0B150F"/>
</g>
</svg>
