<svg width="20" height="20" viewBox="0 0 20 20" fill="none" xmlns="http://www.w3.org/2000/svg">
<path fill-rule="evenodd" clip-rule="evenodd" d="M8.99985 3.49902C8.99985 2.6706 9.67142 1.99902 10.4998 1.99902C11.3283 1.99902 11.9998 2.6706 11.9998 3.49902C11.9998 4.32745 11.3283 4.99902 10.4998 4.99902C9.67142 4.99902 8.99985 4.32745 8.99985 3.49902ZM8.99985 9.49902C8.99985 8.6706 9.67142 7.99902 10.4998 7.99902C11.3283 7.99902 11.9998 8.6706 11.9998 9.49902C11.9998 10.3275 11.3283 10.999 10.4998 10.999C9.67142 10.999 8.99985 10.3275 8.99985 9.49902ZM10.4998 13.999C9.67142 13.999 8.99985 14.6706 8.99985 15.499C8.99985 16.3275 9.67142 16.999 10.4998 16.999C11.3283 16.999 11.9998 16.3275 11.9998 15.499C11.9998 14.6706 11.3283 13.999 10.4998 13.999Z" fill="#0B150F"/>
</svg>
