<svg width="18" height="18" viewBox="0 0 18 18" fill="none" xmlns="http://www.w3.org/2000/svg">
<g opacity="0.6" clip-path="url(#clip0_1_1114)">
<path d="M0 1.3125C0 0.588 0.588 0 1.3125 0H16.6875C17.412 0 18 0.588 18 1.3125V12.1875C18 12.5356 17.8617 12.8694 17.6156 13.1156C17.3694 13.3617 17.0356 13.5 16.6875 13.5H1.3125C0.964403 13.5 0.630564 13.3617 0.384422 13.1156C0.138281 12.8694 0 12.5356 0 12.1875L0 1.3125ZM1.3125 1.125C1.26277 1.125 1.21508 1.14475 1.17992 1.17992C1.14475 1.21508 1.125 1.26277 1.125 1.3125V12.1875C1.125 12.291 1.209 12.375 1.3125 12.375H16.6875C16.7372 12.375 16.7849 12.3552 16.8201 12.3201C16.8552 12.2849 16.875 12.2372 16.875 12.1875V1.3125C16.875 1.26277 16.8552 1.21508 16.8201 1.17992C16.7849 1.14475 16.7372 1.125 16.6875 1.125H1.3125Z" fill="#0B150F"/>
<path d="M6.75 9.43788V4.06188C6.75011 3.99461 6.76831 3.92862 6.8027 3.87081C6.83708 3.813 6.88638 3.7655 6.94543 3.73329C7.00448 3.70108 7.07111 3.68535 7.13833 3.68774C7.20555 3.69013 7.27089 3.71055 7.3275 3.74688L11.5095 6.43413C11.5625 6.46805 11.606 6.51475 11.6362 6.56993C11.6664 6.62511 11.6822 6.68699 11.6822 6.74988C11.6822 6.81277 11.6664 6.87465 11.6362 6.92982C11.606 6.985 11.5625 7.0317 11.5095 7.06563L7.3275 9.75363C7.27089 9.78995 7.20555 9.81038 7.13833 9.81277C7.07111 9.81516 7.00448 9.79942 6.94543 9.76721C6.88638 9.735 6.83708 9.68751 6.8027 9.62969C6.76831 9.57188 6.75011 9.50589 6.75 9.43863V9.43788Z" fill="#0B150F"/>
<path d="M10.3995 13.125L10.0245 12.4755L8.72548 13.2255L9.10048 13.875L10.3995 13.125ZM11.3505 17.7721C11.5576 18.1308 12.0163 18.2537 12.375 18.0466C12.7337 17.8395 12.8566 17.3808 12.6495 17.0221L11.3505 17.7721ZM9.10048 13.875L11.3505 17.7721L12.6495 17.0221L10.3995 13.125L9.10048 13.875Z" fill="#0B150F"/>
<path d="M8.89952 13.875L9.27452 13.2255L7.97548 12.4755L7.60048 13.125L8.89952 13.875ZM5.35048 17.0221C5.14337 17.3808 5.26628 17.8395 5.625 18.0466C5.98372 18.2537 6.44241 18.1308 6.64952 17.7721L5.35048 17.0221ZM7.60048 13.125L5.35048 17.0221L6.64952 17.7721L8.89952 13.875L7.60048 13.125Z" fill="#0B150F"/>
</g>
<defs>
<clipPath id="clip0_1_1114">
<rect width="18" height="18" fill="white"/>
</clipPath>
</defs>
</svg>
