<svg width="548" height="137" viewBox="0 0 548 137" fill="none" xmlns="http://www.w3.org/2000/svg">
<mask id="mask0_253_7326" style="mask-type:alpha" maskUnits="userSpaceOnUse" x="0" y="0" width="548" height="137">
<rect width="548" height="136.309" fill="#006699"/>
</mask>
<g mask="url(#mask0_253_7326)">
<path d="M-2.76151 273.541C-2.76151 272.788 7.95561 262.148 8.71396 262.148C9.39125 262.148 19.5717 271.896 20.3177 273.259C20.6531 273.871 20.5814 274.06 20.014 274.06C19.6055 274.06 16.9043 271.759 14.0112 268.946L8.75109 263.832L3.49096 268.946C-1.5026 273.801 -2.76151 274.726 -2.76151 273.541ZM31.0096 262.97C24.8461 256.871 19.8032 251.558 19.8032 251.165C19.8032 250.249 30.8707 239.238 31.7912 239.238C32.4625 239.238 66.7746 273.069 66.7746 273.731C66.7746 275.222 63.0187 271.879 48.4904 257.46L31.7645 240.859L26.5973 246L21.43 251.141L32.5897 262.279C38.7275 268.404 43.7494 273.561 43.7494 273.738C43.7494 275.139 40.7121 272.572 31.0096 262.97ZM89.3393 273.782C89.3393 273.348 95.7237 266.889 98.6776 264.335L101.339 262.034L106.659 267.246C112.365 272.834 113.347 274.06 112.118 274.06C111.711 274.06 109.147 271.895 106.42 269.249C103.693 266.603 101.291 264.439 101.082 264.439C100.873 264.439 98.4711 266.603 95.744 269.249C91.4932 273.374 89.3393 274.898 89.3393 273.782ZM123.341 263.2C117.304 257.226 112.365 252.047 112.365 251.69C112.365 250.896 123.308 239.238 124.053 239.238C124.618 239.238 158.875 273.171 158.875 273.731C158.875 275.221 155.133 271.893 140.7 257.568L124.084 241.076L120.167 245.083C118.013 247.286 115.75 249.661 115.138 250.361L114.025 251.632L124.937 262.525C130.939 268.515 135.85 273.562 135.85 273.739C135.85 275.134 132.844 272.601 123.341 263.2ZM181.386 273.259C181.988 272.158 192.248 262.148 192.774 262.148C193.006 262.148 195.884 264.828 199.17 268.104C206.506 275.42 205.862 276.32 198.35 269.249C195.538 266.603 193.036 264.439 192.79 264.439C192.544 264.439 190.111 266.603 187.384 269.249C184.657 271.895 182.093 274.06 181.687 274.06C181.122 274.06 181.051 273.871 181.386 273.259ZM215.345 263.178C209.234 257.193 204.056 252.014 203.836 251.669C203.547 251.214 205.064 249.42 209.356 245.14C212.611 241.894 215.501 239.238 215.778 239.238C216.38 239.238 249.877 271.957 250.545 273.198C250.916 273.888 250.85 274.06 250.213 274.06C249.776 274.06 241.899 266.597 232.709 257.476L215.999 240.892L214.722 241.999C210.836 245.368 205.847 250.546 205.847 251.21C205.847 251.631 210.631 256.579 216.478 262.205C227.344 272.661 228.612 274.06 227.219 274.06C226.798 274.06 221.455 269.164 215.345 263.178ZM71.8967 257.359C68.573 254.096 65.8536 251.191 65.8536 250.904C65.8536 250.617 75.9041 240.213 88.1881 227.784C100.472 215.355 110.523 204.949 110.523 204.659C110.523 204.027 101.178 194.795 100.538 194.795C100.292 194.795 90.0885 204.898 77.8642 217.246C65.64 229.594 55.4234 239.697 55.1607 239.697C54.898 239.697 50.0948 235.315 44.487 229.96C38.8793 224.605 33.7191 219.718 33.02 219.1L31.749 217.977L14.8247 234.793C5.51629 244.042 -2.24857 251.609 -2.43058 251.609C-3.93104 251.609 -0.540255 247.843 14.1479 233.194C23.448 223.918 31.3745 216.337 31.7622 216.346C32.1499 216.355 37.5376 221.185 43.7349 227.08C50.4362 233.454 55.2186 237.672 55.5354 237.487C55.8284 237.316 65.8461 227.28 77.7971 215.184C89.748 203.088 99.8762 193.134 100.304 193.063C100.787 192.984 103.35 195.199 107.053 198.896L113.024 204.857L103.141 214.831C97.7049 220.317 87.4603 230.633 80.3748 237.755L67.4921 250.704L72.5443 255.749C75.323 258.523 77.8351 260.737 78.1267 260.669C78.4184 260.6 88.5391 250.544 100.617 238.322C112.695 226.1 122.893 216.029 123.278 215.943C123.698 215.848 128.535 220.306 135.392 227.108C141.669 233.335 147.03 238.355 147.304 238.262C147.578 238.169 157.691 228.093 169.777 215.871C181.863 203.649 192.047 193.471 192.407 193.252C192.891 192.959 194.615 194.397 198.994 198.744C202.257 201.983 204.926 204.844 204.926 205.103C204.926 205.361 194.862 215.736 182.563 228.158C170.263 240.58 160.264 251 160.343 251.314C160.422 251.627 162.731 254.028 165.472 256.649L170.458 261.414L177.668 254.106C200.459 231.006 215.311 216.329 215.894 216.329C216.26 216.329 219.757 219.371 223.666 223.088C227.576 226.805 232.742 231.679 235.147 233.92L239.521 237.995L256.358 221.32C265.683 212.085 273.288 204.898 273.404 205.212C273.519 205.523 273.194 206.364 272.682 207.08C271.348 208.944 239.968 239.697 239.4 239.697C239.14 239.697 233.845 234.841 227.633 228.905C221.421 222.97 216.054 218.176 215.707 218.253C215.36 218.329 205.187 228.391 193.101 240.613C181.014 252.835 170.804 262.892 170.411 262.963C170.004 263.036 167.124 260.522 163.717 257.12L157.736 251.15L164.873 243.934C168.798 239.966 179.002 229.695 187.547 221.112C196.092 212.528 203.084 205.292 203.084 205.032C203.084 204.212 193.437 195.18 192.726 195.335C192.354 195.416 182.26 205.379 170.296 217.475C158.332 229.571 148.151 239.753 147.672 240.101C146.87 240.686 145.888 239.828 135.096 229.105L123.389 217.475L100.665 240.384L77.9399 263.293L71.8967 257.359ZM255.634 257.163C252.566 253.917 250.055 251.077 250.055 250.851C250.055 250.173 273.037 227.588 273.38 227.929C274.093 228.639 271.982 231.006 262.621 239.993C257.214 245.185 252.572 249.837 252.307 250.33C251.887 251.11 252.482 251.888 256.906 256.339L261.988 261.451L267.462 256.072C270.472 253.114 273.072 250.693 273.238 250.693C273.405 250.693 273.541 251.02 273.541 251.419C273.541 252.414 262.991 263.064 262.005 263.064C261.569 263.064 258.702 260.409 255.634 257.163ZM-2.76151 227.938C-2.76151 227.519 2.15476 222.257 8.16354 216.245L19.0886 205.314L13.9309 200.183L8.77317 195.051L3.30853 200.421C0.302983 203.375 -2.29232 205.791 -2.45881 205.791C-2.62529 205.791 -2.76151 205.465 -2.76151 205.065C-2.76151 204.104 7.77129 193.42 8.71873 193.42C9.65433 193.42 20.7242 204.422 20.7242 205.352C20.7242 206.019 -1.77576 228.7 -2.43729 228.7C-2.61561 228.7 -2.76151 228.357 -2.76151 227.938ZM31.7222 195.016C19.4085 182.798 9.04323 172.802 8.68833 172.802C8.33343 172.802 5.97468 174.878 3.44666 177.415C-1.57591 182.455 -2.76151 183.365 -2.76151 182.179C-2.76151 181.406 6.51049 171.674 8.00759 170.876C8.75836 170.475 10.5342 172.047 21.132 182.489C27.8728 189.132 38.2052 199.306 44.0927 205.098L54.7974 215.631L59.865 210.604C62.6522 207.84 64.9317 205.368 64.9306 205.112C64.9296 204.855 54.8271 194.755 42.481 182.667C30.1348 170.579 19.8539 160.4 19.6344 160.047C19.342 159.577 20.8169 157.828 25.1538 153.504C28.409 150.258 31.3434 147.602 31.6749 147.602C32.0064 147.602 42.5332 157.744 55.0679 170.139L77.8583 192.677L89.0313 181.594C95.1765 175.498 100.412 170.511 100.665 170.511C100.918 170.511 101.945 171.354 102.946 172.384C103.947 173.414 114.258 183.553 125.86 194.916L146.954 215.575L151.994 210.576C154.766 207.827 157.033 205.368 157.031 205.112C157.03 204.855 146.928 194.755 134.582 182.667C122.236 170.579 111.955 160.4 111.735 160.047C111.443 159.577 112.918 157.828 117.255 153.504C120.51 150.258 123.444 147.602 123.776 147.602C124.107 147.602 134.636 157.746 147.173 170.144L169.968 192.686L181.118 181.598C187.251 175.5 192.484 170.511 192.748 170.511C193.011 170.511 194.046 171.354 195.047 172.384C196.048 173.414 206.359 183.553 217.961 194.916L239.055 215.575L244.095 210.576C246.866 207.827 249.133 205.368 249.132 205.112C249.131 204.855 239.029 194.755 226.683 182.667C214.337 170.579 204.056 160.4 203.836 160.047C203.544 159.577 205.019 157.828 209.356 153.504C212.611 150.258 215.539 147.602 215.863 147.602C216.187 147.602 226.619 157.602 239.046 169.824C251.472 182.046 261.886 192.046 262.188 192.046C262.49 192.046 264.805 189.97 267.333 187.433C272.363 182.385 273.541 181.482 273.541 182.675C273.541 183.619 262.957 194.413 262.203 194.238C261.893 194.166 251.367 184.036 238.811 171.727L215.981 149.347L213.792 151.189C209.831 154.521 205.752 158.918 205.917 159.677C206.005 160.081 216.128 170.25 228.412 182.274C240.696 194.299 250.813 204.406 250.895 204.735C251.083 205.492 239.95 217.246 239.045 217.246C238.675 217.246 228.14 207.106 215.633 194.713L192.893 172.181L181.752 183.259C175.625 189.352 170.334 194.337 169.995 194.337C169.656 194.337 159.15 184.207 146.649 171.826L123.919 149.315L121.711 151.172C117.733 154.519 113.651 158.917 113.816 159.677C113.904 160.081 124.027 170.25 136.311 182.274C148.595 194.299 158.712 204.406 158.794 204.735C158.983 205.493 147.848 217.246 146.94 217.246C146.569 217.246 136.178 207.246 123.849 195.024C111.52 182.802 101.145 172.802 100.793 172.802C100.442 172.802 95.2873 177.647 89.3393 183.569C83.3914 189.491 78.2323 194.337 77.8748 194.337C77.5172 194.337 67.0945 184.285 54.7131 172C42.3318 159.715 32.0286 149.604 31.8173 149.531C31.6059 149.457 29.2205 151.499 26.5163 154.068C23.2149 157.204 21.6449 159.013 21.7375 159.576C21.8134 160.036 31.926 170.251 44.2099 182.275C56.4939 194.299 66.6114 204.406 66.6932 204.735C66.8866 205.511 55.7337 217.248 54.8128 217.237C54.4267 217.233 44.0359 207.233 31.7222 195.016ZM71.6159 165.484L65.6354 159.514L72.7723 152.298C76.6976 148.329 86.9009 138.059 95.4462 129.475C103.991 120.892 110.983 113.656 110.983 113.395C110.983 112.696 101.476 103.617 100.744 103.617C100.4 103.617 97.2302 106.555 93.6998 110.146C74.9919 129.175 55.5358 148.518 55.1042 148.518C54.8344 148.518 49.4596 143.415 43.1603 137.178L31.707 125.838L14.7321 142.906C5.39597 152.293 -2.35944 159.973 -2.50211 159.973C-3.8198 159.973 -0.438679 156.207 14.073 141.512C23.332 132.135 31.236 124.392 31.6375 124.303C32.0955 124.202 36.6265 128.377 43.7948 135.505L55.2221 146.868L60.0156 142.081C62.652 139.447 72.6582 129.355 82.2516 119.653C91.845 109.951 99.9793 101.834 100.328 101.616C100.789 101.327 102.581 102.827 106.893 107.107C110.156 110.346 112.825 113.208 112.825 113.466C112.825 113.725 102.762 124.1 90.4617 136.522C78.1619 148.944 68.1632 159.364 68.2424 159.677C68.3216 159.99 70.6297 162.391 73.3716 165.012L78.3569 169.778L85.5671 162.47C109.002 138.718 123.218 124.695 123.848 124.709C124.244 124.718 129.638 129.549 135.836 135.443C142.537 141.817 147.319 146.035 147.636 145.851C147.929 145.68 157.947 135.643 169.898 123.547C181.849 111.451 191.977 101.497 192.405 101.427C192.888 101.347 195.451 103.563 199.154 107.259L205.125 113.22L195.242 123.195C189.806 128.681 179.561 138.996 172.476 146.118L159.593 159.068L164.645 164.112C167.424 166.887 169.936 169.101 170.228 169.032C170.519 168.964 180.641 158.908 192.719 146.686C206.182 133.064 215.066 124.414 215.675 124.335C216.436 124.237 219.258 126.787 227.717 135.217C233.794 141.273 238.976 146.227 239.232 146.227C239.489 146.227 246.951 138.998 255.814 130.163C264.677 121.327 272.292 113.897 272.735 113.652C273.364 113.304 273.541 113.379 273.541 113.997C273.541 114.774 241.433 147.221 239.759 148.136C239.02 148.54 237.34 147.055 227.543 137.336C221.296 131.138 215.983 126.064 215.736 126.06C215.489 126.056 205.107 136.314 192.664 148.855L170.041 171.657L163.998 165.723C160.674 162.459 157.954 159.554 157.954 159.267C157.954 158.98 168.005 148.576 180.289 136.147C192.573 123.719 202.623 113.312 202.623 113.023C202.623 112.39 193.279 103.158 192.639 103.158C192.392 103.158 182.189 113.261 169.965 125.609C157.741 137.957 147.534 148.06 147.283 148.06C147.032 148.06 141.744 143.204 135.532 137.269C129.32 131.334 123.954 126.54 123.607 126.616C123.26 126.692 113.087 136.755 101 148.977C88.9131 161.199 78.7027 171.256 78.3102 171.326C77.9036 171.399 75.0229 168.885 71.6159 165.484ZM256.143 165.887C252.921 162.839 250.213 160.027 250.124 159.636C249.969 158.956 270.942 137.552 272.735 136.561C273.362 136.214 273.541 136.288 273.541 136.893C273.541 137.321 268.619 142.603 262.604 148.631L251.667 159.59L256.733 164.349C259.519 166.966 262.009 169.114 262.267 169.122C262.525 169.13 264.805 167.061 267.333 164.524C272.363 159.476 273.541 158.573 273.541 159.766C273.541 160.524 263.123 171.428 262.399 171.428C262.18 171.428 259.364 168.934 256.143 165.887ZM-2.76151 136.302C-2.76151 135.883 2.13811 130.637 8.12653 124.646L19.0146 113.752L17.1411 111.548C16.1107 110.336 13.7988 107.903 12.0035 106.143L8.73951 102.942L3.18274 108.549C0.126513 111.632 -2.46122 114.155 -2.56777 114.155C-2.67433 114.155 -2.76151 113.827 -2.76151 113.426C-2.76151 112.58 8.17432 101.326 8.99641 101.326C9.74494 101.326 20.7242 112.981 20.7242 113.776C20.7242 114.403 -1.81426 137.064 -2.43729 137.064C-2.61561 137.064 -2.76151 136.721 -2.76151 136.302ZM31.4119 103.077L8.7131 80.5644L3.2785 85.905C0.289468 88.8423 -2.29232 91.2456 -2.45881 91.2456C-2.62529 91.2456 -2.76151 90.919 -2.76151 90.5198C-2.76151 89.6941 7.70449 78.8747 8.50324 78.8747C8.79003 78.8747 9.84384 79.7173 10.845 80.7472C11.8462 81.7771 22.1576 91.9165 33.7593 103.279L54.8532 123.939L59.8929 118.94C62.6647 116.191 64.9317 113.732 64.9306 113.475C64.9296 113.219 54.8271 103.119 42.481 91.0307C30.1348 78.9425 19.8539 68.7634 19.6344 68.4106C19.342 67.9404 20.8169 66.1919 25.1538 61.8672C28.409 58.6213 31.3431 55.9655 31.674 55.9655C32.005 55.9655 42.389 65.9654 54.7497 78.1874C67.1103 90.4094 77.4128 100.409 77.6442 100.409C77.8755 100.409 82.6221 95.8595 88.192 90.2987C93.7619 84.7378 98.9138 79.8745 99.6406 79.4912L100.962 78.7945L113.456 91.0871C120.327 97.848 130.663 108.018 136.424 113.687L146.898 123.994L151.966 118.968C154.753 116.203 157.033 113.732 157.031 113.475C157.03 113.219 146.928 103.119 134.582 91.0307C122.236 78.9425 111.955 68.7634 111.735 68.4106C111.443 67.9404 112.918 66.1919 117.255 61.8672C120.51 58.6213 123.444 55.9655 123.776 55.9655C124.107 55.9655 134.636 66.1094 147.173 78.5074L169.968 101.049L181.118 89.962C187.251 83.8639 192.484 78.8747 192.748 78.8747C193.011 78.8747 194.046 79.7173 195.047 80.7472C196.048 81.7771 206.359 91.9165 217.961 103.279L239.055 123.939L244.095 118.94C246.866 116.191 249.133 113.732 249.132 113.475C249.131 113.219 239.029 103.119 226.683 91.0307C214.337 78.9425 204.056 68.7634 203.836 68.4106C203.544 67.9404 205.019 66.1919 209.356 61.8672C212.611 58.6213 215.545 55.9655 215.877 55.9655C216.208 55.9655 226.732 66.1047 239.264 78.4971L262.048 101.029L267.629 95.5643C270.786 92.4744 273.298 90.3461 273.412 90.6662C273.523 90.9775 273.201 91.8022 272.698 92.4989C271.268 94.4776 262.684 102.7 262.049 102.7C261.736 102.7 251.251 92.5702 238.75 80.1892L216.02 57.6783L213.811 59.536C209.834 62.8821 205.752 67.2801 205.917 68.0405C206.005 68.4446 216.128 78.6134 228.412 90.638C240.696 102.662 250.813 112.77 250.895 113.098C251.084 113.857 239.949 125.609 239.041 125.609C238.67 125.609 228.279 115.609 215.95 103.387C203.621 91.1654 193.246 81.1656 192.894 81.1656C192.542 81.1656 187.388 86.0109 181.44 91.9329C175.492 97.8549 170.345 102.7 170.002 102.7C169.659 102.7 159.15 92.5702 146.649 80.1892L123.919 57.6783L121.711 59.536C117.733 62.8821 113.651 67.2801 113.816 68.0405C113.904 68.4446 124.027 78.6134 136.311 90.638C148.595 102.662 158.712 112.77 158.794 113.098C158.987 113.872 147.839 125.609 146.912 125.609C146.524 125.609 137.505 116.936 126.868 106.336C116.232 95.7356 105.926 85.6136 103.967 83.8426L100.405 80.6225L89.3401 91.3177C83.2544 97.2 77.9603 102.081 77.5755 102.164C77.1541 102.255 67.9185 93.44 54.3487 79.9951L31.8215 57.6753L29.6115 59.5345C25.6188 62.8935 21.5499 67.2795 21.7155 68.0459C21.8035 68.453 31.926 78.6214 44.2099 90.6424C56.4939 102.663 66.6114 112.768 66.6932 113.097C66.8866 113.875 55.7337 125.612 54.8128 125.6C54.4267 125.594 43.8963 115.46 31.4119 103.077ZM71.8967 74.0864C68.573 70.8228 65.8536 67.9178 65.8536 67.6308C65.8536 67.3438 75.9041 56.9399 88.1881 44.511C100.472 32.0821 110.523 21.676 110.523 21.3863C110.523 20.7537 101.178 11.5219 100.538 11.5219C100.292 11.5219 90.0885 21.6248 77.8642 33.9728C65.64 46.3208 55.4234 56.4237 55.1607 56.4237C54.898 56.4237 50.0948 52.0424 44.487 46.6874C38.8793 41.3324 33.7191 36.4454 33.02 35.8274L31.749 34.7039L14.6694 51.6347C5.17695 61.0445 -2.50425 68.3141 -2.62197 67.9995C-2.73847 67.6882 -2.41778 66.8635 -1.90932 66.1668C-0.16017 63.7701 31.1167 33.0565 31.7916 33.0728C32.1631 33.0819 37.5376 37.912 43.7349 43.8068C50.4362 50.1809 55.2186 54.3987 55.5354 54.2141C55.8284 54.0434 65.8461 44.007 77.7971 31.911C89.748 19.815 99.8762 9.86063 100.304 9.79026C100.787 9.7109 103.35 11.9261 107.053 15.623L113.024 21.5837L103.141 31.5583C97.7049 37.0443 87.4603 47.3599 80.3748 54.4819L67.4921 67.4311L72.5443 72.4759C75.323 75.2505 77.8351 77.4645 78.1267 77.3958C78.4184 77.3272 88.543 67.2712 100.626 55.0492C113.298 42.231 122.942 32.8273 123.415 32.8273C123.866 32.8273 129.453 37.8627 135.832 44.017L147.429 55.2067L152.161 50.4316C154.764 47.8053 164.746 37.7184 174.344 28.0164C183.942 18.3144 192.08 10.1978 192.429 9.97941C192.89 9.6908 194.682 11.1903 198.994 15.471C202.257 18.7097 204.926 21.5711 204.926 21.8296C204.926 22.0881 194.862 32.4632 182.563 44.8853C170.263 57.3074 160.264 67.7273 160.343 68.0406C160.422 68.354 162.731 70.7548 165.472 73.3758L170.458 78.1412L177.668 70.8334C200.932 47.2546 215.318 33.0564 215.946 33.0564C216.34 33.0564 221.688 38.0537 227.83 44.1614L238.998 55.2664L255.939 38.4341C265.256 29.1764 273.028 21.6019 273.21 21.6019C274.711 21.6019 271.32 25.3684 256.632 40.0175C247.331 49.2929 239.403 56.8819 239.014 56.8819C238.624 56.8819 233.333 51.9296 227.257 45.8767C221.18 39.8238 215.954 34.927 215.642 34.9949C215.331 35.0627 205.187 45.1181 193.101 57.3401C181.014 69.5621 170.804 79.6195 170.411 79.6899C170.004 79.7627 167.124 77.2487 163.717 73.8474L157.736 67.877L164.873 60.6613C168.798 56.6926 179.002 46.4226 187.547 37.8389C196.092 29.2552 203.084 22.0192 203.084 21.7589C203.084 21.0599 193.577 11.98 192.845 11.98C192.501 11.98 189.331 14.9181 185.801 18.5091C167.217 37.4112 147.638 56.8819 147.214 56.8819C146.949 56.8819 141.628 51.8305 135.39 45.6564C129.152 39.4824 123.854 34.4277 123.617 34.4236C123.38 34.42 113.006 44.6771 100.563 57.2182L77.9399 80.0201L71.8967 74.0864ZM256.061 74.065C252.758 70.8132 250.055 67.9461 250.055 67.6937C250.055 67.1541 271.552 45.5694 272.735 44.9205C273.36 44.5777 273.541 44.6529 273.541 45.2561C273.541 45.6836 268.775 50.8034 262.949 56.6332C257.124 62.4631 252.358 67.4529 252.358 67.7217C252.358 68.2422 261.29 77.157 262.092 77.4366C262.353 77.5277 264.962 75.2597 267.889 72.3966C271.319 69.0429 273.291 67.4145 273.434 67.8193C273.564 68.1887 271.268 70.823 267.861 74.2125L262.067 79.9774L256.061 74.065ZM-2.76151 44.6653C-2.76151 44.2462 2.15476 38.9843 8.16354 32.9723L19.0886 22.0414L13.9309 16.9097L8.77317 11.778L3.30853 17.1481C0.302983 20.1017 -2.29232 22.5182 -2.45881 22.5182C-2.62529 22.5182 -2.76151 22.1916 -2.76151 21.7925C-2.76151 20.8314 7.77129 10.1473 8.71873 10.1473C9.65433 10.1473 20.7242 21.149 20.7242 22.0788C20.7242 22.7457 -1.77576 45.4274 -2.43729 45.4274C-2.61561 45.4274 -2.76151 45.0844 -2.76151 44.6653ZM36.9487 16.8913C27.5187 7.49651 19.8032 -0.338408 19.8032 -0.519601C19.8032 -2.01035 23.5591 1.33204 38.0874 15.7517L54.8133 32.3524L59.9806 27.2111L65.1478 22.07L53.9881 10.9326C47.8503 4.80708 42.8284 -0.349703 42.8284 -0.5269C42.8284 -0.704088 43.1734 -0.84906 43.5951 -0.84906C44.5685 -0.84906 66.7746 21.0847 66.7746 22.0462C66.7746 22.962 55.7071 33.9728 54.7866 33.9728C54.4058 33.9728 46.3788 26.2861 36.9487 16.8913ZM129.05 16.8913C119.62 7.49651 111.904 -0.338408 111.904 -0.519601C111.904 -2.01035 115.66 1.33204 130.188 15.7517L146.914 32.3524L152.081 27.2111L157.249 22.07L145.974 10.7826C139.684 4.48566 134.951 -0.596738 135.268 -0.712841C135.581 -0.827313 136.41 -0.507984 137.11 -0.00322318C139.335 1.60103 158.875 21.3927 158.875 22.0425C158.875 22.9196 147.797 33.9728 146.918 33.9728C146.52 33.9728 138.48 26.2861 129.05 16.8913ZM221.15 16.8913C211.72 7.49651 204.005 -0.338408 204.005 -0.519601C204.005 -2.01033 207.76 1.33168 222.286 15.749L239.01 32.3471L244.072 27.3259C246.856 24.5643 249.134 22.0603 249.134 21.7614C249.134 21.4626 244.275 16.5314 238.335 10.8033C232.396 5.07512 227.429 0.11001 227.298 -0.230301C227.161 -0.584128 227.361 -0.84906 227.765 -0.84906C228.533 -0.84906 250.651 20.4886 250.895 21.4644C251.089 22.2391 239.936 33.9728 239.006 33.9728C238.616 33.9728 230.58 26.2861 221.15 16.8913ZM71.9619 5.90913C66.3082 0.37185 65.333 -0.84906 66.5638 -0.84906C66.9723 -0.84906 69.6735 1.45226 72.5666 4.265L77.8267 9.37908L83.0869 4.265C85.9799 1.45226 88.6812 -0.84906 89.0896 -0.84906C89.6571 -0.84906 89.7287 -0.659931 89.3933 -0.0472404C88.6714 1.27173 78.4778 11.0637 77.8267 11.0637C77.4957 11.0637 74.8565 8.74413 71.9619 5.90913ZM163.572 5.41009C160.482 2.30062 157.954 -0.379749 157.954 -0.54628C157.954 -1.70683 160.125 -0.150835 164.667 4.265L169.928 9.37908L175.188 4.265C179.73 -0.150835 181.901 -1.70683 181.901 -0.54628C181.901 0.120284 170.615 11.0637 169.928 11.0637C169.522 11.0637 166.662 8.51957 163.572 5.41009ZM255.673 5.41009C252.583 2.30062 250.055 -0.379749 250.055 -0.54628C250.055 -1.70683 252.226 -0.150835 256.768 4.265L262.028 9.37908L267.289 4.265C272.256 -0.564354 273.541 -1.51343 273.541 -0.352369C273.541 0.460721 262.863 11.0637 262.044 11.0637C261.63 11.0637 258.763 8.51957 255.673 5.41009Z" fill="#006699"/>
<path d="M273.542 273.541C273.542 272.788 284.259 262.148 285.018 262.148C285.695 262.148 295.875 271.896 296.621 273.259C296.957 273.871 296.885 274.06 296.318 274.06C295.909 274.06 293.208 271.759 290.315 268.946L285.055 263.832L279.795 268.946C274.801 273.801 273.542 274.726 273.542 273.541ZM307.313 262.97C301.15 256.871 296.107 251.558 296.107 251.165C296.107 250.249 307.174 239.238 308.095 239.238C308.766 239.238 343.078 273.069 343.078 273.731C343.078 275.222 339.322 271.879 324.794 257.46L308.068 240.859L302.901 246L297.734 251.141L308.893 262.279C315.031 268.404 320.053 273.561 320.053 273.738C320.053 275.139 317.016 272.572 307.313 262.97ZM365.643 273.782C365.643 273.348 372.027 266.889 374.981 264.335L377.642 262.034L382.963 267.246C388.668 272.834 389.651 274.06 388.422 274.06C388.015 274.06 385.451 271.895 382.724 269.249C379.997 266.603 377.595 264.439 377.386 264.439C377.177 264.439 374.775 266.603 372.048 269.249C367.797 273.374 365.643 274.898 365.643 273.782ZM399.645 263.2C393.608 257.226 388.668 252.047 388.668 251.69C388.668 250.896 399.612 239.238 400.357 239.238C400.921 239.238 435.179 273.171 435.179 273.731C435.179 275.221 431.437 271.893 417.004 257.568L400.387 241.076L396.471 245.083C394.317 247.286 392.054 249.661 391.442 250.361L390.328 251.632L401.241 262.525C407.243 268.515 412.154 273.562 412.154 273.739C412.154 275.134 409.147 272.601 399.645 263.2ZM457.69 273.259C458.292 272.158 468.552 262.148 469.077 262.148C469.31 262.148 472.188 264.828 475.473 268.104C482.81 275.42 482.166 276.32 474.653 269.249C471.842 266.603 469.34 264.439 469.094 264.439C468.848 264.439 466.415 266.603 463.688 269.249C460.961 271.895 458.397 274.06 457.99 274.06C457.426 274.06 457.355 273.871 457.69 273.259ZM491.648 263.178C485.538 257.193 480.359 252.014 480.14 251.669C479.85 251.214 481.367 249.42 485.659 245.14C488.914 241.894 491.804 239.238 492.081 239.238C492.684 239.238 526.181 271.957 526.848 273.198C527.22 273.888 527.153 274.06 526.517 274.06C526.08 274.06 518.202 266.597 509.012 257.476L492.303 240.892L491.026 241.999C487.14 245.368 482.151 250.546 482.151 251.21C482.151 251.631 486.935 256.579 492.782 262.205C503.648 272.661 504.916 274.06 503.522 274.06C503.102 274.06 497.758 269.164 491.648 263.178ZM348.2 257.359C344.877 254.096 342.157 251.191 342.157 250.904C342.157 250.617 352.208 240.213 364.492 227.784C376.776 215.355 386.826 204.949 386.826 204.659C386.826 204.027 377.482 194.795 376.841 194.795C376.595 194.795 366.392 204.898 354.168 217.246C341.944 229.594 331.727 239.697 331.464 239.697C331.202 239.697 326.399 235.315 320.791 229.96C315.183 224.605 310.023 219.718 309.324 219.1L308.053 217.977L291.128 234.793C281.82 244.042 274.055 251.609 273.873 251.609C272.373 251.609 275.763 247.843 290.452 233.194C299.752 223.918 307.678 216.337 308.066 216.346C308.454 216.355 313.841 221.185 320.039 227.08C326.74 233.454 331.522 237.672 331.839 237.487C332.132 237.316 342.15 227.28 354.101 215.184C366.052 203.088 376.18 193.134 376.608 193.063C377.09 192.984 379.654 195.199 383.357 198.896L389.328 204.857L379.444 214.831C374.009 220.317 363.764 230.633 356.679 237.755L343.796 250.704L348.848 255.749C351.627 258.523 354.139 260.737 354.43 260.669C354.722 260.6 364.843 250.544 376.921 238.322C388.999 226.1 399.196 216.029 399.581 215.943C400.002 215.848 404.839 220.306 411.695 227.108C417.973 233.335 423.333 238.355 423.607 238.262C423.882 238.169 433.995 228.093 446.081 215.871C458.167 203.649 468.351 193.471 468.711 193.252C469.195 192.959 470.919 194.397 475.298 198.744C478.56 201.983 481.23 204.844 481.23 205.103C481.23 205.361 471.166 215.736 458.866 228.158C446.566 240.58 436.568 251 436.647 251.314C436.726 251.627 439.034 254.028 441.776 256.649L446.761 261.414L453.972 254.106C476.763 231.006 491.615 216.329 492.198 216.329C492.563 216.329 496.061 219.371 499.97 223.088C503.879 226.805 509.046 231.679 511.451 233.92L515.825 237.995L532.661 221.32C541.986 212.085 549.591 204.898 549.707 205.212C549.823 205.523 549.498 206.364 548.985 207.08C547.651 208.944 516.272 239.697 515.704 239.697C515.444 239.697 510.148 234.841 503.936 228.905C497.724 222.97 492.358 218.176 492.011 218.253C491.664 218.329 481.491 228.391 469.404 240.613C457.318 252.835 447.107 262.892 446.715 262.963C446.308 263.036 443.427 260.522 440.021 257.12L434.04 251.15L441.177 243.934C445.102 239.966 455.305 229.695 463.851 221.112C472.396 212.528 479.388 205.292 479.388 205.032C479.388 204.212 469.741 195.18 469.03 195.335C468.658 195.416 458.564 205.379 446.6 217.475C434.636 229.571 424.455 239.753 423.976 240.101C423.173 240.686 422.192 239.828 411.399 229.105L399.693 217.475L376.968 240.384L354.244 263.293L348.2 257.359ZM531.937 257.163C528.869 253.917 526.359 251.077 526.359 250.851C526.359 250.173 549.341 227.588 549.683 227.929C550.397 228.639 548.286 231.006 538.925 239.993C533.517 245.185 528.876 249.837 528.61 250.33C528.191 251.11 528.786 251.888 533.21 256.339L538.292 261.451L543.765 256.072C546.776 253.114 549.376 250.693 549.542 250.693C549.708 250.693 549.845 251.02 549.845 251.419C549.845 252.414 539.295 263.064 538.309 263.064C537.873 263.064 535.005 260.409 531.937 257.163ZM273.542 227.938C273.542 227.519 278.458 222.257 284.467 216.245L295.392 205.314L290.235 200.183L285.077 195.051L279.612 200.421C276.607 203.375 274.011 205.791 273.845 205.791C273.678 205.791 273.542 205.465 273.542 205.065C273.542 204.104 284.075 193.42 285.022 193.42C285.958 193.42 297.028 204.422 297.028 205.352C297.028 206.019 274.528 228.7 273.866 228.7C273.688 228.7 273.542 228.357 273.542 227.938ZM308.026 195.016C295.712 182.798 285.347 172.802 284.992 172.802C284.637 172.802 282.278 174.878 279.75 177.415C274.728 182.455 273.542 183.365 273.542 182.179C273.542 181.406 282.814 171.674 284.311 170.876C285.062 170.475 286.838 172.047 297.436 182.489C304.177 189.132 314.509 199.306 320.396 205.098L331.101 215.631L336.169 210.604C338.956 207.84 341.235 205.368 341.234 205.112C341.233 204.855 331.131 194.755 318.785 182.667C306.439 170.579 296.158 160.4 295.938 160.047C295.646 159.577 297.121 157.828 301.458 153.504C304.713 150.258 307.647 147.602 307.979 147.602C308.31 147.602 318.837 157.744 331.372 170.139L354.162 192.677L365.335 181.594C371.48 175.498 376.715 170.511 376.969 170.511C377.222 170.511 378.248 171.354 379.25 172.384C380.251 173.414 390.562 183.553 402.164 194.916L423.258 215.575L428.297 210.576C431.069 207.827 433.336 205.368 433.335 205.112C433.334 204.855 423.232 194.755 410.886 182.667C398.539 170.579 388.258 160.4 388.039 160.047C387.747 159.577 389.221 157.828 393.558 153.504C396.814 150.258 399.748 147.602 400.079 147.602C400.411 147.602 410.94 157.746 423.477 170.144L446.272 192.686L457.422 181.598C463.555 175.5 468.788 170.511 469.051 170.511C469.315 170.511 470.349 171.354 471.35 172.384C472.352 173.414 482.663 183.553 494.265 194.916L515.359 215.575L520.398 210.576C523.17 207.827 525.437 205.368 525.436 205.112C525.435 204.855 515.333 194.755 502.986 182.667C490.64 170.579 480.359 160.4 480.14 160.047C479.847 159.577 481.322 157.828 485.659 153.504C488.914 150.258 491.843 147.602 492.167 147.602C492.491 147.602 502.923 157.602 515.349 169.824C527.776 182.046 538.19 192.046 538.492 192.046C538.793 192.046 541.109 189.97 543.637 187.433C548.667 182.385 549.845 181.482 549.845 182.675C549.845 183.619 539.261 194.413 538.507 194.238C538.197 194.166 527.67 184.036 515.114 171.727L492.285 149.347L490.096 151.189C486.135 154.521 482.056 158.918 482.221 159.677C482.309 160.081 492.431 170.25 504.715 182.274C516.999 194.299 527.117 204.406 527.199 204.735C527.387 205.492 516.254 217.246 515.348 217.246C514.979 217.246 504.444 207.106 491.937 194.713L469.197 172.181L458.056 183.259C451.929 189.352 446.638 194.337 446.299 194.337C445.96 194.337 435.454 184.207 422.953 171.826L400.223 149.315L398.014 151.172C394.037 154.519 389.955 158.917 390.12 159.677C390.208 160.081 400.331 170.25 412.614 182.274C424.898 194.299 435.016 204.406 435.098 204.735C435.287 205.493 424.152 217.246 423.244 217.246C422.873 217.246 412.482 207.246 400.153 195.024C387.824 182.802 377.449 172.802 377.097 172.802C376.745 172.802 371.591 177.647 365.643 183.569C359.695 189.491 354.536 194.337 354.178 194.337C353.821 194.337 343.398 184.285 331.017 172C318.635 159.715 308.332 149.604 308.121 149.531C307.91 149.457 305.524 151.499 302.82 154.068C299.519 157.204 297.949 159.013 298.041 159.576C298.117 160.036 308.23 170.251 320.514 182.275C332.798 194.299 342.915 204.406 342.997 204.735C343.19 205.511 332.037 217.248 331.117 217.237C330.73 217.233 320.34 207.233 308.026 195.016ZM347.92 165.484L341.939 159.514L349.076 152.298C353.001 148.329 363.205 138.059 371.75 129.475C380.295 120.892 387.287 113.656 387.287 113.395C387.287 112.696 377.78 103.617 377.048 103.617C376.704 103.617 373.534 106.555 370.003 110.146C351.296 129.175 331.839 148.518 331.408 148.518C331.138 148.518 325.763 143.415 319.464 137.178L308.011 125.838L291.036 142.906C281.7 152.293 273.944 159.973 273.802 159.973C272.484 159.973 275.865 156.207 290.377 141.512C299.636 132.135 307.54 124.392 307.941 124.303C308.399 124.202 312.93 128.377 320.099 135.505L331.526 146.868L336.319 142.081C338.956 139.447 348.962 129.355 358.555 119.653C368.149 109.951 376.283 101.834 376.632 101.616C377.092 101.327 378.885 102.827 383.197 107.107C386.46 110.346 389.129 113.208 389.129 113.466C389.129 113.725 379.065 124.1 366.765 136.522C354.466 148.944 344.467 159.364 344.546 159.677C344.625 159.99 346.933 162.391 349.675 165.012L354.661 169.778L361.871 162.47C385.306 138.718 399.522 124.695 400.152 124.709C400.548 124.718 405.942 129.549 412.139 135.443C418.841 141.817 423.623 146.035 423.94 145.851C424.233 145.68 434.251 135.643 446.202 123.547C458.153 111.451 468.281 101.497 468.709 101.427C469.191 101.347 471.754 103.563 475.458 107.259L481.428 113.22L471.545 123.195C466.109 128.681 455.865 138.996 448.779 146.118L435.897 159.068L440.949 164.112C443.728 166.887 446.24 169.101 446.531 169.032C446.823 168.964 456.944 158.908 469.023 146.686C482.485 133.064 491.369 124.414 491.979 124.335C492.74 124.237 495.562 126.787 504.021 135.217C510.098 141.273 515.279 146.227 515.536 146.227C515.793 146.227 523.254 138.998 532.118 130.163C540.981 121.327 548.596 113.897 549.039 113.652C549.668 113.304 549.845 113.379 549.845 113.997C549.845 114.774 517.737 147.221 516.062 148.136C515.324 148.54 513.644 147.055 503.847 137.336C497.6 131.138 492.286 126.064 492.04 126.06C491.793 126.056 481.41 136.314 468.968 148.855L446.344 171.657L440.301 165.723C436.978 162.459 434.258 159.554 434.258 159.267C434.258 158.98 444.309 148.576 456.593 136.147C468.877 123.719 478.927 113.312 478.927 113.023C478.927 112.39 469.583 103.158 468.942 103.158C468.696 103.158 458.493 113.261 446.269 125.609C434.045 137.957 423.838 148.06 423.587 148.06C423.336 148.06 418.048 143.204 411.836 137.269C405.624 131.334 400.257 126.54 399.91 126.616C399.563 126.692 389.39 136.755 377.304 148.977C365.217 161.199 355.006 171.256 354.614 171.326C354.207 171.399 351.327 168.885 347.92 165.484ZM532.446 165.887C529.225 162.839 526.517 160.027 526.428 159.636C526.273 158.956 547.246 137.552 549.039 136.561C549.666 136.214 549.845 136.288 549.845 136.893C549.845 137.321 544.923 142.603 538.908 148.631L527.971 159.59L533.036 164.349C535.822 166.966 538.313 169.114 538.571 169.122C538.829 169.13 541.109 167.061 543.637 164.524C548.667 159.476 549.845 158.573 549.845 159.766C549.845 160.524 539.427 171.428 538.703 171.428C538.483 171.428 535.668 168.934 532.446 165.887ZM273.542 136.302C273.542 135.883 278.442 130.637 284.43 124.646L295.318 113.752L293.445 111.548C292.414 110.336 290.102 107.903 288.307 106.143L285.043 102.942L279.486 108.549C276.43 111.632 273.842 114.155 273.736 114.155C273.629 114.155 273.542 113.827 273.542 113.426C273.542 112.58 284.478 101.326 285.3 101.326C286.049 101.326 297.028 112.981 297.028 113.776C297.028 114.403 274.489 137.064 273.866 137.064C273.688 137.064 273.542 136.721 273.542 136.302ZM307.716 103.077L285.017 80.5644L279.582 85.905C276.593 88.8423 274.011 91.2456 273.845 91.2456C273.678 91.2456 273.542 90.919 273.542 90.5198C273.542 89.6941 284.008 78.8747 284.807 78.8747C285.094 78.8747 286.148 79.7173 287.149 80.7472C288.15 81.7771 298.461 91.9165 310.063 103.279L331.157 123.939L336.197 118.94C338.968 116.191 341.235 113.732 341.234 113.475C341.233 113.219 331.131 103.119 318.785 91.0307C306.439 78.9425 296.158 68.7634 295.938 68.4106C295.646 67.9404 297.121 66.1919 301.458 61.8672C304.713 58.6213 307.647 55.9655 307.978 55.9655C308.309 55.9655 318.693 65.9654 331.053 78.1874C343.414 90.4094 353.717 100.409 353.948 100.409C354.179 100.409 358.926 95.8595 364.496 90.2987C370.066 84.7378 375.218 79.8745 375.944 79.4912L377.266 78.7945L389.759 91.0871C396.631 97.848 406.967 108.018 412.728 113.687L423.202 123.994L428.27 118.968C431.057 116.203 433.336 113.732 433.335 113.475C433.334 113.219 423.232 103.119 410.886 91.0307C398.539 78.9425 388.258 68.7634 388.039 68.4106C387.747 67.9404 389.221 66.1919 393.558 61.8672C396.814 58.6213 399.748 55.9655 400.079 55.9655C400.411 55.9655 410.94 66.1094 423.477 78.5074L446.272 101.049L457.422 89.962C463.555 83.8639 468.788 78.8747 469.051 78.8747C469.315 78.8747 470.349 79.7173 471.35 80.7472C472.352 81.7771 482.663 91.9165 494.265 103.279L515.359 123.939L520.398 118.94C523.17 116.191 525.437 113.732 525.436 113.475C525.435 113.219 515.333 103.119 502.986 91.0307C490.64 78.9425 480.359 68.7634 480.14 68.4106C479.847 67.9404 481.322 66.1919 485.659 61.8672C488.914 58.6213 491.849 55.9655 492.18 55.9655C492.512 55.9655 503.036 66.1047 515.567 78.4971L538.352 101.029L543.933 95.5643C547.089 92.4744 549.602 90.3461 549.716 90.6662C549.826 90.9775 549.505 91.8022 549.001 92.4989C547.571 94.4776 538.988 102.7 538.353 102.7C538.039 102.7 527.555 92.5702 515.053 80.1892L492.323 57.6783L490.115 59.536C486.138 62.8821 482.055 67.2801 482.221 68.0405C482.309 68.4446 492.431 78.6134 504.715 90.638C516.999 102.662 527.117 112.77 527.199 113.098C527.388 113.857 516.253 125.609 515.345 125.609C514.974 125.609 504.582 115.609 492.253 103.387C479.924 91.1654 469.549 81.1656 469.198 81.1656C468.846 81.1656 463.692 86.0109 457.744 91.9329C451.796 97.8549 446.649 102.7 446.306 102.7C445.963 102.7 435.454 92.5702 422.953 80.1892L400.223 57.6783L398.014 59.536C394.037 62.8821 389.955 67.2801 390.12 68.0405C390.208 68.4446 400.331 78.6134 412.614 90.638C424.898 102.662 435.016 112.77 435.098 113.098C435.29 113.872 424.143 125.609 423.215 125.609C422.828 125.609 413.809 116.936 403.172 106.336C392.536 95.7356 382.23 85.6136 380.271 83.8426L376.709 80.6225L365.644 91.3177C359.558 97.2 354.264 102.081 353.879 102.164C353.458 102.255 344.222 93.44 330.652 79.9951L308.125 57.6753L305.915 59.5345C301.923 62.8935 297.854 67.2795 298.019 68.0459C298.107 68.453 308.23 78.6214 320.514 90.6424C332.798 102.663 342.915 112.768 342.997 113.097C343.19 113.875 332.037 125.612 331.117 125.6C330.73 125.594 320.2 115.46 307.716 103.077ZM348.2 74.0864C344.877 70.8228 342.157 67.9178 342.157 67.6308C342.157 67.3438 352.208 56.9399 364.492 44.511C376.776 32.0821 386.826 21.676 386.826 21.3863C386.826 20.7537 377.482 11.5219 376.841 11.5219C376.595 11.5219 366.392 21.6248 354.168 33.9728C341.944 46.3208 331.727 56.4237 331.464 56.4237C331.202 56.4237 326.399 52.0424 320.791 46.6874C315.183 41.3324 310.023 36.4454 309.324 35.8274L308.053 34.7039L290.973 51.6347C281.481 61.0445 273.799 68.3141 273.682 67.9995C273.565 67.6882 273.886 66.8635 274.394 66.1668C276.144 63.7701 307.42 33.0565 308.095 33.0728C308.467 33.0819 313.841 37.912 320.039 43.8068C326.74 50.1809 331.522 54.3987 331.839 54.2141C332.132 54.0434 342.15 44.007 354.101 31.911C366.052 19.815 376.18 9.86063 376.608 9.79026C377.09 9.7109 379.654 11.9261 383.357 15.623L389.328 21.5837L379.444 31.5583C374.009 37.0443 363.764 47.3599 356.679 54.4819L343.796 67.4311L348.848 72.4759C351.627 75.2505 354.139 77.4645 354.43 77.3958C354.722 77.3272 364.847 67.2712 376.93 55.0492C389.602 42.231 399.246 32.8273 399.718 32.8273C400.169 32.8273 405.757 37.8627 412.136 44.017L423.733 55.2067L428.465 50.4316C431.067 47.8053 441.05 37.7184 450.648 28.0164C460.246 18.3144 468.384 10.1978 468.733 9.97941C469.193 9.6908 470.986 11.1903 475.298 15.471C478.56 18.7097 481.23 21.5711 481.23 21.8296C481.23 22.0881 471.166 32.4632 458.866 44.8853C446.566 57.3074 436.568 67.7273 436.647 68.0406C436.726 68.354 439.034 70.7548 441.776 73.3758L446.761 78.1412L453.972 70.8334C477.236 47.2546 491.622 33.0564 492.25 33.0564C492.643 33.0564 497.991 38.0537 504.134 44.1614L515.302 55.2664L532.242 38.4341C541.56 29.1764 549.332 21.6019 549.514 21.6019C551.014 21.6019 547.623 25.3684 532.935 40.0175C523.635 49.2929 515.707 56.8819 515.317 56.8819C514.928 56.8819 509.637 51.9296 503.56 45.8767C497.484 39.8238 492.257 34.927 491.946 34.9949C491.635 35.0627 481.491 45.1181 469.404 57.3401C457.318 69.5621 447.107 79.6195 446.715 79.6899C446.308 79.7627 443.427 77.2487 440.021 73.8474L434.04 67.877L441.177 60.6613C445.102 56.6926 455.305 46.4226 463.851 37.8389C472.396 29.2552 479.388 22.0192 479.388 21.7589C479.388 21.0599 469.881 11.98 469.149 11.98C468.805 11.98 465.635 14.9181 462.104 18.5091C443.521 37.4112 423.942 56.8819 423.517 56.8819C423.252 56.8819 417.931 51.8305 411.693 45.6564C405.455 39.4824 400.158 34.4277 399.921 34.4236C399.684 34.42 389.31 44.6771 376.867 57.2182L354.244 80.0201L348.2 74.0864ZM532.365 74.065C529.062 70.8132 526.359 67.9461 526.359 67.6937C526.359 67.1541 547.855 45.5694 549.039 44.9205C549.664 44.5777 549.845 44.6529 549.845 45.2561C549.845 45.6836 545.079 50.8034 539.253 56.6332C533.428 62.4631 528.662 67.4529 528.662 67.7217C528.662 68.2422 537.594 77.157 538.395 77.4366C538.657 77.5277 541.266 75.2597 544.193 72.3966C547.622 69.0429 549.595 67.4145 549.737 67.8193C549.867 68.1887 547.571 70.823 544.165 74.2125L538.37 79.9774L532.365 74.065ZM273.542 44.6653C273.542 44.2462 278.458 38.9843 284.467 32.9723L295.392 22.0414L290.235 16.9097L285.077 11.778L279.612 17.1481C276.607 20.1017 274.011 22.5182 273.845 22.5182C273.678 22.5182 273.542 22.1916 273.542 21.7925C273.542 20.8314 284.075 10.1473 285.022 10.1473C285.958 10.1473 297.028 21.149 297.028 22.0788C297.028 22.7457 274.528 45.4274 273.866 45.4274C273.688 45.4274 273.542 45.0844 273.542 44.6653ZM313.252 16.8913C303.822 7.49651 296.107 -0.338408 296.107 -0.519601C296.107 -2.01035 299.863 1.33204 314.391 15.7517L331.117 32.3524L336.284 27.2111L341.452 22.07L330.292 10.9326C324.154 4.80708 319.132 -0.349703 319.132 -0.5269C319.132 -0.704088 319.477 -0.84906 319.899 -0.84906C320.872 -0.84906 343.078 21.0847 343.078 22.0462C343.078 22.962 332.011 33.9728 331.09 33.9728C330.71 33.9728 322.682 26.2861 313.252 16.8913ZM405.353 16.8913C395.923 7.49651 388.208 -0.338408 388.208 -0.519601C388.208 -2.01035 391.964 1.33204 406.492 15.7517L423.218 32.3524L428.385 27.2111L433.552 22.07L422.278 10.7826C415.988 4.48566 411.254 -0.596738 411.572 -0.712841C411.885 -0.827313 412.713 -0.507984 413.414 -0.00322318C415.639 1.60103 435.179 21.3927 435.179 22.0425C435.179 22.9196 424.1 33.9728 423.221 33.9728C422.824 33.9728 414.783 26.2861 405.353 16.8913ZM497.454 16.8913C488.024 7.49651 480.309 -0.338408 480.309 -0.519601C480.309 -2.01033 484.064 1.33168 498.59 15.749L515.313 32.3471L520.376 27.3259C523.16 24.5643 525.438 22.0603 525.438 21.7614C525.438 21.4626 520.578 16.5314 514.639 10.8033C508.7 5.07512 503.733 0.11001 503.601 -0.230301C503.465 -0.584128 503.665 -0.84906 504.069 -0.84906C504.837 -0.84906 526.955 20.4886 527.199 21.4644C527.392 22.2391 516.24 33.9728 515.31 33.9728C514.919 33.9728 506.884 26.2861 497.454 16.8913ZM348.266 5.90913C342.612 0.37185 341.637 -0.84906 342.868 -0.84906C343.276 -0.84906 345.977 1.45226 348.87 4.265L354.13 9.37908L359.391 4.265C362.284 1.45226 364.985 -0.84906 365.393 -0.84906C365.961 -0.84906 366.032 -0.659931 365.697 -0.0472404C364.975 1.27173 354.782 11.0637 354.13 11.0637C353.799 11.0637 351.16 8.74413 348.266 5.90913ZM439.876 5.41009C436.786 2.30062 434.258 -0.379749 434.258 -0.54628C434.258 -1.70683 436.429 -0.150835 440.971 4.265L446.231 9.37908L451.491 4.265C456.033 -0.150835 458.204 -1.70683 458.204 -0.54628C458.204 0.120284 446.919 11.0637 446.231 11.0637C445.825 11.0637 442.965 8.51957 439.876 5.41009ZM531.977 5.41009C528.887 2.30062 526.359 -0.379749 526.359 -0.54628C526.359 -1.70683 528.53 -0.150835 533.072 4.265L538.332 9.37908L543.592 4.265C548.56 -0.564354 549.845 -1.51343 549.845 -0.352369C549.845 0.460721 539.167 11.0637 538.348 11.0637C537.933 11.0637 535.066 8.51957 531.977 5.41009Z" fill="#006699"/>
</g>
</svg>
