<svg width="20" height="20" viewBox="0 0 20 20" fill="none" xmlns="http://www.w3.org/2000/svg">
<g opacity="0.7">
<path d="M8.5417 1.66699C9.84833 1.66685 11.1279 2.03906 12.2306 2.74002C13.3333 3.44098 14.2134 4.44166 14.7679 5.62483C15.3223 6.80801 15.5281 8.12468 15.3611 9.42059C15.1941 10.7165 14.6613 11.938 13.825 12.942L18.5667 17.6837C18.649 17.7601 18.7091 17.8572 18.7408 17.9649C18.7725 18.0726 18.7745 18.1869 18.7467 18.2957C18.7189 18.4044 18.6623 18.5037 18.5828 18.583C18.5033 18.6623 18.4039 18.7186 18.295 18.7462C18.1864 18.774 18.0722 18.7721 17.9646 18.7405C17.857 18.709 17.7598 18.6491 17.6834 18.567L12.9417 13.8253C12.0932 14.5318 11.0871 15.0235 10.0084 15.2589C8.92968 15.4943 7.81015 15.4665 6.7445 15.1777C5.67884 14.8889 4.69841 14.3477 3.88613 13.5999C3.07385 12.8521 2.45362 11.9197 2.07791 10.8815C1.7022 9.84332 1.58205 8.72991 1.72763 7.63546C1.87322 6.54102 2.28025 5.49773 2.9143 4.59386C3.54834 3.68998 4.39076 2.95211 5.37028 2.44265C6.3498 1.93319 7.43761 1.66714 8.5417 1.66699ZM2.9167 8.54199C2.9167 9.28068 3.06219 10.0121 3.34487 10.6946C3.62756 11.377 4.04189 11.9971 4.56422 12.5195C5.08655 13.0418 5.70665 13.4561 6.3891 13.7388C7.07156 14.0215 7.80301 14.167 8.5417 14.167C9.28038 14.167 10.0118 14.0215 10.6943 13.7388C11.3767 13.4561 11.9968 13.0418 12.5192 12.5195C13.0415 11.9971 13.4558 11.377 13.7385 10.6946C14.0212 10.0121 14.1667 9.28068 14.1667 8.54199C14.1667 7.05015 13.5741 5.61941 12.5192 4.56452C11.4643 3.50962 10.0335 2.91699 8.5417 2.91699C7.04985 2.91699 5.61911 3.50962 4.56422 4.56452C3.50933 5.61941 2.9167 7.05015 2.9167 8.54199Z" fill="#0B150F" fill-opacity="0.6"/>
</g>
</svg>
