<svg width="18" height="18" viewBox="0 0 18 18" fill="none" xmlns="http://www.w3.org/2000/svg">
<g opacity="0.6">
<path d="M7.14268 1.05903C7.32462 0.953828 7.53106 0.898438 7.74122 0.898438C7.95138 0.898438 8.15782 0.953828 8.33976 1.05903L13.9831 4.31644C14.0536 4.35748 14.1192 4.40399 14.1787 4.45735C14.2484 4.47264 14.3142 4.50229 14.3718 4.54443C14.4293 4.58656 14.4775 4.64024 14.5132 4.70204C14.5488 4.76384 14.5712 4.8324 14.5789 4.90334C14.5865 4.97428 14.5793 5.04604 14.5577 5.11403C14.5734 5.19133 14.5816 5.27136 14.5816 5.35344V7.63267C14.5816 7.76874 14.5276 7.89923 14.4314 7.99544C14.3352 8.09165 14.2047 8.1457 14.0686 8.1457C13.9325 8.1457 13.8021 8.09165 13.7058 7.99544C13.6096 7.89923 13.5556 7.76874 13.5556 7.63267V5.84732L8.25425 8.90773V15.9164C8.25431 16.0065 8.23065 16.095 8.18564 16.1731C8.14064 16.2511 8.07588 16.3159 7.99788 16.361C7.91988 16.406 7.83139 16.4298 7.7413 16.4298C7.65122 16.4298 7.56272 16.4061 7.4847 16.361L1.49934 12.9053C1.31741 12.8002 1.16633 12.6492 1.06127 12.4673C0.956207 12.2854 0.900864 12.079 0.900799 11.8689V5.35276C0.900799 5.27136 0.909007 5.19133 0.92474 5.11334C0.902995 5.04535 0.895698 4.97357 0.903317 4.90259C0.910936 4.83162 0.933302 4.76302 0.968981 4.70119C1.00466 4.63936 1.05287 4.58567 1.11051 4.54356C1.16815 4.50146 1.23395 4.47186 1.3037 4.45666C1.3639 4.40331 1.42956 4.35679 1.49934 4.31644L7.14268 1.05903ZM7.74122 8.01779V8.01847L13.0425 4.95807L7.82673 1.94691C7.80077 1.93177 7.77127 1.92379 7.74122 1.92379C7.71117 1.92379 7.68167 1.93177 7.65571 1.94691L2.43989 4.95807L7.74122 8.01779ZM1.92686 5.84595V11.8676C1.92686 11.9291 1.9597 11.9852 2.01237 12.0153L7.22819 15.0265V8.90636L1.92686 5.84595Z" fill="#0B150F"/>
<path d="M15.5024 12.5949L13.5228 10.7466C13.4711 10.7013 13.429 10.6461 13.3991 10.5842C13.3691 10.5224 13.3519 10.4551 13.3484 10.3865C13.345 10.3178 13.3554 10.2492 13.379 10.1846C13.4026 10.12 13.4389 10.0609 13.4858 10.0106C13.5327 9.96037 13.5892 9.92006 13.652 9.89208C13.7148 9.8641 13.7826 9.84902 13.8513 9.84775C13.92 9.84647 13.9883 9.85901 14.0521 9.88464C14.1159 9.91026 14.1738 9.94844 14.2226 9.99691L17.1544 12.7331C17.2058 12.7811 17.2467 12.8391 17.2747 12.9036C17.3027 12.9681 17.3172 13.0376 17.3172 13.1079C17.3172 13.1782 17.3027 13.2478 17.2747 13.3123C17.2467 13.3768 17.2058 13.4348 17.1544 13.4828L14.2226 16.219C14.1738 16.2674 14.1159 16.3056 14.0521 16.3312C13.9883 16.3569 13.92 16.3694 13.8513 16.3681C13.7826 16.3669 13.7148 16.3518 13.652 16.3238C13.5892 16.2958 13.5327 16.2555 13.4858 16.2053C13.4389 16.155 13.4026 16.0958 13.379 16.0313C13.3554 15.9667 13.345 15.8981 13.3484 15.8294C13.3519 15.7608 13.3691 15.6935 13.3991 15.6316C13.429 15.5698 13.4711 15.5145 13.5228 15.4693L15.5024 13.621H10.9652C10.8291 13.621 10.6986 13.5669 10.6024 13.4707C10.5062 13.3745 10.4521 13.244 10.4521 13.1079C10.4521 12.9719 10.5062 12.8414 10.6024 12.7452C10.6986 12.649 10.8291 12.5949 10.9652 12.5949H15.5024Z" fill="#0B150F"/>
</g>
</svg>
