<svg width="20" height="20" viewBox="0 0 20 20" fill="none" xmlns="http://www.w3.org/2000/svg">
<path d="M4.35012 6.85012C4.29207 6.90809 4.24601 6.97694 4.21459 7.05272C4.18317 7.12851 4.16699 7.20975 4.16699 7.29179C4.16699 7.37383 4.18317 7.45507 4.21459 7.53085C4.24601 7.60664 4.29207 7.67548 4.35012 7.73345L9.55845 12.9418C9.61643 12.9998 9.68527 13.0459 9.76106 13.0773C9.83684 13.1087 9.91808 13.1249 10.0001 13.1249C10.0822 13.1249 10.1634 13.1087 10.2392 13.0773C10.315 13.0459 10.3838 12.9998 10.4418 12.9418L15.6501 7.73345C15.7081 7.67545 15.7541 7.6066 15.7855 7.53082C15.8169 7.45503 15.8331 7.37381 15.8331 7.29179C15.8331 7.20976 15.8169 7.12854 15.7855 7.05276C15.7541 6.97698 15.7081 6.90812 15.6501 6.85012C15.5921 6.79212 15.5233 6.74611 15.4475 6.71472C15.3717 6.68333 15.2905 6.66718 15.2085 6.66718C15.1264 6.66718 15.0452 6.68333 14.9694 6.71472C14.8936 6.74611 14.8248 6.79212 14.7668 6.85012L10.0001 11.616L5.23345 6.85012C5.17548 6.79207 5.10664 6.74601 5.03085 6.71459C4.95507 6.68317 4.87383 6.66699 4.79179 6.66699C4.70975 6.66699 4.62851 6.68317 4.55272 6.71459C4.47694 6.74601 4.40809 6.79207 4.35012 6.85012Z" fill="white" fill-opacity="0.3"/>
<path d="M4.02984 6.97612C4.07133 6.87605 4.13214 6.78514 4.2088 6.7086L4.35012 6.85012L4.2086 6.7088C4.28514 6.63215 4.37605 6.57133 4.47612 6.52984C4.57619 6.48835 4.68346 6.46699 4.79179 6.46699C4.90012 6.46699 5.00738 6.48835 5.10745 6.52984C5.20748 6.57131 5.29834 6.63208 5.37486 6.70869C5.3749 6.70872 5.37494 6.70876 5.37498 6.7088L10.0001 11.3331L14.6254 6.7087L4.02984 6.97612ZM4.02984 6.97612C3.98835 7.07619 3.96699 7.18346 3.96699 7.29179C3.96699 7.40012 3.98835 7.50738 4.02984 7.60745C4.07133 7.70751 4.13213 7.7984 4.20876 7.87494L4.02984 6.97612ZM4.2088 7.87498L9.41693 13.0831L4.2088 7.87498ZM10.5832 13.0832L10.5833 13.0831L10.4418 12.9418L10.5832 13.0832Z" stroke="white" stroke-opacity="0.3" stroke-width="0.4"/>
</svg>
