<svg width="24" height="24" viewBox="0 0 24 24" fill="none" xmlns="http://www.w3.org/2000/svg">
<path d="M18.7798 15.7802C18.8494 15.7107 18.9047 15.6281 18.9424 15.5371C18.9801 15.4462 18.9995 15.3487 18.9995 15.2502C18.9995 15.1518 18.9801 15.0543 18.9424 14.9634C18.9047 14.8724 18.8494 14.7898 18.7798 14.7202L12.5298 8.47024C12.4602 8.40058 12.3776 8.34531 12.2866 8.30761C12.1957 8.2699 12.0982 8.25049 11.9998 8.25049C11.9013 8.25049 11.8038 8.2699 11.7129 8.30761C11.6219 8.34531 11.5393 8.40058 11.4698 8.47024L5.21976 14.7202C5.15016 14.7898 5.09495 14.8725 5.05728 14.9634C5.01961 15.0543 5.00022 15.1518 5.00022 15.2502C5.00022 15.3487 5.01961 15.4461 5.05728 15.5371C5.09495 15.628 5.15016 15.7106 5.21976 15.7802C5.28936 15.8498 5.37198 15.9051 5.46292 15.9427C5.55386 15.9804 5.65133 15.9998 5.74976 15.9998C5.84819 15.9998 5.94565 15.9804 6.03659 15.9427C6.12753 15.9051 6.21016 15.8498 6.27976 15.7802L11.9998 10.0612L17.7198 15.7802C17.7893 15.8499 17.8719 15.9052 17.9629 15.9429C18.0538 15.9806 18.1513 16 18.2498 16C18.3482 16 18.4457 15.9806 18.5366 15.9429C18.6276 15.9052 18.7102 15.8499 18.7798 15.7802Z" fill="#0B150F" fill-opacity="0.5"/>
<path d="M18.9211 15.9218C19.0093 15.8336 19.0794 15.729 19.1271 15.6137L12.5298 8.47024C12.4602 8.40058 12.3776 8.34531 12.2866 8.30761C12.1957 8.2699 12.0982 8.25049 11.9998 8.25049C11.9013 8.25049 11.8038 8.2699 11.7129 8.30761C11.6219 8.34531 11.5393 8.40058 11.4698 8.47024L11.3283 8.32882L11.3282 8.32892L5.07833 14.5788L5.21976 14.7202L5.07833 14.5788C4.99016 14.667 4.92022 14.7717 4.8725 14.8869L5.05728 14.9634L4.8725 14.8869C4.82478 15.0021 4.80022 15.1256 4.80022 15.2502C4.80022 15.3749 4.82478 15.4984 4.8725 15.6136L5.05728 15.5371L4.8725 15.6136C4.92022 15.7288 4.99016 15.8335 5.07833 15.9217C5.16651 16.0098 5.27118 16.0798 5.38638 16.1275C5.50159 16.1752 5.62506 16.1998 5.74976 16.1998C5.87445 16.1998 5.99792 16.1752 6.11313 16.1275C6.22833 16.0798 6.33301 16.0098 6.42118 15.9217L11.9998 10.3441L17.5782 15.9216C17.5783 15.9216 17.5783 15.9216 17.5783 15.9217C17.6665 16.0099 17.7711 16.0799 17.8863 16.1276C18.0015 16.1754 18.125 16.2 18.2498 16.2C18.3745 16.2 18.498 16.1754 18.6132 16.1276C18.7285 16.0799 18.8331 16.0098 18.9213 15.9216L18.7798 15.7802L18.9211 15.9218ZM18.9211 14.5787L12.6713 8.32892L18.7798 14.7202L18.9212 14.5788L18.9211 14.5788C18.9211 14.5787 18.9211 14.5787 18.9211 14.5787Z" stroke="#0B150F" stroke-opacity="0.5" stroke-width="0.4"/>
</svg>
