<svg width="96" height="24" viewBox="0 0 96 24" fill="none" xmlns="http://www.w3.org/2000/svg">
<path d="M14.96 11.84V11.71C15.55 11.42 16.57 10.67 16.57 9.13C16.56 7.1 14.57 6 12.9 6H8V17.99H13.06C14.47 17.99 17 17.24 17 14.66C17 12.68 15.42 12.01 14.96 11.84ZM10.5 8.5H12.92C13.6 8.5 14.05 8.9 14.05 9.49C14.05 9.96 13.74 10.5 12.85 10.5H10.5V8.5ZM12.88 15.5H10.5V13.5H12.82C13.91 13.5 14.07 14.13 14.07 14.51C14.07 14.88 13.91 15.5 12.88 15.5Z" fill="#0B150F" fill-opacity="0.6"/>
<path d="M31 18V16H33.375L36.562 8H34V6H41V8H38.729L35.521 16H38V18H31Z" fill="#0B150F" fill-opacity="0.6"/>
<path d="M55 19V17.6071H65.8327V19H55ZM60.4164 16.2143C59.2426 16.2143 58.2528 15.8113 57.4468 15.0053C56.6408 14.1993 56.2378 13.2094 56.2378 12.0357V6H58.0949V12.0357C58.0949 12.6808 58.3206 13.2289 58.7719 13.6802C59.2231 14.1315 59.7713 14.3571 60.4164 14.3571C61.0614 14.3571 61.6096 14.1315 62.0609 13.6802C62.5121 13.2289 62.7378 12.6808 62.7378 12.0357V6H64.5949V12.0357C64.5949 13.2094 64.1919 14.1993 63.3859 15.0053C62.5799 15.8113 61.5901 16.2143 60.4164 16.2143Z" fill="#0B150F" fill-opacity="0.6"/>
<path d="M79 19V17.6072H89.8327V19H79Z" fill="#007FFF"/>
<path d="M79 16L81.0625 10.5L83.125 5H85.0962L89.2212 16H87.3193L86.3337 13.1818H81.9106L80.9019 16H79ZM82.4606 11.6H85.7606L84.1568 7.1538H84.0644L82.4606 11.6Z" fill="#0B150F" fill-opacity="0.6"/>
</svg>
