<svg width="24" height="24" viewBox="0 0 24 24" fill="none" xmlns="http://www.w3.org/2000/svg">
<path d="M18.78 15.7802C18.8497 15.7107 18.9049 15.6281 18.9426 15.5371C18.9803 15.4462 18.9998 15.3487 18.9998 15.2502C18.9998 15.1518 18.9803 15.0543 18.9426 14.9634C18.9049 14.8724 18.8497 14.7898 18.78 14.7202L12.53 8.47024C12.4604 8.40058 12.3778 8.34531 12.2869 8.30761C12.1959 8.2699 12.0985 8.25049 12 8.25049C11.9016 8.25049 11.8041 8.2699 11.7131 8.30761C11.6222 8.34531 11.5396 8.40058 11.47 8.47024L5.22 14.7202C5.1504 14.7898 5.09519 14.8725 5.05752 14.9634C5.01985 15.0543 5.00047 15.1518 5.00047 15.2502C5.00047 15.3487 5.01985 15.4461 5.05752 15.5371C5.09519 15.628 5.1504 15.7106 5.22 15.7802C5.2896 15.8498 5.37223 15.9051 5.46317 15.9427C5.5541 15.9804 5.65157 15.9998 5.75 15.9998C5.84843 15.9998 5.9459 15.9804 6.03683 15.9427C6.12777 15.9051 6.2104 15.8498 6.28 15.7802L12 10.0612L17.72 15.7802C17.7896 15.8499 17.8722 15.9052 17.9631 15.9429C18.0541 15.9806 18.1516 16 18.25 16C18.3485 16 18.4459 15.9806 18.5369 15.9429C18.6278 15.9052 18.7104 15.8499 18.78 15.7802Z" fill="#0B150F" fill-opacity="0.5"/>
<path d="M18.9213 15.9218C19.0096 15.8336 19.0796 15.729 19.1274 15.6137L12.53 8.47024C12.4604 8.40058 12.3778 8.34531 12.2869 8.30761C12.1959 8.2699 12.0985 8.25049 12 8.25049C11.9016 8.25049 11.8041 8.2699 11.7131 8.30761C11.6222 8.34531 11.5396 8.40058 11.47 8.47024L11.3286 8.32882L11.3285 8.32892L5.07858 14.5788L5.22 14.7202L5.07858 14.5788C4.99041 14.667 4.92046 14.7717 4.87275 14.8869L5.05752 14.9634L4.87275 14.8869C4.82503 15.0021 4.80047 15.1256 4.80047 15.2502C4.80047 15.3749 4.82503 15.4984 4.87275 15.6136L5.05752 15.5371L4.87275 15.6136C4.92046 15.7288 4.99041 15.8335 5.07858 15.9217C5.16675 16.0098 5.27143 16.0798 5.38663 16.1275C5.50183 16.1752 5.62531 16.1998 5.75 16.1998C5.8747 16.1998 5.99817 16.1752 6.11337 16.1275C6.22857 16.0798 6.33325 16.0098 6.42142 15.9217L12 10.3441L17.5785 15.9216C17.5785 15.9216 17.5786 15.9216 17.5786 15.9217C17.6667 16.0099 17.7713 16.0799 17.8865 16.1276C18.0017 16.1754 18.1253 16.2 18.25 16.2C18.3747 16.2 18.4983 16.1754 18.6135 16.1276C18.7287 16.0799 18.8334 16.0098 18.9215 15.9216L18.78 15.7802L18.9213 15.9218ZM18.9213 14.5787L12.6715 8.32892L18.78 14.7202L18.9214 14.5788L18.9214 14.5788C18.9213 14.5787 18.9213 14.5787 18.9213 14.5787Z" stroke="#0B150F" stroke-opacity="0.5" stroke-width="0.4"/>
</svg>
