<svg width="16" height="16" viewBox="0 0 16 16" fill="none" xmlns="http://www.w3.org/2000/svg">
<path d="M13.6601 8.36519C13.6601 8.74548 13.4147 9.0841 12.988 9.29769L4.43402 13.5747C4.22564 13.6789 4.02247 13.731 3.83492 13.731C3.56351 13.731 3.32439 13.6164 3.1728 13.4137C3.04308 13.2361 2.91805 12.9287 3.06913 12.4286L4.03288 9.21434C4.06414 9.12056 4.08498 9.00648 4.0954 8.88614H9.37263C9.65915 8.88614 9.89358 8.65171 9.89358 8.36519C9.89358 8.07866 9.65915 7.84424 9.37263 7.84424H4.0954C4.0866 7.73288 4.06564 7.62283 4.03288 7.51604L3.06913 4.30177C2.91805 3.80166 3.04308 3.4943 3.17332 3.31718C3.42858 2.97335 3.91307 2.89521 4.43402 3.15568L12.9885 7.43269C13.4152 7.64628 13.6601 7.98489 13.6601 8.36519Z" fill="white"/>
</svg>
