<svg width="20" height="20" viewBox="0 0 20 20" fill="none" xmlns="http://www.w3.org/2000/svg">
<path d="M15.9892 2.9899C15.5594 2.56015 14.9765 2.31872 14.3688 2.31872C13.761 2.31872 13.1781 2.56015 12.7483 2.9899L4.64585 11.0916C3.94258 11.7948 3.54749 12.7487 3.54749 13.7432C3.54749 14.7378 3.94258 15.6916 4.64585 16.3949C5.34911 17.0982 6.30294 17.4933 7.29751 17.4933C8.29208 17.4933 9.24591 17.0982 9.94918 16.3949L17.1675 9.17657C17.2853 9.06266 17.4432 8.99959 17.6071 9.00093C17.7709 9.00228 17.9277 9.06794 18.0437 9.18376C18.1596 9.29959 18.2254 9.45632 18.2269 9.62019C18.2284 9.78406 18.1655 9.94197 18.0517 10.0599L10.8333 17.2791C9.89309 18.2041 8.62538 18.7202 7.30636 18.7148C5.98734 18.7094 4.72388 18.1831 3.79119 17.2504C2.85849 16.3177 2.33213 15.0542 2.32676 13.7352C2.32139 12.4162 2.83744 11.1485 3.76251 10.2082L11.865 2.10573C12.3026 1.65755 12.8513 1.33354 13.4551 1.16678C14.0589 1.00003 14.6961 0.996501 15.3017 1.15656C15.9073 1.31611 16.4598 1.63353 16.9027 2.0764C17.3455 2.51928 17.663 3.07174 17.8225 3.6774C17.9826 4.28299 17.979 4.9202 17.8123 5.52398C17.6455 6.12776 17.3215 6.67647 16.8733 7.11406L9.21251 14.7749C8.80251 15.1875 8.24581 15.4209 7.66418 15.4241C7.37663 15.4227 7.09218 15.3646 6.82708 15.2532C6.56197 15.1418 6.32142 14.9793 6.11918 14.7749C5.95585 14.6116 5.83751 14.3832 5.76085 14.1699C5.66946 13.9171 5.62211 13.6504 5.62085 13.3816C5.62085 12.7982 5.85751 12.2374 6.26668 11.8282L13.0433 5.0524C13.1197 4.97013 13.2169 4.90998 13.3246 4.87831C13.4323 4.84663 13.5466 4.84459 13.6554 4.8724C13.7641 4.90021 13.8634 4.95684 13.9427 5.03633C14.0219 5.11582 14.0783 5.21522 14.1058 5.32406C14.1337 5.43271 14.1318 5.54685 14.1002 5.65449C14.0687 5.76213 14.0087 5.85928 13.9267 5.93573L7.15085 12.7124C6.97329 12.89 6.87272 13.1304 6.87085 13.3816C6.87335 13.5516 6.91501 13.7191 6.99251 13.8707C7.00085 13.8857 7.00751 13.8941 7.00918 13.8974C7.19251 14.0766 7.42668 14.1741 7.66418 14.1741C7.90585 14.1741 8.14751 14.0732 8.32918 13.8907L15.9892 6.23073C16.2021 6.01792 16.371 5.76524 16.4862 5.48713C16.6015 5.20902 16.6608 4.91093 16.6608 4.6099C16.6608 4.30886 16.6015 4.01077 16.4862 3.73267C16.371 3.45456 16.2021 3.20188 15.9892 2.98906V2.9899Z" fill="#0B150F"/>
</svg>
