<svg width="100" height="30" viewBox="0 0 100 30" fill="none" xmlns="http://www.w3.org/2000/svg">
<path fill-rule="evenodd" clip-rule="evenodd" d="M57.672 4.19972C55.1095 4.68892 51.8558 6.77339 50.6007 8.72967L50.2963 9.20372L51.0729 9.96235C51.5 10.3795 51.8967 10.8397 51.9543 10.985C52.0373 11.1943 52.1234 11.1577 52.3686 10.8089C53.1321 9.72356 54.8001 8.16069 55.7248 7.66445C57.6638 6.62388 60.1742 6.29687 62.1525 6.82728C63.5611 7.20501 65.1822 8.16421 66.2862 9.2731L67.2993 10.2908L67.8772 9.84683C68.1951 9.60276 68.7045 9.35288 69.0091 9.29142C69.3136 9.23014 69.5629 9.12413 69.5629 9.0558C69.5629 8.71663 67.4719 6.67161 66.3585 5.92178C63.9331 4.28847 60.6332 3.63427 57.672 4.19972ZM38.8672 10.6141C38.6749 10.6984 38.3843 10.9165 38.2217 11.0987C37.9934 11.3544 35.9196 17.9641 35.3428 20.2741C35.2453 20.664 35.2702 20.6703 36.8875 20.6703H38.5311L39.1196 18.4251C39.4434 17.1901 39.7818 15.9104 39.8717 15.5811C40.0351 14.9826 40.0358 14.9836 41.3941 17.6062C42.91 20.5333 43.3224 20.9408 44.609 20.7825C45.6745 20.6515 45.8681 20.4 47.8549 16.5674C48.3469 15.6184 48.7493 14.966 48.7493 15.1176C48.7493 15.2692 48.9804 16.2438 49.263 17.2833C49.5455 18.323 49.8633 19.5102 49.9693 19.9219L50.162 20.6703H51.817C52.727 20.6703 53.4705 20.6108 53.4689 20.5383C53.4674 20.4657 52.8814 18.3855 52.1669 15.9157C51.0143 11.9313 50.8074 11.3706 50.3306 10.9409C49.9782 10.6234 49.5985 10.4568 49.2275 10.4574C48.1427 10.4586 47.7065 10.936 46.0383 13.9478C45.1725 15.5107 44.4248 16.7881 44.3767 16.7862C44.3286 16.7842 43.6203 15.5533 42.8026 14.0508C41.9849 12.5482 41.1466 11.1581 40.9395 10.9614C40.5217 10.5644 39.4074 10.3776 38.8672 10.6141ZM68.7088 10.7439C67.9058 11.31 67.8138 11.8959 67.8138 16.4384V20.6703H70.9532L71.0496 15.2361L74.0485 17.9454C75.6978 19.4354 77.2482 20.7052 77.4935 20.7672C77.7389 20.8292 78.219 20.7871 78.5606 20.6737C79.6912 20.2979 79.7073 20.2204 79.7073 15.172V10.6328H76.7339V13.4699C76.7339 16.1881 76.7212 16.2922 76.4279 15.9559C75.8888 15.3376 70.8773 10.8698 70.4869 10.6593C69.9531 10.3718 69.1846 10.4082 68.7088 10.7439ZM80.5818 20.6703H83.8935L83.9925 16.8134L88.365 20.6637L90.6825 20.667C92.0597 20.6689 93 20.6013 93 20.5001C93 20.3345 88.3283 16.4748 87.3529 15.8345C87.0848 15.6584 86.888 15.4549 86.9156 15.3819C86.9433 15.3089 88.2388 14.2919 89.7947 13.1219C91.3507 11.9519 92.6736 10.9131 92.7347 10.8136C92.8087 10.6933 92.0639 10.6328 90.5104 10.6328H88.1751L83.905 14.3252V10.6328H80.5818V20.6703ZM65.9009 22.1719C63.9976 24.0694 60.9314 24.9319 58.159 24.3499C56.9257 24.0909 55.3016 23.3037 54.4059 22.5308C53.6876 21.911 53.6585 21.903 52.0884 21.903C51.2139 21.903 50.4984 21.9747 50.4984 22.0624C50.4984 22.3278 51.6394 23.617 52.6282 24.4686C53.721 25.41 55.5826 26.3675 57.0503 26.7431C58.3946 27.0872 61.44 27.0852 62.8966 26.7396C64.6047 26.3342 66.6131 25.1947 67.9772 23.8572C68.6287 23.2183 69.2549 22.5171 69.3686 22.2993C69.5706 21.9118 69.5545 21.903 68.6404 21.903C68.0895 21.903 67.5665 21.7968 67.3663 21.6445C66.8772 21.2721 66.7621 21.3135 65.9009 22.1719Z" fill="white"/>
<path fill-rule="evenodd" clip-rule="evenodd" d="M57.6725 4.19972C55.1099 4.68892 51.8562 6.77339 50.6011 8.72967L50.2968 9.20372L51.0733 9.96235C51.5004 10.3795 51.8971 10.8397 51.9547 10.985C52.0377 11.1943 52.1238 11.1577 52.369 10.8089C53.1325 9.72356 54.8005 8.16069 55.7252 7.66445C57.6642 6.62388 60.1746 6.29687 62.153 6.82728C63.5615 7.20501 65.1826 8.16421 66.2866 9.2731L67.2997 10.2908L67.8776 9.84683C68.1955 9.60276 68.7049 9.35288 69.0095 9.29142C69.3141 9.23014 69.5633 9.12413 69.5633 9.0558C69.5633 8.71663 67.4723 6.67161 66.3589 5.92178C63.9335 4.28847 60.6336 3.63427 57.6725 4.19972ZM65.9013 22.1719C63.998 24.0694 60.9318 24.9319 58.1594 24.3499C56.9261 24.0909 55.302 23.3037 54.4063 22.5308C53.688 21.911 53.6589 21.903 52.0888 21.903C51.2143 21.903 50.4988 21.9747 50.4988 22.0624C50.4988 22.3278 51.6398 23.617 52.6286 24.4686C53.7214 25.41 55.583 26.3675 57.0507 26.7431C58.395 27.0872 61.4404 27.0852 62.897 26.7396C64.6051 26.3342 66.6135 25.1947 67.9776 23.8572C68.6291 23.2183 69.2553 22.5171 69.369 22.2993C69.571 21.9118 69.5549 21.903 68.6409 21.903C68.0899 21.903 67.5669 21.7968 67.3667 21.6445C66.8776 21.2721 66.7626 21.3135 65.9013 22.1719Z" fill="#007FFF"/>
<path fill-rule="evenodd" clip-rule="evenodd" d="M13.944 10.892C13.3888 11.272 12.323 12.6984 8.43522 18.2652C7.72038 19.2887 7.08478 20.2593 7.02269 20.4224C6.92107 20.6888 7.10122 20.7186 8.81108 20.7186H10.7126L12.869 17.6369C14.0551 15.9419 15.0772 14.5583 15.1403 14.5622C15.2035 14.5662 15.7465 15.2992 16.3472 16.1911L17.4393 17.813L13.506 17.929L12.5806 19.2578C12.0716 19.9888 11.6858 20.6175 11.7231 20.6552C11.7605 20.6927 14.405 20.7026 17.6 20.677L23.4089 20.6305L20.3303 16.14C18.637 13.6703 17.0261 11.4206 16.7507 11.141C16.0374 10.4172 14.7984 10.3073 13.944 10.892ZM23.8154 11.855C23.3398 12.5006 22.8861 13.1379 22.8071 13.2709C22.6866 13.4736 23.2356 13.5045 26.186 13.4618C29.0116 13.4207 29.646 13.4533 29.3908 13.6264C27.986 14.5793 23.4276 18.4429 23.2412 18.8387C22.936 19.4859 23.2293 20.2576 23.8841 20.5303C24.1969 20.6605 26.0402 20.7089 29.4873 20.6776L34.6248 20.6305L35.6371 17.8591L32.2242 17.9299C29.6764 17.9825 28.8666 17.95 29.0293 17.8012C29.1493 17.6916 30.5569 16.5609 32.1574 15.2884C33.758 14.0159 35.1156 12.8486 35.1745 12.694C35.4173 12.0572 35.2779 11.4079 34.8207 11.046C34.3798 10.6967 34.1515 10.681 29.5199 10.681H24.6799L23.8154 11.855Z" fill="#007FFF"/>
<g clip-path="url(#clip0_1_622)">
<path d="M62.8883 22.3149C62.8218 22.3121 62.7563 22.2983 62.6943 22.2741C62.0195 22.0426 61.3264 21.8696 60.6223 21.7569C60.4178 21.7249 60.2111 21.7091 60.0042 21.7097C59.6215 21.7125 59.2404 21.7586 58.868 21.847C58.3479 21.9672 57.8405 22.1132 57.4142 22.2398C57.2933 22.2775 57.1677 22.2977 57.0412 22.2999C56.9591 22.301 56.8772 22.2902 56.7982 22.2677C56.4984 22.2001 56.2191 22.061 55.9839 21.8621C55.9476 21.8277 55.9157 21.7934 55.8837 21.7569L55.8368 21.7054C55.808 21.6749 55.79 21.6357 55.7856 21.5938C55.7492 21.5849 55.7141 21.5712 55.6812 21.553C55.5192 21.4564 55.355 21.3427 55.1994 21.2418L55.1803 21.2289C55.1008 21.1777 55.0336 21.1093 54.9835 21.0288C54.9333 20.9483 54.9015 20.8576 54.8904 20.7632C54.8776 20.6559 54.8669 20.5486 54.8541 20.4456L54.8413 20.3125C54.8403 20.3083 54.8403 20.3039 54.8413 20.2996C54.7872 19.7812 54.9138 19.26 55.1994 18.8252C55.2864 18.7061 55.3834 18.5948 55.4893 18.4925C55.5341 18.4475 55.5767 18.4045 55.6172 18.3595C55.6491 18.3242 55.6925 18.3018 55.7396 18.2963C55.7866 18.2907 55.834 18.3025 55.873 18.3294L55.937 18.3745L56.0329 18.4389L56.1715 18.529L56.6319 18.8273C56.7419 18.8844 56.8275 18.9797 56.8728 19.0956C56.89 19.1113 56.9094 19.1243 56.9303 19.1343L57.1435 19.248C57.3993 19.3854 57.6657 19.5249 57.9322 19.6386C58.2668 19.7807 58.5476 20.0265 58.7337 20.3404C58.7913 20.4572 58.877 20.5575 58.9831 20.6323L59.0129 20.643L59.2261 20.7439C59.3966 20.8255 59.5714 20.9113 59.7441 20.9993C59.8041 21.0325 59.8618 21.0698 59.9168 21.1109L59.985 21.1603C60.1474 21.0367 60.3251 20.935 60.5136 20.8576C60.601 20.8169 60.6842 20.7782 60.7609 20.7353L60.9741 20.6237L61.0508 20.5851L61.1467 20.4563C61.2341 20.3383 61.3236 20.2181 61.4046 20.0979C61.5257 19.9256 61.6917 19.7905 61.8843 19.7073C62.1912 19.5592 62.5003 19.4025 62.8009 19.2523L63.0481 19.1257C63.1036 19.0978 63.1142 19.087 63.1164 19.0827C63.1235 19.043 63.1393 19.0052 63.1625 18.9722C63.1857 18.9392 63.2158 18.9118 63.2506 18.8917L63.9413 18.4518L64.099 18.3509C64.1307 18.332 64.1667 18.3216 64.2035 18.3208C64.2421 18.3206 64.2799 18.3318 64.3122 18.353C64.6657 18.5893 64.9242 18.9446 65.0412 19.3553C65.171 19.7815 65.1952 20.2332 65.1116 20.6709C65.1038 20.7936 65.0666 20.9126 65.0031 21.0177C64.9396 21.1227 64.8518 21.2107 64.7471 21.274L64.6149 21.3599C64.519 21.4242 64.4188 21.4908 64.3143 21.5509C64.2776 21.5705 64.238 21.5843 64.1971 21.5916C64.1939 21.6232 64.1829 21.6534 64.1651 21.6796C64.04 21.8705 63.8589 22.0175 63.6471 22.1003C63.4449 22.1786 63.2377 22.2432 63.0268 22.2935L62.9799 22.3149C62.9495 22.3187 62.9187 22.3187 62.8883 22.3149Z" fill="#050402"/>
<path d="M64.8534 19.4078C64.7531 19.0423 64.5263 18.7249 64.2139 18.5129L63.3613 19.0537C63.3421 19.0666 63.3165 19.088 63.3144 19.1052C63.3016 19.2147 63.2227 19.264 63.1375 19.307C62.7495 19.5023 62.3615 19.6997 61.9693 19.8886C61.8088 19.9577 61.6702 20.0698 61.5686 20.2127C61.4492 20.3908 61.317 20.5603 61.1891 20.732L61.1572 20.7556L60.8481 20.9123C60.5612 21.0294 60.2904 21.183 60.0423 21.3695C60.0231 21.3888 59.9549 21.3695 59.923 21.3695C59.827 21.3158 59.7439 21.2407 59.6458 21.1892C59.4092 21.0668 59.1683 20.9531 58.9296 20.835H58.9104C58.7631 20.7469 58.644 20.618 58.5672 20.4638C58.408 20.1793 58.1611 19.9547 57.8638 19.8242C57.5121 19.6761 57.1795 19.4894 56.8406 19.3134C56.7758 19.2846 56.7225 19.2347 56.6893 19.1717C56.6758 19.1322 56.6544 19.0959 56.6266 19.0649C56.5987 19.0339 56.565 19.0089 56.5272 18.9915C56.3141 18.8627 56.1265 18.7318 55.9261 18.6009L55.762 18.4893C55.6187 18.6296 55.4842 18.7787 55.3591 18.9357C55.1006 19.3326 54.9862 19.8071 55.0351 20.2792C55.0522 20.4294 55.0671 20.5797 55.0863 20.7277C55.0933 20.7943 55.1151 20.8584 55.1502 20.9153C55.1852 20.9721 55.2326 21.0203 55.2888 21.0561C55.4508 21.1677 55.6149 21.2707 55.7812 21.3802C55.8275 21.4032 55.8805 21.4086 55.9304 21.3952C56.0732 21.363 56.2118 21.3158 56.3567 21.2815C56.7793 21.1711 57.214 21.1149 57.6506 21.1141C57.0726 21.186 56.5073 21.3384 55.9709 21.5669C56.0242 21.6248 56.0625 21.6721 56.1073 21.7128C56.3185 21.8907 56.5694 22.0144 56.8385 22.0734C57.0079 22.1143 57.1855 22.1054 57.3501 22.0477C57.8361 21.9017 58.3221 21.7644 58.8166 21.6506C59.4142 21.5031 60.0342 21.4718 60.6434 21.5583C61.3648 21.6722 62.0751 21.8481 62.7666 22.0841C62.8181 22.1071 62.8747 22.116 62.9307 22.1099C63.1522 22.0577 63.3701 21.991 63.583 21.9103C63.7563 21.8408 63.9049 21.7204 64.0093 21.5648C63.4729 21.3362 62.9076 21.1838 62.3296 21.1119C62.9121 21.1215 63.4901 21.2162 64.0455 21.3931C64.1013 21.4069 64.16 21.4009 64.2118 21.3759C64.3568 21.2922 64.4953 21.1935 64.6381 21.1033C64.7191 21.0566 64.787 20.99 64.8355 20.9096C64.8839 20.8293 64.9114 20.7379 64.9153 20.644C64.9963 20.2331 64.975 19.8085 64.8534 19.4078ZM60.8481 21.1527C60.7841 21.1956 60.7244 21.2471 60.6626 21.2922C60.7181 21.2385 60.7777 21.1956 60.8481 21.1527Z" fill="#050402"/>
<path d="M61.5544 19.1348C61.5217 19.1345 61.4893 19.1287 61.4585 19.1176L61.2325 19.0296L61.1707 19.0039H61.1238L60.5909 19.0232C60.5617 19.0223 60.533 19.0153 60.5066 19.0028C60.4802 18.9902 60.4567 18.9723 60.4374 18.9502C60.3662 18.9824 60.2884 18.9969 60.2105 18.9924C60.1325 18.9879 60.0568 18.9646 59.9898 18.9245C59.8447 19.0098 59.6803 19.0564 59.5123 19.0597C59.4291 19.0595 59.3464 19.0464 59.2671 19.021C59.198 19.0002 59.1261 18.9901 59.054 18.991C58.8979 18.9957 58.7446 19.0337 58.6042 19.1026C58.5519 19.1266 58.4954 19.1398 58.4379 19.1412C58.36 19.1396 58.285 19.1116 58.2248 19.0618C58.1715 19.021 58.1161 18.9846 58.0542 18.9438L57.9668 18.8815C57.937 18.8613 57.9132 18.8332 57.8982 18.8002C57.8831 18.7673 57.8774 18.7308 57.8816 18.6948C57.8858 18.659 57.8995 18.625 57.9213 18.5963C57.943 18.5676 57.972 18.5453 58.0052 18.5317L58.3292 18.4094C58.5658 18.3192 58.7875 18.2355 59.0092 18.139C59.7463 17.8384 60.4097 17.3799 60.9533 16.7954C61.0544 16.6768 61.1463 16.5505 61.2283 16.4177L61.2922 16.3211C61.318 16.2762 61.3549 16.2387 61.3994 16.2123C61.4438 16.186 61.4943 16.1717 61.5459 16.1709C61.6076 16.1722 61.6679 16.19 61.7207 16.2224C61.7334 16.229 61.7449 16.2377 61.7548 16.2482C61.7696 16.246 61.7847 16.246 61.7995 16.2482C61.8235 16.2484 61.8473 16.2528 61.8699 16.261C62.1449 16.3492 62.3986 16.4942 62.6148 16.6867C62.831 16.8793 63.0049 17.1151 63.1254 17.3792C63.1397 17.4112 63.145 17.4464 63.1409 17.4812C63.1367 17.516 63.1233 17.549 63.102 17.5767C63.1103 17.5918 63.1175 17.6076 63.1233 17.6239C63.1336 17.652 63.138 17.682 63.1361 17.7119C63.1304 17.7922 63.1004 17.8688 63.0501 17.9314C62.9998 17.994 62.9316 18.0395 62.8547 18.0617C62.5808 18.1712 62.3466 18.3621 62.1832 18.609C62.1603 18.6991 62.1165 18.7825 62.0553 18.8523C61.9942 18.922 61.9175 18.9762 61.8315 19.0103C61.7909 19.03 61.7523 19.0537 61.7164 19.0811C61.671 19.1189 61.6132 19.138 61.5544 19.1348Z" fill="#050402"/>
<path d="M59.0857 18.3172C58.7574 18.4524 58.4206 18.5812 58.0774 18.7143C58.1669 18.7744 58.2565 18.8302 58.3396 18.8946C58.3648 18.9166 58.3963 18.9301 58.4296 18.9331C58.4628 18.9362 58.4962 18.9287 58.525 18.9117C58.7711 18.7828 59.0561 18.7507 59.3244 18.8216C59.4207 18.8486 59.5216 18.8553 59.6206 18.8413C59.7197 18.8272 59.8147 18.7928 59.8999 18.74C59.9417 18.7224 59.9854 18.7094 60.03 18.7014C60.0867 18.7528 60.1604 18.7813 60.2367 18.7813C60.3131 18.7813 60.3868 18.7528 60.4435 18.7014C60.7078 18.5125 60.9807 18.3366 61.2493 18.1541L61.2621 18.167L60.5927 18.8109L61.1448 18.7915L61.2322 18.8109C61.3303 18.8516 61.4283 18.8924 61.5285 18.9289C61.5379 18.9332 61.5481 18.9354 61.5584 18.9354C61.5687 18.9354 61.5788 18.9332 61.5882 18.9289C61.7289 18.8044 61.9719 18.7808 61.9975 18.534C61.9975 18.534 61.9975 18.5211 61.9975 18.5147C62.187 18.224 62.4609 17.9991 62.7819 17.8708C62.8236 17.8622 62.8611 17.8397 62.8886 17.807C62.916 17.7744 62.9318 17.7333 62.9333 17.6905C62.9205 17.6541 62.9205 17.6519 62.8736 17.6648C62.4096 17.7953 61.9863 18.0428 61.6436 18.3838C61.6419 18.3834 61.64 18.3834 61.6383 18.3839C61.6365 18.3844 61.635 18.3853 61.6337 18.3866C61.6324 18.3879 61.6315 18.3895 61.631 18.3913C61.6305 18.393 61.6304 18.3949 61.6308 18.3966L61.6095 18.4267L61.5797 18.4482H61.552C61.807 18.1146 62.1334 17.8431 62.5069 17.6541C62.6476 17.5811 62.7968 17.5231 62.9482 17.4566C62.8362 17.2174 62.6767 17.0038 62.4794 16.8292C62.2821 16.6546 62.0514 16.5226 61.8014 16.4415C61.6692 17.0724 61.0937 17.9073 60.7249 17.9932H60.71C61.2088 17.5639 61.5797 17.0639 61.6287 16.39C61.616 16.3788 61.6009 16.3707 61.5846 16.3666C61.5682 16.3624 61.5511 16.3622 61.5347 16.366C61.5183 16.3697 61.503 16.3774 61.49 16.3883C61.4771 16.3991 61.4669 16.413 61.4603 16.4286C61.3523 16.6013 61.2334 16.7669 61.1043 16.9244C60.5405 17.5314 59.8515 18.0069 59.0857 18.3172ZM61.4305 18.1026C61.4624 18.0146 61.4965 17.9245 61.5285 17.8343C61.488 17.9138 61.4624 18.0039 61.4305 18.0919V18.1026Z" fill="#050402"/>
<path d="M60.119 21.2712C60.0749 21.2707 60.0322 21.2557 59.9975 21.2283C59.9682 21.2052 59.946 21.1741 59.9335 21.1388C59.9211 21.1034 59.9189 21.0652 59.9272 21.0287L59.9378 20.9858C59.9335 20.9243 59.9471 20.8628 59.977 20.8091C60.007 20.7553 60.0519 20.7115 60.1062 20.6832L60.215 20.6209C60.3289 20.5567 60.4386 20.485 60.5432 20.4063C60.6359 20.3429 60.7161 20.2629 60.7798 20.1702C60.8317 20.0765 60.8745 19.9781 60.9077 19.8762C60.9227 19.8397 60.9355 19.8011 60.9504 19.7646C60.9459 19.7216 60.9295 19.6807 60.9031 19.6466C60.8768 19.6124 60.8415 19.5864 60.8012 19.5714C60.588 19.5006 60.4111 19.4405 60.2384 19.3847C60.1761 19.3683 60.12 19.334 60.0768 19.286C60.0337 19.238 60.0054 19.1783 59.9954 19.1143C59.9946 19.1086 59.9946 19.1028 59.9954 19.0971C59.986 19.0723 59.9802 19.0463 59.9783 19.0198C59.9783 19.0198 59.9783 19.007 59.9783 18.9984C59.9732 18.9635 59.9776 18.9279 59.9911 18.8953C60.0047 18.8628 60.0268 18.8346 60.0551 18.8138C60.0895 18.7896 60.1303 18.7761 60.1723 18.7752C60.2011 18.7754 60.2295 18.782 60.2555 18.7945C60.3169 18.8228 60.384 18.8368 60.4516 18.8353C60.5435 18.8319 60.6348 18.8197 60.7244 18.7988L60.8779 18.773C60.9141 18.7698 60.9504 18.7698 60.9866 18.773C61.1636 18.7833 61.3364 18.8308 61.4939 18.9125H61.5089C61.5295 18.923 61.5519 18.9296 61.5749 18.9319C61.5749 18.9319 61.5963 18.9319 61.6304 18.904C61.737 18.8203 61.8435 18.743 61.9565 18.67L62.0865 18.5799C62.0737 18.5471 62.0699 18.5115 62.0755 18.4767C62.0811 18.442 62.096 18.4094 62.1185 18.3824C62.3027 18.144 62.5493 17.9619 62.8305 17.8566C62.8523 17.8525 62.8747 17.8525 62.8966 17.8566C62.9284 17.8563 62.9598 17.8637 62.9882 17.8781C63.0355 17.9054 63.0706 17.95 63.0863 18.0026L63.1246 18.1463C63.1929 18.3996 63.2589 18.6507 63.3229 18.8997C63.3278 18.923 63.3278 18.9471 63.3229 18.9705C63.3421 19.029 63.3421 19.0922 63.3229 19.1508C63.3076 19.1932 63.2838 19.2321 63.253 19.265C63.2222 19.2978 63.1851 19.324 63.1438 19.3418L62.6855 19.5714L61.8734 19.9534C61.7787 19.9972 61.6965 20.0644 61.6346 20.1487L61.5259 20.3011C61.4598 20.3934 61.3938 20.4878 61.3128 20.5801C61.2379 20.6796 61.1445 20.7634 61.0378 20.8269C60.8417 20.9343 60.6456 21.0308 60.4388 21.1339L60.2086 21.2412C60.1813 21.2578 60.1507 21.2681 60.119 21.2712Z" fill="#050402"/>
<path d="M62.249 18.5011C62.5794 18.544 62.7392 18.6277 62.8096 18.8037L62.7264 18.7414C62.6552 18.6904 62.5716 18.6599 62.4845 18.6531C62.3974 18.6463 62.3101 18.6635 62.2319 18.7028C62.0678 18.823 61.8951 18.9324 61.7352 19.0569C61.6919 19.0957 61.6376 19.1199 61.58 19.1265C61.5224 19.133 61.4642 19.1215 61.4134 19.0934C61.2551 19.0014 61.0735 18.9581 60.8911 18.9689C60.6481 19.0033 60.4072 19.0913 60.1557 18.9689C60.1557 18.999 60.1557 19.0097 60.1557 19.0204C60.1614 19.0295 60.1678 19.0381 60.1749 19.0462C60.1715 19.082 60.1814 19.1178 60.2026 19.1467C60.2239 19.1756 60.255 19.1956 60.29 19.2029C60.4797 19.2608 60.6694 19.3231 60.857 19.3896C60.9419 19.4199 61.015 19.4766 61.066 19.5514C61.1169 19.6262 61.143 19.7153 61.1405 19.8059C61.0866 19.9686 61.0196 20.1265 60.9401 20.2781C60.8644 20.393 60.7674 20.4921 60.6545 20.57C60.5119 20.6735 60.3631 20.7681 60.209 20.8533C60.1825 20.8647 60.1609 20.8852 60.148 20.9111C60.1351 20.9371 60.1318 20.9668 60.1386 20.9949L60.1216 21.0722C60.4072 20.9306 60.6843 20.7975 60.9529 20.643C61.0354 20.5909 61.1077 20.524 61.1661 20.4455C61.2748 20.3103 61.3792 20.1622 61.4752 20.0163C61.5559 19.9061 61.663 19.8183 61.7864 19.7609C62.2127 19.557 62.639 19.3424 63.0483 19.132C63.1208 19.0977 63.1549 19.0526 63.1123 18.9711C63.1143 18.954 63.1143 18.9367 63.1123 18.9196L62.8735 18.0225C62.6249 18.1198 62.4084 18.2857 62.249 18.5011Z" fill="#050402"/>
<path d="M60.0086 20.9299C59.9734 20.9298 59.9387 20.9202 59.9084 20.902C59.878 20.8839 59.853 20.858 59.836 20.8269C59.8289 20.8111 59.8203 20.796 59.8104 20.7818C59.7917 20.7516 59.7767 20.7191 59.7656 20.6853C59.7464 20.6101 59.7059 20.535 59.5418 20.4985C59.3396 20.4552 59.1565 20.3476 59.0196 20.1916C58.944 20.1011 58.8861 19.997 58.849 19.8847C58.8367 19.8508 58.8337 19.814 58.8405 19.7785C58.8472 19.743 58.8634 19.71 58.8874 19.683C58.9058 19.6627 58.9282 19.6465 58.9531 19.6354C58.9781 19.6243 59.0051 19.6186 59.0323 19.6186H59.0792C59.3675 19.6934 59.664 19.7317 59.9617 19.7324C60.28 19.7323 60.5966 19.686 60.9018 19.595C60.9201 19.592 60.9389 19.592 60.9572 19.595C61.0068 19.5949 61.0546 19.6132 61.0915 19.6465C61.1155 19.6706 61.1334 19.7001 61.1438 19.7326C61.1542 19.7651 61.1567 19.7996 61.1512 19.8332C61.1215 19.9618 61.0628 20.0817 60.9796 20.1837C60.8964 20.2857 60.791 20.367 60.6716 20.4213C60.6448 20.437 60.6161 20.4492 60.5863 20.4578H60.5714C60.3177 20.5286 60.2261 20.5715 60.2047 20.7561C60.1994 20.7977 60.1814 20.8365 60.1531 20.8673C60.1248 20.8981 60.0878 20.9192 60.047 20.9278L60.0086 20.9299Z" fill="#050402"/>
<path d="M59.9555 20.6337C59.9712 20.6677 59.989 20.7007 60.0088 20.7324C60.0493 20.3933 60.2923 20.3311 60.5332 20.2624C60.5467 20.2593 60.5596 20.2542 60.5716 20.2474C60.667 20.2064 60.7516 20.1436 60.8186 20.0638C60.8856 19.9841 60.9331 19.8896 60.9574 19.7881C60.3324 19.973 59.669 19.9827 59.0389 19.816C59.0689 19.905 59.1143 19.9878 59.1732 20.0607C59.2845 20.1875 59.4345 20.2736 59.5996 20.3053C59.6839 20.3201 59.7622 20.3588 59.8253 20.417C59.8884 20.4752 59.9336 20.5504 59.9555 20.6337Z" fill="#050402"/>
<path d="M59.9959 19.9554C59.6775 19.9541 59.361 19.9072 59.0558 19.8159C59.019 19.803 58.9865 19.7801 58.9617 19.7498C58.9368 19.7196 58.9208 19.683 58.9151 19.6442C58.9118 19.6052 58.92 19.5662 58.9386 19.5318C58.9571 19.4975 58.9853 19.4694 59.0196 19.451L59.0537 19.4317C59.0892 19.4096 59.1271 19.3916 59.1667 19.3781L59.3969 19.3029C59.4822 19.2772 59.5696 19.2493 59.6548 19.2192C59.7998 19.1699 59.7998 19.157 59.8062 19.1162C59.8114 19.0682 59.8342 19.0239 59.87 18.9918C59.9058 18.9597 59.9522 18.9421 60.0001 18.9424C60.0478 18.942 60.0939 18.9593 60.1296 18.991C60.1654 19.0227 60.1884 19.0665 60.1941 19.1141C60.1941 19.1549 60.1941 19.172 60.3284 19.215L60.5842 19.2987L60.8251 19.3759C60.8625 19.3886 60.8989 19.4044 60.9338 19.4231L60.9764 19.4446C61.0127 19.4614 61.0431 19.4888 61.0636 19.5233C61.0842 19.5577 61.0939 19.5976 61.0915 19.6378C61.0867 19.6774 61.0709 19.7148 61.0461 19.7459C61.0212 19.777 60.9882 19.8005 60.9509 19.8137C60.6409 19.9065 60.3193 19.9542 59.9959 19.9554Z" fill="#050402"/>
<path d="M60.8887 19.6118C60.8354 19.5882 60.797 19.5667 60.7565 19.5517C60.5902 19.4981 60.424 19.4465 60.2577 19.3907C60.1341 19.3478 60.0147 19.2985 59.9934 19.1289C59.9721 19.307 59.8399 19.3435 59.7099 19.395C59.5479 19.4508 59.3837 19.5002 59.2217 19.5539C59.1814 19.5713 59.1422 19.5914 59.1045 19.6139C59.6863 19.7914 60.3073 19.7906 60.8887 19.6118Z" fill="#050402"/>
<path d="M59.8546 21.2593C59.8235 21.2598 59.7927 21.2525 59.7651 21.2378L59.5328 21.1198C59.3196 21.0103 59.1064 20.9052 58.8933 20.7828C58.8086 20.7319 58.7359 20.663 58.6801 20.5811C58.6311 20.5167 58.5863 20.4523 58.5437 20.3901C58.4669 20.2828 58.3966 20.1755 58.3177 20.0918C58.2478 20.0201 58.1654 19.962 58.0747 19.9201C57.6995 19.7269 57.3116 19.5359 56.9386 19.3535L56.8639 19.3084C56.7914 19.2787 56.7329 19.222 56.7008 19.1501C56.6686 19.0781 56.6652 18.9965 56.6913 18.9221C56.7083 18.8556 56.7233 18.7869 56.7382 18.7182C56.7765 18.5572 56.8128 18.3898 56.8618 18.2246C56.9407 17.9542 57.0302 17.6859 57.1261 17.4283C57.1645 17.3007 57.2319 17.1838 57.3229 17.087C57.4139 16.9901 57.5261 16.9159 57.6505 16.8703C57.6505 16.8703 57.6505 16.8703 57.6505 16.8575C57.6579 16.8309 57.6706 16.8062 57.6878 16.7848C57.705 16.7634 57.7265 16.7457 57.7507 16.733L57.9276 16.645L58.354 16.4304L58.5671 16.3273C58.6503 16.2866 58.7377 16.2479 58.8187 16.205C58.8414 16.1943 58.8635 16.1821 58.8847 16.1685C58.8836 16.1402 58.8793 16.1122 58.872 16.0848C58.872 16.0655 58.872 16.0462 58.872 16.0204C58.872 15.9947 58.872 15.9968 58.872 15.9818C58.8699 15.9547 58.8734 15.9275 58.8822 15.9018C58.891 15.8761 58.9048 15.8525 58.923 15.8324C58.9412 15.8123 58.9632 15.7962 58.9878 15.785C59.0124 15.7737 59.039 15.7677 59.0659 15.7672C59.0836 15.7649 59.1015 15.7649 59.1192 15.7672L59.2834 15.8123L59.4091 15.8316L59.7054 15.8788C59.7944 15.8919 59.8841 15.8984 59.974 15.8981C60.1962 15.8911 60.4173 15.8645 60.6348 15.8187L60.8949 15.7607H60.9354C60.9645 15.7606 60.9932 15.767 61.0194 15.7797C61.0456 15.7923 61.0686 15.8108 61.0867 15.8337C61.1115 15.8629 61.1274 15.8986 61.1327 15.9366C61.138 15.9747 61.1324 16.0134 61.1166 16.0483C61.0867 16.117 61.0825 16.1599 61.091 16.1771C61.0995 16.1943 61.1315 16.2329 61.3042 16.2866C61.3342 16.2966 61.3615 16.3138 61.3838 16.3365C61.406 16.3593 61.4225 16.387 61.4321 16.4175C61.4412 16.4476 61.4431 16.4795 61.4375 16.5105C61.432 16.5414 61.4191 16.5706 61.4001 16.5956C60.4749 17.8039 59.2173 18.3469 58.1046 18.7182L58.1813 18.774C58.2623 18.832 58.339 18.8856 58.4179 18.9371H58.4584C58.5245 18.9197 58.5887 18.896 58.6503 18.8663C58.768 18.8148 58.895 18.7885 59.0233 18.789C59.1181 18.7894 59.2125 18.8009 59.3047 18.8234C59.3926 18.8477 59.4825 18.8642 59.5733 18.8727L59.6095 18.8577C59.642 18.8445 59.6755 18.8337 59.7097 18.8255C59.7253 18.8234 59.741 18.8234 59.7566 18.8255C59.8152 18.8271 59.8712 18.85 59.9143 18.8899C59.9412 18.9085 59.9631 18.9335 59.978 18.9627C59.9929 18.9919 60.0003 19.0245 59.9996 19.0573C59.9997 19.1439 59.9703 19.228 59.9164 19.2955C59.8625 19.363 59.7873 19.41 59.7033 19.4286C59.5328 19.4822 59.3665 19.5338 59.2024 19.5896C59.1609 19.6013 59.1229 19.6228 59.0914 19.6523C59.0599 19.6818 59.0358 19.7184 59.0212 19.7591C59.0361 19.7934 59.0489 19.8278 59.0617 19.8621C59.1086 19.9909 59.1555 20.1111 59.2088 20.2291C59.2616 20.3261 59.3459 20.4018 59.4475 20.4437C59.594 20.5244 59.7362 20.6125 59.8738 20.7077C59.9313 20.7524 59.975 20.8127 59.9996 20.8816L60.0124 20.9116C60.0293 20.941 60.0381 20.9743 60.038 21.0082V21.0769C60.0379 21.1108 60.0293 21.1442 60.0129 21.1739C59.9965 21.2036 59.9728 21.2285 59.9442 21.2464C59.9157 21.2575 59.8851 21.2619 59.8546 21.2593Z" fill="#050402"/>
<path d="M56.9525 19.141C57.3575 19.3406 57.7646 19.5402 58.1675 19.7462C58.2795 19.7993 58.3813 19.872 58.4681 19.9609C58.6045 20.1154 58.7132 20.2957 58.839 20.4609C58.8779 20.5195 58.9279 20.5698 58.9861 20.609C59.2717 20.7635 59.5616 20.9095 59.8558 21.0619V20.9932C59.8302 20.946 59.8153 20.8837 59.7769 20.8558C59.6457 20.7618 59.509 20.6758 59.3676 20.5983C59.227 20.5327 59.1122 20.4216 59.0415 20.2828C58.9605 20.1047 58.8987 19.9201 58.8283 19.7377C58.8447 19.6554 58.8826 19.579 58.938 19.5164C58.9935 19.4538 59.0645 19.4072 59.1438 19.3814C59.3122 19.3234 59.4827 19.2719 59.6511 19.2183C59.6952 19.2111 59.7353 19.1884 59.7642 19.1542C59.7931 19.12 59.8089 19.0765 59.8089 19.0316C59.7918 19.0208 59.7705 18.9972 59.7556 18.9994C59.6976 19.0248 59.6368 19.0428 59.5744 19.053C59.4685 19.0447 59.3637 19.0268 59.261 18.9994C59.0852 18.948 58.8972 18.9586 58.7281 19.0294C58.6518 19.0666 58.5718 19.0954 58.4894 19.1153C58.4307 19.1298 58.3688 19.123 58.3146 19.0959C58.1291 18.9779 57.9565 18.8384 57.7689 18.7246C57.6919 18.6761 57.6015 18.6535 57.511 18.6603C57.4028 18.6865 57.2982 18.7262 57.1997 18.7783L57.1806 18.7611C57.2414 18.6788 57.3214 18.6128 57.4137 18.569C57.5059 18.5252 57.6074 18.5049 57.7092 18.51C57.752 18.5062 57.792 18.4872 57.8222 18.4564C58.0057 18.2548 58.1387 18.0119 58.2101 17.7481C58.2555 17.8805 58.2471 18.0255 58.1867 18.1516C58.1419 18.2718 58.0822 18.3855 58.0183 18.5251C59.2717 18.0958 60.4057 17.5464 61.2371 16.4626C60.9834 16.381 60.8001 16.2651 60.9322 15.9561L60.67 16.014C60.3406 16.0918 60.0002 16.1121 59.6639 16.0741L59.2376 16.0054L59.0607 15.9582C59.0641 15.9892 59.0691 16.02 59.0756 16.0505C59.1139 16.2458 59.0905 16.2994 58.9157 16.3874C58.7409 16.4754 58.6002 16.5355 58.4446 16.6021L57.8478 16.9025L57.9224 17.0163C57.7824 17.0177 57.6468 17.0652 57.5363 17.1517C57.4258 17.2381 57.3465 17.3587 57.3106 17.4949C57.2147 17.7524 57.1273 18.0143 57.0505 18.2782C56.9844 18.5079 56.9375 18.7418 56.8821 18.9758C56.8733 18.9908 56.8681 19.0078 56.867 19.0253C56.8659 19.0427 56.8689 19.0602 56.8758 19.0763C56.8826 19.0924 56.8931 19.1066 56.9065 19.1179C56.9198 19.1291 56.9355 19.137 56.9525 19.141Z" fill="#050402"/>
<path d="M60.6212 20.5729C60.5787 20.5722 60.5375 20.5577 60.5038 20.5317C60.4701 20.5056 60.4455 20.4693 60.4338 20.4282C60.4221 20.387 60.4238 20.3432 60.4387 20.3031C60.4536 20.263 60.4809 20.2288 60.5166 20.2055H60.5273C60.5586 20.1816 60.5968 20.1688 60.6361 20.1689C60.6662 20.1693 60.6957 20.1765 60.7226 20.1901C60.7495 20.2036 60.7729 20.2231 60.7912 20.2471C60.8095 20.2711 60.8221 20.299 60.8282 20.3286C60.8342 20.3583 60.8335 20.3889 60.8261 20.4182C60.8181 20.449 60.8029 20.4773 60.7817 20.5009C60.7605 20.5245 60.734 20.5425 60.7044 20.5536C60.6786 20.5666 60.65 20.5732 60.6212 20.5729Z" fill="#050402"/>
<path d="M60.2091 20.8363C60.1744 20.8362 60.1403 20.8268 60.1103 20.8091C60.0803 20.7914 60.0556 20.766 60.0386 20.7354L60.0194 20.7011C60.0047 20.673 59.9969 20.6417 59.9969 20.6099C59.9969 20.5781 60.0047 20.5468 60.0194 20.5187C60.0641 20.4355 60.1282 20.3645 60.2062 20.3118C60.2841 20.2591 60.3737 20.2262 60.467 20.2161C60.5054 20.2161 60.5438 20.1968 60.5736 20.186C60.5948 20.1828 60.6164 20.1828 60.6376 20.186C60.6745 20.186 60.7107 20.1964 60.742 20.2161C60.7733 20.2359 60.7984 20.2641 60.8145 20.2976C60.836 20.3413 60.8405 20.3915 60.8271 20.4384C60.8137 20.4853 60.7833 20.5254 60.742 20.5509L60.3157 20.817C60.2824 20.8326 60.2457 20.8392 60.2091 20.8363Z" fill="#050402"/>
<path d="M60.1792 20.5993L60.1984 20.6336L60.6253 20.3672C60.4631 20.4295 60.2667 20.4209 60.1792 20.5993Z" fill="#050402"/>
<path d="M59.7827 20.8323C59.7482 20.8317 59.7144 20.8221 59.6846 20.8044L59.3009 20.5791H59.2903C59.2424 20.5664 59.2012 20.5358 59.1751 20.4935C59.1489 20.4512 59.1398 20.4004 59.1496 20.3516C59.1539 20.3002 59.1779 20.2524 59.2165 20.2184C59.255 20.1844 59.3052 20.1668 59.3564 20.1692H59.3841H59.4288H59.4629L59.5397 20.1949L59.6953 20.2443C59.7706 20.2637 59.8388 20.3042 59.892 20.3613C59.9453 20.4183 59.9813 20.4894 59.9958 20.5662C60.007 20.6049 60.0063 20.6462 59.9938 20.6845C59.9812 20.7228 59.9574 20.7564 59.9255 20.7808L59.9063 20.7959C59.8698 20.8206 59.8266 20.8333 59.7827 20.8323Z" fill="#050402"/>
<path d="M59.636 20.4533C59.5549 20.4318 59.4759 20.4018 59.3969 20.376H59.35V20.3824H59.3863L59.7832 20.6338L59.8046 20.6188C59.794 20.5784 59.7728 20.5417 59.7431 20.5125C59.7134 20.4834 59.6763 20.4629 59.636 20.4533Z" fill="#050402"/>
<path d="M60.6357 20.5665C60.6074 20.5666 60.5793 20.5605 60.5535 20.5486C60.5277 20.5367 60.5048 20.5194 60.4863 20.4977C60.4649 20.4723 60.4504 20.4417 60.444 20.409C60.4377 20.3763 60.4397 20.3425 60.45 20.3108C60.46 20.2784 60.4783 20.2493 60.503 20.2263C60.5278 20.2033 60.5581 20.1872 60.5909 20.1797C60.6053 20.1742 60.6204 20.1706 60.6357 20.169C60.6717 20.1687 60.707 20.1784 60.7379 20.1969C60.7687 20.2155 60.7939 20.2422 60.8107 20.2742C60.8314 20.3139 60.8382 20.3594 60.83 20.4035C60.8219 20.4475 60.7993 20.4875 60.7659 20.5171C60.7292 20.5477 60.6834 20.5651 60.6357 20.5665Z" fill="#050402"/>
<path d="M60.6353 20.5647C60.6064 20.565 60.5778 20.5588 60.5516 20.5465C60.5254 20.5342 60.5022 20.5162 60.4838 20.4938C60.4581 20.4636 60.442 20.4263 60.4375 20.3868C60.4329 20.3473 60.4402 20.3073 60.4584 20.272C60.4766 20.2367 60.5048 20.2076 60.5395 20.1885C60.5742 20.1695 60.6137 20.1612 60.653 20.1649C60.6924 20.1686 60.7297 20.184 60.7603 20.2092C60.7909 20.2344 60.8133 20.2682 60.8247 20.3063C60.8361 20.3444 60.8359 20.385 60.8243 20.423C60.8126 20.461 60.7899 20.4946 60.7591 20.5196C60.7242 20.5485 60.6805 20.5644 60.6353 20.5647Z" fill="#050402"/>
<path d="M60.6362 20.5657C60.5841 20.5726 60.5315 20.5583 60.4899 20.5261C60.4483 20.4938 60.4211 20.4463 60.4143 20.3938C60.4075 20.3414 60.4216 20.2884 60.4537 20.2465C60.4857 20.2046 60.5329 20.1772 60.585 20.1703C60.602 20.1685 60.6192 20.1685 60.6362 20.1703C60.684 20.1695 60.7305 20.1867 60.7664 20.2185C60.8023 20.2503 60.8251 20.2944 60.8304 20.3423C60.836 20.39 60.8242 20.4381 60.7971 20.4776C60.7699 20.5172 60.7295 20.5455 60.6832 20.5571C60.668 20.5621 60.6522 20.565 60.6362 20.5657Z" fill="#050402"/>
<path d="M59.8109 20.8403C59.782 20.8405 59.7535 20.8339 59.7276 20.821H59.7063C59.6758 20.8063 59.6495 20.784 59.6301 20.7561C59.6106 20.7283 59.5986 20.6958 59.5953 20.662C59.5916 20.6281 59.5967 20.5938 59.6102 20.5625C59.6236 20.5312 59.645 20.504 59.6721 20.4836L59.6914 20.4686C59.7262 20.4431 59.7679 20.4289 59.8109 20.4277C59.8405 20.4288 59.8696 20.4362 59.8962 20.4492C59.9289 20.4651 59.9566 20.4897 59.9761 20.5205C59.9957 20.5512 60.0065 20.5868 60.0072 20.6233V20.6491C60.0071 20.6825 59.9986 20.7154 59.9826 20.7447C59.9665 20.7739 59.9435 20.7987 59.9155 20.8167C59.8836 20.8346 59.8473 20.8428 59.8109 20.8403Z" fill="#050402"/>
<path d="M59.811 20.6403V20.6162L59.7892 20.6315L59.811 20.6403Z" fill="#050402"/>
<path d="M64.9348 20.6461C64.931 20.74 64.9035 20.8314 64.8551 20.9117C64.8066 20.992 64.7387 21.0587 64.6577 21.1054C64.517 21.1955 64.3806 21.2943 64.2314 21.378C64.1796 21.4029 64.1208 21.409 64.0651 21.3951C63.507 21.2172 62.926 21.1224 62.3406 21.114C62.9187 21.1858 63.484 21.3382 64.0204 21.5668C63.9159 21.7225 63.7674 21.8429 63.594 21.9124C63.3853 21.9926 63.1717 22.0593 62.9545 22.112C62.8978 22.1181 62.8405 22.1092 62.7883 22.0862C62.1023 21.8511 61.3978 21.6752 60.6822 21.5604C60.073 21.4738 59.453 21.5052 58.8554 21.6527C58.363 21.7664 57.8748 21.9038 57.3888 22.0497C57.2243 22.1074 57.0467 22.1164 56.8772 22.0755C56.6082 22.0165 56.3573 21.8928 56.1461 21.7149C56.1013 21.6741 56.0651 21.6269 56.0097 21.569C56.5462 21.3409 57.1115 21.1886 57.6894 21.1161C57.245 21.1147 56.8022 21.171 56.372 21.2835C56.2292 21.3179 56.0907 21.3651 55.9457 21.3973C55.8965 21.4101 55.8443 21.4048 55.7986 21.3822C55.6302 21.2792 55.4682 21.1676 55.3041 21.0582C55.2479 21.0223 55.2006 20.9742 55.1655 20.9173C55.1304 20.8605 55.1086 20.7964 55.1016 20.7298C55.0824 20.5817 55.0675 20.4315 55.0504 20.2812C55.1724 20.3953 55.3193 20.4789 55.4792 20.5255C55.6391 20.5721 55.8076 20.5803 55.9713 20.5495C56.2761 20.5087 56.5852 20.4808 56.8943 20.4572C57.3542 20.4284 57.8152 20.4927 58.25 20.6461C58.4738 20.7191 58.704 20.7641 58.9321 20.8221H58.9513C59.1901 20.9401 59.4331 21.0539 59.6697 21.1762C59.7656 21.2277 59.8487 21.3028 59.9447 21.3565C59.9766 21.3758 60.0449 21.3865 60.0662 21.3565C60.314 21.1696 60.5848 21.016 60.8719 20.8994C60.97 20.8457 61.0723 20.7942 61.1725 20.7427L61.2066 20.7191C61.2726 20.7088 61.3381 20.6952 61.4027 20.6783C61.8319 20.5284 62.2854 20.4614 62.7392 20.4808C62.9268 20.498 63.1165 20.5066 63.3041 20.5259C63.692 20.5543 64.0746 20.6329 64.4424 20.7599C64.5095 20.785 64.582 20.7921 64.6526 20.7805C64.7233 20.7688 64.7897 20.7387 64.8453 20.6933L64.9348 20.6461ZM60.6716 21.29C60.7026 21.2834 60.7332 21.2748 60.7632 21.2642C61.3979 20.9979 62.0794 20.8629 62.767 20.8672C63.1549 20.8672 63.5429 20.8929 63.933 20.9101C63.9905 20.9101 64.0502 20.923 64.1078 20.9294C64.0669 20.8975 64.0196 20.8748 63.9692 20.8629C63.5783 20.7493 63.1738 20.6908 62.767 20.689C62.1254 20.6651 61.4891 20.8133 60.9231 21.1183C60.8331 21.1739 60.7469 21.2356 60.6652 21.3028H60.6396L60.6716 21.29ZM59.2604 21.1354V21.1183C59.1794 21.0818 59.1027 21.0431 59.0217 21.011C58.552 20.8191 58.056 20.7004 57.5508 20.659C57.1095 20.6075 56.6624 20.6559 56.242 20.8006C56.0389 20.8817 55.8206 20.9169 55.6025 20.9036C55.5663 20.9036 55.53 20.9036 55.4959 20.9036L55.3936 20.8865C55.6548 21.015 55.9542 21.041 56.2335 20.9594C56.4295 20.9045 56.6299 20.8671 56.8325 20.8478C57.4044 20.8168 57.978 20.863 58.5378 20.9852C58.7936 21.026 59.0281 21.0882 59.2625 21.1419L59.2604 21.1354Z" fill="#E97824"/>
<path d="M57.225 18.7783C57.3252 18.7282 57.4311 18.6907 57.5404 18.6667C57.6303 18.6604 57.7199 18.6829 57.7962 18.7311C57.9838 18.8448 58.1565 18.9843 58.3441 19.1024C58.3975 19.1294 58.4587 19.1363 58.5167 19.1217C58.5997 19.1015 58.6804 19.0727 58.7576 19.0358C58.9259 18.965 59.1133 18.9544 59.2884 19.0058C59.391 19.0332 59.4959 19.0512 59.6017 19.0595C59.6641 19.0493 59.725 19.0312 59.7829 19.0058C59.7978 19.0058 59.8192 19.0273 59.8362 19.038C59.6849 19.0981 59.5314 19.1539 59.3822 19.2183C59.2341 19.2719 59.0914 19.3395 58.9558 19.42C58.9065 19.4549 58.8694 19.5047 58.8499 19.5621C58.8304 19.6196 58.8294 19.6818 58.8471 19.7398C58.9196 19.9222 58.9836 20.1068 59.0603 20.2849C59.131 20.424 59.2468 20.5346 59.3886 20.5983C59.5298 20.6737 59.6665 20.7576 59.7978 20.8494C59.8362 20.8773 59.8511 20.9395 59.8767 20.9867C59.6508 20.8687 59.4312 20.7464 59.201 20.6391C59.0332 20.5562 58.9023 20.413 58.8343 20.2377C58.7858 20.1386 58.7257 20.0457 58.6553 19.9609C58.5703 19.8635 58.4792 19.7717 58.3824 19.6861C58.3538 19.6648 58.3332 19.6342 58.3243 19.5994C58.3154 19.5646 58.3186 19.5278 58.3334 19.4951C58.3452 19.4428 58.3538 19.3897 58.359 19.3363L58.3185 19.3191C58.2845 19.3628 58.2559 19.4103 58.2332 19.4608C58.2055 19.5445 58.1629 19.5574 58.0883 19.523C58.0137 19.4887 57.9156 19.4565 57.8325 19.4179L56.9031 18.9886C56.9585 18.7547 57.0054 18.5208 57.0715 18.2911C57.1482 18.0271 57.2356 17.7653 57.3337 17.5078C57.3696 17.3716 57.4489 17.251 57.5594 17.1646C57.6699 17.0781 57.8055 17.0305 57.9454 17.0292L57.8644 16.9133C58.0606 16.8124 58.2588 16.7115 58.4592 16.6128C58.6169 16.5355 58.7768 16.4647 58.9324 16.3982C59.088 16.3316 59.1285 16.2565 59.0901 16.0612C59.0901 16.0376 59.0901 16.0119 59.0774 15.9689L59.2521 16.0161C59.3815 16.3127 59.5611 16.5843 59.7829 16.8188C59.9726 17.0184 60.1282 17.0055 60.2966 16.7888C60.4717 16.5528 60.6104 16.2916 60.7081 16.014L60.9702 15.9561C60.8381 16.2651 61.0214 16.3853 61.2751 16.4626C60.4459 17.5464 59.3118 18.1065 58.0563 18.5251C58.1202 18.3855 58.1799 18.2718 58.2268 18.1516C58.2854 18.0249 58.2931 17.8803 58.2481 17.7481C58.173 18.0114 58.0363 18.2528 57.8495 18.4521C57.8194 18.4829 57.7793 18.5019 57.7365 18.5057C57.6347 18.5008 57.5333 18.5211 57.4411 18.5649C57.349 18.6087 57.2689 18.6746 57.2079 18.7568V18.7912L57.225 18.7783Z" fill="#FACFA3"/>
<path d="M64.9352 20.6468L64.8478 20.709C64.7922 20.7545 64.7258 20.7845 64.6552 20.7962C64.5845 20.8078 64.512 20.8007 64.4449 20.7756C64.0771 20.6486 63.6945 20.57 63.3066 20.5416C63.1191 20.5223 62.9293 20.5137 62.7418 20.4966C62.2879 20.4771 61.8344 20.5441 61.4052 20.694C61.3406 20.7109 61.2751 20.7245 61.2091 20.7348C61.3349 20.5631 61.467 20.3935 61.5864 20.2154C61.6881 20.0725 61.8267 19.9605 61.9872 19.8913C62.3794 19.7025 62.7673 19.505 63.1574 19.3097C63.2406 19.2668 63.3194 19.2174 63.3322 19.108C63.3423 19.0864 63.3587 19.0685 63.3791 19.0565L64.2318 18.5156C64.5444 18.7274 64.7713 19.0449 64.8713 19.4106C64.9936 19.811 65.0155 20.2357 64.9352 20.6468Z" fill="#FCB017"/>
<path d="M58.93 20.82C58.7019 20.7621 58.4717 20.717 58.2478 20.644C57.813 20.4906 57.352 20.4264 56.8921 20.4552C56.583 20.4788 56.2739 20.5067 55.9691 20.5475C55.8055 20.5783 55.6369 20.57 55.477 20.5234C55.3171 20.4769 55.1703 20.3932 55.0482 20.2792C55.0004 19.8072 55.1148 19.333 55.3723 18.9357C55.4974 18.7787 55.6319 18.6296 55.7751 18.4893L55.9393 18.6009C56.1396 18.7318 56.3379 18.8627 56.5404 18.9915C56.6167 19.0273 56.6757 19.0921 56.7045 19.1717C56.7362 19.2351 56.7891 19.2853 56.8537 19.3134C57.1927 19.4894 57.5273 19.6761 57.8769 19.8242C58.1733 19.9495 58.4215 20.1678 58.5846 20.4466C58.6627 20.6012 58.7824 20.7306 58.93 20.82Z" fill="#FCB017"/>
<path d="M61.2515 18.8109L61.1663 18.7915C61.2281 18.6478 61.292 18.504 61.3496 18.3623C61.4071 18.2207 61.4839 18.0017 61.5521 17.8215L60.9126 18.1992L60.0599 18.6993C60.0154 18.7076 59.9718 18.7205 59.9299 18.7379C59.8447 18.7906 59.7496 18.8251 59.6506 18.8391C59.5516 18.8531 59.4507 18.8464 59.3544 18.8194C59.086 18.7487 58.8012 18.7808 58.555 18.9096C58.5262 18.9266 58.4928 18.9341 58.4595 18.931C58.4263 18.9279 58.3948 18.9144 58.3696 18.8924C58.2864 18.828 58.1969 18.7722 58.1095 18.7121C58.4527 18.5791 58.7916 18.4589 59.1178 18.3151C59.8814 18.0041 60.5688 17.5295 61.1322 16.9244C61.2606 16.7669 61.3788 16.6013 61.486 16.4286C61.4926 16.413 61.5028 16.3991 61.5157 16.3883C61.5287 16.3774 61.544 16.3697 61.5604 16.366C61.5769 16.3622 61.5939 16.3624 61.6103 16.3666C61.6266 16.3707 61.6417 16.3788 61.6544 16.39C61.6054 17.0639 61.2281 17.5575 60.7357 17.9932C61.1045 17.9331 61.697 17.0789 61.8313 16.4372C62.0817 16.5176 62.3128 16.6493 62.5102 16.824C62.7075 16.9987 62.8669 17.2126 62.9782 17.4523C62.8268 17.5189 62.6776 17.5768 62.5369 17.6498C62.1591 17.8387 61.8289 18.1117 61.5713 18.4482L61.5478 18.4696L61.5244 18.4911L61.4796 18.5576L61.2515 18.8109ZM60.7591 18.0189L60.7399 17.9889L60.6163 18.0747L60.6291 18.0962L60.7591 18.0189Z" fill="#FCB017"/>
<path d="M60.2088 19.048C60.2016 19.0404 60.1959 19.0317 60.1917 19.0222C60.1901 19.0051 60.1901 18.9878 60.1917 18.9707C60.4432 19.0887 60.6841 19.0008 60.9271 18.9707C61.1096 18.9596 61.2912 19.0029 61.4494 19.0952C61.5002 19.1232 61.5584 19.1348 61.6161 19.1282C61.6737 19.1217 61.7279 19.0974 61.7713 19.0587C61.9311 18.9342 62.1038 18.8248 62.2679 18.7046C62.3461 18.6653 62.4334 18.6481 62.5205 18.6549C62.6076 18.6617 62.6913 18.6922 62.7625 18.7432L62.8456 18.8054C62.7753 18.6295 62.6154 18.5458 62.2871 18.5028C62.4481 18.2911 62.6654 18.1297 62.9138 18.0371L63.1526 18.9342C63.1546 18.9513 63.1546 18.9686 63.1526 18.9857L63.0652 19.0222L61.9588 19.5223C61.8757 19.5631 61.8203 19.5523 61.7904 19.4536C61.7667 19.4061 61.7358 19.3627 61.6988 19.3248L61.6625 19.3484C61.6625 19.3957 61.6817 19.4429 61.6945 19.4901C61.7071 19.5283 61.7075 19.5696 61.6957 19.6081C61.6838 19.6465 61.6603 19.6803 61.6284 19.7047C61.4183 19.8692 61.2532 20.0849 61.1488 20.3314C61.1006 20.4531 61.0085 20.552 60.8909 20.6083C60.6457 20.7327 60.4027 20.8615 60.1597 20.9903C60.1523 20.9624 60.1551 20.9327 60.1676 20.9066C60.1801 20.8806 60.2016 20.86 60.2279 20.8486C60.3851 20.7656 60.5368 20.6724 60.682 20.5696C60.7952 20.4913 60.8929 20.3923 60.9698 20.2777C61.0474 20.1252 61.1144 19.9675 61.1701 19.8056C61.1988 19.7346 61.2036 19.6562 61.184 19.5823C61.1644 19.5083 61.1214 19.4428 61.0614 19.3957C60.9643 19.3305 60.8598 19.2772 60.7502 19.2368C60.5647 19.1682 60.3836 19.1102 60.2088 19.048Z" fill="#F9CEA2"/>
<path d="M60.6978 16.0135C60.6001 16.2911 60.4614 16.5523 60.2864 16.7882C60.118 17.0029 59.9624 17.0179 59.7726 16.8183C59.5558 16.5792 59.382 16.304 59.2589 16.0049L59.6852 16.0736C60.0237 16.1124 60.3662 16.092 60.6978 16.0135Z" fill="#C49265"/>
<path d="M60.9809 19.7881C60.956 19.8896 60.908 19.984 60.8406 20.0637C60.7733 20.1434 60.6885 20.2063 60.593 20.2474C60.5812 20.2546 60.5682 20.2597 60.5546 20.2624C60.3137 20.3311 60.0707 20.3933 60.0302 20.7324C60.0104 20.7007 59.9926 20.6677 59.9769 20.6337C59.9542 20.5482 59.9068 20.4714 59.8408 20.413C59.7748 20.3546 59.6931 20.3171 59.606 20.3053C59.4412 20.2729 59.2914 20.187 59.1797 20.0607C59.1208 19.9878 59.0753 19.905 59.0454 19.816C59.6809 19.9854 60.3505 19.9758 60.9809 19.7881Z" fill="#FCB017"/>
<path d="M60.049 18.702L60.9016 18.2019L61.5411 17.8242C61.4729 18.0045 61.4089 18.1869 61.3386 18.3651C61.2682 18.5432 61.2171 18.6548 61.1553 18.7943L60.601 18.8136L61.2704 18.1698V18.144L61.2533 18.1569C60.9847 18.3393 60.7119 18.5153 60.4476 18.7042C60.3916 18.7512 60.3208 18.7768 60.2479 18.7764C60.1749 18.776 60.1045 18.7497 60.049 18.702Z" fill="#E97824"/>
<path d="M60.0147 19.1289C60.0361 19.2985 60.1554 19.3435 60.2812 19.3907C60.4453 19.4465 60.6116 19.4981 60.7779 19.5517C60.8184 19.5667 60.8567 19.5882 60.91 19.6118C60.3285 19.7899 59.7074 19.7899 59.1259 19.6118C59.1641 19.5888 59.204 19.5687 59.2452 19.5517C59.4072 19.4981 59.5692 19.4487 59.7312 19.3929C59.8613 19.3521 59.9956 19.3113 60.0147 19.1289Z" fill="#E97824"/>
<path d="M60.1599 20.9942C60.4029 20.8654 60.6459 20.7366 60.891 20.6122C61.0086 20.556 61.1008 20.4571 61.149 20.3353C61.2534 20.0888 61.4184 19.8731 61.6286 19.7086C61.6604 19.6843 61.684 19.6505 61.6958 19.612C61.7077 19.5735 61.7073 19.5322 61.6947 19.494C61.6819 19.4468 61.6733 19.3996 61.6627 19.3524L61.6989 19.3287C61.7359 19.3666 61.7669 19.4101 61.7906 19.4575C61.8204 19.5562 61.8758 19.567 61.959 19.5262L63.0482 19.0218L63.1356 18.9854C63.1783 19.0669 63.1463 19.112 63.0717 19.1463C62.6454 19.3609 62.2318 19.5756 61.8098 19.7752C61.687 19.8337 61.5803 19.9213 61.4985 20.0305C61.3941 20.1722 61.2982 20.3203 61.1895 20.4598C61.1312 20.5384 61.0589 20.6054 60.9763 20.6572C60.7056 20.8032 60.4285 20.9362 60.1428 21.0865L60.1599 20.9942Z" fill="#C29164"/>
<path d="M61.2517 18.815L61.4862 18.5575L61.531 18.491L61.5544 18.4695L61.5778 18.448H61.612L61.6439 18.4266L61.6652 18.3965C61.6652 18.3965 61.6652 18.3837 61.678 18.3837C61.7119 18.3758 61.7447 18.3643 61.7761 18.3493C61.9466 18.2377 62.1086 18.1132 62.2856 18.0145C62.4987 17.8943 62.7417 17.7999 62.9698 17.6904C62.9676 17.733 62.9516 17.7736 62.9243 17.8062C62.8969 17.8387 62.8598 17.8614 62.8185 17.8707C62.4968 17.9979 62.2226 18.223 62.034 18.5146C62.034 18.5146 62.0234 18.5274 62.0234 18.5339C61.9978 18.7807 61.7569 18.8043 61.6141 18.9288C61.6047 18.9331 61.5945 18.9353 61.5842 18.9353C61.574 18.9353 61.5638 18.9331 61.5544 18.9288C61.45 18.8966 61.3519 18.8558 61.2517 18.815Z" fill="#E97824"/>
<path d="M56.9032 18.9854L57.8326 19.4146C57.9157 19.4532 58.0052 19.4811 58.0884 19.5198C58.1715 19.5584 58.2056 19.5412 58.2333 19.4575C58.256 19.407 58.2846 19.3595 58.3186 19.3159L58.3591 19.333C58.3539 19.3865 58.3453 19.4395 58.3335 19.4919C58.3187 19.5245 58.3155 19.5613 58.3244 19.5961C58.3333 19.6309 58.3539 19.6615 58.3825 19.6829C58.4792 19.7684 58.5704 19.8602 58.6554 19.9576C58.7257 20.0424 58.7859 20.1353 58.8344 20.2344C58.9024 20.4097 59.0333 20.553 59.2011 20.6358C59.4313 20.7431 59.6509 20.8654 59.8768 20.9835V21.0521C59.5826 20.8998 59.2927 20.7538 59.0092 20.5993C58.95 20.5607 58.8992 20.5103 58.86 20.4512C58.7364 20.2859 58.6255 20.1057 58.4891 19.9511C58.4027 19.8618 58.3009 19.7891 58.1886 19.7365C57.7857 19.5219 57.3807 19.3309 56.9735 19.1313C56.9591 19.1267 56.9458 19.1193 56.9344 19.1093C56.923 19.0994 56.9137 19.0872 56.9071 19.0736C56.9005 19.0599 56.8968 19.045 56.8961 19.0299C56.8954 19.0147 56.8978 18.9996 56.9032 18.9854Z" fill="#C29164"/>
<path d="M58.8471 19.7401C58.8272 19.6794 58.8279 19.6137 58.8491 19.5535C58.8703 19.4933 58.9109 19.4419 58.9644 19.4074C59.0999 19.3269 59.2426 19.2593 59.3907 19.2057C59.5399 19.1413 59.6934 19.0855 59.8447 19.0254C59.8453 19.0701 59.8299 19.1136 59.8014 19.1478C59.7728 19.1821 59.733 19.2049 59.6891 19.2121C59.5186 19.2658 59.3481 19.3173 59.1818 19.3752C59.098 19.399 59.0223 19.4456 58.9632 19.51C58.9042 19.5744 58.864 19.6541 58.8471 19.7401Z" fill="#C29164"/>
<path d="M60.2097 19.0488C60.3909 19.1111 60.5721 19.169 60.7491 19.2377C60.8587 19.278 60.9632 19.3313 61.0603 19.3965C61.1222 19.4426 61.1672 19.508 61.1884 19.5825C61.2096 19.657 61.2058 19.7365 61.1775 19.8086C61.1799 19.7177 61.1535 19.6283 61.1021 19.5535C61.0508 19.4787 60.9772 19.4222 60.8919 19.3922C60.7043 19.3257 60.5146 19.2634 60.3249 19.2055C60.2899 19.1983 60.2588 19.1783 60.2375 19.1493C60.2163 19.1204 60.2064 19.0846 60.2097 19.0488Z" fill="#C09064"/>
<path d="M62.9628 17.6882C62.7347 17.7955 62.5002 17.8921 62.2785 18.0123C62.1016 18.111 61.9396 18.2269 61.7691 18.3471C61.7377 18.362 61.7048 18.3735 61.671 18.3814C62.0148 18.0408 62.4387 17.7934 62.9031 17.6624C62.9479 17.6496 62.9479 17.6517 62.9628 17.6882Z" fill="#FCB017"/>
<path d="M60.6509 20.3656L60.224 20.6364L60.2091 20.5956C60.2987 20.4065 60.4994 20.4215 60.6616 20.3613L60.6509 20.3656Z" fill="#B6885E"/>
<path d="M59.4183 20.3848C59.4973 20.4106 59.5763 20.4406 59.6574 20.4621C59.6989 20.4706 59.7373 20.4906 59.7682 20.5198C59.7991 20.5491 59.8213 20.5864 59.8324 20.6276L59.8132 20.6426L59.4055 20.402L59.4183 20.3848Z" fill="#BA8B60"/>
<path d="M59.4058 20.394H59.3713V20.3789H59.4165L59.4058 20.394Z" fill="#BA8B60"/>
<path d="M59.833 20.6162V20.6403H59.8134L59.833 20.6162Z" fill="#BA8B60"/>
<path d="M59.2625 21.1425C59.028 21.0888 58.7935 21.0352 58.5569 20.9858C57.9971 20.8636 57.4236 20.8174 56.8516 20.8485C56.649 20.8678 56.4486 20.9051 56.2526 20.9601C55.9733 21.0416 55.674 21.0156 55.4127 20.8871L55.515 20.9043C55.5491 20.9043 55.5854 20.9043 55.6216 20.9043C55.8397 20.9175 56.058 20.8823 56.2611 20.8012C56.6815 20.6565 57.1286 20.6081 57.5699 20.6596C58.073 20.7067 58.5661 20.8304 59.0322 21.0266C59.1132 21.0588 59.19 21.0974 59.271 21.1339L59.2625 21.1425Z" fill="#180A01"/>
<path d="M60.6738 21.2989C60.7556 21.2317 60.8418 21.17 60.9318 21.1143C61.4978 20.8094 62.1341 20.6612 62.7756 20.6851C63.1824 20.6869 63.587 20.7454 63.9779 20.859C64.0283 20.8708 64.0755 20.8935 64.1164 20.9255C64.0589 20.9255 63.9992 20.9083 63.9416 20.9062C63.5515 20.889 63.1636 20.8611 62.7756 20.8632C62.0854 20.8601 61.4017 20.9974 60.7655 21.2667C60.7355 21.2773 60.7049 21.2859 60.6738 21.2925V21.2989Z" fill="#150801"/>
<path d="M60.6744 21.2988L60.6525 21.3141H60.6787L60.6744 21.2988Z" fill="#150801"/>
<path d="M57.2252 18.7763L57.2056 18.7937V18.7588L57.2252 18.7763Z" fill="#050402"/>
<path d="M60.7592 18.0211L60.629 18.0979L60.6162 18.0766L60.74 17.9912L60.7592 18.0211Z" fill="#050402"/>
<path d="M61.2753 18.1616L61.2928 18.1484V18.1747L61.2753 18.1616Z" fill="#050402"/>
<path d="M56.928 14.7006C56.928 14.7006 57.0196 14.7156 57.026 14.7306C57.2754 15.4196 56.7084 14.634 57.4524 15.3874C57.4909 15.4266 57.5338 15.4611 57.5803 15.4904L57.6336 15.5204L57.7593 15.5591H57.7998C58.0236 15.6213 58.1473 15.6749 58.2965 15.72C58.4524 15.7672 58.6122 15.8003 58.774 15.8187C59.1702 15.8816 59.5693 15.9239 59.9698 15.9454C60.5588 15.9305 61.144 15.8463 61.7135 15.6943C61.9943 15.6217 62.2688 15.5263 62.5342 15.4088C62.5792 15.382 62.6226 15.3526 62.6642 15.3208C62.8006 15.2157 63.0287 15.0933 63.0628 14.9388H62.9413C62.9584 14.8637 63.082 14.7864 63.0628 14.6984C63.0628 14.6984 63.114 14.6469 63.114 14.6405C63.114 14.634 63.114 14.6405 63.114 14.6276C63.0466 14.4576 62.9346 14.3093 62.79 14.1984C62.722 14.1191 62.6269 14.0685 62.5235 14.0567H62.4894C62.4894 14.0567 63.1289 12.8334 62.4724 11.7775L62.4553 11.7517C62.3272 11.5199 62.1425 11.3248 61.9187 11.1848C61.695 11.0447 61.4395 10.9643 61.1763 10.9512C60.6051 10.9512 60.1105 11.2946 60.0103 11.7066C60.0001 11.751 59.9951 11.7963 59.9954 11.8418C59.9954 11.3826 59.4668 10.9576 58.8486 10.9512C58.5791 10.9575 58.3159 11.0347 58.0851 11.1752C57.8544 11.3156 57.6642 11.5144 57.5334 11.7517L57.5184 11.7775C56.8683 12.8334 57.5184 14.0567 57.5184 14.0567C57.4652 14.0652 57.4141 14.0844 57.3683 14.1132C57.3226 14.142 57.283 14.1797 57.252 14.2241C57.122 14.3402 57.018 14.4829 56.9472 14.6426C56.9482 14.649 56.9482 14.6555 56.9472 14.6619L56.928 14.7006Z" fill="#FBD0A4"/>
<path d="M62.9799 12.838C63.0111 12.6763 63.0983 12.5311 63.2259 12.4281C63.3536 12.3251 63.5134 12.2711 63.6769 12.2757C64.2546 12.2757 64.5146 12.838 64.4486 13.2629C64.4352 13.4452 64.3668 13.619 64.2525 13.7609C64.1382 13.9029 63.9834 14.0062 63.8091 14.057C63.5682 14.1252 63.3147 14.1348 63.0694 14.0849" fill="#FDCAA0"/>
<path d="M64.3292 13.4232C64.3953 12.9939 64.1353 12.4338 63.5554 12.4338C63.4569 12.4287 63.3584 12.4459 63.2673 12.4842C63.1762 12.5224 63.0947 12.5807 63.0289 12.6548C63.0851 12.5337 63.176 12.4323 63.29 12.3638C63.4041 12.2953 63.5359 12.2629 63.6684 12.2707C64.2461 12.2707 64.5062 12.833 64.4422 13.2579C64.4208 13.4477 64.3469 13.6276 64.229 13.7773C64.2807 13.6653 64.3145 13.5458 64.3292 13.4232Z" fill="white"/>
<path d="M62.9799 13.0857C62.9999 12.9953 63.0512 12.915 63.1246 12.8592C63.198 12.8034 63.2888 12.7756 63.3806 12.7809C63.4476 12.7798 63.5141 12.7936 63.5751 12.8215C63.6362 12.8494 63.6903 12.8907 63.7336 12.9422C63.7768 12.9938 63.8082 13.0544 63.8253 13.1197C63.8424 13.185 63.8449 13.2533 63.8325 13.3196C63.8221 13.4212 63.7806 13.5171 63.7138 13.594C63.647 13.6708 63.5581 13.725 63.4595 13.7488C63.3202 13.7855 63.1746 13.7906 63.0331 13.7639" fill="#F37A6D"/>
<path d="M63.2107 13.8566C63.1427 13.8577 63.0747 13.8512 63.0082 13.8373C62.989 13.8331 62.9722 13.8216 62.9615 13.8051C62.9507 13.7887 62.9468 13.7686 62.9506 13.7493C62.9524 13.7396 62.9561 13.7304 62.9615 13.7222C62.9669 13.714 62.9739 13.7069 62.982 13.7015C62.9902 13.6961 62.9993 13.6924 63.009 13.6907C63.0186 13.6889 63.0285 13.6891 63.038 13.6913C63.1676 13.7142 63.3006 13.7091 63.4281 13.6763C63.5141 13.6548 63.5913 13.6069 63.6489 13.5392C63.7066 13.4715 63.7419 13.3874 63.75 13.2986C63.7585 13.2411 63.7547 13.1825 63.7389 13.1266C63.7231 13.0707 63.6956 13.0188 63.6583 12.9745C63.6244 12.9336 63.5815 12.9011 63.5331 12.8795C63.4847 12.8579 63.432 12.8478 63.3791 12.85C63.3041 12.8436 63.2295 12.8649 63.1691 12.91C63.1086 12.955 63.0666 13.0207 63.0508 13.0947C63.0467 13.1141 63.0353 13.1311 63.019 13.1423C63.0027 13.1535 62.9828 13.158 62.9634 13.1548C62.9442 13.1506 62.9275 13.1391 62.9167 13.1226C62.9059 13.1062 62.902 13.0861 62.9058 13.0668C62.9285 12.959 62.9886 12.8628 63.0753 12.7955C63.162 12.7283 63.2697 12.6943 63.3791 12.6998C63.4538 12.698 63.5281 12.713 63.5963 12.7438C63.6645 12.7747 63.7251 12.8205 63.7734 12.8779C63.8341 12.9541 63.8751 13.0443 63.8925 13.1403C63.91 13.2364 63.9034 13.3353 63.8733 13.4282C63.8433 13.521 63.7907 13.6049 63.7205 13.6722C63.6502 13.7395 63.5643 13.7881 63.4707 13.8137C63.3866 13.8406 63.299 13.8551 63.2107 13.8566Z" fill="#150801"/>
<path d="M63.3812 14.193C63.2666 14.1936 63.1523 14.1821 63.0401 14.1587C63.0214 14.1541 63.0051 14.1424 62.9948 14.126C62.9844 14.1095 62.9808 14.0897 62.9847 14.0707C62.9867 14.0609 62.9906 14.0517 62.9962 14.0435C63.0019 14.0352 63.009 14.0282 63.0174 14.0228C63.0257 14.0174 63.035 14.0138 63.0448 14.012C63.0545 14.0103 63.0645 14.0106 63.0742 14.0128C63.3067 14.06 63.547 14.0512 63.7755 13.987C63.9378 13.9412 64.0822 13.8462 64.189 13.7148C64.2958 13.5835 64.3598 13.4223 64.3724 13.253C64.3888 13.1342 64.3808 13.0133 64.3489 12.8977C64.317 12.7822 64.2619 12.6745 64.1869 12.5812C64.1235 12.5069 64.0446 12.4476 63.9558 12.4075C63.867 12.3674 63.7705 12.3476 63.6732 12.3495C63.5269 12.3452 63.3838 12.3933 63.2695 12.4853C63.1551 12.5772 63.0768 12.7071 63.0486 12.8517C63.0455 12.8713 63.0347 12.8889 63.0188 12.9005C63.0028 12.9122 62.9829 12.917 62.9634 12.9139C62.944 12.9098 62.9268 12.8984 62.9154 12.8821C62.9039 12.8658 62.899 12.8457 62.9015 12.8259C62.9378 12.6476 63.0347 12.4876 63.1756 12.3736C63.3165 12.2596 63.4925 12.1987 63.6732 12.2014C63.792 12.1987 63.9099 12.2228 64.0183 12.2718C64.1267 12.3208 64.2229 12.3935 64.2999 12.4847C64.3881 12.5945 64.4526 12.7217 64.4893 12.858C64.526 12.9944 64.5341 13.1369 64.5131 13.2766C64.4972 13.4744 64.4217 13.6625 64.2968 13.8159C64.1719 13.9693 64.0034 14.0807 63.8139 14.1351C63.6732 14.1752 63.5274 14.1948 63.3812 14.193Z" fill="#150801"/>
<path d="M57.0588 12.8377C57.0279 12.6779 56.9422 12.5341 56.8168 12.4314C56.6914 12.3286 56.5341 12.2734 56.3724 12.2754C55.7947 12.2754 55.5347 12.8377 55.6007 13.2627C55.6141 13.445 55.6825 13.6188 55.7968 13.7607C55.9111 13.9027 56.0659 14.006 56.2402 14.0568C56.4811 14.125 56.7347 14.1346 56.9799 14.0847" fill="#FDCAA0"/>
<path d="M55.6944 13.426C55.6305 12.9967 55.8906 12.4366 56.4682 12.4366C56.5671 12.4318 56.6658 12.4491 56.7572 12.4873C56.8486 12.5255 56.9305 12.5837 56.9969 12.6576C56.9403 12.5368 56.8492 12.4358 56.7353 12.3673C56.6214 12.2989 56.4898 12.2662 56.3574 12.2734C55.7797 12.2734 55.5197 12.8357 55.5857 13.2607C55.608 13.4503 55.6818 13.63 55.7989 13.7801C55.7467 13.668 55.7115 13.5486 55.6944 13.426Z" fill="white"/>
<path d="M55.5892 13.2634C55.6025 13.4457 55.6709 13.6195 55.7852 13.7614C55.8996 13.9034 56.0543 14.0067 56.2287 14.0575C56.4695 14.1257 56.7231 14.1353 56.9684 14.0854L56.9854 13.8193C56.746 13.8549 56.5019 13.8388 56.2692 13.7721C56.0934 13.7242 55.9349 13.6265 55.8125 13.4907C55.6901 13.3549 55.6089 13.1867 55.5785 13.0059C55.5703 13.0918 55.5739 13.1785 55.5892 13.2634Z" fill="#150801"/>
<path d="M64.4444 13.2634C64.4311 13.4457 64.3627 13.6195 64.2484 13.7614C64.1341 13.9034 63.9793 14.0067 63.805 14.0575C63.5641 14.1257 63.3105 14.1353 63.0653 14.0854L63.0482 13.8193C63.2876 13.8549 63.5317 13.8388 63.7644 13.7721C63.9403 13.7242 64.0988 13.6265 64.2212 13.4907C64.3436 13.3549 64.4248 13.1867 64.4551 13.0059C64.4633 13.0918 64.4598 13.1785 64.4444 13.2634Z" fill="#150801"/>
<path d="M57.0577 13.0857C57.0376 12.9953 56.9863 12.915 56.9129 12.8592C56.8395 12.8034 56.7488 12.7756 56.6569 12.7809C56.5906 12.7808 56.5251 12.7953 56.4651 12.8235C56.405 12.8517 56.3518 12.8929 56.3093 12.9441C56.2668 12.9953 56.236 13.0553 56.2191 13.1198C56.2021 13.1843 56.1995 13.2518 56.2114 13.3175C56.2218 13.4191 56.2633 13.5149 56.3301 13.5918C56.3969 13.6687 56.4858 13.7228 56.5845 13.7467C56.7237 13.7834 56.8693 13.7885 57.0108 13.7617" fill="#F18475"/>
<path d="M56.2118 13.3195C56.2222 13.4211 56.2637 13.517 56.3305 13.5938C56.3973 13.6707 56.4862 13.7248 56.5849 13.7487L56.6531 13.7659C56.7715 13.7867 56.8927 13.7867 57.0112 13.7659L57.0581 13.0856C57.0443 13.028 57.0189 12.9739 56.9835 12.9267C56.9443 12.8783 56.8944 12.8399 56.8377 12.8145C56.7811 12.7891 56.7193 12.7776 56.6573 12.7808C56.5908 12.7806 56.5251 12.7952 56.4648 12.8235C56.4046 12.8518 56.3513 12.8932 56.3087 12.9446C56.2662 12.9961 56.2354 13.0564 56.2187 13.1212C56.2019 13.186 56.1996 13.2537 56.2118 13.3195Z" fill="#F37A6D"/>
<path d="M56.6087 13.5441C56.6263 13.6347 56.6773 13.7152 56.7515 13.7695C56.8703 13.7859 56.9908 13.7859 57.1096 13.7695L57.1565 13.2608C57.1416 13.2148 57.1152 13.1734 57.0798 13.1406H57.0521C56.7195 13.1406 56.5703 13.3703 56.6087 13.5441Z" fill="#150801"/>
<path d="M63.5134 13.5441C63.4958 13.6347 63.4448 13.7152 63.3706 13.7695C63.2518 13.7859 63.1313 13.7859 63.0125 13.7695L62.9656 13.2608C62.9801 13.2151 63.0057 13.1738 63.0402 13.1406H63.0679C63.4068 13.1406 63.5518 13.3703 63.5134 13.5441Z" fill="#150801"/>
<path d="M56.8243 13.8589C56.7363 13.8595 56.6487 13.8472 56.5642 13.8225C56.4706 13.7969 56.3848 13.7483 56.3145 13.681C56.2442 13.6137 56.1917 13.5298 56.1616 13.437C56.1316 13.3441 56.125 13.2452 56.1425 13.1491C56.1599 13.053 56.2008 12.9629 56.2616 12.8867C56.3099 12.8293 56.3704 12.7834 56.4387 12.7526C56.5069 12.7218 56.5811 12.7067 56.6559 12.7086C56.7671 12.703 56.8765 12.7382 56.9639 12.8077C57.0513 12.8771 57.1108 12.9761 57.1313 13.0863C57.1331 13.096 57.133 13.106 57.131 13.1157C57.129 13.1254 57.1251 13.1346 57.1196 13.1428C57.1141 13.151 57.107 13.158 57.0987 13.1634C57.0905 13.1688 57.0813 13.1725 57.0716 13.1743C57.062 13.1761 57.0522 13.176 57.0427 13.174C57.0333 13.172 57.0243 13.168 57.0163 13.1624C57.0084 13.1568 57.0016 13.1497 56.9965 13.1414C56.9913 13.1331 56.9879 13.1239 56.9863 13.1142C56.9705 13.0402 56.9285 12.9745 56.868 12.9295C56.8076 12.8845 56.733 12.8632 56.658 12.8695C56.6051 12.8673 56.5524 12.8774 56.504 12.899C56.4556 12.9206 56.4127 12.9531 56.3788 12.994C56.3433 13.0361 56.3168 13.085 56.3006 13.1378C56.2845 13.1905 56.2792 13.246 56.285 13.3009C56.2943 13.3886 56.3302 13.4713 56.3877 13.5377C56.4453 13.6041 56.5218 13.6511 56.6069 13.6722C56.7344 13.705 56.8674 13.7102 56.997 13.6872C57.0065 13.6851 57.0164 13.6848 57.026 13.6866C57.0356 13.6883 57.0448 13.692 57.0529 13.6974C57.0611 13.7029 57.0681 13.7099 57.0735 13.7181C57.0789 13.7263 57.0826 13.7355 57.0844 13.7452C57.0882 13.7645 57.0843 13.7846 57.0735 13.801C57.0627 13.8175 57.046 13.8291 57.0268 13.8332C56.9605 13.8493 56.8926 13.858 56.8243 13.8589Z" fill="#150801"/>
<path d="M56.6535 14.1937C56.5049 14.1947 56.3569 14.1737 56.2144 14.1315C56.0249 14.0771 55.8564 13.9657 55.7315 13.8123C55.6065 13.6589 55.5311 13.4708 55.5152 13.273C55.4942 13.1334 55.5023 12.9908 55.539 12.8545C55.5757 12.7181 55.6402 12.5909 55.7284 12.4811C55.8076 12.3884 55.9067 12.3151 56.0183 12.2668C56.1298 12.2184 56.2508 12.1963 56.3721 12.2021C56.5529 12.1994 56.7289 12.2603 56.8697 12.3743C57.0106 12.4883 57.1075 12.6483 57.1438 12.8266C57.1469 12.8465 57.1422 12.8668 57.1306 12.8833C57.1191 12.8997 57.1016 12.9109 57.082 12.9146C57.0625 12.9177 57.0425 12.9129 57.0266 12.9012C57.0106 12.8896 56.9998 12.872 56.9967 12.8524C56.9685 12.7078 56.8902 12.5779 56.7759 12.486C56.6615 12.394 56.5184 12.3459 56.3721 12.3502C56.2748 12.3483 56.1783 12.3682 56.0895 12.4082C56.0007 12.4483 55.9218 12.5076 55.8584 12.5819C55.7834 12.6752 55.7283 12.7829 55.6964 12.8984C55.6645 13.014 55.6565 13.1349 55.6729 13.2537C55.6855 13.423 55.7495 13.5842 55.8563 13.7155C55.9631 13.8469 56.1075 13.9419 56.2698 13.9877C56.4982 14.0523 56.7386 14.0611 56.9711 14.0135C56.9808 14.0113 56.9908 14.011 57.0005 14.0127C57.0103 14.0145 57.0196 14.0181 57.0279 14.0235C57.0363 14.0289 57.0435 14.0359 57.0491 14.0442C57.0547 14.0524 57.0586 14.0616 57.0606 14.0714C57.0645 14.0904 57.0609 14.1102 57.0505 14.1267C57.0402 14.1431 57.024 14.1548 57.0052 14.1594C56.8895 14.1835 56.7716 14.195 56.6535 14.1937Z" fill="#150801"/>
<path d="M56.6936 12.5033C56.7053 12.9858 56.8452 13.4564 57.0987 13.8661C56.9933 13.8973 56.9007 13.9616 56.8343 14.0497C56.7679 14.1378 56.7313 14.2449 56.7299 14.3554C56.7114 14.4806 56.7172 14.6081 56.7469 14.731C56.845 15.1066 57.1519 15.332 57.5847 15.4886L57.6699 15.5187C57.5094 15.4424 57.3696 15.3282 57.2624 15.1859C57.1551 15.0435 57.0836 14.8771 57.0539 14.701C57.0529 14.6931 57.0529 14.6852 57.0539 14.6774V14.6495C57.0539 14.6495 57.0539 14.6344 57.0539 14.628C57.0577 14.5528 57.0765 14.4791 57.1091 14.4112C57.1417 14.3434 57.1874 14.2829 57.2436 14.2331C57.33 14.1576 57.4308 14.1006 57.5399 14.0657C57.5399 14.0657 56.9004 12.8424 57.5399 11.7864L57.557 11.7607C57.6848 11.5286 57.8694 11.3333 58.0932 11.1932C58.317 11.0531 58.5727 10.9729 58.8359 10.9602C59.4051 10.9602 59.9018 11.3035 59.9977 11.7156C60.0079 11.7599 60.0129 11.8053 60.0126 11.8508H60.0275C60.0275 11.3937 60.5519 10.9709 61.1637 10.9602C61.4351 10.9642 61.7007 11.0404 61.9335 11.1809C62.1664 11.3215 62.3582 11.5215 62.4896 11.7607L62.5066 11.7864C63.1568 12.8424 62.5066 14.0657 62.5066 14.0657C62.6036 14.0954 62.694 14.1435 62.7731 14.2074C62.8344 14.2561 62.885 14.3171 62.9217 14.3866C62.9584 14.456 62.9804 14.5324 62.9862 14.6108C62.9873 14.6323 62.9873 14.6538 62.9862 14.6752C62.9818 14.7665 62.9601 14.8561 62.9223 14.9392C62.8563 15.0858 62.7621 15.2179 62.6452 15.3277C62.5633 15.4049 62.4697 15.4687 62.3681 15.5165C62.8477 15.3577 63.1866 15.1281 63.2911 14.7289C63.3222 14.5996 63.3273 14.4653 63.306 14.334C63.3016 14.2268 63.2639 14.1237 63.1981 14.0393C63.1323 13.955 63.0417 13.8936 62.9393 13.864C63.1928 13.4543 63.3327 12.9837 63.3444 12.5011C63.4275 10.9602 62.2082 9.67459 60.6734 9.4106C60.5349 9.36768 60.3132 9.29256 60.0169 9.19599C59.7504 9.08627 59.5179 8.90698 59.3433 8.67661C59.3371 8.66818 59.3291 8.66132 59.3199 8.6566C59.3106 8.65188 59.3004 8.64941 59.29 8.64941C59.2796 8.64941 59.2694 8.65188 59.2601 8.6566C59.2508 8.66132 59.2428 8.66818 59.2367 8.67661C59.1491 8.83565 59.0777 9.00319 59.0235 9.17667C59.0217 9.18674 59.0176 9.19623 59.0114 9.20436C59.0053 9.2125 58.9973 9.21904 58.9881 9.22344C58.979 9.22785 58.9689 9.22999 58.9587 9.2297C58.9486 9.2294 58.9386 9.22667 58.9297 9.22174C58.8637 9.18311 58.7613 9.05434 58.6654 8.97922C58.6575 8.97318 58.6483 8.96901 58.6386 8.96703C58.6288 8.96505 58.6188 8.96531 58.6091 8.96778C58.5995 8.97026 58.5906 8.97489 58.583 8.98132C58.5754 8.98776 58.5693 8.99585 58.5652 9.00497C58.4726 9.22671 58.4303 9.46649 58.4416 9.70678C57.3736 10.2283 56.6276 11.2864 56.6936 12.5033Z" fill="#150801"/>
<path d="M56.6936 12.5033C56.7533 11.4109 57.476 10.4172 58.5759 9.90852C58.5549 9.70491 58.5656 9.49925 58.6079 9.299C58.6228 9.25822 58.6377 9.24749 58.6718 9.27325C58.7677 9.34836 58.87 9.48787 58.9361 9.51362C58.9445 9.5186 58.9538 9.52161 58.9634 9.52242C58.9731 9.52324 58.9828 9.52183 58.9918 9.51832C59.0009 9.51481 59.009 9.50928 59.0156 9.50214C59.0222 9.49501 59.0271 9.48646 59.0299 9.47714C59.0832 9.30334 59.1547 9.13571 59.2431 8.97707C59.2492 8.96865 59.2572 8.96179 59.2665 8.95707C59.2758 8.95234 59.286 8.94988 59.2964 8.94988C59.3068 8.94988 59.317 8.95234 59.3262 8.95707C59.3355 8.96179 59.3435 8.96865 59.3497 8.97707C59.5315 9.20855 59.7725 9.38586 60.0467 9.49001C60.343 9.59518 60.5647 9.66815 60.7033 9.70463C62.14 9.95145 63.2996 11.0911 63.3742 12.4947C63.4573 10.9537 62.238 9.66815 60.7033 9.40417C60.5647 9.3591 60.343 9.28613 60.0467 9.18955C59.7702 9.08631 59.5269 8.90894 59.3433 8.67661C59.3371 8.66818 59.3291 8.66132 59.3199 8.6566C59.3106 8.65188 59.3004 8.64941 59.29 8.64941C59.2796 8.64941 59.2694 8.65188 59.2601 8.6566C59.2508 8.66132 59.2428 8.66818 59.2367 8.67661C59.1491 8.83565 59.0777 9.00319 59.0235 9.17667C59.0217 9.18674 59.0176 9.19623 59.0114 9.20436C59.0053 9.2125 58.9973 9.21904 58.9881 9.22344C58.979 9.22785 58.9689 9.22999 58.9587 9.2297C58.9486 9.2294 58.9386 9.22667 58.9297 9.22174C58.8637 9.18311 58.7613 9.05434 58.6654 8.97922C58.6575 8.97318 58.6483 8.96901 58.6386 8.96703C58.6288 8.96505 58.6188 8.96531 58.6091 8.96778C58.5995 8.97026 58.5906 8.97489 58.583 8.98132C58.5754 8.98776 58.5693 8.99585 58.5652 9.00497C58.4726 9.22671 58.4303 9.46649 58.4416 9.70678C57.3736 10.2283 56.6276 11.2864 56.6936 12.5033Z" fill="#6D6D6D"/>
<path d="M57.6702 15.5942H57.6467C57.0861 15.4097 56.777 15.1414 56.6747 14.7551C56.6123 14.5064 56.6466 14.243 56.7706 14.0189C56.8217 13.9357 56.8958 13.8693 56.9838 13.8279C56.7599 13.425 56.6356 12.9738 56.6214 12.5123C56.5905 11.9091 56.7526 11.3118 57.084 10.8082C57.4151 10.3076 57.8758 9.90762 58.4162 9.65143C58.4338 9.64469 58.4532 9.64485 58.4706 9.65186C58.488 9.65888 58.5022 9.67225 58.5102 9.68931C58.5183 9.70636 58.5197 9.72585 58.5141 9.74388C58.5085 9.76192 58.4964 9.77719 58.4802 9.78664C57.3803 10.321 56.7088 11.3898 56.7749 12.5102C56.7866 12.9785 56.9212 13.4353 57.165 13.8344L57.2332 13.9288L57.1181 13.9503C57.0736 13.9592 57.0316 13.9776 56.9949 14.0043C56.9581 14.0309 56.9274 14.0652 56.9049 14.1048C56.8028 14.2945 56.7754 14.5159 56.8282 14.725C56.9156 15.062 57.1863 15.2873 57.7021 15.4569C57.7207 15.4633 57.7361 15.4767 57.7448 15.4944C57.7536 15.5121 57.7551 15.5325 57.749 15.5513C57.742 15.5659 57.7306 15.5779 57.7165 15.5856C57.7023 15.5933 57.6861 15.5963 57.6702 15.5942Z" fill="#150801"/>
<path d="M62.3916 15.5958C62.3758 15.5953 62.3606 15.5898 62.348 15.5802C62.3354 15.5706 62.326 15.5573 62.3212 15.5422C62.3151 15.5234 62.3166 15.5029 62.3254 15.4853C62.3342 15.4676 62.3495 15.4541 62.3681 15.4477C62.884 15.2782 63.1547 15.0528 63.2421 14.7159C63.2948 14.5068 63.2674 14.2853 63.1653 14.0956C63.1428 14.0561 63.1121 14.0218 63.0754 13.9951C63.0386 13.9685 62.9966 13.9501 62.9522 13.9411L62.8371 13.9196L62.9053 13.8252C63.1507 13.4269 63.2854 12.9696 63.2954 12.501C63.3679 11.1081 62.3404 9.86762 60.8483 9.52209L60.7097 9.49419C60.6981 9.49458 60.6865 9.49223 60.6759 9.48731C60.6653 9.48239 60.656 9.47505 60.6488 9.46587C60.6415 9.45669 60.6365 9.44593 60.6341 9.43445C60.6318 9.42297 60.6321 9.41109 60.6351 9.39975C60.6401 9.38115 60.6519 9.36511 60.668 9.35479C60.6842 9.34446 60.7036 9.3406 60.7225 9.34395L60.8589 9.37185C61.5876 9.5297 62.2453 9.92222 62.7326 10.49C63.2128 11.0478 63.4616 11.7701 63.4275 12.5074C63.4136 12.969 63.2893 13.4203 63.0652 13.8231C63.1536 13.8638 63.2279 13.9304 63.2783 14.0141C63.4023 14.2382 63.4366 14.5015 63.3742 14.7502C63.2719 15.1365 62.9628 15.3941 62.4022 15.5894L62.3916 15.5958Z" fill="#150801"/>
<path d="M61.1678 14.9121C61.3715 14.9121 61.5366 14.8198 61.5366 14.706C61.5366 14.5922 61.3715 14.5 61.1678 14.5C60.9642 14.5 60.7991 14.5922 60.7991 14.706C60.7991 14.8198 60.9642 14.9121 61.1678 14.9121Z" fill="#F48378"/>
<path d="M58.8704 14.9121C59.074 14.9121 59.2391 14.8198 59.2391 14.706C59.2391 14.5922 59.074 14.5 58.8704 14.5C58.6667 14.5 58.5016 14.5922 58.5016 14.706C58.5016 14.8198 58.6667 14.9121 58.8704 14.9121Z" fill="#F48378"/>
<path d="M58.4485 9.78231C58.4294 9.78234 58.411 9.77502 58.3972 9.76185C58.3833 9.74868 58.3749 9.73066 58.3739 9.71149C58.3623 9.45943 58.4067 9.20795 58.5039 8.97534C58.5127 8.95593 58.5257 8.93873 58.5419 8.92499C58.5581 8.91126 58.5772 8.90133 58.5977 8.89593C58.6182 8.89042 58.6397 8.88989 58.6604 8.89436C58.6812 8.89884 58.7006 8.9082 58.7171 8.92169C58.7672 8.96246 58.8149 9.00617 58.8599 9.05261C58.8917 9.08792 58.9267 9.12025 58.9643 9.14918C59.0182 8.97354 59.0896 8.80385 59.1775 8.64268C59.1895 8.62377 59.2058 8.60804 59.2251 8.59683C59.2444 8.58562 59.2661 8.57927 59.2883 8.5783C59.3104 8.57719 59.3324 8.58149 59.3525 8.59084C59.3725 8.60018 59.39 8.61429 59.4034 8.63195C59.584 8.84671 59.8127 9.01517 60.0706 9.12343C60.3271 9.23546 60.5952 9.31825 60.87 9.37024C60.8798 9.37137 60.8893 9.37443 60.8979 9.37925C60.9065 9.38406 60.9141 9.39054 60.9203 9.39831C60.9264 9.40609 60.931 9.415 60.9337 9.42454C60.9364 9.43409 60.9372 9.44408 60.9361 9.45394C60.935 9.46381 60.9319 9.47335 60.9271 9.48204C60.9224 9.49072 60.9159 9.49837 60.9082 9.50455C60.9005 9.51072 60.8916 9.51531 60.8822 9.51804C60.8727 9.52078 60.8628 9.5216 60.853 9.52048C60.5648 9.46642 60.2837 9.37929 60.0152 9.26079C59.7364 9.14668 59.4892 8.96626 59.2947 8.73497C59.216 8.88509 59.1517 9.04249 59.1029 9.20499C59.0966 9.22505 59.086 9.24347 59.0719 9.25889C59.0577 9.27432 59.0403 9.28638 59.0209 9.29419C59.0015 9.302 58.9806 9.30536 58.9598 9.30404C58.9389 9.30272 58.9186 9.29674 58.9004 9.28654C58.8464 9.24973 58.797 9.2065 58.7533 9.15777C58.7149 9.11914 58.6744 9.07836 58.636 9.04617C58.5507 9.25476 58.5122 9.47973 58.5231 9.70505C58.5234 9.71491 58.5217 9.72474 58.5182 9.73396C58.5147 9.74319 58.5095 9.75163 58.5027 9.7588C58.496 9.76598 58.4879 9.77175 58.479 9.77578C58.47 9.77981 58.4604 9.78203 58.4506 9.78231H58.4485Z" fill="#150801"/>
<path d="M60.1182 14.4415C60.1147 14.4426 60.111 14.4428 60.1075 14.4421C60.1039 14.4414 60.1005 14.4398 60.0978 14.4374C60.095 14.4351 60.0929 14.432 60.0916 14.4286C60.0903 14.4252 60.0899 14.4215 60.0905 14.4178C60.0905 14.3684 60.1203 14.2825 60.1908 14.2717C60.2037 14.2672 60.2177 14.2664 60.2311 14.2693C60.2445 14.2723 60.2569 14.2789 60.2668 14.2884C60.2767 14.298 60.2838 14.3101 60.2873 14.3234C60.2909 14.3368 60.2907 14.3509 60.2868 14.3641C60.2797 14.3801 60.2684 14.3937 60.2541 14.4036C60.2398 14.4134 60.223 14.4191 60.2057 14.42L60.1182 14.4415Z" fill="#150801"/>
<path d="M59.8619 14.4415C59.8653 14.4426 59.869 14.4428 59.8726 14.4421C59.8762 14.4414 59.8795 14.4398 59.8823 14.4374C59.8851 14.4351 59.8872 14.432 59.8885 14.4286C59.8898 14.4252 59.8901 14.4215 59.8896 14.4178C59.8896 14.3684 59.8597 14.2825 59.7893 14.2717C59.7763 14.2672 59.7624 14.2664 59.749 14.2693C59.7355 14.2723 59.7232 14.2789 59.7133 14.2884C59.7034 14.298 59.6962 14.3101 59.6927 14.3234C59.6892 14.3368 59.6894 14.3509 59.6932 14.3641C59.7003 14.3801 59.7116 14.3937 59.726 14.4036C59.7403 14.4134 59.757 14.4191 59.7744 14.42L59.8619 14.4415Z" fill="#150801"/>
<path d="M59.8147 14.8675C59.8559 14.9005 59.9029 14.9253 59.9533 14.9405C59.9993 14.9534 60.048 14.9534 60.094 14.9405C60.1383 14.9264 60.1776 14.8995 60.207 14.8632C60.2396 14.8232 60.263 14.7762 60.2752 14.7259C60.2766 14.7198 60.2793 14.7141 60.2831 14.7092C60.2868 14.7042 60.2915 14.7001 60.2969 14.6971C60.3024 14.6941 60.3083 14.6922 60.3145 14.6916C60.3206 14.691 60.3269 14.6917 60.3327 14.6937C60.3425 14.6957 60.3513 14.7011 60.3575 14.7089C60.3637 14.7168 60.367 14.7266 60.3668 14.7366C60.3723 14.8121 60.3523 14.8873 60.3102 14.9499C60.268 15.0126 60.2061 15.0592 60.1345 15.0821C60.0601 15.1046 59.9804 15.1008 59.9085 15.0714C59.8422 15.0428 59.7858 14.995 59.7465 14.9341C59.7406 14.9239 59.7386 14.912 59.741 14.9004C59.7433 14.8889 59.7499 14.8787 59.7593 14.8718C59.7668 14.8666 59.7757 14.8637 59.7849 14.8637C59.794 14.8637 59.803 14.8666 59.8105 14.8718L59.8147 14.8675Z" fill="#150801"/>
<path d="M58.8344 12.7151C58.7713 12.7101 58.708 12.7201 58.6495 12.7444C58.5909 12.7686 58.5389 12.8064 58.4976 12.8546C58.3674 13.0058 58.3008 13.2021 58.3122 13.4019C58.3105 13.5344 58.3386 13.6656 58.3943 13.7856C58.4501 13.9056 58.532 14.0114 58.634 14.0951C58.7003 14.1459 58.7792 14.1772 58.8621 14.1853C59.1584 14.211 59.3929 13.9041 59.3844 13.4985C59.3758 13.0929 59.1307 12.7409 58.8344 12.7151Z" fill="white"/>
<path d="M58.8977 14.2111H58.8593C58.7729 14.2011 58.6906 14.1686 58.6206 14.1167C58.5161 14.0308 58.4322 13.9223 58.375 13.7994C58.3178 13.6764 58.2888 13.5421 58.2902 13.4063C58.2781 13.1998 58.3462 12.9967 58.4799 12.8397C58.524 12.7894 58.5791 12.7502 58.6409 12.7252C58.7027 12.7002 58.7695 12.6902 58.8359 12.6959C59.1428 12.7216 59.3986 13.0865 59.4072 13.5007C59.4141 13.6083 59.3987 13.7161 59.362 13.8173C59.3253 13.9186 59.2681 14.011 59.194 14.0888C59.1148 14.1668 59.0085 14.2106 58.8977 14.2111ZM58.7996 12.7388C58.7438 12.7388 58.6885 12.7507 58.6374 12.7736C58.5864 12.7965 58.5407 12.83 58.5033 12.8719C58.3783 13.0196 58.3149 13.2104 58.3264 13.4041C58.3245 13.5331 58.3515 13.6609 58.4054 13.7779C58.4593 13.895 58.5386 13.9983 58.6376 14.0802C58.6999 14.1273 58.7734 14.157 58.8508 14.166C58.9054 14.1702 58.9603 14.1625 59.0117 14.1437C59.0632 14.1248 59.1101 14.0951 59.1492 14.0566C59.2194 13.9829 59.2739 13.8956 59.3095 13.8001C59.345 13.7045 59.3608 13.6026 59.356 13.5007C59.356 13.108 59.1109 12.7667 58.8252 12.741H58.7933L58.7996 12.7388Z" fill="#272667"/>
<path d="M58.8346 12.7151C58.7715 12.7101 58.7081 12.7201 58.6496 12.7444C58.5911 12.7686 58.5391 12.8064 58.4978 12.8546C58.4851 12.8798 58.4737 12.9056 58.4637 12.9319C58.4498 12.9628 58.444 12.9969 58.447 13.0307C58.45 13.0646 58.4616 13.097 58.4807 13.125C58.5191 13.1615 58.5702 13.1401 58.615 13.1422C58.6589 13.1543 58.6973 13.1811 58.7241 13.2182C58.7508 13.2552 58.7642 13.3004 58.7621 13.3461C58.7621 13.4448 58.6896 13.5264 58.615 13.5135C58.5404 13.5006 58.5042 13.4599 58.4615 13.4963C58.4467 13.5147 58.4361 13.5362 58.4306 13.5592C58.425 13.5822 58.4247 13.6062 58.4296 13.6294C58.4438 13.7982 58.5118 13.9578 58.6235 14.0844L58.6342 14.0951C58.7004 14.1459 58.7794 14.1772 58.8623 14.1853C59.1586 14.211 59.3931 13.9041 59.3845 13.4985C59.376 13.0929 59.1309 12.7409 58.8346 12.7151Z" fill="#4B8CCA"/>
<path d="M59.0539 14.1532C59.2926 14.1261 59.4539 13.8176 59.4142 13.4643C59.3745 13.1109 59.1489 12.8465 58.9103 12.8737C58.6716 12.9008 58.5103 13.2093 58.55 13.5626C58.5897 13.916 58.8153 14.1804 59.0539 14.1532Z" fill="#150801"/>
<path d="M58.6206 13.1216C58.5737 13.1216 58.5225 13.1409 58.4842 13.1044C58.4654 13.0762 58.4542 13.0436 58.4516 13.0098C58.449 12.976 58.455 12.942 58.4693 12.9112C58.4777 12.8846 58.4884 12.8588 58.5012 12.834C58.3718 12.9855 58.306 13.1818 58.3179 13.3813C58.3158 13.5136 58.3435 13.6447 58.3989 13.7648C58.4543 13.8848 58.5359 13.9907 58.6377 14.0745L58.627 14.0638C58.5161 13.9366 58.4481 13.7773 58.433 13.6088C58.4287 13.5856 58.4294 13.5617 58.4349 13.5388C58.4404 13.5159 58.4506 13.4944 58.465 13.4757C58.5076 13.4392 58.5673 13.4757 58.6185 13.4929C58.6696 13.51 58.7655 13.4242 58.7655 13.3255C58.7657 13.2805 58.7517 13.2366 58.7257 13.2C58.6997 13.1634 58.6629 13.136 58.6206 13.1216Z" fill="white"/>
<path d="M58.7991 12.7141H58.8333C59.1295 12.7399 59.3768 13.0918 59.3832 13.4975C59.3896 13.9031 59.1701 14.1864 58.8972 14.1864H58.861C58.7781 14.1783 58.6991 14.1471 58.6329 14.0963C58.5308 14.0126 58.4489 13.9068 58.3932 13.7867C58.3374 13.6667 58.3094 13.5355 58.311 13.403C58.3014 13.2024 58.3703 13.0059 58.5028 12.8558C58.5405 12.812 58.5869 12.7767 58.6391 12.7523C58.6913 12.7278 58.748 12.7148 58.8055 12.7141M58.8055 12.5703C58.7285 12.5716 58.6524 12.5886 58.5821 12.6203C58.5117 12.652 58.4485 12.6978 58.3963 12.7549C58.2479 12.9352 58.1718 13.1649 58.1831 13.3987C58.1815 13.5536 58.215 13.7068 58.2812 13.8467C58.3473 13.9865 58.4442 14.1093 58.5647 14.2057C58.6516 14.2716 58.7548 14.3124 58.8631 14.3238H58.9121C59.0563 14.32 59.1936 14.2609 59.2958 14.1585C59.456 13.9772 59.5394 13.7399 59.5282 13.4975C59.5282 13.0124 59.2191 12.6047 58.846 12.5725L58.8055 12.5703Z" fill="#150801"/>
<path d="M61.2553 12.715C61.3187 12.7102 61.3823 12.7203 61.4411 12.7445C61.4999 12.7687 61.5524 12.8064 61.5942 12.8546C61.7229 13.0065 61.7886 13.2025 61.7775 13.4018C61.7792 13.5343 61.7511 13.6655 61.6954 13.7855C61.6396 13.9055 61.5577 14.0114 61.4557 14.0951C61.3896 14.1462 61.3105 14.1774 61.2276 14.1852C60.9313 14.2109 60.6989 13.904 60.7053 13.4984C60.7117 13.0928 60.959 12.7408 61.2553 12.715Z" fill="white"/>
<path d="M61.1914 14.2111C61.0813 14.2101 60.9759 14.1663 60.8972 14.0888C60.823 14.0111 60.7657 13.9186 60.729 13.8174C60.6923 13.7161 60.677 13.6083 60.684 13.5007C60.684 13.0843 60.9462 12.7216 61.2532 12.6959C61.3196 12.6902 61.3863 12.7002 61.4482 12.7252C61.51 12.7502 61.5651 12.7894 61.6092 12.8397C61.7429 12.9967 61.8109 13.1998 61.7989 13.4063C61.8002 13.5418 61.7714 13.676 61.7146 13.7989C61.6578 13.9218 61.5744 14.0304 61.4706 14.1167C61.3996 14.1683 61.3167 14.2008 61.2297 14.2111H61.1914ZM61.2575 12.741C60.9739 12.7667 60.7352 13.108 60.7288 13.5007C60.7226 13.6022 60.7372 13.704 60.7717 13.7996C60.8061 13.8952 60.8598 13.9827 60.9292 14.0566C60.9678 14.0953 61.0143 14.1251 61.0654 14.144C61.1166 14.1629 61.1712 14.1704 61.2255 14.166C61.303 14.1576 61.3767 14.1279 61.4386 14.0802C61.5376 13.9983 61.617 13.895 61.6709 13.7779C61.7248 13.6609 61.7518 13.5331 61.7499 13.4041C61.7626 13.2109 61.7007 13.0203 61.5772 12.8719C61.5375 12.8268 61.4879 12.7916 61.4325 12.7689C61.377 12.7462 61.3172 12.7366 61.2575 12.741Z" fill="#272667"/>
<path d="M61.256 12.715C61.3194 12.7102 61.383 12.7203 61.4418 12.7445C61.5006 12.7687 61.5531 12.8064 61.5949 12.8546C61.6077 12.8793 61.6184 12.9052 61.6269 12.9318C61.6414 12.9626 61.6475 12.9968 61.6445 13.0307C61.6415 13.0647 61.6295 13.0972 61.6098 13.125C61.5715 13.1615 61.5224 13.14 61.4755 13.1421C61.4321 13.1547 61.3941 13.1816 61.3678 13.2187C61.3415 13.2557 61.3284 13.3006 61.3306 13.346C61.3306 13.4448 61.4009 13.5263 61.4755 13.5134C61.5502 13.5006 61.5864 13.4598 61.629 13.4963C61.6437 13.5147 61.6544 13.5362 61.6603 13.5591C61.6661 13.582 61.6671 13.606 61.6631 13.6293C61.6481 13.7983 61.5793 13.9579 61.467 14.0843C61.4678 14.0879 61.4678 14.0915 61.467 14.0951C61.401 14.1462 61.3219 14.1774 61.2389 14.1852C60.9426 14.2109 60.7103 13.904 60.7167 13.4984C60.7231 13.0928 60.9597 12.7408 61.256 12.715Z" fill="#4B8CCA"/>
<path d="M61.5422 13.5631C61.5819 13.2097 61.4206 12.9013 61.182 12.8741C60.9433 12.8469 60.7177 13.1114 60.678 13.4647C60.6384 13.8181 60.7997 14.1265 61.0383 14.1537C61.2769 14.1808 61.5026 13.9164 61.5422 13.5631Z" fill="#150801"/>
<path d="M61.4714 13.1216C61.5162 13.1216 61.5673 13.1409 61.6057 13.1044C61.6248 13.0764 61.6364 13.0439 61.6394 13.0101C61.6424 12.9762 61.6367 12.9422 61.6228 12.9112C61.6127 12.8849 61.6013 12.8591 61.5887 12.834C61.7189 12.9851 61.7854 13.1815 61.7741 13.3813C61.7758 13.5138 61.7477 13.6449 61.6919 13.7649C61.6362 13.885 61.5543 13.9908 61.4522 14.0745C61.4522 14.0745 61.4522 14.0745 61.4629 14.0638C61.5746 13.9371 61.6426 13.7775 61.6569 13.6088C61.6617 13.5856 61.6614 13.5616 61.6559 13.5386C61.6503 13.5156 61.6398 13.4941 61.6249 13.4757C61.5823 13.4392 61.5247 13.4757 61.4714 13.4929C61.4181 13.51 61.3243 13.4242 61.3243 13.3255C61.3244 13.2802 61.3386 13.2361 61.365 13.1995C61.3914 13.1629 61.4287 13.1356 61.4714 13.1216Z" fill="white"/>
<path d="M61.2898 12.7141C61.3476 12.7148 61.4047 12.7278 61.4572 12.7522C61.5097 12.7766 61.5566 12.8119 61.5946 12.8558C61.7233 13.0077 61.7889 13.2037 61.7779 13.403C61.7796 13.5355 61.7515 13.6667 61.6958 13.7867C61.64 13.9068 61.5581 14.0126 61.4561 14.0963C61.39 14.1474 61.3109 14.1786 61.228 14.1864H61.1939C60.9146 14.1864 60.6993 13.8881 60.7057 13.4975C60.7121 13.1069 60.9594 12.7399 61.2557 12.7141H61.2898ZM61.2898 12.5703H61.2429C60.8699 12.6025 60.5714 13.0103 60.5629 13.4953C60.556 13.6159 60.573 13.7366 60.6129 13.8504C60.6528 13.9643 60.7148 14.069 60.7952 14.1585C60.8468 14.213 60.9085 14.2566 60.977 14.2869C61.0454 14.3171 61.1191 14.3333 61.1939 14.3345H61.2408C61.3497 14.3232 61.4536 14.2824 61.5413 14.2164C61.6601 14.1187 61.7554 13.9951 61.82 13.8549C61.8846 13.7148 61.9168 13.5618 61.9144 13.4073C61.9265 13.1733 61.8503 12.9434 61.7012 12.7635C61.6492 12.7061 61.586 12.6601 61.5156 12.6284C61.4452 12.5966 61.3691 12.5798 61.2919 12.5789L61.2898 12.5703Z" fill="#150801"/>
</g>
<defs>
<clipPath id="clip0_1_622">
<rect width="13.6425" height="13.7357" fill="white" transform="translate(53.1738 8.57812)"/>
</clipPath>
</defs>
</svg>
