<svg width="16" height="16" viewBox="0 0 16 16" fill="none" xmlns="http://www.w3.org/2000/svg">
<path d="M13.9555 0H2.04453C0.917156 0 0 0.917188 0 2.04456V13.9555C0 15.0828 0.917156 16 2.04453 16H13.9555C15.0828 16 16 15.0828 16 13.9554V2.04456C16 0.917188 15.0828 0 13.9555 0ZM15.0576 13.9555C15.0576 14.5632 14.5632 15.0576 13.9555 15.0576H2.04453C1.43681 15.0576 0.942406 14.5632 0.942406 13.9555V12.2365L4.04413 9.59741C4.09877 9.55078 4.16814 9.52497 4.23998 9.52454C4.31181 9.52411 4.38149 9.54909 4.43669 9.59506L6.37962 11.2084C6.56697 11.364 6.84197 11.3512 7.01412 11.1789L11.6307 6.55531C11.7141 6.47172 11.8114 6.46359 11.8622 6.46619C11.9128 6.46878 12.0089 6.48684 12.0833 6.57856L15.0576 10.2408L15.0576 13.9555ZM15.0576 8.74578L12.8149 5.98434C12.7046 5.84878 12.5672 5.73785 12.4114 5.65872C12.2556 5.57958 12.0849 5.53401 11.9104 5.52494C11.5583 5.50712 11.213 5.63969 10.9637 5.88938L6.651 10.2088L5.03881 8.87006C4.81307 8.68204 4.52813 8.57988 4.23435 8.58164C3.94057 8.5834 3.65687 8.68897 3.43341 8.87969L0.942406 10.9991V2.04456C0.942406 1.43684 1.43681 0.942438 2.04453 0.942438H13.9555C14.5632 0.942438 15.0576 1.43684 15.0576 2.04456V8.74578Z" fill="#0B150F" fill-opacity="0.2"/>
<path d="M5.03693 1.96851C3.78396 1.96851 2.76465 2.98788 2.76465 4.24079C2.76465 5.49372 3.78399 6.51307 5.03693 6.51307C6.28987 6.51307 7.30921 5.49372 7.30921 4.24079C7.30921 2.98785 6.2899 1.96851 5.03693 1.96851ZM5.03693 5.57066C4.30362 5.57066 3.70705 4.97407 3.70705 4.24079C3.70705 3.50747 4.30362 2.91091 5.03693 2.91091C5.77024 2.91091 6.3668 3.50751 6.3668 4.24079C6.3668 4.97407 5.77024 5.57066 5.03693 5.57066Z" fill="#0B150F" fill-opacity="0.2"/>
</svg>
