<svg width="14" height="14" viewBox="0 0 14 14" fill="none" xmlns="http://www.w3.org/2000/svg">
<g clip-path="url(#clip0_1_2079)">
<path d="M10.0701 1.26944C10.2615 1.07816 10.5211 0.970703 10.7917 0.970703C11.0623 0.970703 11.3218 1.07816 11.5133 1.26944L13.0218 2.77794C13.213 2.96937 13.3205 3.22891 13.3205 3.49953C13.3205 3.77014 13.213 4.02969 13.0218 4.22111L11.3925 5.85036L11.3855 5.85794L5.06917 11.8867C4.95374 11.997 4.8141 12.0787 4.66142 12.1253L1.43967 13.1053C1.36392 13.1282 1.28335 13.1302 1.20659 13.1108C1.12983 13.0915 1.05977 13.0517 1.00392 12.9956C0.947836 12.9398 0.908002 12.8697 0.888683 12.7929C0.869365 12.7162 0.87129 12.6356 0.894253 12.5599L1.87017 9.35153C1.92135 9.1836 2.01498 9.03171 2.142 8.91053L8.44434 2.89461L10.0701 1.26944ZM2.74634 9.54344C2.7283 9.56089 2.71487 9.58253 2.70725 9.60644L1.96992 12.0296L4.4065 11.2882C4.42835 11.2814 4.44832 11.2696 4.46484 11.2538L10.4574 5.53361L8.74242 3.81919L2.74634 9.54344ZM11.0833 4.92286L12.4034 3.60336C12.417 3.58981 12.4278 3.57372 12.4351 3.556C12.4425 3.53829 12.4463 3.51929 12.4463 3.50011C12.4463 3.48093 12.4425 3.46193 12.4351 3.44422C12.4278 3.4265 12.417 3.41041 12.4034 3.39686L10.8949 1.88836C10.8814 1.87478 10.8653 1.864 10.8476 1.85665C10.8298 1.8493 10.8109 1.84552 10.7917 1.84552C10.7725 1.84552 10.7535 1.8493 10.7358 1.85665C10.7181 1.864 10.702 1.87478 10.6884 1.88836L9.36892 3.20786L11.0833 4.92286Z" fill="#007FFF" stroke="#007FFF" stroke-width="0.5"/>
</g>
<defs>
<clipPath id="clip0_1_2079">
<rect width="14" height="14" fill="white"/>
</clipPath>
</defs>
</svg>
