<svg width="7" height="5" viewBox="0 0 7 5" fill="none" xmlns="http://www.w3.org/2000/svg">
<path d="M6.65294 0.288702C6.7024 0.338218 6.73017 0.405338 6.73017 0.475319C6.73017 0.545301 6.7024 0.612421 6.65294 0.661937L2.6037 4.71118C2.5789 4.73616 2.54934 4.75591 2.51677 4.76926C2.4842 4.78261 2.44928 4.78929 2.41408 4.78889C2.37888 4.7885 2.34412 4.78104 2.31185 4.76697C2.27959 4.75289 2.25047 4.73248 2.22624 4.70695L0.289647 2.68233C0.26459 2.65749 0.244763 2.62789 0.231337 2.59526C0.217912 2.56263 0.211161 2.52765 0.211482 2.49237C0.211803 2.45709 0.21919 2.42223 0.233208 2.38985C0.247225 2.35748 0.267587 2.32824 0.293093 2.30386C0.318599 2.27948 0.348731 2.26047 0.381709 2.24793C0.414688 2.23539 0.449844 2.22959 0.485102 2.23086C0.52036 2.23214 0.555005 2.24047 0.586991 2.25536C0.618977 2.27024 0.647655 2.29139 0.671332 2.31755L2.42131 4.14675L6.27971 0.288702C6.32922 0.239249 6.39634 0.211471 6.46632 0.211471C6.53631 0.211471 6.60343 0.239249 6.65294 0.288702Z" fill="white" stroke="white" stroke-width="0.4"/>
</svg>
