<svg width="24" height="24" viewBox="0 0 24 24" fill="none" xmlns="http://www.w3.org/2000/svg">
<path d="M3.99993 9.49964C3.99999 8.64296 4.22016 7.80067 4.63933 7.05354C5.0585 6.30641 5.6626 5.67951 6.39369 5.23297C7.12479 4.78643 7.95836 4.53522 8.81445 4.50344C9.67054 4.47166 10.5204 4.66038 11.2826 5.05149C12.0448 5.4426 12.6937 6.02298 13.1671 6.73697C13.6406 7.45097 13.9226 8.27462 13.9861 9.12894C14.0497 9.98326 13.8927 10.8396 13.5302 11.6158C13.1677 12.392 12.6118 13.062 11.9159 13.5616C13.3598 14.137 14.604 15.1218 15.4955 16.395C16.3871 17.6681 16.887 19.1741 16.9339 20.7276C16.939 20.8274 16.9242 20.9271 16.8902 21.021C16.8562 21.1149 16.8038 21.2011 16.7361 21.2745C16.6684 21.3479 16.5867 21.407 16.4958 21.4484C16.405 21.4898 16.3067 21.5127 16.2069 21.5156C16.1071 21.5185 16.0077 21.5015 15.9145 21.4655C15.8214 21.4295 15.7364 21.3753 15.6645 21.306C15.5926 21.2367 15.5352 21.1537 15.4958 21.062C15.4564 20.9702 15.4357 20.8715 15.4349 20.7716C15.3837 19.0908 14.68 17.496 13.473 16.3252C12.266 15.1544 10.6505 14.4996 8.96893 14.4996C7.28735 14.4996 5.67186 15.1544 4.46484 16.3252C3.25782 17.496 2.55413 19.0908 2.50293 20.7716C2.49292 20.9675 2.40661 21.1516 2.26249 21.2846C2.11837 21.4175 1.92791 21.4888 1.7319 21.483C1.5359 21.4773 1.34994 21.395 1.21387 21.2538C1.0778 21.1126 1.00244 20.9237 1.00393 20.7276C1.05117 19.1668 1.5558 17.6541 2.45516 16.3775C3.35453 15.1009 4.60903 14.1165 6.06293 13.5466C5.4236 13.0832 4.90328 12.4748 4.54466 11.7713C4.18605 11.0678 3.99936 10.2893 3.99993 9.49964ZM8.99993 5.99964C8.5403 5.99964 8.08518 6.09017 7.66054 6.26607C7.2359 6.44196 6.85006 6.69976 6.52505 7.02477C6.20005 7.34977 5.94224 7.73561 5.76635 8.16025C5.59046 8.58489 5.49993 9.04002 5.49993 9.49964C5.49993 9.95927 5.59046 10.4144 5.76635 10.839C5.94224 11.2637 6.20005 11.6495 6.52505 11.9745C6.85006 12.2995 7.2359 12.5573 7.66054 12.7332C8.08518 12.9091 8.5403 12.9996 8.99993 12.9996C9.92819 12.9996 10.8184 12.6309 11.4748 11.9745C12.1312 11.3181 12.4999 10.4279 12.4999 9.49964C12.4999 8.57138 12.1312 7.68115 11.4748 7.02477C10.8184 6.36839 9.92819 5.99964 8.99993 5.99964Z" fill="#007FFF"/>
<g clip-path="url(#clip0_0_741)">
<path d="M18.9994 0C19.1456 0.000204021 19.2918 0.00666827 19.4375 0.019375C19.9019 0.059375 20.2431 0.403125 20.3494 0.80625L20.5294 1.49813C20.5406 1.53938 20.5787 1.59688 20.6619 1.63813C20.8062 1.70938 20.9456 1.79 21.0794 1.87938C21.1562 1.93063 21.225 1.93563 21.2662 1.92375L21.9556 1.73438C22.3581 1.62438 22.8256 1.7475 23.0931 2.12813C23.2619 2.36875 23.4094 2.62313 23.5331 2.88938C23.73 3.31125 23.6025 3.77813 23.3056 4.07125L22.7969 4.575C22.7662 4.605 22.7356 4.66688 22.7419 4.75875C22.7519 4.91938 22.7519 5.08063 22.7419 5.24125C22.7356 5.33313 22.7656 5.395 22.7969 5.425L23.3056 5.92875C23.6025 6.22188 23.73 6.68875 23.5331 7.11063C23.4091 7.37662 23.2619 7.63115 23.0931 7.87125C22.8256 8.2525 22.3581 8.37563 21.9556 8.265L21.2669 8.07625C21.225 8.06438 21.1562 8.06938 21.0794 8.12063C20.9456 8.21005 20.8061 8.29064 20.6619 8.36188C20.5787 8.40313 20.5406 8.46063 20.53 8.50188L20.3487 9.19313C20.2437 9.59688 19.9019 9.94063 19.4375 9.98063C19.146 10.0062 18.8528 10.0062 18.5612 9.98063C18.0969 9.94063 17.7556 9.59688 17.65 9.19313L17.4694 8.50188C17.4581 8.46063 17.42 8.40313 17.3369 8.36188C17.1924 8.29092 17.053 8.21032 16.9194 8.12063C16.8425 8.06938 16.7737 8.06438 16.7325 8.07625L16.0431 8.26563C15.6406 8.37563 15.1731 8.2525 14.9056 7.87188C14.7372 7.63133 14.59 7.37663 14.4656 7.11063C14.2687 6.68875 14.3962 6.22188 14.6925 5.92875L15.2019 5.425C15.2331 5.395 15.2631 5.33313 15.2569 5.24125C15.2469 5.08057 15.2469 4.91943 15.2569 4.75875C15.2631 4.66688 15.2331 4.605 15.2019 4.575L14.6925 4.07125C14.3962 3.77813 14.2687 3.31125 14.4656 2.88938C14.5894 2.62329 14.7367 2.36875 14.9056 2.12875C15.1731 1.7475 15.6406 1.62438 16.0431 1.735L16.7319 1.92375C16.7737 1.93563 16.8425 1.93063 16.9194 1.87938C17.0531 1.79 17.1925 1.70938 17.3369 1.63813C17.42 1.59688 17.4581 1.53938 17.4687 1.49813L17.65 0.806875C17.755 0.403125 18.0969 0.059375 18.5612 0.01875C18.7056 0.00625 18.8519 0 18.9994 0ZM18.6425 0.953125C18.62 0.955 18.575 0.975625 18.5569 1.04438L18.3762 1.735C18.2844 2.08563 18.0331 2.33938 17.7525 2.47813C17.6444 2.53188 17.54 2.5925 17.44 2.65938C17.1794 2.83313 16.8337 2.92375 16.4844 2.82813L15.795 2.63875C15.7269 2.62 15.6856 2.64875 15.6731 2.66688C15.5356 2.86188 15.4156 3.06938 15.315 3.28563C15.3062 3.305 15.3019 3.35438 15.3519 3.40438L15.8612 3.90813C16.1181 4.16188 16.2125 4.50625 16.1925 4.81813C16.185 4.93926 16.185 5.06074 16.1925 5.18188C16.2125 5.49375 16.1181 5.83813 15.8612 6.09188L15.3519 6.59563C15.3012 6.64563 15.3062 6.695 15.315 6.71438C15.4162 6.93063 15.5356 7.1375 15.6731 7.3325C15.6856 7.35125 15.7262 7.38 15.795 7.36125L16.4837 7.17188C16.8337 7.07625 17.1794 7.16688 17.44 7.34063C17.5406 7.4075 17.645 7.46813 17.7531 7.52188C18.0325 7.66063 18.2844 7.915 18.3762 8.265L18.5569 8.95563C18.575 9.02375 18.62 9.045 18.6425 9.04688C18.88 9.0675 19.1188 9.0675 19.3562 9.04688C19.3787 9.045 19.4237 9.02438 19.4419 8.95563L19.6225 8.265C19.7144 7.91438 19.9656 7.66063 20.2462 7.52188C20.3544 7.46813 20.4587 7.4075 20.5587 7.34063C20.8194 7.16688 21.165 7.07625 21.5144 7.17188L22.2037 7.36125C22.2719 7.37938 22.3131 7.35125 22.3256 7.33313C22.4631 7.1375 22.5825 6.93063 22.6837 6.71438C22.6925 6.695 22.6969 6.64563 22.6469 6.59563L22.1375 6.09188C21.8806 5.83813 21.7862 5.49375 21.8062 5.18188C21.8137 5.06074 21.8137 4.93926 21.8062 4.81813C21.7862 4.50625 21.8806 4.16188 22.1375 3.90813L22.6469 3.40438C22.6975 3.35438 22.6925 3.305 22.6837 3.28563C22.5829 3.06941 22.463 2.86256 22.3256 2.6675C22.3131 2.64875 22.2725 2.62 22.2037 2.63875L21.515 2.82813C21.165 2.92375 20.8194 2.83313 20.5587 2.65938C20.4584 2.59221 20.3538 2.53167 20.2456 2.47813C19.9662 2.33938 19.7144 2.085 19.6225 1.735L19.4419 1.04438C19.4237 0.975625 19.3787 0.955 19.3562 0.953125C19.1188 0.932503 18.88 0.932503 18.6425 0.953125ZM20.8744 5C20.8744 5.49728 20.6768 5.9742 20.3252 6.32583C19.9736 6.67746 19.4967 6.875 18.9994 6.875C18.5021 6.875 18.0252 6.67746 17.6735 6.32583C17.3219 5.9742 17.1244 5.49728 17.1244 5C17.1244 4.50272 17.3219 4.02581 17.6735 3.67418C18.0252 3.32254 18.5021 3.125 18.9994 3.125C19.4967 3.125 19.9736 3.32254 20.3252 3.67418C20.6768 4.02581 20.8744 4.50272 20.8744 5ZM19.9369 5C19.9368 4.75128 19.8379 4.51277 19.662 4.33696C19.486 4.16114 19.2475 4.06242 18.9987 4.0625C18.75 4.06258 18.5115 4.16147 18.3357 4.3374C18.1599 4.51333 18.0612 4.7519 18.0612 5.00063C18.0613 5.24935 18.1602 5.48785 18.3361 5.66367C18.4233 5.75072 18.5267 5.81977 18.6405 5.86686C18.7543 5.91395 18.8762 5.93817 18.9994 5.93813C19.1225 5.93808 19.2445 5.91379 19.3582 5.86662C19.472 5.81945 19.5754 5.75034 19.6624 5.66323C19.7495 5.57611 19.8185 5.47271 19.8656 5.35891C19.9127 5.24511 19.9369 5.12316 19.9369 5Z" fill="#007FFF"/>
</g>
<defs>
<clipPath id="clip0_0_741">
<rect width="10" height="10" fill="white" transform="translate(14)"/>
</clipPath>
</defs>
</svg>
