<svg width="60" height="36" viewBox="0 0 60 36" fill="none" xmlns="http://www.w3.org/2000/svg">
<rect x="12" y="36" width="36" height="36" rx="8" transform="rotate(-90 12 36)" fill="white"/>
<g clip-path="url(#clip0_427_7002)">
<path d="M37.2831 11.7182C36.8582 11.294 36.2823 11.0557 35.6819 11.0557C35.0814 11.0557 34.5055 11.294 34.0806 11.7182L23.9156 21.8832C23.6245 22.1727 23.3937 22.517 23.2366 22.8962C23.0794 23.2754 22.999 23.6821 23 24.0926V25.3757C23 25.5415 23.0659 25.7004 23.1831 25.8176C23.3003 25.9349 23.4592 26.0007 23.625 26.0007H24.9081C25.3186 26.0019 25.7252 25.9216 26.1045 25.7645C26.4837 25.6075 26.828 25.3767 27.1175 25.0857L37.2831 14.9201C37.7072 14.4952 37.9454 13.9194 37.9454 13.3191C37.9454 12.7189 37.7072 12.1431 37.2831 11.7182ZM26.2338 24.202C25.8813 24.5521 25.405 24.7493 24.9081 24.7507H24.25V24.0926C24.2494 23.8463 24.2976 23.6023 24.3919 23.3747C24.4862 23.1472 24.6247 22.9406 24.7994 22.767L32.5138 15.0526L33.9513 16.4901L26.2338 24.202ZM36.3988 14.0363L34.8325 15.6032L33.395 14.1688L34.9619 12.602C35.1525 12.4117 35.4109 12.305 35.6802 12.3053C35.9495 12.3056 36.2076 12.4129 36.3978 12.6035C36.588 12.7941 36.6947 13.0525 36.6944 13.3218C36.6941 13.5911 36.5869 13.8492 36.3963 14.0395L36.3988 14.0363Z" fill="#0B150F"/>
</g>
<defs>
<clipPath id="clip0_427_7002">
<rect width="15" height="15" fill="white" transform="translate(23 11)"/>
</clipPath>
</defs>
</svg>
