<svg width="18" height="18" viewBox="0 0 18 18" fill="none" xmlns="http://www.w3.org/2000/svg">
<g opacity="0.6">
<path d="M12 4.5C12 2.84315 10.6569 1.5 9 1.5C7.34315 1.5 6 2.84315 6 4.5" stroke="#0B150F" stroke-width="1.2" stroke-linecap="round" stroke-linejoin="round"/>
<path d="M3.42156 7.1279C3.60922 5.62661 4.88542 4.5 6.39839 4.5H11.6017C13.1147 4.5 14.3909 5.62661 14.5785 7.1279L15.3285 13.1279C15.5524 14.9185 14.1562 16.5 12.3517 16.5H5.64839C3.8439 16.5 2.44774 14.9185 2.67156 13.1279L3.42156 7.1279Z" stroke="#0B150F" stroke-width="1.2" stroke-linejoin="round"/>
<path d="M6.75 10.5L8.06462 11.5517C8.37802 11.8024 8.83327 11.762 9.09757 11.4599L11.25 9" stroke="#0B150F" stroke-width="1.2" stroke-linecap="round" stroke-linejoin="round"/>
</g>
</svg>
