<svg width="32" height="32" viewBox="0 0 32 32" fill="none" xmlns="http://www.w3.org/2000/svg">
<path fill-rule="evenodd" clip-rule="evenodd" d="M18.1661 3.14444L24.8327 6.22357C25.7932 6.66717 26.5833 7.38313 27.1342 8.26112L16 13.8282L4.86579 8.26112C5.41666 7.38313 6.20682 6.66717 7.16726 6.22357L13.8339 3.14444C15.2129 2.50752 16.7871 2.50752 18.1661 3.14444ZM4.24481 9.62768C4.08492 10.1565 4 10.7154 4 11.2883V20.7119C4 22.9022 5.24125 24.887 7.16726 25.7766L13.8339 28.8557C14.2894 29.0661 14.7661 29.2069 15.25 29.2784V15.1303L4.24481 9.62768ZM16.75 29.2784C17.2339 29.2069 17.7106 29.0661 18.1661 28.8557L24.8327 25.7766C26.7588 24.887 28 22.9022 28 20.7119V11.2883C28 10.7154 27.9151 10.1565 27.7552 9.62768L16.75 15.1303V29.2784Z" fill="#007FFF"/>
</svg>
