<svg width="20" height="20" viewBox="0 0 20 20" fill="none" xmlns="http://www.w3.org/2000/svg">
<path fill-rule="evenodd" clip-rule="evenodd" d="M7.5 9.16699C8.88071 9.16699 10 8.0477 10 6.66699C10 5.28628 8.88071 4.16699 7.5 4.16699C6.3351 4.16699 5.35629 4.96373 5.07876 6.04199H2.5C2.15482 6.04199 1.875 6.32181 1.875 6.66699C1.875 7.01217 2.15482 7.29199 2.5 7.29199H5.07876C5.35629 8.37026 6.3351 9.16699 7.5 9.16699ZM11.875 6.66699C11.875 6.32181 12.1548 6.04199 12.5 6.04199H17.5C17.8452 6.04199 18.125 6.32181 18.125 6.66699C18.125 7.01217 17.8452 7.29199 17.5 7.29199H12.5C12.1548 7.29199 11.875 7.01217 11.875 6.66699ZM14.9212 13.9587C14.6437 15.0369 13.6649 15.8337 12.5 15.8337C11.1193 15.8337 10 14.7144 10 13.3337C10 11.9529 11.1193 10.8337 12.5 10.8337C13.6649 10.8337 14.6437 11.6304 14.9212 12.7087H17.5C17.8452 12.7087 18.125 12.9885 18.125 13.3337C18.125 13.6788 17.8452 13.9587 17.5 13.9587H14.9212ZM1.875 13.3337C1.875 12.9885 2.15482 12.7087 2.5 12.7087H7.5C7.84518 12.7087 8.125 12.9885 8.125 13.3337C8.125 13.6788 7.84518 13.9587 7.5 13.9587H2.5C2.15482 13.9587 1.875 13.6788 1.875 13.3337Z" fill="#0B150F"/>
</svg>
