<svg width="18" height="18" viewBox="0 0 18 18" fill="none" xmlns="http://www.w3.org/2000/svg">
<g opacity="0.6">
<path d="M10.5 14.25V5.25M10.5 14.25H12M10.5 14.25H6.75M10.5 5.25C10.5 3.59315 9.15685 2.25 7.5 2.25H4.5C2.84315 2.25 1.5 3.59315 1.5 5.25V11.25C1.5 12.6489 2.4575 13.8242 3.75288 14.1562M10.5 5.25H12.9068C13.2879 5.25 13.6547 5.39505 13.9327 5.65569L16.0259 7.61804C16.3284 7.90161 16.5 8.29773 16.5 8.71235V12.75C16.5 13.5784 15.8284 14.25 15 14.25M15 14.25C15 15.0784 14.3284 15.75 13.5 15.75C12.6716 15.75 12 15.0784 12 14.25M15 14.25C15 13.4216 14.3284 12.75 13.5 12.75C12.6716 12.75 12 13.4216 12 14.25M6.75 14.25C6.75 15.0784 6.07843 15.75 5.25 15.75C4.42157 15.75 3.75 15.0784 3.75 14.25C3.75 14.2185 3.75097 14.1872 3.75288 14.1562M6.75 14.25C6.75 13.4216 6.07843 12.75 5.25 12.75C4.45307 12.75 3.80129 13.3715 3.75288 14.1562" stroke="#0B150F" stroke-width="1.2"/>
<path d="M7.5 6L6 6" stroke="#0B150F" stroke-width="1.5" stroke-linecap="round" stroke-linejoin="round"/>
<path d="M7.5 9L4.5 9" stroke="#0B150F" stroke-width="1.5" stroke-linecap="round" stroke-linejoin="round"/>
</g>
</svg>
