<svg width="12" height="20" viewBox="0 0 12 20" fill="none" xmlns="http://www.w3.org/2000/svg">
<path d="M2.60988 12.1089C2.57505 12.1437 2.54741 12.185 2.52856 12.2305C2.5097 12.2759 2.5 12.3247 2.5 12.3739C2.5 12.4231 2.5097 12.4719 2.52856 12.5173C2.54741 12.5628 2.57505 12.6041 2.60988 12.6389L5.73488 15.7639C5.76966 15.7987 5.81097 15.8264 5.85644 15.8452C5.90191 15.8641 5.95065 15.8738 5.99988 15.8738C6.0491 15.8738 6.09784 15.8641 6.14332 15.8452C6.18879 15.8264 6.2301 15.7987 6.26488 15.7639L9.38988 12.6389C9.42468 12.6041 9.45228 12.5628 9.47112 12.5173C9.48995 12.4718 9.49964 12.4231 9.49964 12.3739C9.49964 12.3247 9.48995 12.276 9.47112 12.2305C9.45228 12.185 9.42468 12.1437 9.38988 12.1089C9.35508 12.0741 9.31376 12.0465 9.2683 12.0277C9.22283 12.0088 9.17409 11.9991 9.12488 11.9991C9.07566 11.9991 9.02693 12.0088 8.98146 12.0277C8.93599 12.0465 8.89468 12.0741 8.85988 12.1089L5.99988 14.9684L3.13988 12.1089C3.10509 12.0741 3.06379 12.0464 3.01832 12.0276C2.97284 12.0087 2.9241 11.999 2.87488 11.999C2.82565 11.999 2.77691 12.0087 2.73144 12.0276C2.68597 12.0464 2.64466 12.0741 2.60988 12.1089Z" fill="#0B150F" fill-opacity="0.4"/>
<path d="M9.4718 12.2302L9.65589 12.1539C9.68478 12.2237 9.69964 12.2984 9.69964 12.3739C9.69964 12.4494 9.68478 12.5241 9.65589 12.5939L9.47112 12.5173L9.65589 12.5939C9.62701 12.6636 9.58467 12.7269 9.5313 12.7803L6.4064 15.9052L6.4063 15.9053L6.26488 15.7639C6.2301 15.7987 6.18879 15.8264 6.14332 15.8452C6.09784 15.8641 6.0491 15.8738 5.99988 15.8738C5.95065 15.8738 5.90191 15.8641 5.85644 15.8452C5.81097 15.8264 5.76966 15.7987 5.73488 15.7639L9.4718 12.2302ZM9.4718 12.2302L9.65589 12.1539C9.62701 12.0842 9.58467 12.0209 9.5313 11.9675L9.5313 11.9675C9.47793 11.9141 9.41457 11.8718 9.34483 11.8429C9.2751 11.814 9.20036 11.7991 9.12488 11.7991C9.0494 11.7991 8.97466 11.814 8.90492 11.8429C8.8352 11.8718 8.77184 11.9141 8.71847 11.9675C8.71846 11.9675 8.71846 11.9675 8.71846 11.9675L5.99988 14.6856L3.2814 11.9676L3.13988 12.1089L3.28129 11.9675L3.28137 11.9676C3.22802 11.9141 3.16466 11.8718 3.09492 11.8428C3.02516 11.8139 2.95039 11.799 2.87488 11.799C2.79937 11.799 2.72459 11.8139 2.65484 11.8428C2.58508 11.8718 2.52171 11.9141 2.46836 11.9676L2.60987 12.1089L2.46856 11.9674C2.41512 12.0207 2.37273 12.0841 2.34381 12.1539C2.31489 12.2236 2.3 12.2984 2.3 12.3739C2.3 12.4494 2.31489 12.5242 2.34381 12.5939C2.37271 12.6637 2.41507 12.727 2.46846 12.7803C2.46849 12.7804 2.46852 12.7804 2.46856 12.7804L5.59336 15.9052L9.4718 12.2302Z" stroke="#0B150F" stroke-opacity="0.4" stroke-width="0.4"/>
<path d="M9.39012 7.8911C9.42495 7.85632 9.45259 7.81501 9.47144 7.76954C9.4903 7.72407 9.5 7.67532 9.5 7.6261C9.5 7.57687 9.4903 7.52813 9.47144 7.48266C9.45259 7.43719 9.42495 7.39588 9.39012 7.3611L6.26512 4.2361C6.23034 4.20127 6.18903 4.17363 6.14356 4.15478C6.09809 4.13593 6.04935 4.12622 6.00012 4.12622C5.9509 4.12622 5.90216 4.13593 5.85668 4.15478C5.81121 4.17363 5.7699 4.20127 5.73512 4.2361L2.61012 7.3611C2.57532 7.3959 2.54772 7.43721 2.52888 7.48268C2.51005 7.52815 2.50036 7.57688 2.50036 7.6261C2.50036 7.67531 2.51005 7.72405 2.52888 7.76952C2.54772 7.81499 2.57532 7.8563 2.61012 7.8911C2.64492 7.9259 2.68624 7.9535 2.7317 7.97234C2.77717 7.99117 2.82591 8.00087 2.87512 8.00087C2.92434 8.00087 2.97307 7.99117 3.01854 7.97234C3.06401 7.9535 3.10532 7.9259 3.14012 7.8911L6.00012 5.0316L8.86012 7.8911C8.89491 7.92593 8.93621 7.95357 8.98168 7.97242C9.02716 7.99127 9.0759 8.00098 9.12512 8.00098C9.17435 8.00098 9.22309 7.99127 9.26856 7.97242C9.31403 7.95357 9.35534 7.92593 9.39012 7.8911Z" fill="#0B150F" fill-opacity="0.4"/>
<path d="M2.5282 7.7698L2.34411 7.84605C2.31522 7.77632 2.30036 7.70158 2.30036 7.6261C2.30036 7.55062 2.31522 7.47588 2.34411 7.40615L2.52888 7.48268L2.34411 7.40614C2.37299 7.33641 2.41533 7.27305 2.4687 7.21968L5.5936 4.09478L5.5937 4.09468L5.73512 4.2361C5.7699 4.20127 5.81121 4.17363 5.85668 4.15478C5.90216 4.13593 5.9509 4.12622 6.00012 4.12622C6.04935 4.12622 6.09809 4.13593 6.14356 4.15478C6.18903 4.17363 6.23034 4.20127 6.26512 4.2361L2.5282 7.7698ZM2.5282 7.7698L2.34411 7.84605C2.37299 7.91579 2.41533 7.97915 2.4687 8.03252L2.4687 8.03252C2.52207 8.08589 2.58543 8.12823 2.65517 8.15711C2.7249 8.186 2.79964 8.20087 2.87512 8.20087C2.9506 8.20087 3.02534 8.186 3.09508 8.15711C3.1648 8.12823 3.22816 8.0859 3.28153 8.03253C3.28154 8.03253 3.28154 8.03252 3.28154 8.03252L6.00012 5.31442L8.7186 8.03242L8.86012 7.8911L8.71871 8.03253L8.71863 8.03244C8.77198 8.08587 8.83534 8.12825 8.90508 8.15717C8.97484 8.18609 9.04961 8.20098 9.12512 8.20098C9.20063 8.20098 9.27541 8.18609 9.34516 8.15717C9.41492 8.12824 9.47829 8.08585 9.53164 8.03242L9.39013 7.89111L9.53144 8.03262C9.58488 7.97926 9.62727 7.9159 9.65619 7.84614C9.68511 7.77639 9.7 7.70161 9.7 7.6261C9.7 7.55059 9.68511 7.47581 9.65619 7.40606C9.62729 7.33635 9.58493 7.27301 9.53154 7.21968C9.53151 7.21964 9.53148 7.21961 9.53144 7.21958L6.40664 4.09478L2.5282 7.7698Z" stroke="#0B150F" stroke-opacity="0.4" stroke-width="0.4"/>
</svg>
