<svg width="16" height="16" viewBox="0 0 16 16" fill="none" xmlns="http://www.w3.org/2000/svg">
<g clip-path="url(#clip0_1_1834)">
<path d="M10.2598 6.25878C10.283 6.23559 10.3014 6.20805 10.314 6.17774C10.3265 6.14742 10.333 6.11493 10.333 6.08211C10.333 6.0493 10.3265 6.0168 10.314 5.98649C10.3014 5.95617 10.283 5.92863 10.2598 5.90545L8.17642 3.82211C8.15323 3.79889 8.1257 3.78047 8.09538 3.7679C8.06507 3.75533 8.03257 3.74886 7.99976 3.74886C7.96694 3.74886 7.93444 3.75533 7.90413 3.7679C7.87382 3.78047 7.84628 3.79889 7.82309 3.82211L5.73976 5.90545C5.71656 5.92865 5.69815 5.95619 5.6856 5.9865C5.67304 6.01681 5.66658 6.0493 5.66658 6.08211C5.66658 6.11492 5.67304 6.14741 5.6856 6.17772C5.69815 6.20804 5.71656 6.23558 5.73976 6.25878C5.76296 6.28198 5.7905 6.30038 5.82081 6.31294C5.85112 6.3255 5.88361 6.33196 5.91642 6.33196C5.94923 6.33196 5.98172 6.3255 6.01203 6.31294C6.04235 6.30038 6.06989 6.28198 6.09309 6.25878L7.99976 4.35245L9.90642 6.25878C9.92961 6.282 9.95715 6.30042 9.98746 6.31299C10.0178 6.32556 10.0503 6.33203 10.0831 6.33203C10.1159 6.33203 10.1484 6.32556 10.1787 6.31299C10.209 6.30042 10.2366 6.282 10.2598 6.25878Z" fill="#0B150F" fill-opacity="0.5"/>
<path d="M8.31794 3.68079C8.27618 3.63897 8.22658 3.60579 8.17198 3.58315L8.09538 3.7679C8.06507 3.75533 8.03257 3.74886 7.99976 3.74886C7.96694 3.74886 7.93444 3.75533 7.90413 3.7679C7.87382 3.78047 7.84628 3.79889 7.82309 3.82211L7.68167 3.68069L7.68157 3.68079L5.59833 5.76403C5.55656 5.8058 5.52343 5.85539 5.50082 5.90996L5.6856 5.9865L5.50082 5.90997C5.47821 5.96454 5.46658 6.02304 5.46658 6.08211C5.46658 6.14119 5.47821 6.19968 5.50082 6.25426L5.50082 6.25426C5.52343 6.30884 5.55656 6.35843 5.59833 6.4002L5.73976 6.25878L5.59834 6.4002C5.64011 6.44197 5.6897 6.47511 5.74427 6.49772C5.79885 6.52032 5.85735 6.53196 5.91642 6.53196C5.9755 6.53196 6.03399 6.52032 6.08857 6.49772C6.14314 6.47511 6.19273 6.44198 6.2345 6.40021C6.2345 6.40021 6.23451 6.4002 6.23451 6.4002L7.99976 4.63526L9.7649 6.4001C9.76493 6.40013 9.76495 6.40015 9.76498 6.40018C9.76499 6.40019 9.765 6.4002 9.76501 6.40021C9.80675 6.44198 9.85631 6.47512 9.91086 6.49774C9.96546 6.52038 10.024 6.53203 10.0831 6.53203C10.1422 6.53203 10.2007 6.52038 10.2553 6.49774C10.3099 6.4751 10.3595 6.44192 10.4013 6.4001L10.2598 6.25878L10.4011 6.4003C10.4429 6.35854 10.4761 6.30894 10.4987 6.25434C10.5214 6.19974 10.533 6.14122 10.533 6.08211C10.533 6.02301 10.5214 5.96448 10.4987 5.90989C10.4761 5.85533 10.443 5.80577 10.4012 5.76403L10.2598 5.90544L10.4011 5.76392L8.31794 3.68079ZM8.31794 3.68079L8.17642 3.82211L8.31784 3.68069L8.31794 3.68079Z" stroke="#0B150F" stroke-opacity="0.5" stroke-width="0.4"/>
<path d="M5.74024 9.74122C5.71702 9.76441 5.6986 9.79195 5.68603 9.82226C5.67346 9.85258 5.66699 9.88507 5.66699 9.91789C5.66699 9.9507 5.67346 9.9832 5.68603 10.0135C5.6986 10.0438 5.71702 10.0714 5.74024 10.0946L7.82358 12.1779C7.84677 12.2011 7.8743 12.2195 7.90462 12.2321C7.93493 12.2447 7.96743 12.2511 8.00024 12.2511C8.03306 12.2511 8.06556 12.2447 8.09587 12.2321C8.12618 12.2195 8.15372 12.2011 8.17691 12.1779L10.2602 10.0946C10.2834 10.0714 10.3018 10.0438 10.3144 10.0135C10.327 9.98319 10.3334 9.9507 10.3334 9.91789C10.3334 9.88508 10.327 9.85259 10.3144 9.82228C10.3018 9.79196 10.2834 9.76442 10.2602 9.74122C10.237 9.71802 10.2095 9.69962 10.1792 9.68706C10.1489 9.6745 10.1164 9.66804 10.0836 9.66804C10.0508 9.66804 10.0183 9.6745 9.98797 9.68706C9.95765 9.69962 9.93011 9.71802 9.90691 9.74122L8.00024 11.6476L6.09358 9.74122C6.07039 9.718 6.04285 9.69958 6.01254 9.68701C5.98222 9.67444 5.94973 9.66797 5.91691 9.66797C5.88409 9.66797 5.8516 9.67444 5.82128 9.68701C5.79097 9.69958 5.76343 9.718 5.74024 9.74122Z" fill="#0B150F" fill-opacity="0.5"/>
<path d="M7.68206 12.3192C7.72382 12.361 7.77342 12.3942 7.82802 12.4168L7.90462 12.2321C7.93493 12.2447 7.96743 12.2511 8.00024 12.2511C8.03306 12.2511 8.06556 12.2447 8.09587 12.2321C8.12618 12.2195 8.15372 12.2011 8.17691 12.1779L8.31833 12.3193L8.31843 12.3192L10.4017 10.236C10.4434 10.1942 10.4766 10.1446 10.4992 10.09L10.3144 10.0135L10.4992 10.09C10.5218 10.0355 10.5334 9.97696 10.5334 9.91789C10.5334 9.85881 10.5218 9.80032 10.4992 9.74574L10.4992 9.74574C10.4766 9.69116 10.4434 9.64157 10.4017 9.5998L10.2602 9.74122L10.4017 9.5998C10.3599 9.55803 10.3103 9.52489 10.2557 9.50228C10.2011 9.47968 10.1427 9.46804 10.0836 9.46804C10.0245 9.46804 9.96601 9.47968 9.91143 9.50228C9.85686 9.52489 9.80727 9.55802 9.7655 9.59979C9.7655 9.59979 9.76549 9.5998 9.76549 9.5998L8.00024 11.3647L6.2351 9.5999C6.23507 9.59987 6.23505 9.59985 6.23502 9.59982C6.23501 9.59981 6.235 9.5998 6.23499 9.59979C6.19325 9.55802 6.14369 9.52488 6.08914 9.50226C6.03454 9.47962 5.97601 9.46797 5.91691 9.46797C5.85781 9.46797 5.79928 9.47962 5.74468 9.50226C5.69008 9.5249 5.64048 9.55808 5.59872 9.5999L5.74024 9.74122L5.59892 9.5997C5.5571 9.64146 5.52392 9.69106 5.50128 9.74566C5.47864 9.80026 5.46699 9.85878 5.46699 9.91789C5.46699 9.97699 5.47864 10.0355 5.50128 10.0901C5.5239 10.1447 5.55705 10.1942 5.59882 10.236L5.74023 10.0946L5.59892 10.2361L7.68206 12.3192ZM7.68206 12.3192L7.82358 12.1779L7.68216 12.3193L7.68206 12.3192Z" stroke="#0B150F" stroke-opacity="0.5" stroke-width="0.4"/>
</g>
<defs>
<clipPath id="clip0_1_1834">
<rect width="16" height="16" fill="white"/>
</clipPath>
</defs>
</svg>
