<svg width="12" height="12" viewBox="0 0 12 12" fill="none" xmlns="http://www.w3.org/2000/svg">
<path d="M9.47204 4.23118L9.65614 4.15492C9.68502 4.22466 9.69989 4.2994 9.69989 4.37488C9.69989 4.45036 9.68502 4.5251 9.65614 4.59483L9.47136 4.51829L9.65614 4.59483C9.62725 4.66456 9.58492 4.72793 9.53154 4.7813L6.40664 7.9062L6.40654 7.9063L6.26512 7.76488C6.23034 7.79971 6.18903 7.82734 6.14356 7.8462C6.09809 7.86505 6.04935 7.87475 6.00012 7.87475C5.9509 7.87475 5.90215 7.86505 5.85668 7.8462C5.81121 7.82734 5.7699 7.79971 5.73512 7.76488L9.47204 4.23118ZM9.47204 4.23118L9.65614 4.15492C9.62725 4.08519 9.58492 4.02183 9.53154 3.96846L9.53154 3.96846C9.47817 3.91508 9.41481 3.87275 9.34508 3.84386C9.27534 3.81498 9.2006 3.80011 9.12512 3.80011C9.04964 3.80011 8.9749 3.81498 8.90517 3.84386C8.83544 3.87274 8.77208 3.91508 8.71871 3.96844C8.71871 3.96845 8.7187 3.96845 8.7187 3.96846L6.00012 6.68656L3.28164 3.96856L3.14012 4.10988L3.28153 3.96844L3.28162 3.96853C3.22827 3.91511 3.16491 3.87273 3.09516 3.84381C3.02541 3.81489 2.95063 3.8 2.87512 3.8C2.79961 3.8 2.72484 3.81489 2.65508 3.84381C2.58533 3.87273 2.52196 3.91512 2.4686 3.96856L2.61011 4.10987L2.4688 3.96836C2.41537 4.02171 2.37298 4.08508 2.34405 4.15484C2.31513 4.22459 2.30024 4.29936 2.30024 4.37488C2.30024 4.45039 2.31513 4.52516 2.34405 4.59492C2.37296 4.66463 2.41531 4.72796 2.4687 4.7813C2.46873 4.78133 2.46877 4.78137 2.4688 4.7814L5.5936 7.9062L9.47204 4.23118Z" fill="#009E60" stroke="#009E60" stroke-width="0.4"/>
</svg>
