<svg width="20" height="20" viewBox="0 0 20 20" fill="none" xmlns="http://www.w3.org/2000/svg">
<g opacity="0.7">
<path d="M8.54157 1.66699C9.84821 1.66685 11.1278 2.03906 12.2305 2.74002C13.3332 3.44098 14.2133 4.44166 14.7677 5.62483C15.3222 6.80801 15.5279 8.12468 15.361 9.42059C15.194 10.7165 14.6612 11.938 13.8249 12.942L18.5666 17.6837C18.6488 17.7601 18.709 17.8572 18.7407 17.9649C18.7723 18.0726 18.7744 18.1869 18.7466 18.2957C18.7188 18.4044 18.6621 18.5037 18.5826 18.583C18.5032 18.6623 18.4037 18.7186 18.2949 18.7462C18.1863 18.774 18.0721 18.7721 17.9645 18.7405C17.8568 18.709 17.7597 18.6491 17.6832 18.567L12.9416 13.8253C12.0931 14.5318 11.087 15.0235 10.0083 15.2589C8.92956 15.4943 7.81003 15.4665 6.74437 15.1777C5.67872 14.8889 4.69829 14.3477 3.88601 13.5999C3.07373 12.8521 2.4535 11.9197 2.07779 10.8815C1.70207 9.84332 1.58193 8.72991 1.72751 7.63546C1.87309 6.54102 2.28013 5.49773 2.91417 4.59386C3.54822 3.68998 4.39064 2.95211 5.37016 2.44265C6.34968 1.93319 7.43749 1.66714 8.54157 1.66699ZM2.91657 8.54199C2.91657 9.28068 3.06207 10.0121 3.34475 10.6946C3.62743 11.377 4.04177 11.9971 4.5641 12.5195C5.08643 13.0418 5.70652 13.4561 6.38898 13.7388C7.07144 14.0215 7.80289 14.167 8.54157 14.167C9.28026 14.167 10.0117 14.0215 10.6942 13.7388C11.3766 13.4561 11.9967 13.0418 12.5191 12.5195C13.0414 11.9971 13.4557 11.377 13.7384 10.6946C14.0211 10.0121 14.1666 9.28068 14.1666 8.54199C14.1666 7.05015 13.5739 5.61941 12.5191 4.56452C11.4642 3.50962 10.0334 2.91699 8.54157 2.91699C7.04973 2.91699 5.61899 3.50962 4.5641 4.56452C3.50921 5.61941 2.91657 7.05015 2.91657 8.54199Z" fill="#00241B"/>
</g>
</svg>
