<svg width="18" height="18" viewBox="0 0 18 18" fill="none" xmlns="http://www.w3.org/2000/svg">
<g clip-path="url(#clip0_427_7100)">
<path d="M6.75 11.25C6.75 11.25 7.59375 12 9 12C10.4062 12 11.25 11.25 11.25 11.25M13.5 1.5H4.5C2.84315 1.5 1.5 2.84315 1.5 4.5V13.5C1.5 15.1569 2.84315 16.5 4.5 16.5H13.5C15.1569 16.5 16.5 15.1569 16.5 13.5V4.5C16.5 2.84315 15.1569 1.5 13.5 1.5ZM12.75 7.5C12.75 7.91421 12.4142 8.25 12 8.25C11.5858 8.25 11.25 7.91421 11.25 7.5C11.25 7.08579 11.5858 6.75 12 6.75C12.4142 6.75 12.75 7.08579 12.75 7.5ZM6.75 7.5C6.75 7.91421 6.41421 8.25 6 8.25C5.58579 8.25 5.25 7.91421 5.25 7.5C5.25 7.08579 5.58579 6.75 6 6.75C6.41421 6.75 6.75 7.08579 6.75 7.5Z" stroke="#007FFF" stroke-width="1.5" stroke-linecap="round" stroke-linejoin="round"/>
</g>
<defs>
<clipPath id="clip0_427_7100">
<rect width="18" height="18" fill="white"/>
</clipPath>
</defs>
</svg>
