<svg width="19" height="20" viewBox="0 0 19 20" fill="none" xmlns="http://www.w3.org/2000/svg">
<path d="M9.04489 4.39642e-06C7.84097 -0.00149573 6.66794 0.38094 5.69626 1.09174C4.72457 1.80254 4.00485 2.80466 3.64168 3.9525C3.27851 5.10033 3.29082 6.33407 3.67681 7.47443C4.06281 8.61479 4.80238 9.60235 5.78805 10.2936C4.08236 10.9753 2.61966 12.1518 1.58816 13.6716C0.55666 15.1915 0.0035503 16.9853 0 18.8221C0.0139805 19.0494 0.114115 19.2628 0.279988 19.4188C0.445861 19.5748 0.664983 19.6616 0.892676 19.6616C1.12037 19.6616 1.33949 19.5748 1.50536 19.4188C1.67124 19.2628 1.77137 19.0494 1.78535 18.8221C1.78237 17.503 2.1325 16.207 2.79942 15.0688C3.46634 13.9306 4.42573 12.9917 5.57802 12.3494C6.73031 11.7071 8.0335 11.385 9.35232 11.4163C10.6711 11.4477 11.9575 11.8315 13.078 12.5278C13.1781 12.5899 13.2895 12.6316 13.4058 12.6506C13.5221 12.6696 13.641 12.6655 13.7557 12.6386C13.8704 12.6116 13.9787 12.5623 14.0743 12.4935C14.17 12.4247 14.2511 12.3378 14.3132 12.2376C14.3752 12.1374 14.417 12.026 14.436 11.9097C14.4549 11.7935 14.4509 11.6746 14.4239 11.5599C14.3969 11.4452 14.3477 11.3369 14.2789 11.2412C14.2101 11.1456 14.1231 11.0644 14.023 11.0024C13.5043 10.6902 12.956 10.4302 12.3861 10.2261C13.7935 9.19677 14.7148 7.53966 14.7148 5.66993C14.7148 2.55485 12.16 4.39642e-06 9.04489 4.39642e-06ZM9.04489 1.78873C11.1947 1.78873 12.9261 3.52009 12.9261 5.66993C12.9261 7.81978 11.1947 9.54776 9.04489 9.54776C6.89504 9.54776 5.16706 7.82653 5.16706 5.66993C5.16706 3.52009 6.89166 1.78873 9.04489 1.78873ZM18.0797 12.5076C17.9347 12.5117 17.7928 12.551 17.6664 12.6222C17.54 12.6933 17.4328 12.7942 17.354 12.916L14.2761 17.5295L12.3456 16.2369C12.2479 16.1648 12.1365 16.1132 12.0183 16.0854C11.9 16.0575 11.7774 16.0539 11.6577 16.0749C11.5381 16.0958 11.4239 16.1408 11.3221 16.2071C11.2204 16.2735 11.1332 16.3598 11.0657 16.4608C10.9983 16.5619 10.9521 16.6755 10.9298 16.795C10.9076 16.9144 10.9099 17.0371 10.9364 17.1556C10.963 17.2741 11.0134 17.386 11.0844 17.4845C11.1555 17.583 11.2459 17.6661 11.35 17.7287L14.0331 19.514C14.2305 19.6449 14.4718 19.6921 14.704 19.6453C14.9362 19.5985 15.1404 19.4614 15.2717 19.2643L18.8458 13.9048C18.9386 13.7685 18.9918 13.6092 18.9998 13.4445C19.0077 13.2798 18.9699 13.1162 18.8907 12.9716C18.8114 12.827 18.6937 12.7071 18.5506 12.6253C18.4074 12.5434 18.2445 12.5027 18.0797 12.5076Z" fill="#0B150F" fill-opacity="0.5"/>
</svg>
