<svg width="41" height="41" viewBox="0 0 41 41" fill="none" xmlns="http://www.w3.org/2000/svg">
<circle cx="20.5" cy="20.5" r="20" stroke="#E5E9EF"/>
<g opacity="0.7">
<path d="M20.5 11.3333C23.5675 11.3333 26.3333 13.4708 26.3333 16.3333V20.1158C26.3333 20.6508 26.4908 21.1733 26.7875 21.6183L28.6208 24.3666C28.7481 24.557 28.8213 24.7785 28.8325 25.0073C28.8437 25.2361 28.7925 25.4636 28.6844 25.6656C28.5763 25.8675 28.4154 26.0363 28.2188 26.1539C28.0222 26.2715 27.7974 26.3335 27.5683 26.3333H23.4167C23.4167 26.7163 23.3412 27.0955 23.1946 27.4494C23.0481 27.8033 22.8332 28.1248 22.5624 28.3956C22.2915 28.6665 21.97 28.8813 21.6162 29.0279C21.2623 29.1745 20.883 29.2499 20.5 29.2499C20.117 29.2499 19.7377 29.1745 19.3838 29.0279C19.03 28.8813 18.7084 28.6665 18.4376 28.3956C18.1668 28.1248 17.9519 27.8033 17.8053 27.4494C17.6588 27.0955 17.5833 26.7163 17.5833 26.3333H13.4325C13.2035 26.3334 12.9788 26.2715 12.7823 26.154C12.5858 26.0365 12.4248 25.8679 12.3166 25.6661C12.2084 25.4643 12.157 25.2369 12.1679 25.0082C12.1787 24.7795 12.2515 24.558 12.3783 24.3674L14.2117 21.6183C14.5083 21.1733 14.6667 20.6505 14.6667 20.1158V16.3333C14.6667 13.4708 17.4317 11.3333 20.5 11.3333ZM15.9167 16.3333V20.1158C15.9169 20.8972 15.6858 21.6612 15.2525 22.3116L13.4192 25.0599L13.4167 25.0683L13.4175 25.0741L13.4208 25.0791L13.4258 25.0824L13.4317 25.0833H27.5683L27.5742 25.0824L27.5792 25.0791L27.5825 25.0741L27.5833 25.0691C27.5834 25.0661 27.5825 25.0632 27.5808 25.0608L25.7483 22.3116C25.3149 21.6613 25.0835 20.8973 25.0833 20.1158V16.3333C25.0833 14.3633 23.0975 12.5833 20.5 12.5833C17.9025 12.5833 15.9167 14.3633 15.9167 16.3333ZM22.1667 26.3333H18.8333C18.8333 26.7753 19.0089 27.1992 19.3215 27.5118C19.634 27.8243 20.058 27.9999 20.5 27.9999C20.942 27.9999 21.3659 27.8243 21.6785 27.5118C21.9911 27.1992 22.1667 26.7753 22.1667 26.3333Z" fill="#0B150F"/>
</g>
<circle cx="34.5" cy="5.5" r="4" fill="#F44336"/>
</svg>
