<svg width="56" height="192" viewBox="0 0 56 192" fill="none" xmlns="http://www.w3.org/2000/svg">
<g opacity="0.5">
<path d="M27.03 14.5899C27.3011 14.3604 27.6448 14.2344 28 14.2344C28.3552 14.2344 28.6989 14.3604 28.97 14.5899L36.47 20.9529C36.6361 21.0937 36.7695 21.269 36.861 21.4665C36.9526 21.6641 37 21.8792 37 22.0969V31.4999C37 31.8977 36.842 32.2793 36.5607 32.5606C36.2794 32.8419 35.8978 32.9999 35.5 32.9999H29.75C29.5511 32.9999 29.3603 32.9209 29.2197 32.7802C29.079 32.6396 29 32.4488 29 32.2499V25.9999H27V32.2499C27 32.4488 26.921 32.6396 26.7803 32.7802C26.6397 32.9209 26.4489 32.9999 26.25 32.9999H20.5C20.1022 32.9999 19.7206 32.8419 19.4393 32.5606C19.158 32.2793 19 31.8977 19 31.4999V22.0969C19 21.6569 19.194 21.2379 19.53 20.9529L27.03 14.5899ZM28 15.7339L20.5 22.0969V31.4999H25.5V25.2499C25.5 25.051 25.579 24.8602 25.7197 24.7196C25.8603 24.5789 26.0511 24.4999 26.25 24.4999H29.75C29.9489 24.4999 30.1397 24.5789 30.2803 24.7196C30.421 24.8602 30.5 25.051 30.5 25.2499V31.4999H35.5V22.0969L28 15.7339Z" fill="white"/>
</g>
<mask id="path-3-inside-1_0_20" fill="white">
<path d="M0 48H56V96H0V48Z"/>
</mask>
<path d="M0 48H56V96H0V48Z" fill="white" fill-opacity="0.05"/>
<path d="M18 64.75C18 63.784 18.784 63 19.75 63H24.721C25.0063 62.9999 25.2872 63.0696 25.5394 63.2029C25.7916 63.3362 26.0074 63.5292 26.168 63.765L27.572 65.828C27.5949 65.8619 27.6257 65.8896 27.6618 65.9088C27.6979 65.9279 27.7381 65.938 27.779 65.938H36.25C37.216 65.938 38 66.721 38 67.688V79.25C38 79.7141 37.8156 80.1592 37.4874 80.4874C37.1592 80.8156 36.7141 81 36.25 81H20.75C20.5511 81 20.3603 80.921 20.2197 80.7803C20.079 80.6397 20 80.4489 20 80.25C20 80.0511 20.079 79.8603 20.2197 79.7197C20.3603 79.579 20.5511 79.5 20.75 79.5H36.25C36.3163 79.5 36.3799 79.4737 36.4268 79.4268C36.4737 79.3799 36.5 79.3163 36.5 79.25V67.688C36.5 67.6217 36.4737 67.5581 36.4268 67.5112C36.3799 67.4643 36.3163 67.438 36.25 67.438H27.779C27.4936 67.4379 27.2127 67.368 26.9605 67.2345C26.7083 67.101 26.4925 66.9079 26.332 66.672L24.928 64.609C24.9049 64.5755 24.874 64.548 24.8379 64.529C24.8019 64.51 24.7617 64.5001 24.721 64.5H19.75C19.6837 64.5 19.6201 64.5263 19.5732 64.5732C19.5263 64.6201 19.5 64.6837 19.5 64.75V68.25C19.5 68.4489 19.421 68.6397 19.2803 68.7803C19.1397 68.921 18.9489 69 18.75 69C18.5511 69 18.3603 68.921 18.2197 68.7803C18.079 68.6397 18 68.4489 18 68.25V64.75Z" fill="#007FFF"/>
<path d="M25.308 72.5002L23.204 70.2642C23.1344 70.1929 23.0797 70.1085 23.0431 70.0158C23.0064 69.9231 22.9887 69.8241 22.9908 69.7245C22.9929 69.6248 23.0148 69.5266 23.0553 69.4356C23.0957 69.3445 23.154 69.2624 23.2265 69.1941C23.2991 69.1258 23.3845 69.0727 23.4778 69.0378C23.5712 69.0029 23.6705 68.9869 23.7701 68.9908C23.8697 68.9947 23.9674 69.0185 24.0577 69.0606C24.148 69.1027 24.229 69.1624 24.296 69.2362L27.59 72.7362C27.7209 72.8753 27.7938 73.0592 27.7938 73.2502C27.7938 73.4413 27.7209 73.6251 27.59 73.7642L24.296 77.2642C24.229 77.338 24.148 77.3977 24.0577 77.4399C23.9674 77.482 23.8697 77.5057 23.7701 77.5096C23.6705 77.5135 23.5712 77.4976 23.4778 77.4627C23.3845 77.4278 23.2991 77.3746 23.2265 77.3063C23.154 77.238 23.0957 77.1559 23.0553 77.0649C23.0148 76.9738 22.9929 76.8756 22.9908 76.776C22.9887 76.6764 23.0064 76.5773 23.0431 76.4846C23.0797 76.392 23.1344 76.3075 23.204 76.2362L25.308 74.0002H20.09C19.4031 74.0002 18.7443 74.2731 18.2586 74.7588C17.7729 75.2445 17.5 75.9033 17.5 76.5902V79.7502C17.5 79.9491 17.421 80.1399 17.2803 80.2805C17.1397 80.4212 16.9489 80.5002 16.75 80.5002C16.5511 80.5002 16.3603 80.4212 16.2197 80.2805C16.079 80.1399 16 79.9491 16 79.7502V76.5902C16 75.5055 16.4309 74.4652 17.1979 73.6982C17.965 72.9311 19.0053 72.5002 20.09 72.5002H25.308Z" fill="#007FFF"/>
<path d="M52 48V96H60V48H52Z" fill="#007FFF" mask="url(#path-3-inside-1_0_20)"/>
<g opacity="0.5">
<path d="M19.4999 116C19.5001 115.052 19.7454 114.12 20.2119 113.294C20.6785 112.469 21.3505 111.778 22.1627 111.289C22.9749 110.8 23.8997 110.529 24.8474 110.503C25.7951 110.477 26.7336 110.696 27.5716 111.139C28.4097 111.583 29.1189 112.235 29.6305 113.033C30.1421 113.831 30.4387 114.748 30.4914 115.695C30.5442 116.642 30.3513 117.586 29.9316 118.436C29.5119 119.286 28.8795 120.013 28.0959 120.547C29.7834 121.166 31.2471 122.276 32.2986 123.733C33.35 125.191 33.9412 126.93 33.9959 128.727C33.9936 128.921 33.9165 129.106 33.7808 129.244C33.645 129.382 33.4611 129.463 33.2675 129.468C33.0739 129.474 32.8855 129.405 32.7417 129.275C32.5979 129.145 32.5099 128.965 32.4959 128.772C32.4364 126.823 31.6205 124.974 30.2211 123.617C28.8217 122.26 26.9489 121.501 24.9994 121.501C23.05 121.501 21.1771 122.26 19.7778 123.617C18.3784 124.974 17.5625 126.823 17.5029 128.772C17.4929 128.968 17.4066 129.152 17.2625 129.285C17.1184 129.418 16.9279 129.489 16.7319 129.483C16.5359 129.477 16.3499 129.395 16.2139 129.254C16.0778 129.113 16.0024 128.924 16.0039 128.728C16.0585 126.931 16.6495 125.192 17.701 123.734C18.7525 122.276 20.2163 121.166 21.9039 120.547C21.1628 120.042 20.5562 119.364 20.1372 118.572C19.7182 117.779 19.4994 116.896 19.4999 116ZM24.9999 112C23.9391 112 22.9216 112.421 22.1715 113.171C21.4214 113.922 20.9999 114.939 20.9999 116C20.9999 117.061 21.4214 118.078 22.1715 118.828C22.9216 119.578 23.9391 120 24.9999 120C26.0608 120 27.0782 119.578 27.8284 118.828C28.5785 118.078 28.9999 117.061 28.9999 116C28.9999 114.939 28.5785 113.922 27.8284 113.171C27.0782 112.421 26.0608 112 24.9999 112ZM33.2899 116C33.1419 116 32.9979 116.01 32.8559 116.03C32.7568 116.048 32.6551 116.045 32.5569 116.023C32.4587 116 32.366 115.958 32.2844 115.899C32.2028 115.84 32.1339 115.766 32.0818 115.679C32.0297 115.593 31.9955 115.497 31.9813 115.398C31.967 115.298 31.973 115.196 31.9989 115.099C32.0247 115.002 32.0699 114.911 32.1318 114.831C32.1936 114.752 32.2708 114.685 32.3588 114.636C32.4468 114.587 32.5438 114.557 32.6439 114.546C33.6385 114.402 34.6527 114.593 35.5268 115.089C36.4009 115.584 37.0854 116.357 37.4725 117.284C37.8596 118.212 37.9274 119.241 37.6652 120.211C37.4029 121.181 36.8256 122.037 36.0239 122.643C37.2023 123.17 38.2028 124.028 38.9048 125.111C39.6068 126.195 39.9802 127.459 39.9799 128.75C39.9799 128.949 39.9009 129.14 39.7603 129.28C39.6196 129.421 39.4288 129.5 39.2299 129.5C39.031 129.5 38.8403 129.421 38.6996 129.28C38.5589 129.14 38.4799 128.949 38.4799 128.75C38.4798 127.634 38.1203 126.548 37.4546 125.652C36.7889 124.757 35.8524 124.1 34.7839 123.778L34.2499 123.618V121.942L34.6599 121.733C35.2677 121.425 35.754 120.921 36.0402 120.303C36.3265 119.685 36.3961 118.988 36.2378 118.326C36.0794 117.663 35.7024 117.073 35.1675 116.651C34.6327 116.229 33.9712 116 33.2899 116Z" fill="white"/>
</g>
<g opacity="0.5">
<path d="M19.9999 165.5C20 164.643 20.2202 163.801 20.6393 163.054C21.0585 162.307 21.6626 161.68 22.3937 161.233C23.1248 160.787 23.9584 160.536 24.8144 160.504C25.6705 160.472 26.5204 160.661 27.2826 161.052C28.0448 161.443 28.6937 162.023 29.1671 162.737C29.6406 163.451 29.9226 164.275 29.9861 165.129C30.0497 165.984 29.8927 166.84 29.5302 167.616C29.1677 168.392 28.6118 169.063 27.9159 169.562C29.3598 170.137 30.604 171.122 31.4955 172.395C32.3871 173.669 32.887 175.175 32.9339 176.728C32.939 176.828 32.9242 176.928 32.8902 177.022C32.8562 177.115 32.8038 177.202 32.7361 177.275C32.6684 177.348 32.5867 177.408 32.4958 177.449C32.405 177.49 32.3067 177.513 32.2069 177.516C32.1071 177.519 32.0077 177.502 31.9145 177.466C31.8214 177.43 31.7364 177.376 31.6645 177.306C31.5926 177.237 31.5352 177.154 31.4958 177.062C31.4564 176.971 31.4357 176.872 31.4349 176.772C31.3837 175.091 30.68 173.497 29.473 172.326C28.266 171.155 26.6505 170.5 24.9689 170.5C23.2874 170.5 21.6719 171.155 20.4648 172.326C19.2578 173.497 18.5541 175.091 18.5029 176.772C18.4929 176.968 18.4066 177.152 18.2625 177.285C18.1184 177.418 17.9279 177.489 17.7319 177.484C17.5359 177.478 17.3499 177.395 17.2139 177.254C17.0778 177.113 17.0024 176.924 17.0039 176.728C17.0512 175.167 17.5558 173.655 18.4552 172.378C19.3545 171.101 20.609 170.117 22.0629 169.547C21.4236 169.084 20.9033 168.475 20.5447 167.772C20.186 167.068 19.9994 166.29 19.9999 165.5ZM24.9999 162C24.5403 162 24.0852 162.091 23.6605 162.267C23.2359 162.442 22.8501 162.7 22.5251 163.025C22.2 163.35 21.9422 163.736 21.7663 164.161C21.5905 164.585 21.4999 165.041 21.4999 165.5C21.4999 165.96 21.5905 166.415 21.7663 166.84C21.9422 167.264 22.2 167.65 22.5251 167.975C22.8501 168.3 23.2359 168.558 23.6605 168.734C24.0852 168.91 24.5403 169 24.9999 169C25.9282 169 26.8184 168.631 27.4748 167.975C28.1312 167.319 28.4999 166.428 28.4999 165.5C28.4999 164.572 28.1312 163.682 27.4748 163.025C26.8184 162.369 25.9282 162 24.9999 162Z" fill="white"/>
<g clip-path="url(#clip0_0_20)">
<path d="M34.9999 156C35.1461 156 35.2923 156.007 35.438 156.019C35.9024 156.059 36.2436 156.403 36.3499 156.806L36.5299 157.498C36.5411 157.539 36.5792 157.597 36.6624 157.638C36.8067 157.709 36.9461 157.79 37.0799 157.879C37.1567 157.931 37.2255 157.936 37.2667 157.924L37.9561 157.734C38.3586 157.624 38.8261 157.748 39.0936 158.128C39.2624 158.369 39.4099 158.623 39.5336 158.889C39.7305 159.311 39.603 159.778 39.3061 160.071L38.7974 160.575C38.7667 160.605 38.7361 160.667 38.7424 160.759C38.7524 160.919 38.7524 161.081 38.7424 161.241C38.7361 161.333 38.7661 161.395 38.7974 161.425L39.3061 161.929C39.603 162.222 39.7305 162.689 39.5336 163.111C39.4096 163.377 39.2624 163.631 39.0936 163.871C38.8261 164.253 38.3586 164.376 37.9561 164.265L37.2674 164.076C37.2255 164.064 37.1567 164.069 37.0799 164.121C36.9461 164.21 36.8066 164.291 36.6624 164.362C36.5792 164.403 36.5411 164.461 36.5305 164.502L36.3492 165.193C36.2442 165.597 35.9024 165.941 35.438 165.981C35.1465 166.006 34.8533 166.006 34.5617 165.981C34.0974 165.941 33.7561 165.597 33.6505 165.193L33.4699 164.502C33.4586 164.461 33.4205 164.403 33.3374 164.362C33.1929 164.291 33.0535 164.21 32.9199 164.121C32.843 164.069 32.7742 164.064 32.733 164.076L32.0436 164.266C31.6411 164.376 31.1736 164.253 30.9061 163.872C30.7377 163.631 30.5905 163.377 30.4661 163.111C30.2692 162.689 30.3967 162.222 30.693 161.929L31.2024 161.425C31.2336 161.395 31.2636 161.333 31.2574 161.241C31.2474 161.081 31.2474 160.919 31.2574 160.759C31.2636 160.667 31.2336 160.605 31.2024 160.575L30.693 160.071C30.3967 159.778 30.2692 159.311 30.4661 158.889C30.5899 158.623 30.7372 158.369 30.9061 158.129C31.1736 157.748 31.6411 157.624 32.0436 157.735L32.7324 157.924C32.7742 157.936 32.843 157.931 32.9199 157.879C33.0536 157.79 33.193 157.709 33.3374 157.638C33.4205 157.597 33.4586 157.539 33.4692 157.498L33.6505 156.807C33.7555 156.403 34.0974 156.059 34.5617 156.019C34.7061 156.006 34.8524 156 34.9999 156ZM34.643 156.953C34.6205 156.955 34.5755 156.976 34.5574 157.044L34.3767 157.735C34.2849 158.086 34.0336 158.339 33.753 158.478C33.6449 158.532 33.5405 158.593 33.4405 158.659C33.1799 158.833 32.8342 158.924 32.4849 158.828L31.7955 158.639C31.7274 158.62 31.6861 158.649 31.6736 158.667C31.5361 158.862 31.4161 159.069 31.3155 159.286C31.3067 159.305 31.3024 159.354 31.3524 159.404L31.8617 159.908C32.1186 160.162 32.213 160.506 32.193 160.818C32.1855 160.939 32.1855 161.061 32.193 161.182C32.213 161.494 32.1186 161.838 31.8617 162.092L31.3524 162.596C31.3017 162.646 31.3067 162.695 31.3155 162.714C31.4167 162.931 31.5361 163.138 31.6736 163.333C31.6861 163.351 31.7267 163.38 31.7955 163.361L32.4842 163.172C32.8342 163.076 33.1799 163.167 33.4405 163.341C33.5411 163.408 33.6455 163.468 33.7536 163.522C34.033 163.661 34.2849 163.915 34.3767 164.265L34.5574 164.956C34.5755 165.024 34.6205 165.045 34.643 165.047C34.8805 165.067 35.1193 165.067 35.3567 165.047C35.3792 165.045 35.4242 165.024 35.4424 164.956L35.623 164.265C35.7149 163.914 35.9661 163.661 36.2467 163.522C36.3549 163.468 36.4592 163.408 36.5592 163.341C36.8199 163.167 37.1655 163.076 37.5149 163.172L38.2042 163.361C38.2724 163.379 38.3136 163.351 38.3261 163.333C38.4636 163.138 38.583 162.931 38.6842 162.714C38.693 162.695 38.6974 162.646 38.6474 162.596L38.138 162.092C37.8811 161.838 37.7867 161.494 37.8067 161.182C37.8142 161.061 37.8142 160.939 37.8067 160.818C37.7867 160.506 37.8811 160.162 38.138 159.908L38.6474 159.404C38.698 159.354 38.693 159.305 38.6842 159.286C38.5833 159.069 38.4635 158.863 38.3261 158.668C38.3136 158.649 38.273 158.62 38.2042 158.639L37.5155 158.828C37.1655 158.924 36.8199 158.833 36.5592 158.659C36.4589 158.592 36.3543 158.532 36.2461 158.478C35.9667 158.339 35.7149 158.085 35.623 157.735L35.4424 157.044C35.4242 156.976 35.3792 156.955 35.3567 156.953C35.1193 156.933 34.8805 156.933 34.643 156.953ZM36.8749 161C36.8749 161.497 36.6773 161.974 36.3257 162.326C35.9741 162.677 35.4971 162.875 34.9999 162.875C34.5026 162.875 34.0257 162.677 33.674 162.326C33.3224 161.974 33.1249 161.497 33.1249 161C33.1249 160.503 33.3224 160.026 33.674 159.674C34.0257 159.323 34.5026 159.125 34.9999 159.125C35.4971 159.125 35.9741 159.323 36.3257 159.674C36.6773 160.026 36.8749 160.503 36.8749 161ZM35.9374 161C35.9373 160.751 35.8384 160.513 35.6625 160.337C35.4865 160.161 35.248 160.062 34.9992 160.063C34.7505 160.063 34.512 160.161 34.3362 160.337C34.1604 160.513 34.0617 160.752 34.0617 161.001C34.0618 161.249 34.1607 161.488 34.3366 161.664C34.4237 161.751 34.5272 161.82 34.6409 161.867C34.7547 161.914 34.8767 161.938 34.9999 161.938C35.123 161.938 35.245 161.914 35.3587 161.867C35.4725 161.819 35.5758 161.75 35.6629 161.663C35.75 161.576 35.819 161.473 35.8661 161.359C35.9132 161.245 35.9374 161.123 35.9374 161Z" fill="white"/>
</g>
</g>
<defs>
<clipPath id="clip0_0_20">
<rect width="10" height="10" fill="white" transform="translate(30 156)"/>
</clipPath>
</defs>
</svg>
