<svg width="6" height="11" viewBox="0 0 6 11" fill="none" xmlns="http://www.w3.org/2000/svg">
<path d="M0.407271 0.40727L0.40727 0.407272L5.45034 5.45034C5.49705 5.40371 5.5341 5.34832 5.55938 5.28735C5.58466 5.22638 5.59767 5.16102 5.59767 5.09502C5.59767 5.02901 5.58466 4.96366 5.55938 4.90269C5.5341 4.84171 5.49705 4.78633 5.45034 4.73969L5.59256 4.59747L5.59246 4.59737L1.40237 0.407271L1.26015 0.549491L1.40237 0.40727C1.33703 0.341932 1.25946 0.290103 1.17409 0.254743C1.08872 0.219382 0.997223 0.201181 0.904819 0.201181C0.812415 0.201181 0.720917 0.219382 0.635549 0.254742C0.550179 0.290103 0.472611 0.341932 0.407271 0.40727ZM1.40247 9.78266L5.59246 5.59267L0.549491 1.26015L0.407258 1.40236L0.407271 1.40237L4.09927 5.09502L0.407372 8.78756L0.549491 8.92988L0.407258 8.78768L0.407343 8.78759C0.341945 8.8529 0.290062 8.93047 0.254661 9.01585C0.219254 9.10124 0.201031 9.19277 0.201031 9.28521C0.201031 9.37765 0.219254 9.46919 0.254661 9.55458C0.290067 9.63997 0.341961 9.71754 0.407372 9.78286L0.549491 9.64054L0.40717 9.78266C0.472488 9.84807 0.550061 9.89996 0.635453 9.93537C0.720844 9.97078 0.812378 9.989 0.904819 9.989C0.99726 9.989 1.08879 9.97078 1.17419 9.93537C1.25953 9.89998 1.33707 9.84813 1.40237 9.78276C1.40238 9.78275 1.4024 9.78273 1.40241 9.78272C1.40243 9.7827 1.40245 9.78268 1.40247 9.78266Z" fill="#007FFF" stroke="#007FFF" stroke-width="0.4"/>
</svg>
