<svg width="15" height="15" viewBox="0 0 15 15" fill="none" xmlns="http://www.w3.org/2000/svg">
<g clip-path="url(#clip0_1_2588)">
<path d="M4.21908 0.000994036C4.3434 0.000994036 4.46262 0.0503794 4.55053 0.138286C4.63844 0.226192 4.68782 0.345419 4.68782 0.469738V1.87597H10.3127V0.469738C10.3127 0.345419 10.3621 0.226192 10.45 0.138286C10.5379 0.0503794 10.6572 0.000994036 10.7815 0.000994036C10.9058 0.000994036 11.025 0.0503794 11.1129 0.138286C11.2009 0.226192 11.2502 0.345419 11.2502 0.469738V1.87597H12.969C13.5727 1.87597 14.0627 2.36596 14.0627 2.96971V12.9696C14.0627 13.2597 13.9475 13.5378 13.7424 13.743C13.5372 13.9481 13.259 14.0633 12.969 14.0633H2.03161C1.74153 14.0633 1.46334 13.9481 1.25822 13.743C1.05311 13.5378 0.937873 13.2597 0.937873 12.9696V2.96971C0.937873 2.36596 1.42787 1.87597 2.03161 1.87597H3.75034V0.469738C3.75034 0.345419 3.79972 0.226192 3.88763 0.138286C3.97553 0.0503794 4.09476 0.000994036 4.21908 0.000994036ZM13.1252 5.93842H1.87536V12.9696C1.87536 13.0558 1.94536 13.1258 2.03161 13.1258H12.969C13.0104 13.1258 13.0501 13.1094 13.0794 13.0801C13.1087 13.0508 13.1252 13.011 13.1252 12.9696V5.93842ZM2.03161 2.81346C1.99017 2.81346 1.95043 2.82992 1.92112 2.85922C1.89182 2.88852 1.87536 2.92827 1.87536 2.96971V5.00093H13.1252V2.96971C13.1252 2.92827 13.1087 2.88852 13.0794 2.85922C13.0501 2.82992 13.0104 2.81346 12.969 2.81346H2.03161Z" fill="#9DA19F"/>
</g>
<defs>
<clipPath id="clip0_1_2588">
<rect width="14.7361" height="14.7361" fill="white" transform="scale(1.01789)"/>
</clipPath>
</defs>
</svg>
