<svg width="7" height="11" viewBox="0 0 7 11" fill="none" xmlns="http://www.w3.org/2000/svg">
<path d="M0.423514 10.5763C0.49304 10.6459 0.57561 10.7011 0.666503 10.7388L5.88565 5.88549C5.93633 5.83488 5.97654 5.77478 6.00397 5.70862C6.03141 5.64246 6.04552 5.57154 6.04552 5.49992C6.04552 5.4283 6.03141 5.35738 6.00397 5.29122C5.97654 5.22506 5.93633 5.16495 5.88565 5.11435L6.02968 4.97032L6.02958 4.97021L1.48282 0.423455C1.41327 0.353906 1.33071 0.298738 1.23984 0.261099L1.16189 0.449283L1.23984 0.261098C1.14897 0.223461 1.05158 0.204087 0.95322 0.204087C0.854863 0.204087 0.75747 0.223461 0.666603 0.261098C0.575732 0.298738 0.493166 0.353906 0.423617 0.423455C0.354068 0.493004 0.298899 0.57557 0.26126 0.666439C0.223621 0.757309 0.204247 0.854702 0.204247 0.953059C0.204247 1.05142 0.223621 1.14881 0.26126 1.23968C0.298897 1.33054 0.354062 1.4131 0.423604 1.48265C0.423608 1.48265 0.423612 1.48266 0.423616 1.48266L4.44017 5.49992L0.423719 9.51707C0.423694 9.5171 0.42367 9.51712 0.423645 9.51715C0.423631 9.51716 0.423618 9.51717 0.423604 9.51719C0.354033 9.58669 0.298837 9.66922 0.261171 9.76006C0.223484 9.85096 0.204087 9.94839 0.204087 10.0468C0.204087 10.1452 0.223484 10.2426 0.261171 10.3335C0.298858 10.4244 0.354094 10.507 0.423719 10.5765L0.567639 10.4324L0.423514 10.5763ZM1.48293 10.5763L6.02958 6.02963L1.33879 10.4324L1.48282 10.5764L1.48293 10.5763Z" fill="#0B150F" stroke="#0B150F" stroke-width="0.4"/>
</svg>
