<svg width="7" height="11" viewBox="0 0 7 11" fill="none" xmlns="http://www.w3.org/2000/svg">
<path d="M6.02929 0.423719C5.95976 0.354094 5.87719 0.298858 5.7863 0.261172L0.567149 5.11451C0.516469 5.16512 0.476262 5.22522 0.44883 5.29138C0.421398 5.35754 0.407278 5.42846 0.407278 5.50008C0.407278 5.5717 0.421398 5.64262 0.44883 5.70878C0.476262 5.77494 0.516469 5.83505 0.567149 5.88565L0.423119 6.02968L0.423222 6.02979L4.96998 10.5765C5.03953 10.6461 5.12209 10.7013 5.21296 10.7389L5.29091 10.5507L5.21297 10.7389C5.30383 10.7765 5.40123 10.7959 5.49958 10.7959C5.59794 10.7959 5.69533 10.7765 5.7862 10.7389C5.87707 10.7013 5.95964 10.6461 6.02919 10.5765C6.09873 10.507 6.1539 10.4244 6.19154 10.3336C6.22918 10.2427 6.24856 10.1453 6.24856 10.0469C6.24856 9.94858 6.22918 9.85119 6.19154 9.76032C6.15391 9.66946 6.09874 9.5869 6.0292 9.51735C6.02919 9.51735 6.02919 9.51734 6.02919 9.51734L2.01263 5.50008L6.02908 1.48293C6.02911 1.4829 6.02913 1.48288 6.02916 1.48285C6.02917 1.48284 6.02919 1.48283 6.0292 1.48281C6.09877 1.41331 6.15397 1.33078 6.19163 1.23994C6.22932 1.14904 6.24872 1.05161 6.24872 0.95322C6.24872 0.854826 6.22932 0.757396 6.19163 0.666503C6.15395 0.575611 6.09871 0.49304 6.02908 0.423514L5.88516 0.567639L6.02929 0.423719ZM4.96988 0.423719L0.423222 4.97037L5.11401 0.567646L4.96998 0.423617L4.96988 0.423719Z" fill="#0B150F" stroke="#0B150F" stroke-width="0.4"/>
</svg>
