<svg width="192" height="32" viewBox="0 0 192 32" fill="none" xmlns="http://www.w3.org/2000/svg">
<circle cx="16" cy="16" r="16" fill="#006699" fill-opacity="0.2"/>
<mask id="mask0_1_2183" style="mask-type:alpha" maskUnits="userSpaceOnUse" x="0" y="0" width="32" height="32">
<circle cx="16" cy="16" r="16" fill="#D9D9D9"/>
</mask>
<g mask="url(#mask0_1_2183)">
<mask id="mask1_1_2183" style="mask-type:alpha" maskUnits="userSpaceOnUse" x="-36" y="-3" width="146" height="37">
<rect x="-36" y="-2.40039" width="145.724" height="36.2474" fill="#006699"/>
</mask>
<g mask="url(#mask1_1_2183)">
<path d="M-36.7343 70.3365C-36.7343 70.1363 -33.8844 67.3067 -33.6827 67.3067C-33.5026 67.3067 -30.7954 69.8989 -30.5971 70.2613C-30.5079 70.4242 -30.5269 70.4745 -30.6778 70.4745C-30.7864 70.4745 -31.5047 69.8626 -32.2741 69.1146L-33.6729 67.7547L-35.0716 69.1146C-36.3995 70.4056 -36.7343 70.6517 -36.7343 70.3365ZM-27.7539 67.5254C-29.3929 65.9034 -30.7339 64.4908 -30.7339 64.3862C-30.7339 64.1427 -27.7908 61.2147 -27.546 61.2147C-27.3675 61.2147 -18.2432 70.2109 -18.2432 70.3869C-18.2432 70.7834 -19.242 69.8945 -23.1054 66.0601L-27.5531 61.6456L-28.9272 63.0128L-30.3013 64.3799L-27.3337 67.3416C-25.7015 68.9705 -24.3661 70.3418 -24.3661 70.3889C-24.3661 70.7614 -25.1738 70.0788 -27.7539 67.5254ZM-12.2428 70.4006C-12.2428 70.2851 -10.5451 68.5676 -9.75956 67.8884L-9.05196 67.2766L-7.63712 68.6623C-6.11992 70.1483 -5.85863 70.4745 -6.18546 70.4745C-6.29359 70.4745 -6.97541 69.8988 -7.7006 69.1952C-8.42579 68.4916 -9.06458 67.9159 -9.12014 67.9159C-9.17569 67.9159 -9.81448 68.4916 -10.5397 69.1952C-11.6701 70.292 -12.2428 70.6974 -12.2428 70.4006ZM-3.20094 67.5865C-4.80638 65.998 -6.11993 64.6207 -6.11993 64.5257C-6.11993 64.3148 -3.20982 61.2147 -3.01177 61.2147C-2.86155 61.2147 6.24827 70.2381 6.24827 70.3869C6.24827 70.7831 5.25312 69.8981 1.41516 66.0889L-3.00355 61.7032L-4.04498 62.7688C-4.61777 63.3548 -5.21964 63.9864 -5.38246 64.1723L-5.6785 64.5104L-2.77655 67.4069C-1.18048 69 0.125401 70.3419 0.125401 70.389C0.125401 70.7601 -0.674088 70.0866 -3.20094 67.5865ZM12.2343 70.2613C12.3944 69.9688 15.1228 67.3067 15.2625 67.3067C15.3243 67.3067 16.0897 68.0195 16.9633 68.8906C18.9143 70.8361 18.7431 71.0753 16.7453 69.1952C15.9976 68.4916 15.3323 67.9159 15.2669 67.9159C15.2014 67.9159 14.5546 68.4916 13.8294 69.1952C13.1042 69.8988 12.4223 70.4745 12.3142 70.4745C12.1641 70.4745 12.1452 70.4241 12.2343 70.2613ZM21.2645 67.5808C19.6397 65.9893 18.2626 64.6121 18.2042 64.5203C18.1273 64.3993 18.5306 63.9222 19.6719 62.7841C20.5376 61.9209 21.306 61.2147 21.3797 61.2147C21.54 61.2147 30.4475 69.9152 30.625 70.2451C30.7237 70.4286 30.706 70.4745 30.5369 70.4745C30.4205 70.4745 28.3258 68.49 25.882 66.0644L21.4386 61.6543L21.0991 61.9487C20.0657 62.8446 18.7389 64.2216 18.7389 64.3981C18.7389 64.5102 20.0111 65.826 21.566 67.3221C24.4555 70.1024 24.7926 70.4745 24.4221 70.4745C24.3103 70.4745 22.8894 69.1724 21.2645 67.5808ZM-16.8811 66.0334C-17.765 65.1656 -18.4881 64.393 -18.4881 64.3167C-18.4881 64.2404 -15.8155 61.4738 -12.5489 58.1687C-9.28239 54.8636 -6.60976 52.0964 -6.60976 52.0194C-6.60976 51.8512 -9.09465 49.3962 -9.26491 49.3962C-9.33039 49.3962 -12.0436 52.0828 -15.2943 55.3664C-18.5449 58.65 -21.2617 61.3365 -21.3316 61.3365C-21.4015 61.3365 -22.6787 60.1714 -24.1699 58.7474C-25.6612 57.3234 -27.0334 56.0239 -27.2193 55.8596L-27.5573 55.5608L-32.0578 60.0326C-34.5331 62.4921 -36.5979 64.5044 -36.6463 64.5044C-37.0453 64.5044 -36.1436 63.5028 -32.2377 59.6073C-29.7646 57.1408 -27.6568 55.1247 -27.5537 55.127C-27.4506 55.1295 -26.0179 56.4139 -24.3699 57.9814C-22.5879 59.6764 -21.3162 60.798 -21.232 60.749C-21.154 60.7036 -18.4901 58.0347 -15.3121 54.8181C-12.1341 51.6015 -9.44083 48.9545 -9.32704 48.9358C-9.19872 48.9146 -8.51711 49.5037 -7.53238 50.4868L-5.94462 52.0719L-8.57274 54.7243C-10.0182 56.1832 -12.7425 58.9263 -14.6266 60.8202L-18.0524 64.2636L-16.7089 65.6051C-15.97 66.343 -15.302 66.9317 -15.2245 66.9135C-15.1469 66.8952 -12.4556 64.2211 -9.24377 60.971C-6.03195 57.7209 -3.32031 55.0429 -3.2179 55.0198C-3.10605 54.9946 -1.81979 56.1801 0.00344467 57.9889C1.67278 59.6449 3.09823 60.9797 3.17112 60.955C3.24401 60.9303 5.93326 58.2509 9.14723 55.0009C12.3612 51.7508 15.0692 49.0441 15.1651 48.9861C15.2937 48.9081 15.7522 49.2904 16.9167 50.4464C17.7842 51.3076 18.494 52.0685 18.494 52.1372C18.494 52.206 15.8179 54.9649 12.5472 58.2682C9.27639 61.5715 6.61753 64.3424 6.63859 64.4257C6.65965 64.509 7.27343 65.1475 8.00255 65.8444L9.32822 67.1117L11.2456 65.1684C17.3063 59.0256 21.2556 55.1227 21.4107 55.1227C21.5079 55.1227 22.4379 55.9314 23.4775 56.9198C24.517 57.9083 25.8909 59.2046 26.5305 59.8005L27.6936 60.8839L32.1708 56.4499C34.6505 53.994 36.6728 52.0829 36.7037 52.1663C36.7343 52.2491 36.6479 52.4726 36.5116 52.663C36.1569 53.1587 27.8125 61.3365 27.6615 61.3365C27.5923 61.3365 26.1841 60.0452 24.5322 58.4669C22.8803 56.8886 21.4533 55.6139 21.361 55.6341C21.2688 55.6544 18.5635 58.3301 15.3494 61.5802C12.1353 64.8303 9.4202 67.5048 9.31581 67.5235C9.20769 67.5429 8.44167 66.8743 7.53568 65.9699L5.94533 64.3822L7.84319 62.4634C8.887 61.4081 11.6003 58.677 13.8726 56.3945C16.145 54.1119 18.0042 52.1877 18.0042 52.1185C18.0042 51.9005 15.4388 49.4988 15.2499 49.5398C15.1509 49.5614 12.4668 52.2107 9.28526 55.4273C6.10372 58.6439 3.39645 61.3515 3.26911 61.4442C3.05566 61.5996 2.79469 61.3714 -0.0753021 58.52L-3.18819 55.4273L-9.23117 61.5193L-15.2742 67.6113L-16.8811 66.0334ZM31.9782 65.9812C31.1624 65.1181 30.4948 64.3628 30.4948 64.3026C30.4948 64.1225 36.6062 58.1166 36.6973 58.2073C36.887 58.396 36.3257 59.0255 33.8364 61.4154C32.3984 62.7961 31.1641 64.033 31.0936 64.1641C30.9819 64.3717 31.1402 64.5785 32.3166 65.7621L33.668 67.1216L35.1236 65.6911C35.9242 64.9044 36.6154 64.2607 36.6597 64.2607C36.7039 64.2607 36.7402 64.3475 36.7402 64.4537C36.7402 64.7184 33.9347 67.5504 33.6725 67.5504C33.5565 67.5504 32.7941 66.8442 31.9782 65.9812ZM-36.7343 58.2097C-36.7343 58.0983 -35.427 56.699 -33.8291 55.1003L-30.9239 52.1936L-32.2954 50.829L-33.667 49.4643L-35.1201 50.8924C-35.9194 51.6778 -36.6095 52.3204 -36.6538 52.3204C-36.6981 52.3204 -36.7343 52.2335 -36.7343 52.1274C-36.7343 51.8718 -33.9334 49.0307 -33.6815 49.0307C-33.4327 49.0307 -30.489 51.9563 -30.489 52.2035C-30.489 52.3809 -36.4722 58.4124 -36.6481 58.4124C-36.6955 58.4124 -36.7343 58.3212 -36.7343 58.2097ZM-27.5644 49.4549C-30.8388 46.2061 -33.5952 43.5479 -33.6895 43.5479C-33.7839 43.5479 -34.4112 44.0999 -35.0834 44.7745C-36.419 46.1149 -36.7343 46.3568 -36.7343 46.0413C-36.7343 45.8359 -34.2687 43.248 -33.8706 43.0356C-33.6709 42.9291 -33.1987 43.347 -30.3805 46.124C-28.588 47.8903 -25.8404 50.5958 -24.2748 52.1362L-21.4282 54.9369L-20.0806 53.6002C-19.3395 52.8651 -18.7333 52.2079 -18.7336 52.1397C-18.7338 52.0715 -21.4203 49.3857 -24.7034 46.1712C-27.9865 42.9567 -30.7204 40.2499 -30.7788 40.1561C-30.8565 40.0311 -30.4643 39.5661 -29.311 38.4161C-28.4454 37.5529 -27.6651 36.8467 -27.5769 36.8467C-27.4888 36.8467 -24.6895 39.5436 -21.3563 42.8399L-15.2959 48.833L-12.3247 45.8859C-10.6906 44.2649 -9.29846 42.9387 -9.23109 42.9387C-9.16373 42.9387 -8.89078 43.1628 -8.62455 43.4366C-8.35831 43.7105 -5.61629 46.4068 -2.53119 49.4284L3.07811 54.9222L4.41828 53.5929C5.15537 52.8618 5.7582 52.2079 5.7579 52.1397C5.75765 52.0715 3.07119 49.3857 -0.211903 46.1712C-3.495 42.9567 -6.22891 40.2499 -6.28726 40.1561C-6.36502 40.0311 -5.97282 39.5661 -4.81954 38.4161C-3.95393 37.5529 -3.1736 36.8467 -3.08546 36.8467C-2.99732 36.8467 -0.197479 39.5442 3.13641 42.841L9.19801 48.8354L12.1631 45.887C13.794 44.2655 15.1856 42.9387 15.2556 42.9387C15.3256 42.9387 15.6007 43.1628 15.8669 43.4366C16.1332 43.7105 18.8752 46.4068 21.9603 49.4284L27.5696 54.9222L28.9098 53.5929C29.6469 52.8618 30.2497 52.2079 30.2494 52.1397C30.2491 52.0715 27.5627 49.3857 24.2796 46.1712C20.9965 42.9567 18.2626 40.2499 18.2042 40.1561C18.1265 40.0311 18.5187 39.5661 19.6719 38.4161C20.5376 37.5529 21.3163 36.8467 21.4024 36.8467C21.4885 36.8467 24.2627 39.5059 27.5672 42.7559C30.8717 46.006 33.641 48.6652 33.7212 48.6652C33.8014 48.6652 34.417 48.1132 35.0893 47.4386C36.427 46.0961 36.7402 45.8561 36.7402 46.1734C36.7402 46.4245 33.9258 49.2947 33.7252 49.2482C33.6428 49.2291 30.8436 46.5353 27.5046 43.2621L21.4338 37.3107L20.8517 37.8004C19.7985 38.6866 18.7137 39.8559 18.7576 40.0577C18.781 40.1651 21.4728 42.8692 24.7393 46.0668C28.0059 49.2644 30.6963 51.9521 30.7181 52.0395C30.7682 52.2407 27.8076 55.3664 27.5669 55.3664C27.4686 55.3664 24.6671 52.6701 21.3412 49.3746L15.2943 43.3828L12.3317 46.3286C10.7023 47.9488 9.29535 49.2744 9.20522 49.2744C9.11508 49.2744 6.32137 46.5806 2.99696 43.2883L-3.04742 37.3021L-3.63463 37.7962C-4.6923 38.686 -5.77789 39.8555 -5.73387 40.0577C-5.71048 40.1651 -3.01869 42.8692 0.24786 46.0668C3.51441 49.2644 6.20486 51.9521 6.22663 52.0395C6.27686 52.2412 3.31585 55.3664 3.0745 55.3664C2.97574 55.3664 0.212513 52.7072 -3.06601 49.4571C-6.34452 46.2071 -9.10346 43.5479 -9.19698 43.5479C-9.29049 43.5479 -10.6611 44.8364 -12.2428 46.4111C-13.8245 47.9859 -15.1964 49.2744 -15.2915 49.2744C-15.3865 49.2744 -18.1582 46.6015 -21.4506 43.3347C-24.7431 40.0678 -27.4829 37.379 -27.5391 37.3595C-27.5953 37.34 -28.2296 37.883 -28.9487 38.5661C-29.8266 39.4001 -30.2441 39.8812 -30.2195 40.0307C-30.1993 40.1532 -27.5102 42.8695 -24.2436 46.0669C-20.9771 49.2644 -18.2866 51.9521 -18.2649 52.0395C-18.2134 52.246 -21.1792 55.3671 -21.4241 55.3642C-21.5268 55.363 -24.2899 52.7038 -27.5644 49.4549ZM-16.9558 41.6019L-18.5462 40.0142L-16.6483 38.0954C-15.6045 37.0401 -12.8912 34.309 -10.6189 32.0265C-8.34651 29.7439 -6.4873 27.8197 -6.4873 27.7505C-6.4873 27.5646 -9.01535 25.1501 -9.20996 25.1501C-9.30147 25.1501 -10.1445 25.9314 -11.0833 26.8863C-16.0581 31.9465 -21.2319 37.0904 -21.3466 37.0904C-21.4184 37.0904 -22.8476 35.7334 -24.5227 34.0748L-27.5684 31.0593L-32.0824 35.5978C-34.565 38.094 -36.6274 40.1364 -36.6653 40.1364C-37.0157 40.1364 -36.1166 39.135 -32.2576 35.2271C-29.7955 32.7338 -27.6936 30.6746 -27.5869 30.6511C-27.4651 30.6243 -26.2602 31.7345 -24.354 33.63L-21.3153 36.6516L-20.0406 35.3784C-19.3395 34.6782 -16.6787 31.9944 -14.1276 29.4145C-11.5765 26.8345 -9.4134 24.6761 -9.32069 24.6181C-9.19816 24.5413 -8.72145 24.94 -7.5748 26.0784C-6.70727 26.9396 -5.99747 27.7005 -5.99747 27.7693C-5.99747 27.838 -8.67356 30.5969 -11.9443 33.9002C-15.2151 37.2035 -17.874 39.9744 -17.8529 40.0577C-17.8318 40.141 -17.2181 40.7795 -16.4889 41.4764L-15.1633 42.7437L-13.2459 40.8004C-7.01408 34.4842 -3.2337 30.7552 -3.06611 30.759C-2.9609 30.7615 -1.52645 32.0459 0.121544 33.6134C1.90355 35.3084 3.1753 36.43 3.25953 36.381C3.33744 36.3356 6.00136 33.6667 9.17936 30.4501C12.3574 27.2335 15.0507 24.5865 15.1645 24.5678C15.2928 24.5466 15.9744 25.1357 16.9591 26.1188L18.5469 27.7039L15.9187 30.3563C14.4733 31.8151 11.749 34.5583 9.86484 36.4522L6.43906 39.8956L7.78254 41.2371C8.52146 41.975 9.18948 42.5637 9.26703 42.5455C9.34458 42.5272 12.0361 39.8531 15.2481 36.603C18.8279 32.9808 21.1904 30.6805 21.3524 30.6596C21.5547 30.6334 22.3053 31.3117 24.5547 33.5533C26.1706 35.1636 27.5486 36.4812 27.6168 36.4812C27.685 36.4812 29.6693 34.5588 32.0262 32.2092C34.3832 29.8596 36.408 27.8839 36.5259 27.8187C36.6932 27.7261 36.7402 27.7462 36.7402 27.9105C36.7402 28.1171 28.2021 36.7454 27.7567 36.9888C27.5603 37.0962 27.1137 36.7013 24.5084 34.1167C22.8471 32.4687 21.4342 31.1193 21.3686 31.1183C21.303 31.117 18.5421 33.8449 15.2333 37.1798L9.21733 43.2433L7.61035 41.6654C6.72651 40.7976 6.00336 40.0251 6.00336 39.9487C6.00336 39.8724 8.67599 37.1058 11.9425 33.8007C15.2091 30.4956 17.8817 27.7284 17.8817 27.6514C17.8817 27.4832 15.3968 25.0282 15.2266 25.0282C15.1611 25.0282 12.4479 27.7148 9.19722 30.9984C5.94656 34.282 3.2323 36.9685 3.16555 36.9685C3.0988 36.9685 1.69263 35.6772 0.0407448 34.0989C-1.61115 32.5206 -3.03819 31.2459 -3.13045 31.2661C-3.22272 31.2864 -5.92793 33.9621 -9.14205 37.2122C-12.3562 40.4623 -15.0713 43.1368 -15.1757 43.1555C-15.2838 43.1749 -16.0498 42.5063 -16.9558 41.6019ZM32.1136 41.709C31.257 40.8986 30.5368 40.1507 30.5131 40.0469C30.472 39.8658 36.0491 34.1741 36.5259 33.9106C36.6926 33.8184 36.7402 33.8381 36.7402 33.9991C36.7402 34.1129 35.4314 35.5174 33.8318 37.1203L30.9234 40.0346L32.2705 41.2999C33.0113 41.9959 33.6736 42.5671 33.7423 42.5692C33.8109 42.5714 34.417 42.0212 35.0893 41.3466C36.427 40.0041 36.7402 39.7641 36.7402 40.0814C36.7402 40.2829 33.9698 43.1824 33.7773 43.1824C33.7189 43.1824 32.9703 42.5194 32.1136 41.709ZM-36.7343 33.8417C-36.7343 33.7303 -35.4314 32.3355 -33.8389 30.7422L-30.9436 27.8453L-31.4418 27.2592C-31.7158 26.9368 -32.3306 26.2901 -32.808 25.8219L-33.6759 24.9708L-35.1536 26.4616C-35.9663 27.2815 -36.6544 27.9524 -36.6828 27.9524C-36.7111 27.9524 -36.7343 27.8652 -36.7343 27.7586C-36.7343 27.5337 -33.8262 24.5409 -33.6076 24.5409C-33.4086 24.5409 -30.489 27.6404 -30.489 27.8517C-30.489 28.0183 -36.4824 34.0444 -36.6481 34.0444C-36.6955 34.0444 -36.7343 33.9532 -36.7343 33.8417ZM-27.6469 25.0067L-33.683 19.02L-35.1281 20.4402C-35.923 21.2213 -36.6095 21.8604 -36.6538 21.8604C-36.6981 21.8604 -36.7343 21.7735 -36.7343 21.6674C-36.7343 21.4478 -33.9512 18.5707 -33.7388 18.5707C-33.6625 18.5707 -33.3823 18.7948 -33.116 19.0686C-32.8498 19.3425 -30.1078 22.0388 -27.0227 25.0604L-21.4134 30.5542L-20.0732 29.2249C-19.3361 28.4938 -18.7333 27.8399 -18.7336 27.7717C-18.7338 27.7035 -21.4203 25.0177 -24.7034 21.8032C-27.9865 18.5887 -30.7204 15.8819 -30.7788 15.7881C-30.8565 15.663 -30.4643 15.1981 -29.311 14.0481C-28.4454 13.1849 -27.6652 12.4787 -27.5772 12.4787C-27.4892 12.4787 -24.7278 15.1379 -21.4409 18.3879C-18.154 21.638 -15.4143 24.2972 -15.3528 24.2972C-15.2913 24.2972 -14.0291 23.0873 -12.5479 21.6086C-11.0667 20.1298 -9.69675 18.8366 -9.50348 18.7347L-9.15207 18.5494L-5.82975 21.8182C-4.00248 23.6161 -1.25402 26.3205 0.277927 27.828L3.06329 30.5689L4.41087 29.2322C5.15203 28.4971 5.7582 27.8399 5.7579 27.7717C5.75765 27.7035 3.07119 25.0177 -0.211903 21.8032C-3.495 18.5887 -6.22891 15.8819 -6.28726 15.7881C-6.36502 15.663 -5.97282 15.1981 -4.81954 14.0481C-3.95393 13.1849 -3.1736 12.4787 -3.08546 12.4787C-2.99732 12.4787 -0.197479 15.1762 3.13641 18.473L9.19801 24.4674L12.1631 21.519C13.794 19.8975 15.1856 18.5707 15.2556 18.5707C15.3256 18.5707 15.6007 18.7948 15.8669 19.0686C16.1332 19.3425 18.8752 22.0388 21.9603 25.0604L27.5696 30.5542L28.9098 29.2249C29.6469 28.4938 30.2497 27.8399 30.2494 27.7717C30.2491 27.7035 27.5627 25.0177 24.2796 21.8032C20.9965 18.5887 18.2626 15.8819 18.2042 15.7881C18.1265 15.663 18.5187 15.1981 19.6719 14.0481C20.5376 13.1849 21.3179 12.4787 21.406 12.4787C21.4942 12.4787 24.2928 15.1749 27.6251 18.4703L33.6839 24.4619L35.1682 23.0088C36.0075 22.1871 36.6756 21.6212 36.7059 21.7063C36.7353 21.7891 36.6498 22.0084 36.5159 22.1937C36.1356 22.7198 33.8531 24.9064 33.6842 24.9064C33.6009 24.9064 30.8129 22.2126 27.4884 18.9203L21.4441 12.9341L20.8569 13.4282C19.7992 14.318 18.7136 15.4875 18.7576 15.6897C18.781 15.7971 21.4728 18.5012 24.7393 21.6988C28.0059 24.8964 30.6963 27.5841 30.7181 27.6715C30.7683 27.8732 27.8073 30.9984 27.566 30.9984C27.4672 30.9984 24.704 28.3392 21.4255 25.0891C18.147 21.8391 15.388 19.1799 15.2945 19.1799C15.201 19.1799 13.8304 20.4684 12.2487 22.0431C10.667 23.6179 9.29829 24.9064 9.20711 24.9064C9.11593 24.9064 6.32137 22.2126 2.99696 18.9203L-3.04742 12.9341L-3.63463 13.4282C-4.6923 14.318 -5.77789 15.4875 -5.73387 15.6897C-5.71048 15.7971 -3.01869 18.5012 0.24786 21.6988C3.51441 24.8964 6.20486 27.5841 6.22663 27.6715C6.27785 27.8772 3.31341 30.9984 3.06683 30.9984C2.96386 30.9984 0.565399 28.6921 -2.26307 25.8732C-5.09153 23.0544 -7.83199 20.3627 -8.35297 19.8918L-9.30021 19.0355L-12.2426 21.8796C-13.8609 23.4438 -15.2687 24.7417 -15.371 24.7638C-15.4831 24.788 -17.939 22.4439 -21.5475 18.8686L-27.538 12.9334L-28.1256 13.4278C-29.1874 14.321 -30.2694 15.4873 -30.2254 15.6911C-30.202 15.7994 -27.5102 18.5033 -24.2436 21.7C-20.9771 24.8966 -18.2866 27.5837 -18.2649 27.6712C-18.2134 27.8781 -21.1792 30.9992 -21.4241 30.9959C-21.5268 30.9944 -24.327 28.2994 -27.6469 25.0067ZM-16.8811 17.2974C-17.765 16.4296 -18.4881 15.657 -18.4881 15.5807C-18.4881 15.5044 -15.8155 12.7378 -12.5489 9.4327C-9.28239 6.12761 -6.60976 3.3604 -6.60976 3.28336C-6.60976 3.11516 -9.09465 0.660219 -9.26491 0.660219C-9.33039 0.660219 -12.0436 3.34679 -15.2943 6.63038C-18.5449 9.91397 -21.2617 12.6005 -21.3316 12.6005C-21.4015 12.6005 -22.6787 11.4354 -24.1699 10.0114C-25.6612 8.58743 -27.0334 7.28789 -27.2193 7.12356L-27.5573 6.82479L-32.0991 11.327C-34.6233 13.8293 -36.6659 15.7624 -36.6972 15.6788C-36.7282 15.596 -36.6429 15.3767 -36.5077 15.1914C-36.0425 14.5541 -27.7254 6.38671 -27.5459 6.39104C-27.4471 6.39348 -26.0179 7.6779 -24.3699 9.24543C-22.5879 10.9404 -21.3162 12.062 -21.232 12.013C-21.154 11.9676 -18.4901 9.29868 -15.3121 6.0821C-12.1341 2.86552 -9.44083 0.218464 -9.32704 0.199749C-9.19872 0.178647 -8.51711 0.767727 -7.53238 1.7508L-5.94462 3.33587L-8.57274 5.9883C-10.0182 7.44714 -12.7425 10.1903 -14.6266 12.0842L-18.0524 15.5276L-16.7089 16.8691C-15.97 17.607 -15.302 18.1957 -15.2245 18.1775C-15.1469 18.1592 -12.4546 15.4851 -9.24147 12.235C-5.87166 8.82642 -3.30722 6.32578 -3.18146 6.32578C-3.06155 6.32578 -1.57564 7.66478 0.120556 9.30134L3.20455 12.2769L4.46281 11.0071C5.15486 10.3087 7.80935 7.62642 10.3617 5.04646C12.914 2.4665 15.0781 0.308114 15.1708 0.25005C15.2933 0.173303 15.77 0.572041 16.9167 1.71037C17.7842 2.57161 18.494 3.33251 18.494 3.40125C18.494 3.47 15.8179 6.22893 12.5472 9.53222C9.27639 12.8355 6.61753 15.6064 6.63859 15.6897C6.65965 15.773 7.27343 16.4115 8.00255 17.1084L9.32822 18.3757L11.2456 16.4324C17.4319 10.1623 21.2576 6.3867 21.4245 6.3867C21.5292 6.3867 22.9513 7.71557 24.5847 9.33974L27.5546 12.2928L32.0594 7.81674C34.537 5.35492 36.6038 3.3407 36.6522 3.3407C37.0512 3.3407 36.1495 4.3423 32.2436 8.23778C29.7705 10.7043 27.6623 12.7224 27.5587 12.7224C27.455 12.7224 26.0482 11.4054 24.4322 9.79587C22.8163 8.18629 21.4265 6.88413 21.3438 6.90217C21.261 6.9202 18.5635 9.59414 15.3494 12.8442C12.1353 16.0943 9.4202 18.7688 9.31581 18.7875C9.20769 18.8069 8.44167 18.1383 7.53568 17.2339L5.94533 15.6462L7.84319 13.7274C8.887 12.6721 11.6003 9.94102 13.8726 7.65846C16.145 5.37589 18.0042 3.45168 18.0042 3.38246C18.0042 3.19658 15.4761 0.782059 15.2815 0.782059C15.19 0.782059 14.347 1.56336 13.4082 2.51828C8.46657 7.54473 3.26003 12.7224 3.14716 12.7224C3.07666 12.7224 1.66176 11.3791 0.00294495 9.7373C-1.65587 8.09551 -3.06463 6.75134 -3.12763 6.75026C-3.19063 6.74929 -5.94937 9.47688 -9.25817 12.8118L-15.2742 18.8753L-16.8811 17.2974ZM32.0919 17.2917C31.2135 16.427 30.4948 15.6646 30.4948 15.5975C30.4948 15.454 36.2111 9.71415 36.5259 9.5416C36.6922 9.45043 36.7402 9.47043 36.7402 9.63083C36.7402 9.74453 35.4727 11.106 33.9237 12.6562C32.3746 14.2065 31.1071 15.5334 31.1071 15.6049C31.1071 15.7433 33.4824 18.1139 33.6956 18.1883C33.765 18.2125 34.4588 17.6094 35.2373 16.848C36.1492 15.9562 36.6737 15.5232 36.7116 15.6308C36.7462 15.7291 36.1356 16.4296 35.2297 17.3309L33.6889 18.864L32.0919 17.2917ZM-36.7343 9.47373C-36.7343 9.36227 -35.427 7.96304 -33.8291 6.36433L-30.9239 3.45758L-32.2954 2.09295L-33.667 0.72833L-35.1201 2.15636C-35.9194 2.94177 -36.6095 3.58438 -36.6538 3.58438C-36.6981 3.58438 -36.7343 3.49753 -36.7343 3.39138C-36.7343 3.13582 -33.9334 0.294699 -33.6815 0.294699C-33.4327 0.294699 -30.489 3.22027 -30.489 3.46754C-30.489 3.64487 -36.4722 9.67638 -36.6481 9.67638C-36.6955 9.67638 -36.7343 9.58518 -36.7343 9.47373ZM-26.1745 2.08807C-28.6822 -0.410205 -30.7339 -2.49367 -30.7339 -2.54185C-30.7339 -2.93827 -29.7351 -2.04946 -25.8717 1.78501L-21.424 6.19947L-20.0499 4.83232L-18.6758 3.46517L-21.6434 0.503524C-23.2756 -1.12538 -24.611 -2.49667 -24.611 -2.54379C-24.611 -2.59091 -24.5193 -2.62946 -24.4071 -2.62946C-24.1483 -2.62946 -18.2432 3.20318 -18.2432 3.45886C-18.2432 3.70239 -21.1863 6.63038 -21.4311 6.63038C-21.5323 6.63038 -23.6669 4.58634 -26.1745 2.08807ZM-1.68304 2.08807C-4.19068 -0.410205 -6.24239 -2.49367 -6.24239 -2.54185C-6.24239 -2.93827 -5.24362 -2.04946 -1.38024 1.78501L3.06751 6.19947L4.44159 4.83232L5.81567 3.46517L2.81747 0.463634C1.14484 -1.21085 -0.113857 -2.56236 -0.0294571 -2.59324C0.0537491 -2.62368 0.274174 -2.53876 0.460373 -2.40454C1.05215 -1.97793 6.24827 3.28508 6.24827 3.45787C6.24827 3.6911 3.30223 6.63038 3.06845 6.63038C2.96277 6.63038 0.824596 4.58634 -1.68304 2.08807ZM22.8084 2.08807C20.3008 -0.410205 18.2491 -2.49367 18.2491 -2.54185C18.2491 -2.93827 19.2478 -2.04956 23.1105 1.7843L27.5576 6.19807L28.9038 4.86284C29.6441 4.12847 30.2499 3.46259 30.2499 3.38312C30.2499 3.30366 28.9577 1.99236 27.3783 0.46913C25.7988 -1.0541 24.478 -2.37443 24.4431 -2.46492C24.4068 -2.55901 24.4601 -2.62946 24.5675 -2.62946C24.7716 -2.62946 30.6532 3.04464 30.7181 3.30413C30.7696 3.51016 27.804 6.63038 27.5567 6.63038C27.4528 6.63038 25.3161 4.58634 22.8084 2.08807ZM-16.8638 -0.832321C-18.3672 -2.3048 -18.6266 -2.62946 -18.2993 -2.62946C-18.1907 -2.62946 -17.4723 -2.01749 -16.703 -1.26953L-15.3042 0.0904102L-13.9055 -1.26953C-13.1361 -2.01749 -12.4178 -2.62946 -12.3092 -2.62946C-12.1583 -2.62946 -12.1393 -2.57917 -12.2284 -2.41624C-12.4204 -2.0655 -15.1311 0.538379 -15.3042 0.538379C-15.3923 0.538379 -16.0941 -0.0784361 -16.8638 -0.832321ZM7.49719 -0.965026C6.67558 -1.7919 6.00336 -2.50466 6.00336 -2.54895C6.00336 -2.85756 6.58068 -2.44379 7.78848 -1.26953L9.18725 0.0904102L10.586 -1.26953C11.7938 -2.44379 12.3711 -2.85756 12.3711 -2.54895C12.3711 -2.37169 9.37004 0.538379 9.18725 0.538379C9.07932 0.538379 8.31879 -0.138151 7.49719 -0.965026ZM31.9887 -0.965026C31.1671 -1.7919 30.4948 -2.50466 30.4948 -2.54895C30.4948 -2.85756 31.0722 -2.44379 32.28 -1.26953L33.6787 0.0904102L35.0775 -1.26953C36.3984 -2.55375 36.7402 -2.80613 36.7402 -2.49738C36.7402 -2.28116 33.9007 0.538379 33.6829 0.538379C33.5727 0.538379 32.8103 -0.138151 31.9887 -0.965026Z" fill="#006699"/>
</g>
</g>
<circle cx="56" cy="16" r="16" fill="#99001C" fill-opacity="0.2"/>
<mask id="mask2_1_2183" style="mask-type:alpha" maskUnits="userSpaceOnUse" x="40" y="0" width="32" height="32">
<circle cx="56" cy="16" r="16" fill="#D9D9D9"/>
</mask>
<g mask="url(#mask2_1_2183)">
<mask id="mask3_1_2183" style="mask-type:alpha" maskUnits="userSpaceOnUse" x="4" y="-3" width="146" height="37">
<rect x="4" y="-2.40039" width="145.724" height="36.2474" fill="#006699"/>
</mask>
<g mask="url(#mask3_1_2183)">
<path d="M3.26571 70.3365C3.26571 70.1363 6.11561 67.3067 6.31727 67.3067C6.49738 67.3067 9.20457 69.8989 9.40295 70.2613C9.49213 70.4242 9.47308 70.4745 9.32218 70.4745C9.21356 70.4745 8.49525 69.8626 7.72592 69.1146L6.32715 67.7547L4.92837 69.1146C3.60048 70.4056 3.26571 70.6517 3.26571 70.3365ZM12.2461 67.5254C10.6071 65.9034 9.26613 64.4908 9.26613 64.3862C9.26613 64.1427 12.2092 61.2147 12.454 61.2147C12.6325 61.2147 21.7568 70.2109 21.7568 70.3869C21.7568 70.7834 20.758 69.8945 16.8946 66.0601L12.4469 61.6456L11.0728 63.0128L9.69873 64.3799L12.6663 67.3416C14.2985 68.9705 15.6339 70.3418 15.6339 70.3889C15.6339 70.7614 14.8262 70.0788 12.2461 67.5254ZM27.7572 70.4006C27.7572 70.2851 29.4549 68.5676 30.2404 67.8884L30.948 67.2766L32.3629 68.6623C33.8801 70.1483 34.1414 70.4745 33.8145 70.4745C33.7064 70.4745 33.0246 69.8988 32.2994 69.1952C31.5742 68.4916 30.9354 67.9159 30.8799 67.9159C30.8243 67.9159 30.1855 68.4916 29.4603 69.1952C28.3299 70.292 27.7572 70.6974 27.7572 70.4006ZM36.7991 67.5865C35.1936 65.998 33.8801 64.6207 33.8801 64.5257C33.8801 64.3148 36.7902 61.2147 36.9882 61.2147C37.1385 61.2147 46.2483 70.2381 46.2483 70.3869C46.2483 70.7831 45.2531 69.8981 41.4152 66.0889L36.9964 61.7032L35.955 62.7688C35.3822 63.3548 34.7804 63.9864 34.6175 64.1723L34.3215 64.5104L37.2234 67.4069C38.8195 69 40.1254 70.3419 40.1254 70.389C40.1254 70.7601 39.3259 70.0866 36.7991 67.5865ZM52.2343 70.2613C52.3944 69.9688 55.1228 67.3067 55.2625 67.3067C55.3243 67.3067 56.0897 68.0195 56.9633 68.8906C58.9143 70.8361 58.7431 71.0753 56.7453 69.1952C55.9976 68.4916 55.3323 67.9159 55.2669 67.9159C55.2014 67.9159 54.5546 68.4916 53.8294 69.1952C53.1042 69.8988 52.4223 70.4745 52.3142 70.4745C52.1641 70.4745 52.1452 70.4241 52.2343 70.2613ZM61.2645 67.5808C59.6397 65.9893 58.2626 64.6121 58.2042 64.5203C58.1273 64.3993 58.5306 63.9222 59.6719 62.7841C60.5376 61.9209 61.306 61.2147 61.3797 61.2147C61.54 61.2147 70.4475 69.9152 70.625 70.2451C70.7237 70.4286 70.706 70.4745 70.5369 70.4745C70.4205 70.4745 68.3258 68.49 65.882 66.0644L61.4386 61.6543L61.0991 61.9487C60.0657 62.8446 58.7389 64.2216 58.7389 64.3981C58.7389 64.5102 60.0111 65.826 61.566 67.3221C64.4555 70.1024 64.7926 70.4745 64.4221 70.4745C64.3103 70.4745 62.8894 69.1724 61.2645 67.5808ZM23.1189 66.0334C22.235 65.1656 21.5119 64.393 21.5119 64.3167C21.5119 64.2404 24.1845 61.4738 27.4511 58.1687C30.7176 54.8636 33.3902 52.0964 33.3902 52.0194C33.3902 51.8512 30.9053 49.3962 30.7351 49.3962C30.6696 49.3962 27.9564 52.0828 24.7057 55.3664C21.4551 58.65 18.7383 61.3365 18.6684 61.3365C18.5985 61.3365 17.3213 60.1714 15.8301 58.7474C14.3388 57.3234 12.9666 56.0239 12.7807 55.8596L12.4427 55.5608L7.94223 60.0326C5.46695 62.4921 3.40211 64.5044 3.35371 64.5044C2.95471 64.5044 3.85639 63.5028 7.76226 59.6073C10.2354 57.1408 12.3432 55.1247 12.4463 55.127C12.5494 55.1295 13.9821 56.4139 15.6301 57.9814C17.4121 59.6764 18.6838 60.798 18.768 60.749C18.846 60.7036 21.5099 58.0347 24.6879 54.8181C27.8659 51.6015 30.5592 48.9545 30.673 48.9358C30.8013 48.9146 31.4829 49.5037 32.4676 50.4868L34.0554 52.0719L31.4273 54.7243C29.9818 56.1832 27.2575 58.9263 25.3734 60.8202L21.9476 64.2636L23.2911 65.6051C24.03 66.343 24.698 66.9317 24.7755 66.9135C24.8531 66.8952 27.5444 64.2211 30.7562 60.971C33.968 57.7209 36.6797 55.0429 36.7821 55.0198C36.894 54.9946 38.1802 56.1801 40.0034 57.9889C41.6728 59.6449 43.0982 60.9797 43.1711 60.955C43.244 60.9303 45.9333 58.2509 49.1472 55.0009C52.3612 51.7508 55.0692 49.0441 55.1651 48.9861C55.2937 48.9081 55.7522 49.2904 56.9167 50.4464C57.7842 51.3076 58.494 52.0685 58.494 52.1372C58.494 52.206 55.8179 54.9649 52.5472 58.2682C49.2764 61.5715 46.6175 64.3424 46.6386 64.4257C46.6596 64.509 47.2734 65.1475 48.0025 65.8444L49.3282 67.1117L51.2456 65.1684C57.3063 59.0256 61.2556 55.1227 61.4107 55.1227C61.5079 55.1227 62.4379 55.9314 63.4775 56.9198C64.517 57.9083 65.8909 59.2046 66.5305 59.8005L67.6936 60.8839L72.1708 56.4499C74.6505 53.994 76.6728 52.0829 76.7037 52.1663C76.7343 52.2491 76.6479 52.4726 76.5116 52.663C76.1569 53.1587 67.8125 61.3365 67.6615 61.3365C67.5923 61.3365 66.1841 60.0452 64.5322 58.4669C62.8803 56.8886 61.4533 55.6139 61.361 55.6341C61.2688 55.6544 58.5635 58.3301 55.3494 61.5802C52.1353 64.8303 49.4202 67.5048 49.3158 67.5235C49.2077 67.5429 48.4417 66.8743 47.5357 65.9699L45.9453 64.3822L47.8432 62.4634C48.887 61.4081 51.6003 58.677 53.8726 56.3945C56.145 54.1119 58.0042 52.1877 58.0042 52.1185C58.0042 51.9005 55.4388 49.4988 55.2499 49.5398C55.1509 49.5614 52.4668 52.2107 49.2853 55.4273C46.1037 58.6439 43.3965 61.3515 43.2691 61.4442C43.0557 61.5996 42.7947 61.3714 39.9247 58.52L36.8118 55.4273L30.7688 61.5193L24.7258 67.6113L23.1189 66.0334ZM71.9782 65.9812C71.1624 65.1181 70.4948 64.3628 70.4948 64.3026C70.4948 64.1225 76.6062 58.1166 76.6973 58.2073C76.887 58.396 76.3257 59.0255 73.8364 61.4154C72.3984 62.7961 71.1641 64.033 71.0936 64.1641C70.9819 64.3717 71.1402 64.5785 72.3166 65.7621L73.668 67.1216L75.1236 65.6911C75.9242 64.9044 76.6154 64.2607 76.6597 64.2607C76.7039 64.2607 76.7402 64.3475 76.7402 64.4537C76.7402 64.7184 73.9347 67.5504 73.6725 67.5504C73.5565 67.5504 72.7941 66.8442 71.9782 65.9812ZM3.26571 58.2097C3.26571 58.0983 4.57305 56.699 6.1709 55.1003L9.0761 52.1936L7.70456 50.829L6.33302 49.4643L4.87986 50.8924C4.08062 51.6778 3.39048 52.3204 3.34621 52.3204C3.30193 52.3204 3.26571 52.2335 3.26571 52.1274C3.26571 51.8718 6.0666 49.0307 6.31854 49.0307C6.56734 49.0307 9.51104 51.9563 9.51104 52.2035C9.51104 52.3809 3.52784 58.4124 3.35193 58.4124C3.30451 58.4124 3.26571 58.3212 3.26571 58.2097ZM12.4356 49.4549C9.16116 46.2061 6.40483 43.5479 6.31046 43.5479C6.21608 43.5479 5.58884 44.0999 4.91659 44.7745C3.58099 46.1149 3.26571 46.3568 3.26571 46.0413C3.26571 45.8359 5.73132 43.248 6.12943 43.0356C6.32908 42.9291 6.80131 43.347 9.61947 46.124C11.412 47.8903 14.1596 50.5958 15.7252 52.1362L18.5718 54.9369L19.9194 53.6002C20.6605 52.8651 21.2667 52.2079 21.2664 52.1397C21.2662 52.0715 18.5797 49.3857 15.2966 46.1712C12.0135 42.9567 9.27961 40.2499 9.22125 40.1561C9.14349 40.0311 9.53569 39.5661 10.689 38.4161C11.5546 37.5529 12.3349 36.8467 12.4231 36.8467C12.5112 36.8467 15.3105 39.5436 18.6437 42.8399L24.7041 48.833L27.6753 45.8859C29.3094 44.2649 30.7015 42.9387 30.7689 42.9387C30.8363 42.9387 31.1092 43.1628 31.3755 43.4366C31.6417 43.7105 34.3837 46.4068 37.4688 49.4284L43.0781 54.9222L44.4183 53.5929C45.1554 52.8618 45.7582 52.2079 45.7579 52.1397C45.7577 52.0715 43.0712 49.3857 39.7881 46.1712C36.505 42.9567 33.7711 40.2499 33.7127 40.1561C33.635 40.0311 34.0272 39.5661 35.1805 38.4161C36.0461 37.5529 36.8264 36.8467 36.9145 36.8467C37.0027 36.8467 39.8025 39.5442 43.1364 42.841L49.198 48.8354L52.1631 45.887C53.794 44.2655 55.1856 42.9387 55.2556 42.9387C55.3256 42.9387 55.6007 43.1628 55.8669 43.4366C56.1332 43.7105 58.8752 46.4068 61.9603 49.4284L67.5696 54.9222L68.9098 53.5929C69.6469 52.8618 70.2497 52.2079 70.2494 52.1397C70.2491 52.0715 67.5627 49.3857 64.2796 46.1712C60.9965 42.9567 58.2626 40.2499 58.2042 40.1561C58.1265 40.0311 58.5187 39.5661 59.6719 38.4161C60.5376 37.5529 61.3163 36.8467 61.4024 36.8467C61.4885 36.8467 64.2627 39.5059 67.5672 42.7559C70.8717 46.006 73.641 48.6652 73.7212 48.6652C73.8014 48.6652 74.417 48.1132 75.0893 47.4386C76.427 46.0961 76.7402 45.8561 76.7402 46.1734C76.7402 46.4245 73.9258 49.2947 73.7252 49.2482C73.6428 49.2291 70.8436 46.5353 67.5046 43.2621L61.4338 37.3107L60.8517 37.8004C59.7985 38.6866 58.7137 39.8559 58.7576 40.0577C58.781 40.1651 61.4728 42.8692 64.7393 46.0668C68.0059 49.2644 70.6963 51.9521 70.7181 52.0395C70.7682 52.2407 67.8076 55.3664 67.5669 55.3664C67.4686 55.3664 64.6671 52.6701 61.3412 49.3746L55.2943 43.3828L52.3317 46.3286C50.7023 47.9488 49.2954 49.2744 49.2052 49.2744C49.1151 49.2744 46.3214 46.5806 42.997 43.2883L36.9526 37.3021L36.3654 37.7962C35.3077 38.686 34.2221 39.8555 34.2661 40.0577C34.2895 40.1651 36.9813 42.8692 40.2479 46.0668C43.5144 49.2644 46.2049 51.9521 46.2266 52.0395C46.2769 52.2412 43.3158 55.3664 43.0745 55.3664C42.9757 55.3664 40.2125 52.7072 36.934 49.4571C33.6555 46.2071 30.8965 43.5479 30.803 43.5479C30.7095 43.5479 29.3389 44.8364 27.7572 46.4111C26.1755 47.9859 24.8036 49.2744 24.7085 49.2744C24.6135 49.2744 21.8418 46.6015 18.5494 43.3347C15.2569 40.0678 12.5171 37.379 12.4609 37.3595C12.4047 37.34 11.7704 37.883 11.0513 38.5661C10.1734 39.4001 9.75588 39.8812 9.78051 40.0307C9.80068 40.1532 12.4898 42.8695 15.7564 46.0669C19.0229 49.2644 21.7134 51.9521 21.7351 52.0395C21.7866 52.246 18.8208 55.3671 18.5759 55.3642C18.4732 55.363 15.7101 52.7038 12.4356 49.4549ZM23.0442 41.6019L21.4538 40.0142L23.3517 38.0954C24.3955 37.0401 27.1088 34.309 29.3811 32.0265C31.6535 29.7439 33.5127 27.8197 33.5127 27.7505C33.5127 27.5646 30.9847 25.1501 30.79 25.1501C30.6985 25.1501 29.8555 25.9314 28.9167 26.8863C23.9419 31.9465 18.7681 37.0904 18.6534 37.0904C18.5816 37.0904 17.1524 35.7334 15.4773 34.0748L12.4316 31.0593L7.91763 35.5978C5.43495 38.094 3.37263 40.1364 3.33469 40.1364C2.98429 40.1364 3.8834 39.135 7.74235 35.2271C10.2045 32.7338 12.3064 30.6746 12.4131 30.6511C12.5349 30.6243 13.7398 31.7345 15.646 33.63L18.6847 36.6516L19.9594 35.3784C20.6605 34.6782 23.3213 31.9944 25.8724 29.4145C28.4235 26.8345 30.5866 24.6761 30.6793 24.6181C30.8018 24.5413 31.2786 24.94 32.4252 26.0784C33.2927 26.9396 34.0025 27.7005 34.0025 27.7693C34.0025 27.838 31.3264 30.5969 28.0557 33.9002C24.7849 37.2035 22.126 39.9744 22.1471 40.0577C22.1682 40.141 22.7819 40.7795 23.5111 41.4764L24.8367 42.7437L26.7541 40.8004C32.9859 34.4842 36.7663 30.7552 36.9339 30.759C37.0391 30.7615 38.4736 32.0459 40.1215 33.6134C41.9035 35.3084 43.1753 36.43 43.2595 36.381C43.3374 36.3356 46.0014 33.6667 49.1794 30.4501C52.3574 27.2335 55.0507 24.5865 55.1645 24.5678C55.2928 24.5466 55.9744 25.1357 56.9591 26.1188L58.5469 27.7039L55.9187 30.3563C54.4733 31.8151 51.749 34.5583 49.8648 36.4522L46.4391 39.8956L47.7825 41.2371C48.5215 41.975 49.1895 42.5637 49.267 42.5455C49.3446 42.5272 52.0361 39.8531 55.2481 36.603C58.8279 32.9808 61.1904 30.6805 61.3524 30.6596C61.5547 30.6334 62.3053 31.3117 64.5547 33.5533C66.1706 35.1636 67.5486 36.4812 67.6168 36.4812C67.685 36.4812 69.6693 34.5588 72.0262 32.2092C74.3832 29.8596 76.408 27.8839 76.5259 27.8187C76.6932 27.7261 76.7402 27.7462 76.7402 27.9105C76.7402 28.1171 68.2021 36.7454 67.7567 36.9888C67.5603 37.0962 67.1137 36.7013 64.5084 34.1167C62.8471 32.4687 61.4342 31.1193 61.3686 31.1183C61.303 31.117 58.5421 33.8449 55.2333 37.1798L49.2173 43.2433L47.6103 41.6654C46.7265 40.7976 46.0034 40.0251 46.0034 39.9487C46.0034 39.8724 48.676 37.1058 51.9425 33.8007C55.2091 30.4956 57.8817 27.7284 57.8817 27.6514C57.8817 27.4832 55.3968 25.0282 55.2266 25.0282C55.1611 25.0282 52.4479 27.7148 49.1972 30.9984C45.9466 34.282 43.2323 36.9685 43.1656 36.9685C43.0988 36.9685 41.6926 35.6772 40.0407 34.0989C38.3889 32.5206 36.9618 31.2459 36.8695 31.2661C36.7773 31.2864 34.0721 33.9621 30.858 37.2122C27.6438 40.4623 24.9287 43.1368 24.8243 43.1555C24.7162 43.1749 23.9502 42.5063 23.0442 41.6019ZM72.1136 41.709C71.257 40.8986 70.5368 40.1507 70.5131 40.0469C70.472 39.8658 76.0491 34.1741 76.5259 33.9106C76.6926 33.8184 76.7402 33.8381 76.7402 33.9991C76.7402 34.1129 75.4314 35.5174 73.8318 37.1203L70.9234 40.0346L72.2705 41.2999C73.0113 41.9959 73.6736 42.5671 73.7423 42.5692C73.8109 42.5714 74.417 42.0212 75.0893 41.3466C76.427 40.0041 76.7402 39.7641 76.7402 40.0814C76.7402 40.2829 73.9698 43.1824 73.7773 43.1824C73.7189 43.1824 72.9703 42.5194 72.1136 41.709ZM3.26571 33.8417C3.26571 33.7303 4.56862 32.3355 6.16106 30.7422L9.05642 27.8453L8.55822 27.2592C8.2842 26.9368 7.66943 26.2901 7.19204 25.8219L6.32407 24.9708L4.84641 26.4616C4.0337 27.2815 3.34557 27.9524 3.31723 27.9524C3.28889 27.9524 3.26571 27.8652 3.26571 27.7586C3.26571 27.5337 6.17377 24.5409 6.39238 24.5409C6.59143 24.5409 9.51104 27.6404 9.51104 27.8517C9.51104 28.0183 3.51761 34.0444 3.35193 34.0444C3.30451 34.0444 3.26571 33.9532 3.26571 33.8417ZM12.3531 25.0067L6.31704 19.02L4.87187 20.4402C4.07703 21.2213 3.39048 21.8604 3.34621 21.8604C3.30193 21.8604 3.26571 21.7735 3.26571 21.6674C3.26571 21.4478 6.04883 18.5707 6.26124 18.5707C6.3375 18.5707 6.61773 18.7948 6.88397 19.0686C7.15021 19.3425 9.89222 22.0388 12.9773 25.0604L18.5866 30.5542L19.9268 29.2249C20.6639 28.4938 21.2667 27.8399 21.2664 27.7717C21.2662 27.7035 18.5797 25.0177 15.2966 21.8032C12.0135 18.5887 9.27961 15.8819 9.22125 15.7881C9.14349 15.663 9.53569 15.1981 10.689 14.0481C11.5546 13.1849 12.3348 12.4787 12.4228 12.4787C12.5108 12.4787 15.2722 15.1379 18.5591 18.3879C21.846 21.638 24.5857 24.2972 24.6472 24.2972C24.7087 24.2972 25.9709 23.0873 27.4521 21.6086C28.9333 20.1298 30.3033 18.8366 30.4965 18.7347L30.8479 18.5494L34.1702 21.8182C35.9975 23.6161 38.746 26.3205 40.2779 27.828L43.0633 30.5689L44.4109 29.2322C45.152 28.4971 45.7582 27.8399 45.7579 27.7717C45.7577 27.7035 43.0712 25.0177 39.7881 21.8032C36.505 18.5887 33.7711 15.8819 33.7127 15.7881C33.635 15.663 34.0272 15.1981 35.1805 14.0481C36.0461 13.1849 36.8264 12.4787 36.9145 12.4787C37.0027 12.4787 39.8025 15.1762 43.1364 18.473L49.198 24.4674L52.1631 21.519C53.794 19.8975 55.1856 18.5707 55.2556 18.5707C55.3256 18.5707 55.6007 18.7948 55.8669 19.0686C56.1332 19.3425 58.8752 22.0388 61.9603 25.0604L67.5696 30.5542L68.9098 29.2249C69.6469 28.4938 70.2497 27.8399 70.2494 27.7717C70.2491 27.7035 67.5627 25.0177 64.2796 21.8032C60.9965 18.5887 58.2626 15.8819 58.2042 15.7881C58.1265 15.663 58.5187 15.1981 59.6719 14.0481C60.5376 13.1849 61.3179 12.4787 61.406 12.4787C61.4942 12.4787 64.2928 15.1749 67.6251 18.4703L73.6839 24.4619L75.1682 23.0088C76.0075 22.1871 76.6756 21.6212 76.7059 21.7063C76.7353 21.7891 76.6498 22.0084 76.5159 22.1937C76.1356 22.7198 73.8531 24.9064 73.6842 24.9064C73.6009 24.9064 70.8129 22.2126 67.4884 18.9203L61.4441 12.9341L60.8569 13.4282C59.7992 14.318 58.7136 15.4875 58.7576 15.6897C58.781 15.7971 61.4728 18.5012 64.7393 21.6988C68.0059 24.8964 70.6963 27.5841 70.7181 27.6715C70.7683 27.8732 67.8073 30.9984 67.566 30.9984C67.4672 30.9984 64.704 28.3392 61.4255 25.0891C58.147 21.8391 55.388 19.1799 55.2945 19.1799C55.201 19.1799 53.8304 20.4684 52.2487 22.0431C50.667 23.6179 49.2983 24.9064 49.2071 24.9064C49.1159 24.9064 46.3214 22.2126 42.997 18.9203L36.9526 12.9341L36.3654 13.4282C35.3077 14.318 34.2221 15.4875 34.2661 15.6897C34.2895 15.7971 36.9813 18.5012 40.2479 21.6988C43.5144 24.8964 46.2049 27.5841 46.2266 27.6715C46.2779 27.8772 43.3134 30.9984 43.0668 30.9984C42.9639 30.9984 40.5654 28.6921 37.7369 25.8732C34.9085 23.0544 32.168 20.3627 31.647 19.8918L30.6998 19.0355L27.7574 21.8796C26.1391 23.4438 24.7313 24.7417 24.629 24.7638C24.5169 24.788 22.061 22.4439 18.4525 18.8686L12.462 12.9334L11.8744 13.4278C10.8126 14.321 9.7306 15.4873 9.77465 15.6911C9.79804 15.7994 12.4898 18.5033 15.7564 21.7C19.0229 24.8966 21.7134 27.5837 21.7351 27.6712C21.7866 27.8781 18.8208 30.9992 18.5759 30.9959C18.4732 30.9944 15.673 28.2994 12.3531 25.0067ZM23.1189 17.2974C22.235 16.4296 21.5119 15.657 21.5119 15.5807C21.5119 15.5044 24.1845 12.7378 27.4511 9.4327C30.7176 6.12761 33.3902 3.3604 33.3902 3.28336C33.3902 3.11516 30.9053 0.660219 30.7351 0.660219C30.6696 0.660219 27.9564 3.34679 24.7057 6.63038C21.4551 9.91397 18.7383 12.6005 18.6684 12.6005C18.5985 12.6005 17.3213 11.4354 15.8301 10.0114C14.3388 8.58743 12.9666 7.28789 12.7807 7.12356L12.4427 6.82479L7.90095 11.327C5.37671 13.8293 3.33412 15.7624 3.30282 15.6788C3.27184 15.596 3.35712 15.3767 3.49233 15.1914C3.95746 14.5541 12.2746 6.38671 12.4541 6.39104C12.5529 6.39348 13.9821 7.6779 15.6301 9.24543C17.4121 10.9404 18.6838 12.062 18.768 12.013C18.846 11.9676 21.5099 9.29868 24.6879 6.0821C27.8659 2.86552 30.5592 0.218464 30.673 0.199749C30.8013 0.178647 31.4829 0.767727 32.4676 1.7508L34.0554 3.33587L31.4273 5.9883C29.9818 7.44714 27.2575 10.1903 25.3734 12.0842L21.9476 15.5276L23.2911 16.8691C24.03 17.607 24.698 18.1957 24.7755 18.1775C24.8531 18.1592 27.5454 15.4851 30.7585 12.235C34.1283 8.82642 36.6928 6.32578 36.8185 6.32578C36.9385 6.32578 38.4244 7.66478 40.1206 9.30134L43.2046 12.2769L44.4628 11.0071C45.1549 10.3087 47.8093 7.62642 50.3617 5.04646C52.914 2.4665 55.0781 0.308114 55.1708 0.25005C55.2933 0.173303 55.77 0.572041 56.9167 1.71037C57.7842 2.57161 58.494 3.33251 58.494 3.40125C58.494 3.47 55.8179 6.22893 52.5472 9.53222C49.2764 12.8355 46.6175 15.6064 46.6386 15.6897C46.6596 15.773 47.2734 16.4115 48.0025 17.1084L49.3282 18.3757L51.2456 16.4324C57.4319 10.1623 61.2576 6.3867 61.4245 6.3867C61.5292 6.3867 62.9513 7.71557 64.5847 9.33974L67.5546 12.2928L72.0594 7.81674C74.537 5.35492 76.6038 3.3407 76.6522 3.3407C77.0512 3.3407 76.1495 4.3423 72.2436 8.23778C69.7705 10.7043 67.6623 12.7224 67.5587 12.7224C67.455 12.7224 66.0482 11.4054 64.4322 9.79587C62.8163 8.18629 61.4265 6.88413 61.3438 6.90217C61.261 6.9202 58.5635 9.59414 55.3494 12.8442C52.1353 16.0943 49.4202 18.7688 49.3158 18.7875C49.2077 18.8069 48.4417 18.1383 47.5357 17.2339L45.9453 15.6462L47.8432 13.7274C48.887 12.6721 51.6003 9.94102 53.8726 7.65846C56.145 5.37589 58.0042 3.45168 58.0042 3.38246C58.0042 3.19658 55.4761 0.782059 55.2815 0.782059C55.19 0.782059 54.347 1.56336 53.4082 2.51828C48.4666 7.54473 43.26 12.7224 43.1472 12.7224C43.0767 12.7224 41.6618 11.3791 40.0029 9.7373C38.3441 8.09551 36.9354 6.75134 36.8724 6.75026C36.8094 6.74929 34.0506 9.47688 30.7418 12.8118L24.7258 18.8753L23.1189 17.2974ZM72.0919 17.2917C71.2135 16.427 70.4948 15.6646 70.4948 15.5975C70.4948 15.454 76.2111 9.71415 76.5259 9.5416C76.6922 9.45043 76.7402 9.47043 76.7402 9.63083C76.7402 9.74453 75.4727 11.106 73.9237 12.6562C72.3746 14.2065 71.1071 15.5334 71.1071 15.6049C71.1071 15.7433 73.4824 18.1139 73.6956 18.1883C73.765 18.2125 74.4588 17.6094 75.2373 16.848C76.1492 15.9562 76.6737 15.5232 76.7116 15.6308C76.7462 15.7291 76.1356 16.4296 75.2297 17.3309L73.6889 18.864L72.0919 17.2917ZM3.26571 9.47373C3.26571 9.36227 4.57305 7.96304 6.1709 6.36433L9.0761 3.45758L7.70456 2.09295L6.33302 0.72833L4.87986 2.15636C4.08062 2.94177 3.39048 3.58438 3.34621 3.58438C3.30193 3.58438 3.26571 3.49753 3.26571 3.39138C3.26571 3.13582 6.0666 0.294699 6.31854 0.294699C6.56734 0.294699 9.51104 3.22027 9.51104 3.46754C9.51104 3.64487 3.52784 9.67638 3.35193 9.67638C3.30451 9.67638 3.26571 9.58518 3.26571 9.47373ZM13.8255 2.08807C11.3178 -0.410205 9.26613 -2.49367 9.26613 -2.54185C9.26613 -2.93827 10.2649 -2.04946 14.1283 1.78501L18.576 6.19947L19.9501 4.83232L21.3242 3.46517L18.3566 0.503524C16.7244 -1.12538 15.389 -2.49667 15.389 -2.54379C15.389 -2.59091 15.4807 -2.62946 15.5929 -2.62946C15.8517 -2.62946 21.7568 3.20318 21.7568 3.45886C21.7568 3.70239 18.8137 6.63038 18.5689 6.63038C18.4677 6.63038 16.3331 4.58634 13.8255 2.08807ZM38.317 2.08807C35.8093 -0.410205 33.7576 -2.49367 33.7576 -2.54185C33.7576 -2.93827 34.7564 -2.04946 38.6198 1.78501L43.0675 6.19947L44.4416 4.83232L45.8157 3.46517L42.8175 0.463634C41.1448 -1.21085 39.8861 -2.56236 39.9705 -2.59324C40.0537 -2.62368 40.2742 -2.53876 40.4604 -2.40454C41.0522 -1.97793 46.2483 3.28508 46.2483 3.45787C46.2483 3.6911 43.3022 6.63038 43.0685 6.63038C42.9628 6.63038 40.8246 4.58634 38.317 2.08807ZM62.8084 2.08807C60.3008 -0.410205 58.2491 -2.49367 58.2491 -2.54185C58.2491 -2.93827 59.2478 -2.04956 63.1105 1.7843L67.5576 6.19807L68.9038 4.86284C69.6441 4.12847 70.2499 3.46259 70.2499 3.38312C70.2499 3.30366 68.9577 1.99236 67.3783 0.46913C65.7988 -1.0541 64.478 -2.37443 64.4431 -2.46492C64.4068 -2.55901 64.4601 -2.62946 64.5675 -2.62946C64.7716 -2.62946 70.6532 3.04464 70.7181 3.30413C70.7696 3.51016 67.804 6.63038 67.5567 6.63038C67.4528 6.63038 65.3161 4.58634 62.8084 2.08807ZM23.1362 -0.832321C21.6328 -2.3048 21.3734 -2.62946 21.7007 -2.62946C21.8093 -2.62946 22.5277 -2.01749 23.297 -1.26953L24.6958 0.0904102L26.0945 -1.26953C26.8639 -2.01749 27.5822 -2.62946 27.6908 -2.62946C27.8417 -2.62946 27.8607 -2.57917 27.7716 -2.41624C27.5796 -2.0655 24.8689 0.538379 24.6958 0.538379C24.6077 0.538379 23.9059 -0.0784361 23.1362 -0.832321ZM47.4972 -0.965026C46.6756 -1.7919 46.0034 -2.50466 46.0034 -2.54895C46.0034 -2.85756 46.5807 -2.44379 47.7885 -1.26953L49.1873 0.0904102L50.586 -1.26953C51.7938 -2.44379 52.3711 -2.85756 52.3711 -2.54895C52.3711 -2.37169 49.37 0.538379 49.1873 0.538379C49.0793 0.538379 48.3188 -0.138151 47.4972 -0.965026ZM71.9887 -0.965026C71.1671 -1.7919 70.4948 -2.50466 70.4948 -2.54895C70.4948 -2.85756 71.0722 -2.44379 72.28 -1.26953L73.6787 0.0904102L75.0775 -1.26953C76.3984 -2.55375 76.7402 -2.80613 76.7402 -2.49738C76.7402 -2.28116 73.9007 0.538379 73.6829 0.538379C73.5727 0.538379 72.8103 -0.138151 71.9887 -0.965026Z" fill="#99001C"/>
</g>
</g>
<circle cx="96" cy="16" r="16" fill="#1F9900" fill-opacity="0.2"/>
<mask id="mask4_1_2183" style="mask-type:alpha" maskUnits="userSpaceOnUse" x="80" y="0" width="32" height="32">
<circle cx="96" cy="16" r="16" fill="#D9D9D9"/>
</mask>
<g mask="url(#mask4_1_2183)">
<mask id="mask5_1_2183" style="mask-type:alpha" maskUnits="userSpaceOnUse" x="44" y="-3" width="146" height="37">
<rect x="44" y="-2.40039" width="145.724" height="36.2474" fill="#006699"/>
</mask>
<g mask="url(#mask5_1_2183)">
<path d="M43.2657 70.3365C43.2657 70.1363 46.1156 67.3067 46.3173 67.3067C46.4974 67.3067 49.2046 69.8989 49.4029 70.2613C49.4921 70.4242 49.4731 70.4745 49.3222 70.4745C49.2136 70.4745 48.4953 69.8626 47.7259 69.1146L46.3271 67.7547L44.9284 69.1146C43.6005 70.4056 43.2657 70.6517 43.2657 70.3365ZM52.2461 67.5254C50.6071 65.9034 49.2661 64.4908 49.2661 64.3862C49.2661 64.1427 52.2092 61.2147 52.454 61.2147C52.6325 61.2147 61.7568 70.2109 61.7568 70.3869C61.7568 70.7834 60.758 69.8945 56.8946 66.0601L52.4469 61.6456L51.0728 63.0128L49.6987 64.3799L52.6663 67.3416C54.2985 68.9705 55.6339 70.3418 55.6339 70.3889C55.6339 70.7614 54.8262 70.0788 52.2461 67.5254ZM67.7572 70.4006C67.7572 70.2851 69.4549 68.5676 70.2404 67.8884L70.948 67.2766L72.3629 68.6623C73.8801 70.1483 74.1414 70.4745 73.8145 70.4745C73.7064 70.4745 73.0246 69.8988 72.2994 69.1952C71.5742 68.4916 70.9354 67.9159 70.8799 67.9159C70.8243 67.9159 70.1855 68.4916 69.4603 69.1952C68.3299 70.292 67.7572 70.6974 67.7572 70.4006ZM76.7991 67.5865C75.1936 65.998 73.8801 64.6207 73.8801 64.5257C73.8801 64.3148 76.7902 61.2147 76.9882 61.2147C77.1385 61.2147 86.2483 70.2381 86.2483 70.3869C86.2483 70.7831 85.2531 69.8981 81.4152 66.0889L76.9964 61.7032L75.955 62.7688C75.3822 63.3548 74.7804 63.9864 74.6175 64.1723L74.3215 64.5104L77.2234 67.4069C78.8195 69 80.1254 70.3419 80.1254 70.389C80.1254 70.7601 79.3259 70.0866 76.7991 67.5865ZM92.2343 70.2613C92.3944 69.9688 95.1228 67.3067 95.2625 67.3067C95.3243 67.3067 96.0897 68.0195 96.9633 68.8906C98.9143 70.8361 98.7431 71.0753 96.7453 69.1952C95.9976 68.4916 95.3323 67.9159 95.2669 67.9159C95.2014 67.9159 94.5546 68.4916 93.8294 69.1952C93.1042 69.8988 92.4223 70.4745 92.3142 70.4745C92.1641 70.4745 92.1452 70.4241 92.2343 70.2613ZM101.265 67.5808C99.6397 65.9893 98.2626 64.6121 98.2042 64.5203C98.1273 64.3993 98.5306 63.9222 99.6719 62.7841C100.538 61.9209 101.306 61.2147 101.38 61.2147C101.54 61.2147 110.448 69.9152 110.625 70.2451C110.724 70.4286 110.706 70.4745 110.537 70.4745C110.421 70.4745 108.326 68.49 105.882 66.0644L101.439 61.6543L101.099 61.9487C100.066 62.8446 98.7389 64.2216 98.7389 64.3981C98.7389 64.5102 100.011 65.826 101.566 67.3221C104.455 70.1024 104.793 70.4745 104.422 70.4745C104.31 70.4745 102.889 69.1724 101.265 67.5808ZM63.1189 66.0334C62.235 65.1656 61.5119 64.393 61.5119 64.3167C61.5119 64.2404 64.1845 61.4738 67.4511 58.1687C70.7176 54.8636 73.3902 52.0964 73.3902 52.0194C73.3902 51.8512 70.9053 49.3962 70.7351 49.3962C70.6696 49.3962 67.9564 52.0828 64.7057 55.3664C61.4551 58.65 58.7383 61.3365 58.6684 61.3365C58.5985 61.3365 57.3213 60.1714 55.8301 58.7474C54.3388 57.3234 52.9666 56.0239 52.7807 55.8596L52.4427 55.5608L47.9422 60.0326C45.4669 62.4921 43.4021 64.5044 43.3537 64.5044C42.9547 64.5044 43.8564 63.5028 47.7623 59.6073C50.2354 57.1408 52.3432 55.1247 52.4463 55.127C52.5494 55.1295 53.9821 56.4139 55.6301 57.9814C57.4121 59.6764 58.6838 60.798 58.768 60.749C58.846 60.7036 61.5099 58.0347 64.6879 54.8181C67.8659 51.6015 70.5592 48.9545 70.673 48.9358C70.8013 48.9146 71.4829 49.5037 72.4676 50.4868L74.0554 52.0719L71.4273 54.7243C69.9818 56.1832 67.2575 58.9263 65.3734 60.8202L61.9476 64.2636L63.2911 65.6051C64.03 66.343 64.698 66.9317 64.7755 66.9135C64.8531 66.8952 67.5444 64.2211 70.7562 60.971C73.968 57.7209 76.6797 55.0429 76.7821 55.0198C76.894 54.9946 78.1802 56.1801 80.0034 57.9889C81.6728 59.6449 83.0982 60.9797 83.1711 60.955C83.244 60.9303 85.9333 58.2509 89.1472 55.0009C92.3612 51.7508 95.0692 49.0441 95.1651 48.9861C95.2937 48.9081 95.7522 49.2904 96.9167 50.4464C97.7842 51.3076 98.494 52.0685 98.494 52.1372C98.494 52.206 95.8179 54.9649 92.5472 58.2682C89.2764 61.5715 86.6175 64.3424 86.6386 64.4257C86.6596 64.509 87.2734 65.1475 88.0025 65.8444L89.3282 67.1117L91.2456 65.1684C97.3063 59.0256 101.256 55.1227 101.411 55.1227C101.508 55.1227 102.438 55.9314 103.477 56.9198C104.517 57.9083 105.891 59.2046 106.531 59.8005L107.694 60.8839L112.171 56.4499C114.65 53.994 116.673 52.0829 116.704 52.1663C116.734 52.2491 116.648 52.4726 116.512 52.663C116.157 53.1587 107.813 61.3365 107.662 61.3365C107.592 61.3365 106.184 60.0452 104.532 58.4669C102.88 56.8886 101.453 55.6139 101.361 55.6341C101.269 55.6544 98.5635 58.3301 95.3494 61.5802C92.1353 64.8303 89.4202 67.5048 89.3158 67.5235C89.2077 67.5429 88.4417 66.8743 87.5357 65.9699L85.9453 64.3822L87.8432 62.4634C88.887 61.4081 91.6003 58.677 93.8726 56.3945C96.145 54.1119 98.0042 52.1877 98.0042 52.1185C98.0042 51.9005 95.4388 49.4988 95.2499 49.5398C95.1509 49.5614 92.4668 52.2107 89.2853 55.4273C86.1037 58.6439 83.3965 61.3515 83.2691 61.4442C83.0557 61.5996 82.7947 61.3714 79.9247 58.52L76.8118 55.4273L70.7688 61.5193L64.7258 67.6113L63.1189 66.0334ZM111.978 65.9812C111.162 65.1181 110.495 64.3628 110.495 64.3026C110.495 64.1225 116.606 58.1166 116.697 58.2073C116.887 58.396 116.326 59.0255 113.836 61.4154C112.398 62.7961 111.164 64.033 111.094 64.1641C110.982 64.3717 111.14 64.5785 112.317 65.7621L113.668 67.1216L115.124 65.6911C115.924 64.9044 116.615 64.2607 116.66 64.2607C116.704 64.2607 116.74 64.3475 116.74 64.4537C116.74 64.7184 113.935 67.5504 113.672 67.5504C113.557 67.5504 112.794 66.8442 111.978 65.9812ZM43.2657 58.2097C43.2657 58.0983 44.573 56.699 46.1709 55.1003L49.0761 52.1936L47.7046 50.829L46.333 49.4643L44.8799 50.8924C44.0806 51.6778 43.3905 52.3204 43.3462 52.3204C43.3019 52.3204 43.2657 52.2335 43.2657 52.1274C43.2657 51.8718 46.0666 49.0307 46.3185 49.0307C46.5673 49.0307 49.511 51.9563 49.511 52.2035C49.511 52.3809 43.5278 58.4124 43.3519 58.4124C43.3045 58.4124 43.2657 58.3212 43.2657 58.2097ZM52.4356 49.4549C49.1612 46.2061 46.4048 43.5479 46.3105 43.5479C46.2161 43.5479 45.5888 44.0999 44.9166 44.7745C43.581 46.1149 43.2657 46.3568 43.2657 46.0413C43.2657 45.8359 45.7313 43.248 46.1294 43.0356C46.3291 42.9291 46.8013 43.347 49.6195 46.124C51.412 47.8903 54.1596 50.5958 55.7252 52.1362L58.5718 54.9369L59.9194 53.6002C60.6605 52.8651 61.2667 52.2079 61.2664 52.1397C61.2662 52.0715 58.5797 49.3857 55.2966 46.1712C52.0135 42.9567 49.2796 40.2499 49.2212 40.1561C49.1435 40.0311 49.5357 39.5661 50.689 38.4161C51.5546 37.5529 52.3349 36.8467 52.4231 36.8467C52.5112 36.8467 55.3105 39.5436 58.6437 42.8399L64.7041 48.833L67.6753 45.8859C69.3094 44.2649 70.7015 42.9387 70.7689 42.9387C70.8363 42.9387 71.1092 43.1628 71.3755 43.4366C71.6417 43.7105 74.3837 46.4068 77.4688 49.4284L83.0781 54.9222L84.4183 53.5929C85.1554 52.8618 85.7582 52.2079 85.7579 52.1397C85.7577 52.0715 83.0712 49.3857 79.7881 46.1712C76.505 42.9567 73.7711 40.2499 73.7127 40.1561C73.635 40.0311 74.0272 39.5661 75.1805 38.4161C76.0461 37.5529 76.8264 36.8467 76.9145 36.8467C77.0027 36.8467 79.8025 39.5442 83.1364 42.841L89.198 48.8354L92.1631 45.887C93.794 44.2655 95.1856 42.9387 95.2556 42.9387C95.3256 42.9387 95.6007 43.1628 95.8669 43.4366C96.1332 43.7105 98.8752 46.4068 101.96 49.4284L107.57 54.9222L108.91 53.5929C109.647 52.8618 110.25 52.2079 110.249 52.1397C110.249 52.0715 107.563 49.3857 104.28 46.1712C100.996 42.9567 98.2626 40.2499 98.2042 40.1561C98.1265 40.0311 98.5187 39.5661 99.6719 38.4161C100.538 37.5529 101.316 36.8467 101.402 36.8467C101.489 36.8467 104.263 39.5059 107.567 42.7559C110.872 46.006 113.641 48.6652 113.721 48.6652C113.801 48.6652 114.417 48.1132 115.089 47.4386C116.427 46.0961 116.74 45.8561 116.74 46.1734C116.74 46.4245 113.926 49.2947 113.725 49.2482C113.643 49.2291 110.844 46.5353 107.505 43.2621L101.434 37.3107L100.852 37.8004C99.7985 38.6866 98.7137 39.8559 98.7576 40.0577C98.781 40.1651 101.473 42.8692 104.739 46.0668C108.006 49.2644 110.696 51.9521 110.718 52.0395C110.768 52.2407 107.808 55.3664 107.567 55.3664C107.469 55.3664 104.667 52.6701 101.341 49.3746L95.2943 43.3828L92.3317 46.3286C90.7023 47.9488 89.2954 49.2744 89.2052 49.2744C89.1151 49.2744 86.3214 46.5806 82.997 43.2883L76.9526 37.3021L76.3654 37.7962C75.3077 38.686 74.2221 39.8555 74.2661 40.0577C74.2895 40.1651 76.9813 42.8692 80.2479 46.0668C83.5144 49.2644 86.2049 51.9521 86.2266 52.0395C86.2769 52.2412 83.3158 55.3664 83.0745 55.3664C82.9757 55.3664 80.2125 52.7072 76.934 49.4571C73.6555 46.2071 70.8965 43.5479 70.803 43.5479C70.7095 43.5479 69.3389 44.8364 67.7572 46.4111C66.1755 47.9859 64.8036 49.2744 64.7085 49.2744C64.6135 49.2744 61.8418 46.6015 58.5494 43.3347C55.2569 40.0678 52.5171 37.379 52.4609 37.3595C52.4047 37.34 51.7704 37.883 51.0513 38.5661C50.1734 39.4001 49.7559 39.8812 49.7805 40.0307C49.8007 40.1532 52.4898 42.8695 55.7564 46.0669C59.0229 49.2644 61.7134 51.9521 61.7351 52.0395C61.7866 52.246 58.8208 55.3671 58.5759 55.3642C58.4732 55.363 55.7101 52.7038 52.4356 49.4549ZM63.0442 41.6019L61.4538 40.0142L63.3517 38.0954C64.3955 37.0401 67.1088 34.309 69.3811 32.0265C71.6535 29.7439 73.5127 27.8197 73.5127 27.7505C73.5127 27.5646 70.9847 25.1501 70.79 25.1501C70.6985 25.1501 69.8555 25.9314 68.9167 26.8863C63.9419 31.9465 58.7681 37.0904 58.6534 37.0904C58.5816 37.0904 57.1524 35.7334 55.4773 34.0748L52.4316 31.0593L47.9176 35.5978C45.435 38.094 43.3726 40.1364 43.3347 40.1364C42.9843 40.1364 43.8834 39.135 47.7424 35.2271C50.2045 32.7338 52.3064 30.6746 52.4131 30.6511C52.5349 30.6243 53.7398 31.7345 55.646 33.63L58.6847 36.6516L59.9594 35.3784C60.6605 34.6782 63.3213 31.9944 65.8724 29.4145C68.4235 26.8345 70.5866 24.6761 70.6793 24.6181C70.8018 24.5413 71.2786 24.94 72.4252 26.0784C73.2927 26.9396 74.0025 27.7005 74.0025 27.7693C74.0025 27.838 71.3264 30.5969 68.0557 33.9002C64.7849 37.2035 62.126 39.9744 62.1471 40.0577C62.1682 40.141 62.7819 40.7795 63.5111 41.4764L64.8367 42.7437L66.7541 40.8004C72.9859 34.4842 76.7663 30.7552 76.9339 30.759C77.0391 30.7615 78.4736 32.0459 80.1215 33.6134C81.9035 35.3084 83.1753 36.43 83.2595 36.381C83.3374 36.3356 86.0014 33.6667 89.1794 30.4501C92.3574 27.2335 95.0507 24.5865 95.1645 24.5678C95.2928 24.5466 95.9744 25.1357 96.9591 26.1188L98.5469 27.7039L95.9187 30.3563C94.4733 31.8151 91.749 34.5583 89.8648 36.4522L86.4391 39.8956L87.7825 41.2371C88.5215 41.975 89.1895 42.5637 89.267 42.5455C89.3446 42.5272 92.0361 39.8531 95.2481 36.603C98.8279 32.9808 101.19 30.6805 101.352 30.6596C101.555 30.6334 102.305 31.3117 104.555 33.5533C106.171 35.1636 107.549 36.4812 107.617 36.4812C107.685 36.4812 109.669 34.5588 112.026 32.2092C114.383 29.8596 116.408 27.8839 116.526 27.8187C116.693 27.7261 116.74 27.7462 116.74 27.9105C116.74 28.1171 108.202 36.7454 107.757 36.9888C107.56 37.0962 107.114 36.7013 104.508 34.1167C102.847 32.4687 101.434 31.1193 101.369 31.1183C101.303 31.117 98.5421 33.8449 95.2333 37.1798L89.2173 43.2433L87.6103 41.6654C86.7265 40.7976 86.0034 40.0251 86.0034 39.9487C86.0034 39.8724 88.676 37.1058 91.9425 33.8007C95.2091 30.4956 97.8817 27.7284 97.8817 27.6514C97.8817 27.4832 95.3968 25.0282 95.2266 25.0282C95.1611 25.0282 92.4479 27.7148 89.1972 30.9984C85.9466 34.282 83.2323 36.9685 83.1656 36.9685C83.0988 36.9685 81.6926 35.6772 80.0407 34.0989C78.3889 32.5206 76.9618 31.2459 76.8695 31.2661C76.7773 31.2864 74.0721 33.9621 70.858 37.2122C67.6438 40.4623 64.9287 43.1368 64.8243 43.1555C64.7162 43.1749 63.9502 42.5063 63.0442 41.6019ZM112.114 41.709C111.257 40.8986 110.537 40.1507 110.513 40.0469C110.472 39.8658 116.049 34.1741 116.526 33.9106C116.693 33.8184 116.74 33.8381 116.74 33.9991C116.74 34.1129 115.431 35.5174 113.832 37.1203L110.923 40.0346L112.27 41.2999C113.011 41.9959 113.674 42.5671 113.742 42.5692C113.811 42.5714 114.417 42.0212 115.089 41.3466C116.427 40.0041 116.74 39.7641 116.74 40.0814C116.74 40.2829 113.97 43.1824 113.777 43.1824C113.719 43.1824 112.97 42.5194 112.114 41.709ZM43.2657 33.8417C43.2657 33.7303 44.5686 32.3355 46.1611 30.7422L49.0564 27.8453L48.5582 27.2592C48.2842 26.9368 47.6694 26.2901 47.192 25.8219L46.3241 24.9708L44.8464 26.4616C44.0337 27.2815 43.3456 27.9524 43.3172 27.9524C43.2889 27.9524 43.2657 27.8652 43.2657 27.7586C43.2657 27.5337 46.1738 24.5409 46.3924 24.5409C46.5914 24.5409 49.511 27.6404 49.511 27.8517C49.511 28.0183 43.5176 34.0444 43.3519 34.0444C43.3045 34.0444 43.2657 33.9532 43.2657 33.8417ZM52.3531 25.0067L46.317 19.02L44.8719 20.4402C44.077 21.2213 43.3905 21.8604 43.3462 21.8604C43.3019 21.8604 43.2657 21.7735 43.2657 21.6674C43.2657 21.4478 46.0488 18.5707 46.2612 18.5707C46.3375 18.5707 46.6177 18.7948 46.884 19.0686C47.1502 19.3425 49.8922 22.0388 52.9773 25.0604L58.5866 30.5542L59.9268 29.2249C60.6639 28.4938 61.2667 27.8399 61.2664 27.7717C61.2662 27.7035 58.5797 25.0177 55.2966 21.8032C52.0135 18.5887 49.2796 15.8819 49.2212 15.7881C49.1435 15.663 49.5357 15.1981 50.689 14.0481C51.5546 13.1849 52.3348 12.4787 52.4228 12.4787C52.5108 12.4787 55.2722 15.1379 58.5591 18.3879C61.846 21.638 64.5857 24.2972 64.6472 24.2972C64.7087 24.2972 65.9709 23.0873 67.4521 21.6086C68.9333 20.1298 70.3033 18.8366 70.4965 18.7347L70.8479 18.5494L74.1702 21.8182C75.9975 23.6161 78.746 26.3205 80.2779 27.828L83.0633 30.5689L84.4109 29.2322C85.152 28.4971 85.7582 27.8399 85.7579 27.7717C85.7577 27.7035 83.0712 25.0177 79.7881 21.8032C76.505 18.5887 73.7711 15.8819 73.7127 15.7881C73.635 15.663 74.0272 15.1981 75.1805 14.0481C76.0461 13.1849 76.8264 12.4787 76.9145 12.4787C77.0027 12.4787 79.8025 15.1762 83.1364 18.473L89.198 24.4674L92.1631 21.519C93.794 19.8975 95.1856 18.5707 95.2556 18.5707C95.3256 18.5707 95.6007 18.7948 95.8669 19.0686C96.1332 19.3425 98.8752 22.0388 101.96 25.0604L107.57 30.5542L108.91 29.2249C109.647 28.4938 110.25 27.8399 110.249 27.7717C110.249 27.7035 107.563 25.0177 104.28 21.8032C100.996 18.5887 98.2626 15.8819 98.2042 15.7881C98.1265 15.663 98.5187 15.1981 99.6719 14.0481C100.538 13.1849 101.318 12.4787 101.406 12.4787C101.494 12.4787 104.293 15.1749 107.625 18.4703L113.684 24.4619L115.168 23.0088C116.007 22.1871 116.676 21.6212 116.706 21.7063C116.735 21.7891 116.65 22.0084 116.516 22.1937C116.136 22.7198 113.853 24.9064 113.684 24.9064C113.601 24.9064 110.813 22.2126 107.488 18.9203L101.444 12.9341L100.857 13.4282C99.7992 14.318 98.7136 15.4875 98.7576 15.6897C98.781 15.7971 101.473 18.5012 104.739 21.6988C108.006 24.8964 110.696 27.5841 110.718 27.6715C110.768 27.8732 107.807 30.9984 107.566 30.9984C107.467 30.9984 104.704 28.3392 101.425 25.0891C98.147 21.8391 95.388 19.1799 95.2945 19.1799C95.201 19.1799 93.8304 20.4684 92.2487 22.0431C90.667 23.6179 89.2983 24.9064 89.2071 24.9064C89.1159 24.9064 86.3214 22.2126 82.997 18.9203L76.9526 12.9341L76.3654 13.4282C75.3077 14.318 74.2221 15.4875 74.2661 15.6897C74.2895 15.7971 76.9813 18.5012 80.2479 21.6988C83.5144 24.8964 86.2049 27.5841 86.2266 27.6715C86.2779 27.8772 83.3134 30.9984 83.0668 30.9984C82.9639 30.9984 80.5654 28.6921 77.7369 25.8732C74.9085 23.0544 72.168 20.3627 71.647 19.8918L70.6998 19.0355L67.7574 21.8796C66.1391 23.4438 64.7313 24.7417 64.629 24.7638C64.5169 24.788 62.061 22.4439 58.4525 18.8686L52.462 12.9334L51.8744 13.4278C50.8126 14.321 49.7306 15.4873 49.7746 15.6911C49.798 15.7994 52.4898 18.5033 55.7564 21.7C59.0229 24.8966 61.7134 27.5837 61.7351 27.6712C61.7866 27.8781 58.8208 30.9992 58.5759 30.9959C58.4732 30.9944 55.673 28.2994 52.3531 25.0067ZM63.1189 17.2974C62.235 16.4296 61.5119 15.657 61.5119 15.5807C61.5119 15.5044 64.1845 12.7378 67.4511 9.4327C70.7176 6.12761 73.3902 3.3604 73.3902 3.28336C73.3902 3.11516 70.9053 0.660219 70.7351 0.660219C70.6696 0.660219 67.9564 3.34679 64.7057 6.63038C61.4551 9.91397 58.7383 12.6005 58.6684 12.6005C58.5985 12.6005 57.3213 11.4354 55.8301 10.0114C54.3388 8.58743 52.9666 7.28789 52.7807 7.12356L52.4427 6.82479L47.9009 11.327C45.3767 13.8293 43.3341 15.7624 43.3028 15.6788C43.2718 15.596 43.3571 15.3767 43.4923 15.1914C43.9575 14.5541 52.2746 6.38671 52.4541 6.39104C52.5529 6.39348 53.9821 7.6779 55.6301 9.24543C57.4121 10.9404 58.6838 12.062 58.768 12.013C58.846 11.9676 61.5099 9.29868 64.6879 6.0821C67.8659 2.86552 70.5592 0.218464 70.673 0.199749C70.8013 0.178647 71.4829 0.767727 72.4676 1.7508L74.0554 3.33587L71.4273 5.9883C69.9818 7.44714 67.2575 10.1903 65.3734 12.0842L61.9476 15.5276L63.2911 16.8691C64.03 17.607 64.698 18.1957 64.7755 18.1775C64.8531 18.1592 67.5454 15.4851 70.7585 12.235C74.1283 8.82642 76.6928 6.32578 76.8185 6.32578C76.9385 6.32578 78.4244 7.66478 80.1206 9.30134L83.2046 12.2769L84.4628 11.0071C85.1549 10.3087 87.8093 7.62642 90.3617 5.04646C92.914 2.4665 95.0781 0.308114 95.1708 0.25005C95.2933 0.173303 95.77 0.572041 96.9167 1.71037C97.7842 2.57161 98.494 3.33251 98.494 3.40125C98.494 3.47 95.8179 6.22893 92.5472 9.53222C89.2764 12.8355 86.6175 15.6064 86.6386 15.6897C86.6596 15.773 87.2734 16.4115 88.0025 17.1084L89.3282 18.3757L91.2456 16.4324C97.4319 10.1623 101.258 6.3867 101.424 6.3867C101.529 6.3867 102.951 7.71557 104.585 9.33974L107.555 12.2928L112.059 7.81674C114.537 5.35492 116.604 3.3407 116.652 3.3407C117.051 3.3407 116.149 4.3423 112.244 8.23778C109.771 10.7043 107.662 12.7224 107.559 12.7224C107.455 12.7224 106.048 11.4054 104.432 9.79587C102.816 8.18629 101.427 6.88413 101.344 6.90217C101.261 6.9202 98.5635 9.59414 95.3494 12.8442C92.1353 16.0943 89.4202 18.7688 89.3158 18.7875C89.2077 18.8069 88.4417 18.1383 87.5357 17.2339L85.9453 15.6462L87.8432 13.7274C88.887 12.6721 91.6003 9.94102 93.8726 7.65846C96.145 5.37589 98.0042 3.45168 98.0042 3.38246C98.0042 3.19658 95.4761 0.782059 95.2815 0.782059C95.19 0.782059 94.347 1.56336 93.4082 2.51828C88.4666 7.54473 83.26 12.7224 83.1472 12.7224C83.0767 12.7224 81.6618 11.3791 80.0029 9.7373C78.3441 8.09551 76.9354 6.75134 76.8724 6.75026C76.8094 6.74929 74.0506 9.47688 70.7418 12.8118L64.7258 18.8753L63.1189 17.2974ZM112.092 17.2917C111.214 16.427 110.495 15.6646 110.495 15.5975C110.495 15.454 116.211 9.71415 116.526 9.5416C116.692 9.45043 116.74 9.47043 116.74 9.63083C116.74 9.74453 115.473 11.106 113.924 12.6562C112.375 14.2065 111.107 15.5334 111.107 15.6049C111.107 15.7433 113.482 18.1139 113.696 18.1883C113.765 18.2125 114.459 17.6094 115.237 16.848C116.149 15.9562 116.674 15.5232 116.712 15.6308C116.746 15.7291 116.136 16.4296 115.23 17.3309L113.689 18.864L112.092 17.2917ZM43.2657 9.47373C43.2657 9.36227 44.573 7.96304 46.1709 6.36433L49.0761 3.45758L47.7046 2.09295L46.333 0.72833L44.8799 2.15636C44.0806 2.94177 43.3905 3.58438 43.3462 3.58438C43.3019 3.58438 43.2657 3.49753 43.2657 3.39138C43.2657 3.13582 46.0666 0.294699 46.3185 0.294699C46.5673 0.294699 49.511 3.22027 49.511 3.46754C49.511 3.64487 43.5278 9.67638 43.3519 9.67638C43.3045 9.67638 43.2657 9.58518 43.2657 9.47373ZM53.8255 2.08807C51.3178 -0.410205 49.2661 -2.49367 49.2661 -2.54185C49.2661 -2.93827 50.2649 -2.04946 54.1283 1.78501L58.576 6.19947L59.9501 4.83232L61.3242 3.46517L58.3566 0.503524C56.7244 -1.12538 55.389 -2.49667 55.389 -2.54379C55.389 -2.59091 55.4807 -2.62946 55.5929 -2.62946C55.8517 -2.62946 61.7568 3.20318 61.7568 3.45886C61.7568 3.70239 58.8137 6.63038 58.5689 6.63038C58.4677 6.63038 56.3331 4.58634 53.8255 2.08807ZM78.317 2.08807C75.8093 -0.410205 73.7576 -2.49367 73.7576 -2.54185C73.7576 -2.93827 74.7564 -2.04946 78.6198 1.78501L83.0675 6.19947L84.4416 4.83232L85.8157 3.46517L82.8175 0.463634C81.1448 -1.21085 79.8861 -2.56236 79.9705 -2.59324C80.0537 -2.62368 80.2742 -2.53876 80.4604 -2.40454C81.0522 -1.97793 86.2483 3.28508 86.2483 3.45787C86.2483 3.6911 83.3022 6.63038 83.0685 6.63038C82.9628 6.63038 80.8246 4.58634 78.317 2.08807ZM102.808 2.08807C100.301 -0.410205 98.2491 -2.49367 98.2491 -2.54185C98.2491 -2.93827 99.2478 -2.04956 103.111 1.7843L107.558 6.19807L108.904 4.86284C109.644 4.12847 110.25 3.46259 110.25 3.38312C110.25 3.30366 108.958 1.99236 107.378 0.46913C105.799 -1.0541 104.478 -2.37443 104.443 -2.46492C104.407 -2.55901 104.46 -2.62946 104.568 -2.62946C104.772 -2.62946 110.653 3.04464 110.718 3.30413C110.77 3.51016 107.804 6.63038 107.557 6.63038C107.453 6.63038 105.316 4.58634 102.808 2.08807ZM63.1362 -0.832321C61.6328 -2.3048 61.3734 -2.62946 61.7007 -2.62946C61.8093 -2.62946 62.5277 -2.01749 63.297 -1.26953L64.6958 0.0904102L66.0945 -1.26953C66.8639 -2.01749 67.5822 -2.62946 67.6908 -2.62946C67.8417 -2.62946 67.8607 -2.57917 67.7716 -2.41624C67.5796 -2.0655 64.8689 0.538379 64.6958 0.538379C64.6077 0.538379 63.9059 -0.0784361 63.1362 -0.832321ZM87.4972 -0.965026C86.6756 -1.7919 86.0034 -2.50466 86.0034 -2.54895C86.0034 -2.85756 86.5807 -2.44379 87.7885 -1.26953L89.1873 0.0904102L90.586 -1.26953C91.7938 -2.44379 92.3711 -2.85756 92.3711 -2.54895C92.3711 -2.37169 89.37 0.538379 89.1873 0.538379C89.0793 0.538379 88.3188 -0.138151 87.4972 -0.965026ZM111.989 -0.965026C111.167 -1.7919 110.495 -2.50466 110.495 -2.54895C110.495 -2.85756 111.072 -2.44379 112.28 -1.26953L113.679 0.0904102L115.078 -1.26953C116.398 -2.55375 116.74 -2.80613 116.74 -2.49738C116.74 -2.28116 113.901 0.538379 113.683 0.538379C113.573 0.538379 112.81 -0.138151 111.989 -0.965026Z" fill="#1F9900"/>
</g>
</g>
<circle cx="136" cy="16" r="16" fill="#9F00D7" fill-opacity="0.2"/>
<mask id="mask6_1_2183" style="mask-type:alpha" maskUnits="userSpaceOnUse" x="120" y="0" width="32" height="32">
<circle cx="136" cy="16" r="16" fill="#D9D9D9"/>
</mask>
<g mask="url(#mask6_1_2183)">
<mask id="mask7_1_2183" style="mask-type:alpha" maskUnits="userSpaceOnUse" x="84" y="-3" width="146" height="37">
<rect x="84" y="-2.40039" width="145.724" height="36.2474" fill="#006699"/>
</mask>
<g mask="url(#mask7_1_2183)">
<path d="M83.2657 70.3365C83.2657 70.1363 86.1156 67.3067 86.3173 67.3067C86.4974 67.3067 89.2046 69.8989 89.4029 70.2613C89.4921 70.4242 89.4731 70.4745 89.3222 70.4745C89.2136 70.4745 88.4953 69.8626 87.7259 69.1146L86.3271 67.7547L84.9284 69.1146C83.6005 70.4056 83.2657 70.6517 83.2657 70.3365ZM92.2461 67.5254C90.6071 65.9034 89.2661 64.4908 89.2661 64.3862C89.2661 64.1427 92.2092 61.2147 92.454 61.2147C92.6325 61.2147 101.757 70.2109 101.757 70.3869C101.757 70.7834 100.758 69.8945 96.8946 66.0601L92.4469 61.6456L91.0728 63.0128L89.6987 64.3799L92.6663 67.3416C94.2985 68.9705 95.6339 70.3418 95.6339 70.3889C95.6339 70.7614 94.8262 70.0788 92.2461 67.5254ZM107.757 70.4006C107.757 70.2851 109.455 68.5676 110.24 67.8884L110.948 67.2766L112.363 68.6623C113.88 70.1483 114.141 70.4745 113.815 70.4745C113.706 70.4745 113.025 69.8988 112.299 69.1952C111.574 68.4916 110.935 67.9159 110.88 67.9159C110.824 67.9159 110.186 68.4916 109.46 69.1952C108.33 70.292 107.757 70.6974 107.757 70.4006ZM116.799 67.5865C115.194 65.998 113.88 64.6207 113.88 64.5257C113.88 64.3148 116.79 61.2147 116.988 61.2147C117.138 61.2147 126.248 70.2381 126.248 70.3869C126.248 70.7831 125.253 69.8981 121.415 66.0889L116.996 61.7032L115.955 62.7688C115.382 63.3548 114.78 63.9864 114.618 64.1723L114.322 64.5104L117.223 67.4069C118.82 69 120.125 70.3419 120.125 70.389C120.125 70.7601 119.326 70.0866 116.799 67.5865ZM132.234 70.2613C132.394 69.9688 135.123 67.3067 135.262 67.3067C135.324 67.3067 136.09 68.0195 136.963 68.8906C138.914 70.8361 138.743 71.0753 136.745 69.1952C135.998 68.4916 135.332 67.9159 135.267 67.9159C135.201 67.9159 134.555 68.4916 133.829 69.1952C133.104 69.8988 132.422 70.4745 132.314 70.4745C132.164 70.4745 132.145 70.4241 132.234 70.2613ZM141.265 67.5808C139.64 65.9893 138.263 64.6121 138.204 64.5203C138.127 64.3993 138.531 63.9222 139.672 62.7841C140.538 61.9209 141.306 61.2147 141.38 61.2147C141.54 61.2147 150.448 69.9152 150.625 70.2451C150.724 70.4286 150.706 70.4745 150.537 70.4745C150.421 70.4745 148.326 68.49 145.882 66.0644L141.439 61.6543L141.099 61.9487C140.066 62.8446 138.739 64.2216 138.739 64.3981C138.739 64.5102 140.011 65.826 141.566 67.3221C144.455 70.1024 144.793 70.4745 144.422 70.4745C144.31 70.4745 142.889 69.1724 141.265 67.5808ZM103.119 66.0334C102.235 65.1656 101.512 64.393 101.512 64.3167C101.512 64.2404 104.185 61.4738 107.451 58.1687C110.718 54.8636 113.39 52.0964 113.39 52.0194C113.39 51.8512 110.905 49.3962 110.735 49.3962C110.67 49.3962 107.956 52.0828 104.706 55.3664C101.455 58.65 98.7383 61.3365 98.6684 61.3365C98.5985 61.3365 97.3213 60.1714 95.8301 58.7474C94.3388 57.3234 92.9666 56.0239 92.7807 55.8596L92.4427 55.5608L87.9422 60.0326C85.4669 62.4921 83.4021 64.5044 83.3537 64.5044C82.9547 64.5044 83.8564 63.5028 87.7623 59.6073C90.2354 57.1408 92.3432 55.1247 92.4463 55.127C92.5494 55.1295 93.9821 56.4139 95.6301 57.9814C97.4121 59.6764 98.6838 60.798 98.768 60.749C98.846 60.7036 101.51 58.0347 104.688 54.8181C107.866 51.6015 110.559 48.9545 110.673 48.9358C110.801 48.9146 111.483 49.5037 112.468 50.4868L114.055 52.0719L111.427 54.7243C109.982 56.1832 107.258 58.9263 105.373 60.8202L101.948 64.2636L103.291 65.6051C104.03 66.343 104.698 66.9317 104.776 66.9135C104.853 66.8952 107.544 64.2211 110.756 60.971C113.968 57.7209 116.68 55.0429 116.782 55.0198C116.894 54.9946 118.18 56.1801 120.003 57.9889C121.673 59.6449 123.098 60.9797 123.171 60.955C123.244 60.9303 125.933 58.2509 129.147 55.0009C132.361 51.7508 135.069 49.0441 135.165 48.9861C135.294 48.9081 135.752 49.2904 136.917 50.4464C137.784 51.3076 138.494 52.0685 138.494 52.1372C138.494 52.206 135.818 54.9649 132.547 58.2682C129.276 61.5715 126.618 64.3424 126.639 64.4257C126.66 64.509 127.273 65.1475 128.003 65.8444L129.328 67.1117L131.246 65.1684C137.306 59.0256 141.256 55.1227 141.411 55.1227C141.508 55.1227 142.438 55.9314 143.477 56.9198C144.517 57.9083 145.891 59.2046 146.531 59.8005L147.694 60.8839L152.171 56.4499C154.65 53.994 156.673 52.0829 156.704 52.1663C156.734 52.2491 156.648 52.4726 156.512 52.663C156.157 53.1587 147.813 61.3365 147.662 61.3365C147.592 61.3365 146.184 60.0452 144.532 58.4669C142.88 56.8886 141.453 55.6139 141.361 55.6341C141.269 55.6544 138.564 58.3301 135.349 61.5802C132.135 64.8303 129.42 67.5048 129.316 67.5235C129.208 67.5429 128.442 66.8743 127.536 65.9699L125.945 64.3822L127.843 62.4634C128.887 61.4081 131.6 58.677 133.873 56.3945C136.145 54.1119 138.004 52.1877 138.004 52.1185C138.004 51.9005 135.439 49.4988 135.25 49.5398C135.151 49.5614 132.467 52.2107 129.285 55.4273C126.104 58.6439 123.396 61.3515 123.269 61.4442C123.056 61.5996 122.795 61.3714 119.925 58.52L116.812 55.4273L110.769 61.5193L104.726 67.6113L103.119 66.0334ZM151.978 65.9812C151.162 65.1181 150.495 64.3628 150.495 64.3026C150.495 64.1225 156.606 58.1166 156.697 58.2073C156.887 58.396 156.326 59.0255 153.836 61.4154C152.398 62.7961 151.164 64.033 151.094 64.1641C150.982 64.3717 151.14 64.5785 152.317 65.7621L153.668 67.1216L155.124 65.6911C155.924 64.9044 156.615 64.2607 156.66 64.2607C156.704 64.2607 156.74 64.3475 156.74 64.4537C156.74 64.7184 153.935 67.5504 153.672 67.5504C153.557 67.5504 152.794 66.8442 151.978 65.9812ZM83.2657 58.2097C83.2657 58.0983 84.573 56.699 86.1709 55.1003L89.0761 52.1936L87.7046 50.829L86.333 49.4643L84.8799 50.8924C84.0806 51.6778 83.3905 52.3204 83.3462 52.3204C83.3019 52.3204 83.2657 52.2335 83.2657 52.1274C83.2657 51.8718 86.0666 49.0307 86.3185 49.0307C86.5673 49.0307 89.511 51.9563 89.511 52.2035C89.511 52.3809 83.5278 58.4124 83.3519 58.4124C83.3045 58.4124 83.2657 58.3212 83.2657 58.2097ZM92.4356 49.4549C89.1612 46.2061 86.4048 43.5479 86.3105 43.5479C86.2161 43.5479 85.5888 44.0999 84.9166 44.7745C83.581 46.1149 83.2657 46.3568 83.2657 46.0413C83.2657 45.8359 85.7313 43.248 86.1294 43.0356C86.3291 42.9291 86.8013 43.347 89.6195 46.124C91.412 47.8903 94.1596 50.5958 95.7252 52.1362L98.5718 54.9369L99.9194 53.6002C100.661 52.8651 101.267 52.2079 101.266 52.1397C101.266 52.0715 98.5797 49.3857 95.2966 46.1712C92.0135 42.9567 89.2796 40.2499 89.2212 40.1561C89.1435 40.0311 89.5357 39.5661 90.689 38.4161C91.5546 37.5529 92.3349 36.8467 92.4231 36.8467C92.5112 36.8467 95.3105 39.5436 98.6437 42.8399L104.704 48.833L107.675 45.8859C109.309 44.2649 110.702 42.9387 110.769 42.9387C110.836 42.9387 111.109 43.1628 111.375 43.4366C111.642 43.7105 114.384 46.4068 117.469 49.4284L123.078 54.9222L124.418 53.5929C125.155 52.8618 125.758 52.2079 125.758 52.1397C125.758 52.0715 123.071 49.3857 119.788 46.1712C116.505 42.9567 113.771 40.2499 113.713 40.1561C113.635 40.0311 114.027 39.5661 115.18 38.4161C116.046 37.5529 116.826 36.8467 116.915 36.8467C117.003 36.8467 119.803 39.5442 123.136 42.841L129.198 48.8354L132.163 45.887C133.794 44.2655 135.186 42.9387 135.256 42.9387C135.326 42.9387 135.601 43.1628 135.867 43.4366C136.133 43.7105 138.875 46.4068 141.96 49.4284L147.57 54.9222L148.91 53.5929C149.647 52.8618 150.25 52.2079 150.249 52.1397C150.249 52.0715 147.563 49.3857 144.28 46.1712C140.996 42.9567 138.263 40.2499 138.204 40.1561C138.126 40.0311 138.519 39.5661 139.672 38.4161C140.538 37.5529 141.316 36.8467 141.402 36.8467C141.489 36.8467 144.263 39.5059 147.567 42.7559C150.872 46.006 153.641 48.6652 153.721 48.6652C153.801 48.6652 154.417 48.1132 155.089 47.4386C156.427 46.0961 156.74 45.8561 156.74 46.1734C156.74 46.4245 153.926 49.2947 153.725 49.2482C153.643 49.2291 150.844 46.5353 147.505 43.2621L141.434 37.3107L140.852 37.8004C139.798 38.6866 138.714 39.8559 138.758 40.0577C138.781 40.1651 141.473 42.8692 144.739 46.0668C148.006 49.2644 150.696 51.9521 150.718 52.0395C150.768 52.2407 147.808 55.3664 147.567 55.3664C147.469 55.3664 144.667 52.6701 141.341 49.3746L135.294 43.3828L132.332 46.3286C130.702 47.9488 129.295 49.2744 129.205 49.2744C129.115 49.2744 126.321 46.5806 122.997 43.2883L116.953 37.3021L116.365 37.7962C115.308 38.686 114.222 39.8555 114.266 40.0577C114.29 40.1651 116.981 42.8692 120.248 46.0668C123.514 49.2644 126.205 51.9521 126.227 52.0395C126.277 52.2412 123.316 55.3664 123.075 55.3664C122.976 55.3664 120.213 52.7072 116.934 49.4571C113.655 46.2071 110.897 43.5479 110.803 43.5479C110.71 43.5479 109.339 44.8364 107.757 46.4111C106.176 47.9859 104.804 49.2744 104.709 49.2744C104.613 49.2744 101.842 46.6015 98.5494 43.3347C95.2569 40.0678 92.5171 37.379 92.4609 37.3595C92.4047 37.34 91.7704 37.883 91.0513 38.5661C90.1734 39.4001 89.7559 39.8812 89.7805 40.0307C89.8007 40.1532 92.4898 42.8695 95.7564 46.0669C99.0229 49.2644 101.713 51.9521 101.735 52.0395C101.787 52.246 98.8208 55.3671 98.5759 55.3642C98.4732 55.363 95.7101 52.7038 92.4356 49.4549ZM103.044 41.6019L101.454 40.0142L103.352 38.0954C104.396 37.0401 107.109 34.309 109.381 32.0265C111.653 29.7439 113.513 27.8197 113.513 27.7505C113.513 27.5646 110.985 25.1501 110.79 25.1501C110.699 25.1501 109.856 25.9314 108.917 26.8863C103.942 31.9465 98.7681 37.0904 98.6534 37.0904C98.5816 37.0904 97.1524 35.7334 95.4773 34.0748L92.4316 31.0593L87.9176 35.5978C85.435 38.094 83.3726 40.1364 83.3347 40.1364C82.9843 40.1364 83.8834 39.135 87.7424 35.2271C90.2045 32.7338 92.3064 30.6746 92.4131 30.6511C92.5349 30.6243 93.7398 31.7345 95.646 33.63L98.6847 36.6516L99.9594 35.3784C100.66 34.6782 103.321 31.9944 105.872 29.4145C108.423 26.8345 110.587 24.6761 110.679 24.6181C110.802 24.5413 111.279 24.94 112.425 26.0784C113.293 26.9396 114.003 27.7005 114.003 27.7693C114.003 27.838 111.326 30.5969 108.056 33.9002C104.785 37.2035 102.126 39.9744 102.147 40.0577C102.168 40.141 102.782 40.7795 103.511 41.4764L104.837 42.7437L106.754 40.8004C112.986 34.4842 116.766 30.7552 116.934 30.759C117.039 30.7615 118.474 32.0459 120.122 33.6134C121.904 35.3084 123.175 36.43 123.26 36.381C123.337 36.3356 126.001 33.6667 129.179 30.4501C132.357 27.2335 135.051 24.5865 135.164 24.5678C135.293 24.5466 135.974 25.1357 136.959 26.1188L138.547 27.7039L135.919 30.3563C134.473 31.8151 131.749 34.5583 129.865 36.4522L126.439 39.8956L127.783 41.2371C128.521 41.975 129.189 42.5637 129.267 42.5455C129.345 42.5272 132.036 39.8531 135.248 36.603C138.828 32.9808 141.19 30.6805 141.352 30.6596C141.555 30.6334 142.305 31.3117 144.555 33.5533C146.171 35.1636 147.549 36.4812 147.617 36.4812C147.685 36.4812 149.669 34.5588 152.026 32.2092C154.383 29.8596 156.408 27.8839 156.526 27.8187C156.693 27.7261 156.74 27.7462 156.74 27.9105C156.74 28.1171 148.202 36.7454 147.757 36.9888C147.56 37.0962 147.114 36.7013 144.508 34.1167C142.847 32.4687 141.434 31.1193 141.369 31.1183C141.303 31.117 138.542 33.8449 135.233 37.1798L129.217 43.2433L127.61 41.6654C126.727 40.7976 126.003 40.0251 126.003 39.9487C126.003 39.8724 128.676 37.1058 131.943 33.8007C135.209 30.4956 137.882 27.7284 137.882 27.6514C137.882 27.4832 135.397 25.0282 135.227 25.0282C135.161 25.0282 132.448 27.7148 129.197 30.9984C125.947 34.282 123.232 36.9685 123.166 36.9685C123.099 36.9685 121.693 35.6772 120.041 34.0989C118.389 32.5206 116.962 31.2459 116.87 31.2661C116.777 31.2864 114.072 33.9621 110.858 37.2122C107.644 40.4623 104.929 43.1368 104.824 43.1555C104.716 43.1749 103.95 42.5063 103.044 41.6019ZM152.114 41.709C151.257 40.8986 150.537 40.1507 150.513 40.0469C150.472 39.8658 156.049 34.1741 156.526 33.9106C156.693 33.8184 156.74 33.8381 156.74 33.9991C156.74 34.1129 155.431 35.5174 153.832 37.1203L150.923 40.0346L152.27 41.2999C153.011 41.9959 153.674 42.5671 153.742 42.5692C153.811 42.5714 154.417 42.0212 155.089 41.3466C156.427 40.0041 156.74 39.7641 156.74 40.0814C156.74 40.2829 153.97 43.1824 153.777 43.1824C153.719 43.1824 152.97 42.5194 152.114 41.709ZM83.2657 33.8417C83.2657 33.7303 84.5686 32.3355 86.1611 30.7422L89.0564 27.8453L88.5582 27.2592C88.2842 26.9368 87.6694 26.2901 87.192 25.8219L86.3241 24.9708L84.8464 26.4616C84.0337 27.2815 83.3456 27.9524 83.3172 27.9524C83.2889 27.9524 83.2657 27.8652 83.2657 27.7586C83.2657 27.5337 86.1738 24.5409 86.3924 24.5409C86.5914 24.5409 89.511 27.6404 89.511 27.8517C89.511 28.0183 83.5176 34.0444 83.3519 34.0444C83.3045 34.0444 83.2657 33.9532 83.2657 33.8417ZM92.3531 25.0067L86.317 19.02L84.8719 20.4402C84.077 21.2213 83.3905 21.8604 83.3462 21.8604C83.3019 21.8604 83.2657 21.7735 83.2657 21.6674C83.2657 21.4478 86.0488 18.5707 86.2612 18.5707C86.3375 18.5707 86.6177 18.7948 86.884 19.0686C87.1502 19.3425 89.8922 22.0388 92.9773 25.0604L98.5866 30.5542L99.9268 29.2249C100.664 28.4938 101.267 27.8399 101.266 27.7717C101.266 27.7035 98.5797 25.0177 95.2966 21.8032C92.0135 18.5887 89.2796 15.8819 89.2212 15.7881C89.1435 15.663 89.5357 15.1981 90.689 14.0481C91.5546 13.1849 92.3348 12.4787 92.4228 12.4787C92.5108 12.4787 95.2722 15.1379 98.5591 18.3879C101.846 21.638 104.586 24.2972 104.647 24.2972C104.709 24.2972 105.971 23.0873 107.452 21.6086C108.933 20.1298 110.303 18.8366 110.497 18.7347L110.848 18.5494L114.17 21.8182C115.998 23.6161 118.746 26.3205 120.278 27.828L123.063 30.5689L124.411 29.2322C125.152 28.4971 125.758 27.8399 125.758 27.7717C125.758 27.7035 123.071 25.0177 119.788 21.8032C116.505 18.5887 113.771 15.8819 113.713 15.7881C113.635 15.663 114.027 15.1981 115.18 14.0481C116.046 13.1849 116.826 12.4787 116.915 12.4787C117.003 12.4787 119.803 15.1762 123.136 18.473L129.198 24.4674L132.163 21.519C133.794 19.8975 135.186 18.5707 135.256 18.5707C135.326 18.5707 135.601 18.7948 135.867 19.0686C136.133 19.3425 138.875 22.0388 141.96 25.0604L147.57 30.5542L148.91 29.2249C149.647 28.4938 150.25 27.8399 150.249 27.7717C150.249 27.7035 147.563 25.0177 144.28 21.8032C140.996 18.5887 138.263 15.8819 138.204 15.7881C138.126 15.663 138.519 15.1981 139.672 14.0481C140.538 13.1849 141.318 12.4787 141.406 12.4787C141.494 12.4787 144.293 15.1749 147.625 18.4703L153.684 24.4619L155.168 23.0088C156.007 22.1871 156.676 21.6212 156.706 21.7063C156.735 21.7891 156.65 22.0084 156.516 22.1937C156.136 22.7198 153.853 24.9064 153.684 24.9064C153.601 24.9064 150.813 22.2126 147.488 18.9203L141.444 12.9341L140.857 13.4282C139.799 14.318 138.714 15.4875 138.758 15.6897C138.781 15.7971 141.473 18.5012 144.739 21.6988C148.006 24.8964 150.696 27.5841 150.718 27.6715C150.768 27.8732 147.807 30.9984 147.566 30.9984C147.467 30.9984 144.704 28.3392 141.425 25.0891C138.147 21.8391 135.388 19.1799 135.295 19.1799C135.201 19.1799 133.83 20.4684 132.249 22.0431C130.667 23.6179 129.298 24.9064 129.207 24.9064C129.116 24.9064 126.321 22.2126 122.997 18.9203L116.953 12.9341L116.365 13.4282C115.308 14.318 114.222 15.4875 114.266 15.6897C114.29 15.7971 116.981 18.5012 120.248 21.6988C123.514 24.8964 126.205 27.5841 126.227 27.6715C126.278 27.8772 123.313 30.9984 123.067 30.9984C122.964 30.9984 120.565 28.6921 117.737 25.8732C114.908 23.0544 112.168 20.3627 111.647 19.8918L110.7 19.0355L107.757 21.8796C106.139 23.4438 104.731 24.7417 104.629 24.7638C104.517 24.788 102.061 22.4439 98.4525 18.8686L92.462 12.9334L91.8744 13.4278C90.8126 14.321 89.7306 15.4873 89.7746 15.6911C89.798 15.7994 92.4898 18.5033 95.7564 21.7C99.0229 24.8966 101.713 27.5837 101.735 27.6712C101.787 27.8781 98.8208 30.9992 98.5759 30.9959C98.4732 30.9944 95.673 28.2994 92.3531 25.0067ZM103.119 17.2974C102.235 16.4296 101.512 15.657 101.512 15.5807C101.512 15.5044 104.185 12.7378 107.451 9.4327C110.718 6.12761 113.39 3.3604 113.39 3.28336C113.39 3.11516 110.905 0.660219 110.735 0.660219C110.67 0.660219 107.956 3.34679 104.706 6.63038C101.455 9.91397 98.7383 12.6005 98.6684 12.6005C98.5985 12.6005 97.3213 11.4354 95.8301 10.0114C94.3388 8.58743 92.9666 7.28789 92.7807 7.12356L92.4427 6.82479L87.9009 11.327C85.3767 13.8293 83.3341 15.7624 83.3028 15.6788C83.2718 15.596 83.3571 15.3767 83.4923 15.1914C83.9575 14.5541 92.2746 6.38671 92.4541 6.39104C92.5529 6.39348 93.9821 7.6779 95.6301 9.24543C97.4121 10.9404 98.6838 12.062 98.768 12.013C98.846 11.9676 101.51 9.29868 104.688 6.0821C107.866 2.86552 110.559 0.218464 110.673 0.199749C110.801 0.178647 111.483 0.767727 112.468 1.7508L114.055 3.33587L111.427 5.9883C109.982 7.44714 107.258 10.1903 105.373 12.0842L101.948 15.5276L103.291 16.8691C104.03 17.607 104.698 18.1957 104.776 18.1775C104.853 18.1592 107.545 15.4851 110.759 12.235C114.128 8.82642 116.693 6.32578 116.819 6.32578C116.938 6.32578 118.424 7.66478 120.121 9.30134L123.205 12.2769L124.463 11.0071C125.155 10.3087 127.809 7.62642 130.362 5.04646C132.914 2.4665 135.078 0.308114 135.171 0.25005C135.293 0.173303 135.77 0.572041 136.917 1.71037C137.784 2.57161 138.494 3.33251 138.494 3.40125C138.494 3.47 135.818 6.22893 132.547 9.53222C129.276 12.8355 126.618 15.6064 126.639 15.6897C126.66 15.773 127.273 16.4115 128.003 17.1084L129.328 18.3757L131.246 16.4324C137.432 10.1623 141.258 6.3867 141.424 6.3867C141.529 6.3867 142.951 7.71557 144.585 9.33974L147.555 12.2928L152.059 7.81674C154.537 5.35492 156.604 3.3407 156.652 3.3407C157.051 3.3407 156.149 4.3423 152.244 8.23778C149.771 10.7043 147.662 12.7224 147.559 12.7224C147.455 12.7224 146.048 11.4054 144.432 9.79587C142.816 8.18629 141.427 6.88413 141.344 6.90217C141.261 6.9202 138.564 9.59414 135.349 12.8442C132.135 16.0943 129.42 18.7688 129.316 18.7875C129.208 18.8069 128.442 18.1383 127.536 17.2339L125.945 15.6462L127.843 13.7274C128.887 12.6721 131.6 9.94102 133.873 7.65846C136.145 5.37589 138.004 3.45168 138.004 3.38246C138.004 3.19658 135.476 0.782059 135.282 0.782059C135.19 0.782059 134.347 1.56336 133.408 2.51828C128.467 7.54473 123.26 12.7224 123.147 12.7224C123.077 12.7224 121.662 11.3791 120.003 9.7373C118.344 8.09551 116.935 6.75134 116.872 6.75026C116.809 6.74929 114.051 9.47688 110.742 12.8118L104.726 18.8753L103.119 17.2974ZM152.092 17.2917C151.214 16.427 150.495 15.6646 150.495 15.5975C150.495 15.454 156.211 9.71415 156.526 9.5416C156.692 9.45043 156.74 9.47043 156.74 9.63083C156.74 9.74453 155.473 11.106 153.924 12.6562C152.375 14.2065 151.107 15.5334 151.107 15.6049C151.107 15.7433 153.482 18.1139 153.696 18.1883C153.765 18.2125 154.459 17.6094 155.237 16.848C156.149 15.9562 156.674 15.5232 156.712 15.6308C156.746 15.7291 156.136 16.4296 155.23 17.3309L153.689 18.864L152.092 17.2917ZM83.2657 9.47373C83.2657 9.36227 84.573 7.96304 86.1709 6.36433L89.0761 3.45758L87.7046 2.09295L86.333 0.72833L84.8799 2.15636C84.0806 2.94177 83.3905 3.58438 83.3462 3.58438C83.3019 3.58438 83.2657 3.49753 83.2657 3.39138C83.2657 3.13582 86.0666 0.294699 86.3185 0.294699C86.5673 0.294699 89.511 3.22027 89.511 3.46754C89.511 3.64487 83.5278 9.67638 83.3519 9.67638C83.3045 9.67638 83.2657 9.58518 83.2657 9.47373ZM93.8255 2.08807C91.3178 -0.410205 89.2661 -2.49367 89.2661 -2.54185C89.2661 -2.93827 90.2649 -2.04946 94.1283 1.78501L98.576 6.19947L99.9501 4.83232L101.324 3.46517L98.3566 0.503524C96.7244 -1.12538 95.389 -2.49667 95.389 -2.54379C95.389 -2.59091 95.4807 -2.62946 95.5929 -2.62946C95.8517 -2.62946 101.757 3.20318 101.757 3.45886C101.757 3.70239 98.8137 6.63038 98.5689 6.63038C98.4677 6.63038 96.3331 4.58634 93.8255 2.08807ZM118.317 2.08807C115.809 -0.410205 113.758 -2.49367 113.758 -2.54185C113.758 -2.93827 114.756 -2.04946 118.62 1.78501L123.068 6.19947L124.442 4.83232L125.816 3.46517L122.817 0.463634C121.145 -1.21085 119.886 -2.56236 119.971 -2.59324C120.054 -2.62368 120.274 -2.53876 120.46 -2.40454C121.052 -1.97793 126.248 3.28508 126.248 3.45787C126.248 3.6911 123.302 6.63038 123.068 6.63038C122.963 6.63038 120.825 4.58634 118.317 2.08807ZM142.808 2.08807C140.301 -0.410205 138.249 -2.49367 138.249 -2.54185C138.249 -2.93827 139.248 -2.04956 143.111 1.7843L147.558 6.19807L148.904 4.86284C149.644 4.12847 150.25 3.46259 150.25 3.38312C150.25 3.30366 148.958 1.99236 147.378 0.46913C145.799 -1.0541 144.478 -2.37443 144.443 -2.46492C144.407 -2.55901 144.46 -2.62946 144.568 -2.62946C144.772 -2.62946 150.653 3.04464 150.718 3.30413C150.77 3.51016 147.804 6.63038 147.557 6.63038C147.453 6.63038 145.316 4.58634 142.808 2.08807ZM103.136 -0.832321C101.633 -2.3048 101.373 -2.62946 101.701 -2.62946C101.809 -2.62946 102.528 -2.01749 103.297 -1.26953L104.696 0.0904102L106.095 -1.26953C106.864 -2.01749 107.582 -2.62946 107.691 -2.62946C107.842 -2.62946 107.861 -2.57917 107.772 -2.41624C107.58 -2.0655 104.869 0.538379 104.696 0.538379C104.608 0.538379 103.906 -0.0784361 103.136 -0.832321ZM127.497 -0.965026C126.676 -1.7919 126.003 -2.50466 126.003 -2.54895C126.003 -2.85756 126.581 -2.44379 127.788 -1.26953L129.187 0.0904102L130.586 -1.26953C131.794 -2.44379 132.371 -2.85756 132.371 -2.54895C132.371 -2.37169 129.37 0.538379 129.187 0.538379C129.079 0.538379 128.319 -0.138151 127.497 -0.965026ZM151.989 -0.965026C151.167 -1.7919 150.495 -2.50466 150.495 -2.54895C150.495 -2.85756 151.072 -2.44379 152.28 -1.26953L153.679 0.0904102L155.078 -1.26953C156.398 -2.55375 156.74 -2.80613 156.74 -2.49738C156.74 -2.28116 153.901 0.538379 153.683 0.538379C153.573 0.538379 152.81 -0.138151 151.989 -0.965026Z" fill="#9F00D7"/>
</g>
</g>
<circle cx="176" cy="16" r="15.5" stroke="#007FFF"/>
<path d="M175.75 10C175.949 10 176.14 10.079 176.28 10.2197C176.421 10.3603 176.5 10.5511 176.5 10.75V15H180.75C180.949 15 181.14 15.079 181.28 15.2197C181.421 15.3603 181.5 15.5511 181.5 15.75C181.5 15.9489 181.421 16.1397 181.28 16.2803C181.14 16.421 180.949 16.5 180.75 16.5H176.5V20.75C176.5 20.9489 176.421 21.1397 176.28 21.2803C176.14 21.421 175.949 21.5 175.75 21.5C175.551 21.5 175.36 21.421 175.22 21.2803C175.079 21.1397 175 20.9489 175 20.75V16.5H170.75C170.551 16.5 170.36 16.421 170.22 16.2803C170.079 16.1397 170 15.9489 170 15.75C170 15.5511 170.079 15.3603 170.22 15.2197C170.36 15.079 170.551 15 170.75 15H175V10.75C175 10.5511 175.079 10.3603 175.22 10.2197C175.36 10.079 175.551 10 175.75 10Z" fill="#007FFF"/>
</svg>
