<svg width="24" height="24" viewBox="0 0 24 24" fill="none" xmlns="http://www.w3.org/2000/svg">
<g opacity="0.5">
<path d="M2 4.75C2 3.784 2.784 3 3.75 3H8.721C9.00628 2.99991 9.28725 3.06957 9.53945 3.2029C9.79165 3.33624 10.0074 3.5292 10.168 3.765L11.572 5.828C11.5949 5.86186 11.6257 5.88959 11.6618 5.90877C11.6979 5.92794 11.7381 5.93798 11.779 5.938H20.25C21.216 5.938 22 6.721 22 7.688V19.25C22 19.7141 21.8156 20.1592 21.4874 20.4874C21.1592 20.8156 20.7141 21 20.25 21H4.75C4.55109 21 4.36032 20.921 4.21967 20.7803C4.07902 20.6397 4 20.4489 4 20.25C4 20.0511 4.07902 19.8603 4.21967 19.7197C4.36032 19.579 4.55109 19.5 4.75 19.5H20.25C20.3163 19.5 20.3799 19.4737 20.4268 19.4268C20.4737 19.3799 20.5 19.3163 20.5 19.25V7.688C20.5 7.6217 20.4737 7.55811 20.4268 7.51122C20.3799 7.46434 20.3163 7.438 20.25 7.438H11.779C11.4936 7.43789 11.2127 7.36804 10.9605 7.23454C10.7083 7.10103 10.4925 6.90792 10.332 6.672L8.928 4.609C8.90488 4.57545 8.87397 4.54801 8.83791 4.52902C8.80186 4.51004 8.76174 4.50008 8.721 4.5H3.75C3.6837 4.5 3.62011 4.52634 3.57322 4.57322C3.52634 4.62011 3.5 4.6837 3.5 4.75V8.25C3.5 8.44891 3.42098 8.63968 3.28033 8.78033C3.13968 8.92098 2.94891 9 2.75 9C2.55109 9 2.36032 8.92098 2.21967 8.78033C2.07902 8.63968 2 8.44891 2 8.25V4.75Z" fill="white"/>
<path d="M9.308 12.5002L7.204 10.2642C7.13438 10.1929 7.07967 10.1085 7.04306 10.0158C7.00645 9.92312 6.98867 9.82408 6.99077 9.72446C6.99286 9.62483 7.01479 9.52663 7.05527 9.43557C7.09575 9.34452 7.15396 9.26244 7.22652 9.19414C7.29907 9.12584 7.38451 9.07268 7.47784 9.03777C7.57117 9.00286 7.67052 8.9869 7.77008 8.99081C7.86965 8.99473 7.96744 9.01845 8.05774 9.06059C8.14804 9.10272 8.22904 9.16243 8.296 9.23622L11.59 12.7362C11.7209 12.8753 11.7938 13.0592 11.7938 13.2502C11.7938 13.4413 11.7209 13.6251 11.59 13.7642L8.296 17.2642C8.22904 17.338 8.14804 17.3977 8.05774 17.4399C7.96744 17.482 7.86965 17.5057 7.77008 17.5096C7.67052 17.5135 7.57117 17.4976 7.47784 17.4627C7.38451 17.4278 7.29907 17.3746 7.22652 17.3063C7.15396 17.238 7.09575 17.1559 7.05527 17.0649C7.01479 16.9738 6.99286 16.8756 6.99077 16.776C6.98867 16.6764 7.00645 16.5773 7.04306 16.4846C7.07967 16.392 7.13438 16.3075 7.204 16.2362L9.308 14.0002H4.09C3.40309 14.0002 2.74431 14.2731 2.25859 14.7588C1.77287 15.2445 1.5 15.9033 1.5 16.5902V19.7502C1.5 19.9491 1.42098 20.1399 1.28033 20.2805C1.13968 20.4212 0.948912 20.5002 0.75 20.5002C0.551088 20.5002 0.360322 20.4212 0.21967 20.2805C0.0790176 20.1399 0 19.9491 0 19.7502L0 16.5902C0 15.5055 0.43091 14.4652 1.19793 13.6982C1.96496 12.9311 3.00526 12.5002 4.09 12.5002H9.308Z" fill="white"/>
</g>
</svg>
