<svg width="18" height="18" viewBox="0 0 18 18" fill="none" xmlns="http://www.w3.org/2000/svg">
<g opacity="0.8">
<path d="M8.08492 14.2724C7.97945 14.3777 7.83648 14.4369 7.68742 14.4369C7.53835 14.4369 7.39539 14.3777 7.28992 14.2724L2.60243 9.58492C2.49709 9.47945 2.43793 9.33649 2.43793 9.18742C2.43793 9.03836 2.49709 8.89539 2.60243 8.78992L7.28992 4.10244C7.35867 4.0284 7.44612 3.97427 7.54306 3.94576C7.64 3.91725 7.74283 3.91541 7.84072 3.94044C7.93861 3.96547 8.02794 4.01644 8.0993 4.08798C8.17065 4.15952 8.22139 4.24898 8.24617 4.34694C8.27123 4.44472 8.26948 4.54745 8.2411 4.64432C8.21273 4.74119 8.15877 4.82863 8.08492 4.89744L4.35743 8.62493H15.1874C15.3366 8.62493 15.4797 8.68419 15.5851 8.78968C15.6906 8.89517 15.7499 9.03824 15.7499 9.18742C15.7499 9.33661 15.6906 9.47968 15.5851 9.58517C15.4797 9.69066 15.3366 9.74992 15.1874 9.74992H4.35743L8.08492 13.4774C8.19025 13.5829 8.24942 13.7258 8.24942 13.8749C8.24942 14.024 8.19025 14.1669 8.08492 14.2724Z" fill="#0B150F"/>
</g>
</svg>
