<svg width="844" height="113" viewBox="0 0 844 113" fill="none" xmlns="http://www.w3.org/2000/svg">
<path d="M1.596 14V4.2H5.586C8.722 4.2 10.836 6.216 10.836 9.1C10.836 11.984 8.722 14 5.586 14H1.596ZM2.632 13.104H5.53C8.134 13.104 9.814 11.452 9.814 9.1C9.814 6.748 8.134 5.096 5.53 5.096H2.632V13.104ZM19.3784 10.318C19.3784 10.402 19.3644 10.514 19.3644 10.626H13.2044C13.3164 12.166 14.4924 13.188 16.1024 13.188C16.9984 13.188 17.7964 12.866 18.3564 12.222L18.9164 12.866C18.2584 13.65 17.2364 14.07 16.0744 14.07C13.7784 14.07 12.2104 12.502 12.2104 10.318C12.2104 8.134 13.7364 6.58 15.8084 6.58C17.8804 6.58 19.3784 8.106 19.3784 10.318ZM15.8084 7.434C14.3804 7.434 13.3304 8.442 13.2044 9.884H18.4264C18.3004 8.442 17.2504 7.434 15.8084 7.434ZM23.3756 14.07C22.1576 14.07 20.9816 13.678 20.3796 13.16L20.8276 12.376C21.4156 12.838 22.4096 13.202 23.4456 13.202C24.8456 13.202 25.4196 12.726 25.4196 11.998C25.4196 10.08 20.6456 11.592 20.6456 8.68C20.6456 7.476 21.6816 6.58 23.5576 6.58C24.5096 6.58 25.5456 6.846 26.1616 7.266L25.7276 8.064C25.0836 7.616 24.3136 7.434 23.5576 7.434C22.2276 7.434 21.6396 7.952 21.6396 8.652C21.6396 10.64 26.4136 9.142 26.4136 11.97C26.4136 13.244 25.2936 14.07 23.3756 14.07ZM31.3032 14.07C29.1052 14.07 27.5092 12.516 27.5092 10.318C27.5092 8.12 29.1052 6.58 31.3032 6.58C32.5492 6.58 33.5992 7.07 34.1872 8.036L33.4452 8.54C32.9412 7.798 32.1572 7.448 31.3032 7.448C29.6932 7.448 28.5172 8.596 28.5172 10.318C28.5172 12.054 29.6932 13.188 31.3032 13.188C32.1572 13.188 32.9412 12.852 33.4452 12.11L34.1872 12.614C33.5992 13.566 32.5492 14.07 31.3032 14.07ZM37.0919 8.078C37.5539 7.098 38.4919 6.58 39.8499 6.58V7.546C39.7659 7.546 39.6819 7.532 39.6119 7.532C38.0719 7.532 37.1339 8.512 37.1339 10.248V14H36.1399V6.636H37.0919V8.078ZM42.1537 5.026C41.7477 5.026 41.4257 4.704 41.4257 4.312C41.4257 3.934 41.7477 3.612 42.1537 3.612C42.5597 3.612 42.8817 3.92 42.8817 4.298C42.8817 4.704 42.5737 5.026 42.1537 5.026ZM41.6497 14V6.636H42.6437V14H41.6497ZM49.2034 6.58C51.3034 6.58 52.8714 8.092 52.8714 10.318C52.8714 12.558 51.3034 14.07 49.2034 14.07C48.0274 14.07 47.0194 13.566 46.4034 12.614V16.716H45.4094V6.636H46.3614V8.092C46.9634 7.112 47.9854 6.58 49.2034 6.58ZM49.1334 13.188C50.6874 13.188 51.8774 12.04 51.8774 10.318C51.8774 8.61 50.6874 7.448 49.1334 7.448C47.5654 7.448 46.3894 8.61 46.3894 10.318C46.3894 12.04 47.5654 13.188 49.1334 13.188ZM58.4257 12.838L58.7757 13.552C58.3837 13.902 57.7957 14.07 57.2217 14.07C55.8357 14.07 55.0657 13.286 55.0657 11.928V7.476H53.7497V6.636H55.0657V5.026H56.0597V6.636H58.2997V7.476H56.0597V11.872C56.0597 12.74 56.5077 13.216 57.3337 13.216C57.7397 13.216 58.1457 13.09 58.4257 12.838ZM61.0892 5.026C60.6832 5.026 60.3612 4.704 60.3612 4.312C60.3612 3.934 60.6832 3.612 61.0892 3.612C61.4952 3.612 61.8172 3.92 61.8172 4.298C61.8172 4.704 61.5092 5.026 61.0892 5.026ZM60.5852 14V6.636H61.5792V14H60.5852ZM67.355 14.07C65.199 14.07 63.603 12.502 63.603 10.318C63.603 8.134 65.199 6.58 67.355 6.58C69.511 6.58 71.093 8.134 71.093 10.318C71.093 12.502 69.511 14.07 67.355 14.07ZM67.355 13.188C68.923 13.188 70.085 12.04 70.085 10.318C70.085 8.596 68.923 7.448 67.355 7.448C65.787 7.448 64.611 8.596 64.611 10.318C64.611 12.04 65.787 13.188 67.355 13.188ZM76.8743 6.58C78.6663 6.58 79.8983 7.616 79.8983 9.73V14H78.9043V9.828C78.9043 8.274 78.0923 7.476 76.6923 7.476C75.1103 7.476 74.1163 8.456 74.1163 10.136V14H73.1223V6.636H74.0743V7.994C74.6063 7.098 75.6003 6.58 76.8743 6.58Z" fill="#0B150F" fill-opacity="0.6"/>
<rect y="25" width="844" height="88" rx="4" fill="white"/>
<path d="M28.064 41.8H29.2L25.424 53H24.176L20.896 43.448L17.6 53H16.368L12.592 41.8H13.808L17.04 51.432L20.384 41.8H21.488L24.784 51.48L28.064 41.8ZM31.8908 46.232C32.4188 45.112 33.4908 44.52 35.0428 44.52V45.624C34.9468 45.624 34.8508 45.608 34.7708 45.608C33.0108 45.608 31.9388 46.728 31.9388 48.712V53H30.8028V44.584H31.8908V46.232ZM37.6756 42.744C37.2116 42.744 36.8436 42.376 36.8436 41.928C36.8436 41.496 37.2116 41.128 37.6756 41.128C38.1396 41.128 38.5076 41.48 38.5076 41.912C38.5076 42.376 38.1556 42.744 37.6756 42.744ZM37.0996 53V44.584H38.2356V53H37.0996ZM45.4285 51.672L45.8285 52.488C45.3805 52.888 44.7085 53.08 44.0525 53.08C42.4685 53.08 41.5885 52.184 41.5885 50.632V45.544H40.0845V44.584H41.5885V42.744H42.7245V44.584H45.2845V45.544H42.7245V50.568C42.7245 51.56 43.2365 52.104 44.1805 52.104C44.6445 52.104 45.1085 51.96 45.4285 51.672ZM54.9436 48.792C54.9436 48.888 54.9276 49.016 54.9276 49.144H47.8876C48.0156 50.904 49.3596 52.072 51.1996 52.072C52.2236 52.072 53.1356 51.704 53.7756 50.968L54.4156 51.704C53.6636 52.6 52.4956 53.08 51.1676 53.08C48.5436 53.08 46.7516 51.288 46.7516 48.792C46.7516 46.296 48.4956 44.52 50.8636 44.52C53.2316 44.52 54.9436 46.264 54.9436 48.792ZM50.8636 45.496C49.2316 45.496 48.0316 46.648 47.8876 48.296H53.8556C53.7116 46.648 52.5116 45.496 50.8636 45.496ZM67.3954 44.584H68.5154L64.3074 54.008C63.6034 55.656 62.7074 56.184 61.5074 56.184C60.7234 56.184 59.9714 55.928 59.4594 55.416L59.9874 54.568C60.4034 54.984 60.9154 55.208 61.5234 55.208C62.2754 55.208 62.7874 54.856 63.2674 53.8L63.6354 52.984L59.8754 44.584H61.0594L64.2274 51.736L67.3954 44.584ZM73.3209 53.08C70.8569 53.08 69.0329 51.288 69.0329 48.792C69.0329 46.296 70.8569 44.52 73.3209 44.52C75.7849 44.52 77.5929 46.296 77.5929 48.792C77.5929 51.288 75.7849 53.08 73.3209 53.08ZM73.3209 52.072C75.1129 52.072 76.4409 50.76 76.4409 48.792C76.4409 46.824 75.1129 45.512 73.3209 45.512C71.5289 45.512 70.1849 46.824 70.1849 48.792C70.1849 50.76 71.5289 52.072 73.3209 52.072ZM86.3601 44.584H87.4961V53H86.4081V51.464C85.8161 52.488 84.7281 53.08 83.3841 53.08C81.2401 53.08 79.8321 51.88 79.8321 49.464V44.584H80.9681V49.352C80.9681 51.144 81.8961 52.056 83.4961 52.056C85.2561 52.056 86.3601 50.92 86.3601 49V44.584ZM91.7658 46.232C92.2938 45.112 93.3658 44.52 94.9178 44.52V45.624C94.8218 45.624 94.7258 45.608 94.6458 45.608C92.8858 45.608 91.8138 46.728 91.8138 48.712V53H90.6778V44.584H91.7658V46.232ZM107.831 41.128H108.967V53H107.879V51.336C107.191 52.472 106.023 53.08 104.631 53.08C102.231 53.08 100.439 51.336 100.439 48.792C100.439 46.248 102.231 44.52 104.631 44.52C105.975 44.52 107.127 45.096 107.831 46.184V41.128ZM104.727 52.072C106.503 52.072 107.847 50.76 107.847 48.792C107.847 46.824 106.503 45.512 104.727 45.512C102.935 45.512 101.591 46.824 101.591 48.792C101.591 50.76 102.935 52.072 104.727 52.072ZM119.475 48.792C119.475 48.888 119.459 49.016 119.459 49.144H112.419C112.547 50.904 113.891 52.072 115.731 52.072C116.755 52.072 117.667 51.704 118.307 50.968L118.947 51.704C118.195 52.6 117.027 53.08 115.699 53.08C113.075 53.08 111.283 51.288 111.283 48.792C111.283 46.296 113.027 44.52 115.395 44.52C117.763 44.52 119.475 46.264 119.475 48.792ZM115.395 45.496C113.763 45.496 112.563 46.648 112.419 48.296H118.387C118.243 46.648 117.043 45.496 115.395 45.496ZM124.043 53.08C122.651 53.08 121.307 52.632 120.619 52.04L121.131 51.144C121.803 51.672 122.939 52.088 124.123 52.088C125.723 52.088 126.379 51.544 126.379 50.712C126.379 48.52 120.923 50.248 120.923 46.92C120.923 45.544 122.107 44.52 124.251 44.52C125.339 44.52 126.523 44.824 127.227 45.304L126.731 46.216C125.995 45.704 125.115 45.496 124.251 45.496C122.731 45.496 122.059 46.088 122.059 46.888C122.059 49.16 127.515 47.448 127.515 50.68C127.515 52.136 126.235 53.08 124.043 53.08ZM133.103 53.08C130.591 53.08 128.767 51.304 128.767 48.792C128.767 46.28 130.591 44.52 133.103 44.52C134.527 44.52 135.727 45.08 136.399 46.184L135.551 46.76C134.975 45.912 134.079 45.512 133.103 45.512C131.263 45.512 129.919 46.824 129.919 48.792C129.919 50.776 131.263 52.072 133.103 52.072C134.079 52.072 134.975 51.688 135.551 50.84L136.399 51.416C135.727 52.504 134.527 53.08 133.103 53.08ZM139.719 46.232C140.247 45.112 141.319 44.52 142.871 44.52V45.624C142.775 45.624 142.679 45.608 142.599 45.608C140.839 45.608 139.767 46.728 139.767 48.712V53H138.631V44.584H139.719V46.232ZM145.504 42.744C145.04 42.744 144.672 42.376 144.672 41.928C144.672 41.496 145.04 41.128 145.504 41.128C145.968 41.128 146.336 41.48 146.336 41.912C146.336 42.376 145.984 42.744 145.504 42.744ZM144.928 53V44.584H146.064V53H144.928ZM153.561 44.52C155.961 44.52 157.753 46.248 157.753 48.792C157.753 51.352 155.961 53.08 153.561 53.08C152.217 53.08 151.065 52.504 150.361 51.416V56.104H149.225V44.584H150.313V46.248C151.001 45.128 152.169 44.52 153.561 44.52ZM153.481 52.072C155.257 52.072 156.617 50.76 156.617 48.792C156.617 46.84 155.257 45.512 153.481 45.512C151.689 45.512 150.345 46.84 150.345 48.792C150.345 50.76 151.689 52.072 153.481 52.072ZM164.1 51.672L164.5 52.488C164.052 52.888 163.38 53.08 162.724 53.08C161.14 53.08 160.26 52.184 160.26 50.632V45.544H158.756V44.584H160.26V42.744H161.396V44.584H163.956V45.544H161.396V50.568C161.396 51.56 161.908 52.104 162.852 52.104C163.316 52.104 163.78 51.96 164.1 51.672ZM167.144 42.744C166.68 42.744 166.312 42.376 166.312 41.928C166.312 41.496 166.68 41.128 167.144 41.128C167.608 41.128 167.976 41.48 167.976 41.912C167.976 42.376 167.624 42.744 167.144 42.744ZM166.568 53V44.584H167.704V53H166.568ZM174.305 53.08C171.841 53.08 170.017 51.288 170.017 48.792C170.017 46.296 171.841 44.52 174.305 44.52C176.769 44.52 178.577 46.296 178.577 48.792C178.577 51.288 176.769 53.08 174.305 53.08ZM174.305 52.072C176.097 52.072 177.425 50.76 177.425 48.792C177.425 46.824 176.097 45.512 174.305 45.512C172.513 45.512 171.169 46.824 171.169 48.792C171.169 50.76 172.513 52.072 174.305 52.072ZM185.185 44.52C187.233 44.52 188.641 45.704 188.641 48.12V53H187.505V48.232C187.505 46.456 186.577 45.544 184.977 45.544C183.169 45.544 182.033 46.664 182.033 48.584V53H180.897V44.584H181.985V46.136C182.593 45.112 183.729 44.52 185.185 44.52ZM200.2 44.52C202.248 44.52 203.656 45.704 203.656 48.12V53H202.52V48.232C202.52 46.456 201.592 45.544 199.992 45.544C198.184 45.544 197.048 46.664 197.048 48.584V53H195.912V41.128H197.048V46.056C197.672 45.08 198.776 44.52 200.2 44.52ZM214.116 48.792C214.116 48.888 214.1 49.016 214.1 49.144H207.06C207.188 50.904 208.532 52.072 210.372 52.072C211.396 52.072 212.308 51.704 212.948 50.968L213.588 51.704C212.836 52.6 211.668 53.08 210.34 53.08C207.716 53.08 205.924 51.288 205.924 48.792C205.924 46.296 207.668 44.52 210.036 44.52C212.404 44.52 214.116 46.264 214.116 48.792ZM210.036 45.496C208.404 45.496 207.204 46.648 207.06 48.296H213.028C212.884 46.648 211.684 45.496 210.036 45.496ZM217.516 46.232C218.044 45.112 219.116 44.52 220.668 44.52V45.624C220.572 45.624 220.476 45.608 220.396 45.608C218.636 45.608 217.564 46.728 217.564 48.712V53H216.428V44.584H217.516V46.232ZM229.991 48.792C229.991 48.888 229.975 49.016 229.975 49.144H222.935C223.062 50.904 224.407 52.072 226.247 52.072C227.271 52.072 228.183 51.704 228.823 50.968L229.463 51.704C228.711 52.6 227.543 53.08 226.215 53.08C223.591 53.08 221.799 51.288 221.799 48.792C221.799 46.296 223.543 44.52 225.911 44.52C228.279 44.52 229.991 46.264 229.991 48.792ZM225.911 45.496C224.279 45.496 223.079 46.648 222.935 48.296H228.903C228.759 46.648 227.559 45.496 225.911 45.496ZM232.415 53.08C231.951 53.08 231.567 52.696 231.567 52.2C231.567 51.704 231.951 51.336 232.415 51.336C232.879 51.336 233.279 51.704 233.279 52.2C233.279 52.696 232.879 53.08 232.415 53.08ZM235.805 53.08C235.341 53.08 234.957 52.696 234.957 52.2C234.957 51.704 235.341 51.336 235.805 51.336C236.269 51.336 236.669 51.704 236.669 52.2C236.669 52.696 236.269 53.08 235.805 53.08ZM239.196 53.08C238.732 53.08 238.348 52.696 238.348 52.2C238.348 51.704 238.732 51.336 239.196 51.336C239.66 51.336 240.06 51.704 240.06 52.2C240.06 52.696 239.66 53.08 239.196 53.08Z" fill="#0B150F" fill-opacity="0.3"/>
<rect x="0.5" y="25.5" width="843" height="87" rx="3.5" stroke="#0B150F" stroke-opacity="0.16"/>
</svg>
