<svg width="60" height="36" viewBox="0 0 60 36" fill="none" xmlns="http://www.w3.org/2000/svg">
<rect x="12" y="36" width="36" height="36" rx="8" transform="rotate(-90 12 36)" fill="white"/>
<g clip-path="url(#clip0_216_9492)">
<path d="M37.2831 11.7177C36.8582 11.2935 36.2823 11.0552 35.6819 11.0552C35.0814 11.0552 34.5055 11.2935 34.0806 11.7177L23.9156 21.8827C23.6245 22.1722 23.3937 22.5165 23.2366 22.8957C23.0794 23.2749 22.999 23.6816 23 24.0921V25.3752C23 25.541 23.0659 25.6999 23.1831 25.8172C23.3003 25.9344 23.4592 26.0002 23.625 26.0002H24.9081C25.3186 26.0014 25.7252 25.9211 26.1045 25.764C26.4837 25.607 26.828 25.3763 27.1175 25.0852L37.2831 14.9196C37.7072 14.4947 37.9454 13.9189 37.9454 13.3187C37.9454 12.7184 37.7072 12.1426 37.2831 11.7177ZM26.2338 24.2015C25.8813 24.5516 25.405 24.7488 24.9081 24.7502H24.25V24.0921C24.2494 23.8458 24.2976 23.6018 24.3919 23.3742C24.4862 23.1467 24.6247 22.9401 24.7994 22.7665L32.5138 15.0521L33.9513 16.4896L26.2338 24.2015ZM36.3988 14.0358L34.8325 15.6027L33.395 14.1683L34.9619 12.6015C35.1525 12.4113 35.4109 12.3046 35.6802 12.3049C35.9495 12.3051 36.2076 12.4124 36.3978 12.603C36.588 12.7937 36.6947 13.052 36.6944 13.3213C36.6941 13.5906 36.5869 13.8488 36.3963 14.039L36.3988 14.0358Z" fill="#0B150F"/>
</g>
<defs>
<clipPath id="clip0_216_9492">
<rect width="15" height="15" fill="white" transform="translate(23 11)"/>
</clipPath>
</defs>
</svg>
