<svg width="24" height="24" viewBox="0 0 24 24" fill="none" xmlns="http://www.w3.org/2000/svg">
<g opacity="0.5">
<path d="M4.00005 9.49964C4.00011 8.64296 4.22028 7.80067 4.63945 7.05354C5.05862 6.30641 5.66272 5.67951 6.39382 5.23297C7.12491 4.78643 7.95848 4.53522 8.81457 4.50344C9.67066 4.47166 10.5206 4.66038 11.2828 5.05149C12.0449 5.4426 12.6939 6.02298 13.1673 6.73697C13.6407 7.45097 13.9227 8.27462 13.9863 9.12894C14.0498 9.98326 13.8928 10.8396 13.5303 11.6158C13.1678 12.392 12.612 13.062 11.9161 13.5616C13.3599 14.137 14.6041 15.1218 15.4956 16.395C16.3872 17.6681 16.8871 19.1741 16.9341 20.7276C16.9391 20.8274 16.9243 20.9271 16.8903 21.021C16.8563 21.1149 16.804 21.2011 16.7363 21.2745C16.6685 21.3479 16.5868 21.407 16.496 21.4484C16.4051 21.4898 16.3069 21.5127 16.207 21.5156C16.1072 21.5185 16.0078 21.5015 15.9147 21.4655C15.8215 21.4295 15.7365 21.3753 15.6646 21.306C15.5927 21.2367 15.5353 21.1537 15.4959 21.062C15.4565 20.9702 15.4358 20.8715 15.4351 20.7716C15.3838 19.0908 14.6802 17.496 13.4731 16.3252C12.2661 15.1544 10.6506 14.4996 8.96905 14.4996C7.28747 14.4996 5.67198 15.1544 4.46496 16.3252C3.25794 17.496 2.55426 19.0908 2.50305 20.7716C2.49304 20.9675 2.40673 21.1516 2.26261 21.2846C2.11849 21.4175 1.92803 21.4888 1.73202 21.483C1.53602 21.4773 1.35006 21.395 1.21399 21.2538C1.07792 21.1126 1.00256 20.9237 1.00405 20.7276C1.05129 19.1668 1.55592 17.6541 2.45529 16.3775C3.35465 15.1009 4.60916 14.1165 6.06305 13.5466C5.42372 13.0832 4.9034 12.4748 4.54479 11.7713C4.18617 11.0678 3.99948 10.2893 4.00005 9.49964ZM9.00005 5.99964C8.54042 5.99964 8.0853 6.09017 7.66066 6.26607C7.23602 6.44196 6.85018 6.69976 6.52518 7.02477C6.20017 7.34977 5.94236 7.73561 5.76647 8.16025C5.59058 8.58489 5.50005 9.04002 5.50005 9.49964C5.50005 9.95927 5.59058 10.4144 5.76647 10.839C5.94236 11.2637 6.20017 11.6495 6.52518 11.9745C6.85018 12.2995 7.23602 12.5573 7.66066 12.7332C8.0853 12.9091 8.54042 12.9996 9.00005 12.9996C9.92831 12.9996 10.8185 12.6309 11.4749 11.9745C12.1313 11.3181 12.5001 10.4279 12.5001 9.49964C12.5001 8.57138 12.1313 7.68115 11.4749 7.02477C10.8185 6.36839 9.92831 5.99964 9.00005 5.99964Z" fill="white"/>
<g clip-path="url(#clip0_1_638)">
<path d="M19 0C19.1462 0.000204021 19.2924 0.00666827 19.4381 0.019375C19.9025 0.059375 20.2437 0.403125 20.35 0.80625L20.53 1.49813C20.5412 1.53938 20.5794 1.59688 20.6625 1.63813C20.8069 1.70938 20.9462 1.79 21.08 1.87938C21.1569 1.93063 21.2256 1.93563 21.2669 1.92375L21.9562 1.73438C22.3587 1.62438 22.8262 1.7475 23.0937 2.12813C23.2625 2.36875 23.41 2.62313 23.5337 2.88938C23.7306 3.31125 23.6031 3.77813 23.3062 4.07125L22.7975 4.575C22.7669 4.605 22.7362 4.66688 22.7425 4.75875C22.7525 4.91938 22.7525 5.08063 22.7425 5.24125C22.7362 5.33313 22.7662 5.395 22.7975 5.425L23.3062 5.92875C23.6031 6.22188 23.7306 6.68875 23.5337 7.11063C23.4097 7.37662 23.2625 7.63115 23.0937 7.87125C22.8262 8.2525 22.3587 8.37563 21.9562 8.265L21.2675 8.07625C21.2256 8.06438 21.1569 8.06938 21.08 8.12063C20.9462 8.21005 20.8068 8.29064 20.6625 8.36188C20.5794 8.40313 20.5412 8.46063 20.5306 8.50188L20.3494 9.19313C20.2444 9.59688 19.9025 9.94063 19.4381 9.98063C19.1466 10.0062 18.8534 10.0062 18.5619 9.98063C18.0975 9.94063 17.7562 9.59688 17.6506 9.19313L17.47 8.50188C17.4587 8.46063 17.4206 8.40313 17.3375 8.36188C17.1931 8.29092 17.0536 8.21032 16.92 8.12063C16.8431 8.06938 16.7744 8.06438 16.7331 8.07625L16.0437 8.26563C15.6412 8.37563 15.1737 8.2525 14.9062 7.87188C14.7378 7.63133 14.5906 7.37663 14.4662 7.11063C14.2694 6.68875 14.3969 6.22188 14.6931 5.92875L15.2025 5.425C15.2337 5.395 15.2637 5.33313 15.2575 5.24125C15.2475 5.08057 15.2475 4.91943 15.2575 4.75875C15.2637 4.66688 15.2337 4.605 15.2025 4.575L14.6931 4.07125C14.3969 3.77813 14.2694 3.31125 14.4662 2.88938C14.5901 2.62329 14.7373 2.36875 14.9062 2.12875C15.1737 1.7475 15.6412 1.62438 16.0437 1.735L16.7325 1.92375C16.7744 1.93563 16.8431 1.93063 16.92 1.87938C17.0537 1.79 17.1931 1.70938 17.3375 1.63813C17.4206 1.59688 17.4587 1.53938 17.4694 1.49813L17.6506 0.806875C17.7556 0.403125 18.0975 0.059375 18.5619 0.01875C18.7062 0.00625 18.8525 0 19 0ZM18.6431 0.953125C18.6206 0.955 18.5756 0.975625 18.5575 1.04438L18.3769 1.735C18.285 2.08563 18.0337 2.33938 17.7531 2.47813C17.645 2.53188 17.5406 2.5925 17.4406 2.65938C17.18 2.83313 16.8344 2.92375 16.485 2.82813L15.7956 2.63875C15.7275 2.62 15.6862 2.64875 15.6737 2.66688C15.5362 2.86188 15.4162 3.06938 15.3156 3.28563C15.3069 3.305 15.3025 3.35438 15.3525 3.40438L15.8619 3.90813C16.1187 4.16188 16.2131 4.50625 16.1931 4.81813C16.1856 4.93926 16.1856 5.06074 16.1931 5.18188C16.2131 5.49375 16.1187 5.83813 15.8619 6.09188L15.3525 6.59563C15.3019 6.64563 15.3069 6.695 15.3156 6.71438C15.4169 6.93063 15.5362 7.1375 15.6737 7.3325C15.6862 7.35125 15.7269 7.38 15.7956 7.36125L16.4844 7.17188C16.8344 7.07625 17.18 7.16688 17.4406 7.34063C17.5412 7.4075 17.6456 7.46813 17.7537 7.52188C18.0331 7.66063 18.285 7.915 18.3769 8.265L18.5575 8.95563C18.5756 9.02375 18.6206 9.045 18.6431 9.04688C18.8806 9.0675 19.1194 9.0675 19.3569 9.04688C19.3794 9.045 19.4244 9.02438 19.4425 8.95563L19.6231 8.265C19.715 7.91438 19.9662 7.66063 20.2469 7.52188C20.355 7.46813 20.4594 7.4075 20.5594 7.34063C20.82 7.16688 21.1656 7.07625 21.515 7.17188L22.2044 7.36125C22.2725 7.37938 22.3137 7.35125 22.3262 7.33313C22.4637 7.1375 22.5831 6.93063 22.6844 6.71438C22.6931 6.695 22.6975 6.64563 22.6475 6.59563L22.1381 6.09188C21.8812 5.83813 21.7869 5.49375 21.8069 5.18188C21.8144 5.06074 21.8144 4.93926 21.8069 4.81813C21.7869 4.50625 21.8812 4.16188 22.1381 3.90813L22.6475 3.40438C22.6981 3.35438 22.6931 3.305 22.6844 3.28563C22.5835 3.06941 22.4636 2.86256 22.3262 2.6675C22.3137 2.64875 22.2731 2.62 22.2044 2.63875L21.5156 2.82813C21.1656 2.92375 20.82 2.83313 20.5594 2.65938C20.459 2.59221 20.3544 2.53167 20.2462 2.47813C19.9669 2.33938 19.715 2.085 19.6231 1.735L19.4425 1.04438C19.4244 0.975625 19.3794 0.955 19.3569 0.953125C19.1194 0.932503 18.8806 0.932503 18.6431 0.953125ZM20.875 5C20.875 5.49728 20.6774 5.9742 20.3258 6.32583C19.9742 6.67746 19.4973 6.875 19 6.875C18.5027 6.875 18.0258 6.67746 17.6742 6.32583C17.3225 5.9742 17.125 5.49728 17.125 5C17.125 4.50272 17.3225 4.02581 17.6742 3.67418C18.0258 3.32254 18.5027 3.125 19 3.125C19.4973 3.125 19.9742 3.32254 20.3258 3.67418C20.6774 4.02581 20.875 4.50272 20.875 5ZM19.9375 5C19.9374 4.75128 19.8385 4.51277 19.6626 4.33696C19.4866 4.16114 19.2481 4.06242 18.9994 4.0625C18.7506 4.06258 18.5121 4.16147 18.3363 4.3374C18.1605 4.51333 18.0618 4.7519 18.0619 5.00063C18.0619 5.24935 18.1608 5.48785 18.3368 5.66367C18.4239 5.75072 18.5273 5.81977 18.6411 5.86686C18.7549 5.91395 18.8768 5.93817 19 5.93813C19.1231 5.93808 19.2451 5.91379 19.3588 5.86662C19.4726 5.81945 19.576 5.75034 19.663 5.66323C19.7501 5.57611 19.8191 5.47271 19.8662 5.35891C19.9133 5.24511 19.9375 5.12316 19.9375 5Z" fill="white"/>
</g>
</g>
<defs>
<clipPath id="clip0_1_638">
<rect width="10" height="10" fill="white" transform="translate(14)"/>
</clipPath>
</defs>
</svg>
