<svg width="548" height="137" viewBox="0 0 548 137" fill="none" xmlns="http://www.w3.org/2000/svg">
<mask id="mask0_1_3061" style="mask-type:alpha" maskUnits="userSpaceOnUse" x="0" y="0" width="548" height="137">
<rect width="548" height="136.309" fill="#006699"/>
</mask>
<g mask="url(#mask0_1_3061)">
<path d="M-2.76151 273.541C-2.76151 272.788 7.95561 262.147 8.71396 262.147C9.39125 262.147 19.5717 271.895 20.3177 273.258C20.6531 273.871 20.5814 274.06 20.014 274.06C19.6055 274.06 16.9043 271.759 14.0112 268.946L8.75109 263.832L3.49096 268.946C-1.5026 273.801 -2.76151 274.726 -2.76151 273.541ZM31.0096 262.97C24.8461 256.87 19.8032 251.558 19.8032 251.165C19.8032 250.249 30.8707 239.238 31.7912 239.238C32.4625 239.238 66.7746 273.069 66.7746 273.731C66.7746 275.221 63.0187 271.879 48.4904 257.459L31.7645 240.859L26.5973 246L21.43 251.141L32.5897 262.278C38.7275 268.404 43.7494 273.561 43.7494 273.738C43.7494 275.139 40.7121 272.572 31.0096 262.97ZM89.3393 273.782C89.3393 273.348 95.7237 266.889 98.6776 264.335L101.339 262.034L106.659 267.245C112.365 272.833 113.347 274.06 112.118 274.06C111.711 274.06 109.147 271.895 106.42 269.249C103.693 266.603 101.291 264.438 101.082 264.438C100.873 264.438 98.4711 266.603 95.744 269.249C91.4932 273.374 89.3393 274.898 89.3393 273.782ZM123.341 263.199C117.304 257.226 112.365 252.047 112.365 251.689C112.365 250.896 123.308 239.238 124.053 239.238C124.618 239.238 158.875 273.171 158.875 273.731C158.875 275.22 155.133 271.893 140.7 257.568L124.084 241.075L120.167 245.082C118.013 247.286 115.75 249.661 115.138 250.361L114.025 251.632L124.937 262.524C130.939 268.515 135.85 273.561 135.85 273.738C135.85 275.134 132.844 272.601 123.341 263.199ZM181.386 273.258C181.988 272.158 192.248 262.147 192.774 262.147C193.006 262.147 195.884 264.828 199.17 268.104C206.506 275.42 205.862 276.319 198.35 269.249C195.538 266.603 193.036 264.438 192.79 264.438C192.544 264.438 190.111 266.603 187.384 269.249C184.657 271.895 182.093 274.06 181.687 274.06C181.122 274.06 181.051 273.87 181.386 273.258ZM215.345 263.178C209.234 257.193 204.056 252.014 203.836 251.669C203.547 251.214 205.064 249.42 209.356 245.14C212.611 241.894 215.501 239.238 215.778 239.238C216.38 239.238 249.877 271.957 250.545 273.197C250.916 273.887 250.85 274.06 250.213 274.06C249.776 274.06 241.899 266.597 232.709 257.476L215.999 240.891L214.722 241.999C210.836 245.368 205.847 250.546 205.847 251.21C205.847 251.631 210.631 256.579 216.478 262.205C227.344 272.661 228.612 274.06 227.219 274.06C226.798 274.06 221.455 269.163 215.345 263.178ZM71.8967 257.359C68.573 254.096 65.8536 251.19 65.8536 250.903C65.8536 250.616 75.9041 240.213 88.1881 227.784C100.472 215.355 110.523 204.949 110.523 204.659C110.523 204.026 101.178 194.795 100.538 194.795C100.292 194.795 90.0885 204.897 77.8642 217.245C65.64 229.594 55.4234 239.696 55.1607 239.696C54.898 239.696 50.0948 235.315 44.487 229.96C38.8793 224.605 33.7191 219.718 33.02 219.1L31.749 217.977L14.8247 234.793C5.51629 244.042 -2.24857 251.609 -2.43058 251.609C-3.93104 251.609 -0.540255 247.843 14.1479 233.194C23.448 223.918 31.3745 216.336 31.7622 216.345C32.1499 216.355 37.5376 221.185 43.7349 227.079C50.4362 233.454 55.2186 237.671 55.5354 237.487C55.8284 237.316 65.8461 227.28 77.7971 215.184C89.748 203.088 99.8762 193.133 100.304 193.063C100.787 192.984 103.35 195.199 107.053 198.896L113.024 204.856L103.141 214.831C97.7049 220.317 87.4603 230.633 80.3748 237.755L67.4921 250.704L72.5443 255.749C75.323 258.523 77.8351 260.737 78.1267 260.669C78.4184 260.6 88.5391 250.544 100.617 238.322C112.695 226.1 122.893 216.029 123.278 215.942C123.698 215.847 128.535 220.306 135.392 227.107C141.669 233.335 147.03 238.354 147.304 238.262C147.578 238.169 157.691 228.093 169.777 215.871C181.863 203.649 192.047 193.47 192.407 193.252C192.891 192.959 194.615 194.397 198.994 198.744C202.257 201.982 204.926 204.844 204.926 205.102C204.926 205.361 194.862 215.736 182.563 228.158C170.263 240.58 160.264 251 160.343 251.313C160.422 251.627 162.731 254.027 165.472 256.648L170.458 261.414L177.668 254.106C200.459 231.006 215.311 216.329 215.894 216.329C216.26 216.329 219.757 219.37 223.666 223.087C227.576 226.804 232.742 231.679 235.147 233.92L239.521 237.994L256.358 221.32C265.683 212.085 273.288 204.898 273.404 205.212C273.519 205.523 273.194 206.363 272.682 207.079C271.348 208.943 239.968 239.696 239.4 239.696C239.14 239.696 233.845 234.84 227.633 228.905C221.421 222.97 216.054 218.176 215.707 218.252C215.36 218.329 205.187 228.391 193.101 240.613C181.014 252.835 170.804 262.892 170.411 262.963C170.004 263.036 167.124 260.521 163.717 257.12L157.736 251.15L164.873 243.934C168.798 239.965 179.002 229.695 187.547 221.112C196.092 212.528 203.084 205.292 203.084 205.032C203.084 204.212 193.437 195.18 192.726 195.335C192.354 195.416 182.26 205.379 170.296 217.475C158.332 229.571 148.151 239.753 147.672 240.101C146.87 240.685 145.888 239.827 135.096 229.105L123.389 217.475L100.665 240.384L77.9399 263.293L71.8967 257.359ZM255.634 257.163C252.566 253.917 250.055 251.077 250.055 250.851C250.055 250.173 273.037 227.588 273.38 227.929C274.093 228.638 271.982 231.006 262.621 239.993C257.214 245.185 252.572 249.836 252.307 250.33C251.887 251.11 252.482 251.888 256.906 256.339L261.988 261.451L267.462 256.072C270.472 253.113 273.072 250.693 273.238 250.693C273.405 250.693 273.541 251.019 273.541 251.419C273.541 252.414 262.991 263.064 262.005 263.064C261.569 263.064 258.702 260.408 255.634 257.163ZM-2.76151 227.938C-2.76151 227.519 2.15476 222.257 8.16354 216.245L19.0886 205.314L13.9309 200.182L8.77317 195.051L3.30853 200.421C0.302983 203.374 -2.29232 205.791 -2.45881 205.791C-2.62529 205.791 -2.76151 205.464 -2.76151 205.065C-2.76151 204.104 7.77129 193.42 8.71873 193.42C9.65433 193.42 20.7242 204.422 20.7242 205.352C20.7242 206.018 -1.77576 228.7 -2.43729 228.7C-2.61561 228.7 -2.76151 228.357 -2.76151 227.938ZM31.7222 195.015C19.4085 182.798 9.04323 172.802 8.68833 172.802C8.33343 172.802 5.97468 174.878 3.44666 177.415C-1.57591 182.455 -2.76151 183.365 -2.76151 182.178C-2.76151 181.406 6.51049 171.674 8.00759 170.875C8.75836 170.475 10.5342 172.046 21.132 182.489C27.8728 189.132 38.2052 199.306 44.0927 205.098L54.7974 215.63L59.865 210.604C62.6522 207.839 64.9317 205.368 64.9306 205.111C64.9296 204.855 54.8271 194.755 42.481 182.667C30.1348 170.579 19.8539 160.4 19.6344 160.047C19.342 159.577 20.8169 157.828 25.1538 153.503C28.409 150.258 31.3434 147.602 31.6749 147.602C32.0064 147.602 42.5332 157.744 55.0679 170.139L77.8583 192.677L89.0313 181.594C95.1765 175.498 100.412 170.511 100.665 170.511C100.918 170.511 101.945 171.354 102.946 172.383C103.947 173.413 114.258 183.553 125.86 194.915L146.954 215.575L151.994 210.576C154.766 207.827 157.033 205.368 157.031 205.111C157.03 204.855 146.928 194.755 134.582 182.667C122.236 170.579 111.955 160.4 111.735 160.047C111.443 159.577 112.918 157.828 117.255 153.503C120.51 150.258 123.444 147.602 123.776 147.602C124.107 147.602 134.636 157.746 147.173 170.144L169.968 192.685L181.118 181.598C187.251 175.5 192.484 170.511 192.748 170.511C193.011 170.511 194.046 171.354 195.047 172.383C196.048 173.413 206.359 183.553 217.961 194.915L239.055 215.575L244.095 210.576C246.866 207.827 249.133 205.368 249.132 205.111C249.131 204.855 239.029 194.755 226.683 182.667C214.337 170.579 204.056 160.4 203.836 160.047C203.544 159.577 205.019 157.828 209.356 153.503C212.611 150.258 215.539 147.602 215.863 147.602C216.187 147.602 226.619 157.602 239.046 169.824C251.472 182.046 261.886 192.045 262.188 192.045C262.49 192.045 264.805 189.97 267.333 187.433C272.363 182.385 273.541 181.482 273.541 182.675C273.541 183.619 262.957 194.413 262.203 194.238C261.893 194.166 251.367 184.036 238.811 171.727L215.981 149.347L213.792 151.188C209.831 154.521 205.752 158.918 205.917 159.677C206.005 160.081 216.128 170.25 228.412 182.274C240.696 194.299 250.813 204.406 250.895 204.735C251.083 205.491 239.95 217.245 239.045 217.245C238.675 217.245 228.14 207.106 215.633 194.713L192.893 172.181L181.752 183.259C175.625 189.351 170.334 194.336 169.995 194.336C169.656 194.336 159.15 184.206 146.649 171.825L123.919 149.314L121.711 151.172C117.733 154.518 113.651 158.916 113.816 159.677C113.904 160.081 124.027 170.25 136.311 182.274C148.595 194.299 158.712 204.406 158.794 204.735C158.983 205.493 147.848 217.245 146.94 217.245C146.569 217.245 136.178 207.246 123.849 195.024C111.52 182.802 101.145 172.802 100.793 172.802C100.442 172.802 95.2873 177.647 89.3393 183.569C83.3914 189.491 78.2323 194.336 77.8748 194.336C77.5172 194.336 67.0945 184.285 54.7131 172C42.3318 159.715 32.0286 149.604 31.8173 149.53C31.6059 149.457 29.2205 151.499 26.5163 154.068C23.2149 157.204 21.6449 159.013 21.7375 159.575C21.8134 160.036 31.926 170.25 44.2099 182.275C56.4939 194.299 66.6114 204.406 66.6932 204.735C66.8866 205.511 55.7337 217.248 54.8128 217.237C54.4267 217.233 44.0359 207.233 31.7222 195.015ZM71.6159 165.484L65.6354 159.513L72.7723 152.298C76.6976 148.329 86.9009 138.059 95.4462 129.475C103.991 120.891 110.983 113.655 110.983 113.395C110.983 112.696 101.476 103.616 100.744 103.616C100.4 103.616 97.2302 106.554 93.6998 110.145C74.9919 129.174 55.5358 148.518 55.1042 148.518C54.8344 148.518 49.4596 143.415 43.1603 137.178L31.707 125.838L14.7321 142.905C5.39597 152.292 -2.35944 159.973 -2.50211 159.973C-3.8198 159.973 -0.438679 156.207 14.073 141.511C23.332 132.135 31.236 124.391 31.6375 124.303C32.0955 124.202 36.6265 128.377 43.7948 135.505L55.2221 146.868L60.0156 142.08C62.652 139.447 72.6582 129.355 82.2516 119.653C91.845 109.951 99.9793 101.834 100.328 101.616C100.789 101.327 102.581 102.826 106.893 107.107C110.156 110.346 112.825 113.207 112.825 113.466C112.825 113.724 102.762 124.099 90.4617 136.521C78.1619 148.944 68.1632 159.363 68.2424 159.677C68.3216 159.99 70.6297 162.391 73.3716 165.012L78.3569 169.777L85.5671 162.47C109.002 138.718 123.218 124.695 123.848 124.709C124.244 124.718 129.638 129.548 135.836 135.443C142.537 141.817 147.319 146.035 147.636 145.85C147.929 145.68 157.947 135.643 169.898 123.547C181.849 111.451 191.977 101.497 192.405 101.426C192.888 101.347 195.451 103.562 199.154 107.259L205.125 113.22L195.242 123.194C189.806 128.68 179.561 138.996 172.476 146.118L159.593 159.067L164.645 164.112C167.424 166.887 169.936 169.101 170.228 169.032C170.519 168.963 180.641 158.907 192.719 146.685C206.182 133.064 215.066 124.414 215.675 124.335C216.436 124.236 219.258 126.787 227.717 135.217C233.794 141.273 238.976 146.227 239.232 146.227C239.489 146.227 246.951 138.998 255.814 130.162C264.677 121.327 272.292 113.897 272.735 113.652C273.364 113.304 273.541 113.379 273.541 113.997C273.541 114.774 241.433 147.221 239.759 148.136C239.02 148.54 237.34 147.055 227.543 137.336C221.296 131.138 215.983 126.064 215.736 126.06C215.489 126.055 205.107 136.313 192.664 148.854L170.041 171.656L163.998 165.723C160.674 162.459 157.954 159.554 157.954 159.267C157.954 158.98 168.005 148.576 180.289 136.147C192.573 123.718 202.623 113.312 202.623 113.022C202.623 112.39 193.279 103.158 192.639 103.158C192.392 103.158 182.189 113.261 169.965 125.609C157.741 137.957 147.534 148.06 147.283 148.06C147.032 148.06 141.744 143.204 135.532 137.269C129.32 131.333 123.954 126.54 123.607 126.616C123.26 126.692 113.087 136.754 101 148.976C88.9131 161.198 78.7027 171.256 78.3102 171.326C77.9036 171.399 75.0229 168.885 71.6159 165.484ZM256.143 165.887C252.921 162.839 250.213 160.027 250.124 159.636C249.969 158.955 270.942 137.551 272.735 136.56C273.362 136.214 273.541 136.288 273.541 136.893C273.541 137.321 268.619 142.603 262.604 148.631L251.667 159.59L256.733 164.348C259.519 166.965 262.009 169.113 262.267 169.121C262.525 169.13 264.805 167.061 267.333 164.524C272.363 159.475 273.541 158.573 273.541 159.766C273.541 160.524 263.123 171.427 262.399 171.427C262.18 171.427 259.364 168.934 256.143 165.887ZM-2.76151 136.301C-2.76151 135.882 2.13811 130.637 8.12653 124.646L19.0146 113.752L17.1411 111.548C16.1107 110.335 13.7988 107.903 12.0035 106.143L8.73951 102.942L3.18274 108.548C0.126513 111.632 -2.46122 114.154 -2.56777 114.154C-2.67433 114.154 -2.76151 113.827 -2.76151 113.426C-2.76151 112.58 8.17432 101.325 8.99641 101.325C9.74494 101.325 20.7242 112.981 20.7242 113.776C20.7242 114.402 -1.81426 137.064 -2.43729 137.064C-2.61561 137.064 -2.76151 136.721 -2.76151 136.301ZM31.4119 103.077L8.7131 80.5641L3.2785 85.9047C0.289468 88.8421 -2.29232 91.2453 -2.45881 91.2453C-2.62529 91.2453 -2.76151 90.9187 -2.76151 90.5196C-2.76151 89.6939 7.70449 78.8744 8.50324 78.8744C8.79003 78.8744 9.84384 79.7171 10.845 80.7469C11.8462 81.7768 22.1576 91.9163 33.7593 103.279L54.8532 123.939L59.8929 118.94C62.6647 116.19 64.9317 113.731 64.9306 113.475C64.9296 113.219 54.8271 103.119 42.481 91.0305C30.1348 78.9423 19.8539 68.7632 19.6344 68.4103C19.342 67.9401 20.8169 66.1917 25.1538 61.867C28.409 58.621 31.3431 55.9653 31.674 55.9653C32.005 55.9653 42.389 65.9651 54.7497 78.1871C67.1103 90.4092 77.4128 100.409 77.6442 100.409C77.8755 100.409 82.6221 95.8592 88.192 90.2984C93.7619 84.7376 98.9138 79.8742 99.6406 79.491L100.962 78.7942L113.456 91.0868C120.327 97.8477 130.663 108.018 136.424 113.687L146.898 123.994L151.966 118.967C154.753 116.203 157.033 113.731 157.031 113.475C157.03 113.219 146.928 103.119 134.582 91.0305C122.236 78.9423 111.955 68.7632 111.735 68.4103C111.443 67.9401 112.918 66.1917 117.255 61.867C120.51 58.6211 123.444 55.9653 123.776 55.9653C124.107 55.9653 134.636 66.1091 147.173 78.5072L169.968 101.049L181.118 89.9617C187.251 83.8637 192.484 78.8744 192.748 78.8744C193.011 78.8744 194.046 79.7171 195.047 80.7469C196.048 81.7768 206.359 91.9163 217.961 103.279L239.055 123.939L244.095 118.94C246.866 116.19 249.133 113.731 249.132 113.475C249.131 113.219 239.029 103.119 226.683 91.0305C214.337 78.9423 204.056 68.7632 203.836 68.4103C203.544 67.9401 205.019 66.1917 209.356 61.867C212.611 58.621 215.545 55.9653 215.877 55.9653C216.208 55.9653 226.732 66.1045 239.264 78.4968L262.048 101.028L267.629 95.5641C270.786 92.4742 273.298 90.3458 273.412 90.6659C273.523 90.9773 273.201 91.802 272.698 92.4987C271.268 94.4773 262.684 102.7 262.049 102.7C261.736 102.7 251.251 92.57 238.75 80.189L216.02 57.678L213.811 59.5358C209.834 62.8819 205.752 67.2798 205.917 68.0402C206.005 68.4443 216.128 78.6132 228.412 90.6377C240.696 102.662 250.813 112.769 250.895 113.098C251.084 113.857 239.949 125.609 239.041 125.609C238.67 125.609 228.279 115.609 215.95 103.387C203.621 91.1652 193.246 81.1653 192.894 81.1653C192.542 81.1653 187.388 86.0106 181.44 91.9326C175.492 97.8546 170.345 102.7 170.002 102.7C169.659 102.7 159.15 92.57 146.649 80.189L123.919 57.678L121.711 59.5358C117.733 62.8819 113.651 67.2798 113.816 68.0402C113.904 68.4443 124.027 78.6132 136.311 90.6377C148.595 102.662 158.712 112.769 158.794 113.098C158.987 113.872 147.839 125.609 146.912 125.609C146.524 125.609 137.505 116.936 126.868 106.336C116.232 95.7354 105.926 85.6133 103.967 83.8423L100.405 80.6223L89.3401 91.3174C83.2544 97.1998 77.9603 102.081 77.5755 102.164C77.1541 102.255 67.9185 93.4397 54.3487 79.9949L31.8215 57.6751L29.6115 59.5343C25.6188 62.8933 21.5499 67.2793 21.7155 68.0456C21.8035 68.4528 31.926 78.6211 44.2099 90.6421C56.4939 102.663 66.6114 112.768 66.6932 113.097C66.8866 113.875 55.7337 125.612 54.8128 125.6C54.4267 125.594 43.8963 115.459 31.4119 103.077ZM71.8967 74.0861C68.573 70.8226 65.8536 67.9176 65.8536 67.6306C65.8536 67.3435 75.9041 56.9396 88.1881 44.5107C100.472 32.0819 110.523 21.6757 110.523 21.386C110.523 20.7535 101.178 11.5216 100.538 11.5216C100.292 11.5216 90.0885 21.6245 77.8642 33.9726C65.64 46.3206 55.4234 56.4235 55.1607 56.4235C54.898 56.4235 50.0948 52.0421 44.487 46.6871C38.8793 41.3321 33.7191 36.4451 33.02 35.8272L31.749 34.7036L14.6694 51.6345C5.17695 61.0443 -2.50425 68.3139 -2.62197 67.9993C-2.73847 67.688 -2.41778 66.8632 -1.90932 66.1665C-0.16017 63.7699 31.1167 33.0562 31.7916 33.0725C32.1631 33.0817 37.5376 37.9118 43.7349 43.8065C50.4362 50.1806 55.2186 54.3985 55.5354 54.2139C55.8284 54.0432 65.8461 44.0067 77.7971 31.9107C89.748 19.8147 99.8762 9.86039 100.304 9.79001C100.787 9.71065 103.35 11.9259 107.053 15.6228L113.024 21.5835L103.141 31.558C97.7049 37.044 87.4603 47.3597 80.3748 54.4817L67.4921 67.4308L72.5443 72.4756C75.323 75.2503 77.8351 77.4642 78.1267 77.3956C78.4184 77.3269 88.543 67.271 100.626 55.0489C113.298 42.2308 122.942 32.8271 123.415 32.8271C123.866 32.8271 129.453 37.8625 135.832 44.0168L147.429 55.2064L152.161 50.4313C154.764 47.805 164.746 37.7182 174.344 28.0162C183.942 18.3142 192.08 10.1975 192.429 9.97917C192.89 9.69056 194.682 11.19 198.994 15.4707C202.257 18.7095 204.926 21.5708 204.926 21.8294C204.926 22.0879 194.862 32.4629 182.563 44.885C170.263 57.3071 160.264 67.727 160.343 68.0404C160.422 68.3537 162.731 70.7545 165.472 73.3755L170.458 78.141L177.668 70.8331C200.932 47.2544 215.318 33.0562 215.946 33.0562C216.34 33.0562 221.688 38.0534 227.83 44.1612L238.998 55.2662L255.939 38.4339C265.256 29.1762 273.028 21.6016 273.21 21.6016C274.711 21.6016 271.32 25.3682 256.632 40.0172C247.331 49.2927 239.403 56.8817 239.014 56.8817C238.624 56.8817 233.333 51.9293 227.257 45.8765C221.18 39.8236 215.954 34.9268 215.642 34.9946C215.331 35.0624 205.187 45.1178 193.101 57.3399C181.014 69.5619 170.804 79.6193 170.411 79.6896C170.004 79.7625 167.124 77.2484 163.717 73.8472L157.736 67.8768L164.873 60.6611C168.798 56.6924 179.002 46.4223 187.547 37.8387C196.092 29.255 203.084 22.019 203.084 21.7587C203.084 21.0597 193.577 11.9798 192.845 11.9798C192.501 11.9798 189.331 14.9179 185.801 18.5089C167.217 37.411 147.638 56.8817 147.214 56.8817C146.949 56.8817 141.628 51.8302 135.39 45.6562C129.152 39.4822 123.854 34.4274 123.617 34.4234C123.38 34.4197 113.006 44.6769 100.563 57.218L77.9399 80.0199L71.8967 74.0861ZM256.061 74.0648C252.758 70.813 250.055 67.9459 250.055 67.6935C250.055 67.1539 271.552 45.5692 272.735 44.9203C273.36 44.5774 273.541 44.6526 273.541 45.2558C273.541 45.6834 268.775 50.8031 262.949 56.633C257.124 62.4628 252.358 67.4526 252.358 67.7214C252.358 68.242 261.29 77.1568 262.092 77.4363C262.353 77.5274 264.962 75.2594 267.889 72.3963C271.319 69.0426 273.291 67.4142 273.434 67.819C273.564 68.1885 271.268 70.8228 267.861 74.2123L262.067 79.9772L256.061 74.0648ZM-2.76151 44.665C-2.76151 44.2459 2.15476 38.9841 8.16354 32.9721L19.0886 22.0412L13.9309 16.9095L8.77317 11.7778L3.30853 17.1479C0.302983 20.1014 -2.29232 22.518 -2.45881 22.518C-2.62529 22.518 -2.76151 22.1914 -2.76151 21.7922C-2.76151 20.8312 7.77129 10.1471 8.71873 10.1471C9.65433 10.1471 20.7242 21.1488 20.7242 22.0786C20.7242 22.7455 -1.77576 45.4271 -2.43729 45.4271C-2.61561 45.4271 -2.76151 45.0842 -2.76151 44.665ZM36.9487 16.8911C27.5187 7.49627 19.8032 -0.338652 19.8032 -0.519845C19.8032 -2.0106 23.5591 1.3318 38.0874 15.7514L54.8133 32.3521L59.9806 27.2109L65.1478 22.0697L53.9881 10.9324C47.8503 4.80683 42.8284 -0.349947 42.8284 -0.527144C42.8284 -0.704332 43.1734 -0.849304 43.5951 -0.849304C44.5685 -0.849304 66.7746 21.0845 66.7746 22.046C66.7746 22.9618 55.7071 33.9726 54.7866 33.9726C54.4058 33.9726 46.3788 26.2859 36.9487 16.8911ZM129.05 16.8911C119.62 7.49627 111.904 -0.338652 111.904 -0.519845C111.904 -2.0106 115.66 1.3318 130.188 15.7514L146.914 32.3521L152.081 27.2109L157.249 22.0697L145.974 10.7824C139.684 4.48542 134.951 -0.596982 135.268 -0.713085C135.581 -0.827557 136.41 -0.508228 137.11 -0.00346732C139.335 1.60078 158.875 21.3925 158.875 22.0422C158.875 22.9193 147.797 33.9726 146.918 33.9726C146.52 33.9726 138.48 26.2859 129.05 16.8911ZM221.15 16.8911C211.72 7.49627 204.005 -0.338652 204.005 -0.519845C204.005 -2.01058 207.76 1.33144 222.286 15.7488L239.01 32.3469L244.072 27.3257C246.856 24.5641 249.134 22.06 249.134 21.7612C249.134 21.4623 244.275 16.5312 238.335 10.803C232.396 5.07487 227.429 0.109765 227.298 -0.230545C227.161 -0.584372 227.361 -0.849304 227.765 -0.849304C228.533 -0.849304 250.651 20.4883 250.895 21.4641C251.089 22.2389 239.936 33.9726 239.006 33.9726C238.616 33.9726 230.58 26.2859 221.15 16.8911ZM71.9619 5.90889C66.3082 0.371605 65.333 -0.849304 66.5638 -0.849304C66.9723 -0.849304 69.6735 1.45202 72.5666 4.26475L77.8267 9.37884L83.0869 4.26475C85.9799 1.45202 88.6812 -0.849304 89.0896 -0.849304C89.6571 -0.849304 89.7287 -0.660175 89.3933 -0.0474846C88.6714 1.27148 78.4778 11.0634 77.8267 11.0634C77.4957 11.0634 74.8565 8.74389 71.9619 5.90889ZM163.572 5.40985C160.482 2.30037 157.954 -0.379993 157.954 -0.546524C157.954 -1.70707 160.125 -0.151079 164.667 4.26475L169.928 9.37884L175.188 4.26475C179.73 -0.151079 181.901 -1.70707 181.901 -0.546524C181.901 0.12004 170.615 11.0634 169.928 11.0634C169.522 11.0634 166.662 8.51933 163.572 5.40985ZM255.673 5.40985C252.583 2.30037 250.055 -0.379993 250.055 -0.546524C250.055 -1.70707 252.226 -0.151079 256.768 4.26475L262.028 9.37884L267.289 4.26475C272.256 -0.564598 273.541 -1.51367 273.541 -0.352613C273.541 0.460477 262.863 11.0634 262.044 11.0634C261.63 11.0634 258.763 8.51933 255.673 5.40985Z" fill="#006699"/>
<path d="M273.542 273.541C273.542 272.788 284.259 262.147 285.017 262.147C285.694 262.147 295.875 271.895 296.621 273.258C296.956 273.871 296.885 274.06 296.317 274.06C295.909 274.06 293.208 271.759 290.314 268.946L285.054 263.832L279.794 268.946C274.801 273.801 273.542 274.726 273.542 273.541ZM307.313 262.97C301.149 256.87 296.106 251.558 296.106 251.165C296.106 250.249 307.174 239.238 308.094 239.238C308.766 239.238 343.078 273.069 343.078 273.731C343.078 275.221 339.322 271.879 324.794 257.459L308.068 240.859L302.9 246L297.733 251.141L308.893 262.278C315.031 268.404 320.053 273.561 320.053 273.738C320.053 275.139 317.015 272.572 307.313 262.97ZM365.643 273.782C365.643 273.348 372.027 266.889 374.981 264.335L377.642 262.034L382.962 267.245C388.668 272.833 389.65 274.06 388.421 274.06C388.015 274.06 385.451 271.895 382.724 269.249C379.996 266.603 377.594 264.438 377.385 264.438C377.177 264.438 374.774 266.603 372.047 269.249C367.796 273.374 365.643 274.898 365.643 273.782ZM399.645 263.199C393.607 257.226 388.668 252.047 388.668 251.689C388.668 250.896 399.611 239.238 400.356 239.238C400.921 239.238 435.179 273.171 435.179 273.731C435.179 275.22 431.436 271.893 417.004 257.568L400.387 241.075L396.471 245.082C394.317 247.286 392.053 249.661 391.441 250.361L390.328 251.632L401.241 262.524C407.243 268.515 412.153 273.561 412.153 273.738C412.153 275.134 409.147 272.601 399.645 263.199ZM457.689 273.258C458.292 272.158 468.552 262.147 469.077 262.147C469.309 262.147 472.188 264.828 475.473 268.104C482.81 275.42 482.166 276.319 474.653 269.249C471.841 266.603 469.339 264.438 469.093 264.438C468.847 264.438 466.415 266.603 463.688 269.249C460.96 271.895 458.396 274.06 457.99 274.06C457.425 274.06 457.354 273.87 457.689 273.258ZM491.648 263.178C485.538 257.193 480.359 252.014 480.139 251.669C479.85 251.214 481.367 249.42 485.659 245.14C488.914 241.894 491.804 239.238 492.081 239.238C492.684 239.238 526.181 271.957 526.848 273.197C527.219 273.887 527.153 274.06 526.517 274.06C526.079 274.06 518.202 266.597 509.012 257.476L492.302 240.891L491.025 241.999C487.139 245.368 482.15 250.546 482.15 251.21C482.15 251.631 486.934 256.579 492.781 262.205C503.647 272.661 504.915 274.06 503.522 274.06C503.101 274.06 497.758 269.163 491.648 263.178ZM348.2 257.359C344.876 254.096 342.157 251.19 342.157 250.903C342.157 250.616 352.207 240.213 364.491 227.784C376.775 215.355 386.826 204.949 386.826 204.659C386.826 204.026 377.481 194.795 376.841 194.795C376.595 194.795 366.392 204.897 354.167 217.245C341.943 229.594 331.727 239.696 331.464 239.696C331.201 239.696 326.398 235.315 320.79 229.96C315.182 224.605 310.022 219.718 309.323 219.1L308.052 217.977L291.128 234.793C281.82 244.042 274.055 251.609 273.873 251.609C272.372 251.609 275.763 247.843 290.451 233.194C299.751 223.918 307.678 216.336 308.065 216.345C308.453 216.355 313.841 221.185 320.038 227.079C326.739 233.454 331.522 237.671 331.839 237.487C332.132 237.316 342.149 227.28 354.1 215.184C366.051 203.088 376.179 193.133 376.607 193.063C377.09 192.984 379.653 195.199 383.356 198.896L389.327 204.856L379.444 214.831C374.008 220.317 363.764 230.633 356.678 237.755L343.795 250.704L348.848 255.749C351.626 258.523 354.138 260.737 354.43 260.669C354.722 260.6 364.842 250.544 376.92 238.322C388.999 226.1 399.196 216.029 399.581 215.942C400.002 215.847 404.839 220.306 411.695 227.107C417.972 233.335 423.333 238.354 423.607 238.262C423.881 238.169 433.994 228.093 446.08 215.871C458.166 203.649 468.35 193.47 468.711 193.252C469.194 192.959 470.919 194.397 475.298 198.744C478.56 201.982 481.229 204.844 481.229 205.102C481.229 205.361 471.166 215.736 458.866 228.158C446.566 240.58 436.567 251 436.646 251.313C436.726 251.627 439.034 254.027 441.776 256.648L446.761 261.414L453.971 254.106C476.763 231.006 491.614 216.329 492.197 216.329C492.563 216.329 496.06 219.37 499.969 223.087C503.879 226.804 509.045 231.679 511.451 233.92L515.824 237.994L532.661 221.32C541.986 212.085 549.591 204.898 549.707 205.212C549.822 205.523 549.497 206.363 548.985 207.079C547.651 208.943 516.272 239.696 515.704 239.696C515.443 239.696 510.148 234.84 503.936 228.905C497.724 222.97 492.358 218.176 492.011 218.252C491.664 218.329 481.491 228.391 469.404 240.613C457.317 252.835 447.107 262.892 446.714 262.963C446.308 263.036 443.427 260.521 440.02 257.12L434.039 251.15L441.176 243.934C445.102 239.965 455.305 229.695 463.85 221.112C472.396 212.528 479.387 205.292 479.387 205.032C479.387 204.212 469.74 195.18 469.03 195.335C468.657 195.416 458.564 205.379 446.599 217.475C434.635 229.571 424.454 239.753 423.975 240.101C423.173 240.685 422.191 239.827 411.399 229.105L399.693 217.475L376.968 240.384L354.243 263.293L348.2 257.359ZM531.937 257.163C528.869 253.917 526.359 251.077 526.359 250.851C526.359 250.173 549.34 227.588 549.683 227.929C550.396 228.638 548.285 231.006 538.924 239.993C533.517 245.185 528.875 249.836 528.61 250.33C528.19 251.11 528.785 251.888 533.209 256.339L538.291 261.451L543.765 256.072C546.776 253.113 549.375 250.693 549.542 250.693C549.708 250.693 549.844 251.019 549.844 251.419C549.844 252.414 539.294 263.064 538.308 263.064C537.872 263.064 535.005 260.408 531.937 257.163ZM273.542 227.938C273.542 227.519 278.458 222.257 284.467 216.245L295.392 205.314L290.234 200.182L285.076 195.051L279.612 200.421C276.606 203.374 274.011 205.791 273.844 205.791C273.678 205.791 273.542 205.464 273.542 205.065C273.542 204.104 284.075 193.42 285.022 193.42C285.958 193.42 297.027 204.422 297.027 205.352C297.027 206.018 274.527 228.7 273.866 228.7C273.688 228.7 273.542 228.357 273.542 227.938ZM308.025 195.015C295.712 182.798 285.346 172.802 284.992 172.802C284.637 172.802 282.278 174.878 279.75 177.415C274.727 182.455 273.542 183.365 273.542 182.178C273.542 181.406 282.814 171.674 284.311 170.875C285.062 170.475 286.837 172.046 297.435 182.489C304.176 189.132 314.508 199.306 320.396 205.098L331.101 215.63L336.168 210.604C338.955 207.839 341.235 205.368 341.234 205.111C341.233 204.855 331.13 194.755 318.784 182.667C306.438 170.579 296.157 160.4 295.938 160.047C295.645 159.577 297.12 157.828 301.457 153.503C304.712 150.258 307.647 147.602 307.978 147.602C308.31 147.602 318.836 157.744 331.371 170.139L354.161 192.677L365.335 181.594C371.48 175.498 376.715 170.511 376.968 170.511C377.221 170.511 378.248 171.354 379.249 172.383C380.25 173.413 390.562 183.553 402.163 194.915L423.257 215.575L428.297 210.576C431.069 207.827 433.336 205.368 433.335 205.111C433.334 204.855 423.231 194.755 410.885 182.667C398.539 170.579 388.258 160.4 388.038 160.047C387.746 159.577 389.221 157.828 393.558 153.503C396.813 150.258 399.748 147.602 400.079 147.602C400.41 147.602 410.939 157.746 423.476 170.144L446.271 192.685L457.422 181.598C463.554 175.5 468.788 170.511 469.051 170.511C469.314 170.511 470.349 171.354 471.35 172.383C472.351 173.413 482.663 183.553 494.264 194.915L515.358 215.575L520.398 210.576C523.17 207.827 525.437 205.368 525.435 205.111C525.435 204.855 515.332 194.755 502.986 182.667C490.64 170.579 480.359 160.4 480.139 160.047C479.847 159.577 481.322 157.828 485.659 153.503C488.914 150.258 491.842 147.602 492.166 147.602C492.49 147.602 502.922 157.602 515.349 169.824C527.776 182.046 538.19 192.045 538.491 192.045C538.793 192.045 541.108 189.97 543.636 187.433C548.666 182.385 549.844 181.482 549.844 182.675C549.844 183.619 539.261 194.413 538.506 194.238C538.197 194.166 527.67 184.036 515.114 171.727L492.284 149.347L490.095 151.188C486.135 154.521 482.055 158.918 482.22 159.677C482.308 160.081 492.431 170.25 504.715 182.274C516.999 194.299 527.116 204.406 527.198 204.735C527.387 205.491 516.253 217.245 515.348 217.245C514.978 217.245 504.443 207.106 491.936 194.713L469.196 172.181L458.055 183.259C451.928 189.351 446.637 194.336 446.298 194.336C445.959 194.336 435.454 184.206 422.952 171.825L400.222 149.314L398.014 151.172C394.036 154.518 389.954 158.916 390.12 159.677C390.208 160.081 400.33 170.25 412.614 182.274C424.898 194.299 435.015 204.406 435.097 204.735C435.286 205.493 424.151 217.245 423.244 217.245C422.872 217.245 412.481 207.246 400.152 195.024C387.823 182.802 377.448 172.802 377.096 172.802C376.745 172.802 371.591 177.647 365.643 183.569C359.695 189.491 354.536 194.336 354.178 194.336C353.82 194.336 343.398 184.285 331.016 172C318.635 159.715 308.332 149.604 308.121 149.53C307.909 149.457 305.524 151.499 302.82 154.068C299.518 157.204 297.948 159.013 298.041 159.575C298.117 160.036 308.229 170.25 320.513 182.275C332.797 194.299 342.915 204.406 342.996 204.735C343.19 205.511 332.037 217.248 331.116 217.237C330.73 217.233 320.339 207.233 308.025 195.015ZM347.919 165.484L341.939 159.513L349.076 152.298C353.001 148.329 363.204 138.059 371.749 129.475C380.295 120.891 387.286 113.655 387.286 113.395C387.286 112.696 377.779 103.616 377.048 103.616C376.703 103.616 373.533 106.554 370.003 110.145C351.295 129.174 331.839 148.518 331.407 148.518C331.138 148.518 325.763 143.415 319.464 137.178L308.01 125.838L291.035 142.905C281.699 152.292 273.944 159.973 273.801 159.973C272.483 159.973 275.865 156.207 290.376 141.511C299.635 132.135 307.539 124.391 307.941 124.303C308.399 124.202 312.93 128.377 320.098 135.505L331.525 146.868L336.319 142.08C338.955 139.447 348.961 129.355 358.555 119.653C368.148 109.951 376.283 101.834 376.631 101.616C377.092 101.327 378.885 102.826 383.197 107.107C386.459 110.346 389.128 113.207 389.128 113.466C389.128 113.724 379.065 124.099 366.765 136.521C354.465 148.944 344.466 159.363 344.546 159.677C344.625 159.99 346.933 162.391 349.675 165.012L354.66 169.777L361.87 162.47C385.305 138.718 399.522 124.695 400.152 124.709C400.547 124.718 405.942 129.548 412.139 135.443C418.84 141.817 423.623 146.035 423.939 145.85C424.232 145.68 434.25 135.643 446.201 123.547C458.152 111.451 468.28 101.497 468.708 101.426C469.191 101.347 471.754 103.562 475.457 107.259L481.428 113.22L471.545 123.194C466.109 128.68 455.864 138.996 448.779 146.118L435.896 159.067L440.948 164.112C443.727 166.887 446.239 169.101 446.531 169.032C446.822 168.963 456.944 158.907 469.023 146.685C482.485 133.064 491.369 124.414 491.978 124.335C492.739 124.236 495.562 126.787 504.02 135.217C510.097 141.273 515.279 146.227 515.536 146.227C515.792 146.227 523.254 138.998 532.117 130.162C540.981 121.327 548.595 113.897 549.038 113.652C549.668 113.304 549.844 113.379 549.844 113.997C549.844 114.774 517.737 147.221 516.062 148.136C515.323 148.54 513.644 147.055 503.846 137.336C497.599 131.138 492.286 126.064 492.039 126.06C491.792 126.055 481.41 136.313 468.967 148.854L446.344 171.656L440.301 165.723C436.977 162.459 434.258 159.554 434.258 159.267C434.258 158.98 444.308 148.576 456.592 136.147C468.876 123.718 478.927 113.312 478.927 113.022C478.927 112.39 469.582 103.158 468.942 103.158C468.696 103.158 458.493 113.261 446.268 125.609C434.044 137.957 423.837 148.06 423.586 148.06C423.335 148.06 418.047 143.204 411.835 137.269C405.623 131.333 400.257 126.54 399.91 126.616C399.563 126.692 389.39 136.754 377.303 148.976C365.216 161.198 355.006 171.256 354.613 171.326C354.207 171.399 351.326 168.885 347.919 165.484ZM532.446 165.887C529.225 162.839 526.516 160.027 526.427 159.636C526.272 158.955 547.245 137.551 549.038 136.56C549.665 136.214 549.844 136.288 549.844 136.893C549.844 137.321 544.923 142.603 538.907 148.631L527.97 159.59L533.036 164.348C535.822 166.965 538.312 169.113 538.571 169.121C538.829 169.13 541.108 167.061 543.636 164.524C548.666 159.475 549.844 158.573 549.844 159.766C549.844 160.524 539.426 171.427 538.702 171.427C538.483 171.427 535.667 168.934 532.446 165.887ZM273.542 136.301C273.542 135.882 278.441 130.637 284.43 124.646L295.318 113.752L293.444 111.548C292.414 110.335 290.102 107.903 288.307 106.143L285.043 102.942L279.486 108.548C276.43 111.632 273.842 114.154 273.735 114.154C273.629 114.154 273.542 113.827 273.542 113.426C273.542 112.58 284.478 101.325 285.3 101.325C286.048 101.325 297.027 112.981 297.027 113.776C297.027 114.402 274.489 137.064 273.866 137.064C273.688 137.064 273.542 136.721 273.542 136.301ZM307.715 103.077L285.016 80.5641L279.582 85.9047C276.593 88.8421 274.011 91.2453 273.844 91.2453C273.678 91.2453 273.542 90.9187 273.542 90.5196C273.542 89.6939 284.008 78.8744 284.806 78.8744C285.093 78.8744 286.147 79.7171 287.148 80.7469C288.149 81.7768 298.461 91.9163 310.062 103.279L331.156 123.939L336.196 118.94C338.968 116.19 341.235 113.731 341.234 113.475C341.233 113.219 331.13 103.119 318.784 91.0305C306.438 78.9423 296.157 68.7632 295.938 68.4103C295.645 67.9401 297.12 66.1917 301.457 61.867C304.712 58.621 307.646 55.9653 307.977 55.9653C308.308 55.9653 318.692 65.9651 331.053 78.1871C343.414 90.4092 353.716 100.409 353.947 100.409C354.179 100.409 358.925 95.8592 364.495 90.2984C370.065 84.7376 375.217 79.8742 375.944 79.491L377.265 78.7942L389.759 91.0868C396.63 97.8477 406.966 108.018 412.727 113.687L423.201 123.994L428.269 118.967C431.056 116.203 433.336 113.731 433.335 113.475C433.334 113.219 423.231 103.119 410.885 91.0305C398.539 78.9423 388.258 68.7632 388.038 68.4103C387.746 67.9401 389.221 66.1917 393.558 61.867C396.813 58.6211 399.748 55.9653 400.079 55.9653C400.41 55.9653 410.939 66.1091 423.476 78.5072L446.271 101.049L457.422 89.9617C463.554 83.8637 468.788 78.8744 469.051 78.8744C469.314 78.8744 470.349 79.7171 471.35 80.7469C472.351 81.7768 482.663 91.9163 494.264 103.279L515.358 123.939L520.398 118.94C523.17 116.19 525.437 113.731 525.435 113.475C525.435 113.219 515.332 103.119 502.986 91.0305C490.64 78.9423 480.359 68.7632 480.139 68.4103C479.847 67.9401 481.322 66.1917 485.659 61.867C488.914 58.621 491.848 55.9653 492.18 55.9653C492.511 55.9653 503.035 66.1045 515.567 78.4968L538.351 101.028L543.933 95.5641C547.089 92.4742 549.602 90.3458 549.715 90.6659C549.826 90.9773 549.505 91.802 549.001 92.4987C547.571 94.4773 538.987 102.7 538.352 102.7C538.039 102.7 527.554 92.57 515.053 80.189L492.323 57.678L490.115 59.5358C486.137 62.8819 482.055 67.2798 482.22 68.0402C482.308 68.4443 492.431 78.6132 504.715 90.6377C516.999 102.662 527.116 112.769 527.198 113.098C527.387 113.857 516.252 125.609 515.344 125.609C514.973 125.609 504.582 115.609 492.253 103.387C479.924 91.1652 469.549 81.1653 469.197 81.1653C468.846 81.1653 463.691 86.0106 457.743 91.9326C451.795 97.8546 446.648 102.7 446.305 102.7C445.963 102.7 435.454 92.57 422.952 80.189L400.222 57.678L398.014 59.5358C394.036 62.8819 389.954 67.2798 390.12 68.0402C390.208 68.4443 400.33 78.6132 412.614 90.6377C424.898 102.662 435.015 112.769 435.097 113.098C435.29 113.872 424.142 125.609 423.215 125.609C422.828 125.609 413.808 116.936 403.172 106.336C392.535 95.7354 382.23 85.6133 380.27 83.8423L376.708 80.6223L365.643 91.3174C359.558 97.1998 354.264 102.081 353.879 102.164C353.457 102.255 344.222 93.4397 330.652 79.9949L308.125 57.6751L305.915 59.5343C301.922 62.8933 297.853 67.2793 298.019 68.0456C298.107 68.4528 308.229 78.6211 320.513 90.6421C332.797 102.663 342.915 112.768 342.996 113.097C343.19 113.875 332.037 125.612 331.116 125.6C330.73 125.594 320.2 115.459 307.715 103.077ZM348.2 74.0861C344.876 70.8226 342.157 67.9176 342.157 67.6306C342.157 67.3435 352.207 56.9396 364.491 44.5107C376.775 32.0819 386.826 21.6757 386.826 21.386C386.826 20.7535 377.481 11.5216 376.841 11.5216C376.595 11.5216 366.392 21.6245 354.167 33.9726C341.943 46.3206 331.727 56.4235 331.464 56.4235C331.201 56.4235 326.398 52.0421 320.79 46.6871C315.182 41.3321 310.022 36.4451 309.323 35.8272L308.052 34.7036L290.973 51.6345C281.48 61.0443 273.799 68.3139 273.681 67.9993C273.565 67.688 273.885 66.8632 274.394 66.1665C276.143 63.7699 307.42 33.0562 308.095 33.0725C308.466 33.0817 313.841 37.9118 320.038 43.8065C326.739 50.1806 331.522 54.3985 331.839 54.2139C332.132 54.0432 342.149 44.0067 354.1 31.9107C366.051 19.8147 376.179 9.86039 376.607 9.79001C377.09 9.71065 379.653 11.9259 383.356 15.6228L389.327 21.5835L379.444 31.558C374.008 37.044 363.764 47.3597 356.678 54.4817L343.795 67.4308L348.848 72.4756C351.626 75.2503 354.138 77.4642 354.43 77.3956C354.722 77.3269 364.846 67.271 376.929 55.0489C389.601 42.2308 399.245 32.8271 399.718 32.8271C400.169 32.8271 405.757 37.8625 412.135 44.0168L423.733 55.2064L428.464 50.4313C431.067 47.805 441.049 37.7182 450.647 28.0162C460.245 18.3142 468.383 10.1975 468.732 9.97917C469.193 9.69056 470.986 11.19 475.298 15.4707C478.56 18.7095 481.229 21.5708 481.229 21.8294C481.229 22.0879 471.166 32.4629 458.866 44.885C446.566 57.3071 436.567 67.727 436.646 68.0404C436.726 68.3537 439.034 70.7545 441.776 73.3755L446.761 78.141L453.971 70.8331C477.235 47.2544 491.622 33.0562 492.249 33.0562C492.643 33.0562 497.991 38.0534 504.133 44.1612L515.302 55.2662L532.242 38.4339C541.559 29.1762 549.331 21.6016 549.513 21.6016C551.014 21.6016 547.623 25.3682 532.935 40.0172C523.635 49.2927 515.707 56.8817 515.317 56.8817C514.927 56.8817 509.637 51.9293 503.56 45.8765C497.483 39.8236 492.257 34.9268 491.946 34.9946C491.634 35.0624 481.491 45.1178 469.404 57.3399C457.317 69.5619 447.107 79.6193 446.714 79.6896C446.308 79.7625 443.427 77.2484 440.02 73.8472L434.039 67.8768L441.176 60.6611C445.102 56.6924 455.305 46.4223 463.85 37.8387C472.396 29.255 479.387 22.019 479.387 21.7587C479.387 21.0597 469.88 11.9798 469.148 11.9798C468.804 11.9798 465.634 14.9179 462.104 18.5089C443.521 37.411 423.941 56.8817 423.517 56.8817C423.252 56.8817 417.931 51.8302 411.693 45.6562C405.455 39.4822 400.157 34.4274 399.92 34.4234C399.683 34.4197 389.309 44.6769 376.866 57.218L354.243 80.0199L348.2 74.0861ZM532.364 74.0648C529.061 70.813 526.359 67.9459 526.359 67.6935C526.359 67.1539 547.855 45.5692 549.038 44.9203C549.664 44.5774 549.844 44.6526 549.844 45.2558C549.844 45.6834 545.078 50.8031 539.253 56.633C533.427 62.4628 528.661 67.4526 528.661 67.7214C528.661 68.242 537.593 77.1568 538.395 77.4363C538.656 77.5274 541.265 75.2594 544.193 72.3963C547.622 69.0426 549.594 67.4142 549.737 67.819C549.867 68.1885 547.571 70.8228 544.164 74.2123L538.37 79.9772L532.364 74.0648ZM273.542 44.665C273.542 44.2459 278.458 38.9841 284.467 32.9721L295.392 22.0412L290.234 16.9095L285.076 11.7778L279.612 17.1479C276.606 20.1014 274.011 22.518 273.844 22.518C273.678 22.518 273.542 22.1914 273.542 21.7922C273.542 20.8312 284.075 10.1471 285.022 10.1471C285.958 10.1471 297.027 21.1488 297.027 22.0786C297.027 22.7455 274.527 45.4271 273.866 45.4271C273.688 45.4271 273.542 45.0842 273.542 44.665ZM313.252 16.8911C303.822 7.49627 296.106 -0.338652 296.106 -0.519845C296.106 -2.0106 299.862 1.3318 314.391 15.7514L331.117 32.3521L336.284 27.2109L341.451 22.0697L330.291 10.9324C324.153 4.80683 319.132 -0.349947 319.132 -0.527144C319.132 -0.704332 319.477 -0.849304 319.898 -0.849304C320.872 -0.849304 343.078 21.0845 343.078 22.046C343.078 22.9618 332.01 33.9726 331.09 33.9726C330.709 33.9726 322.682 26.2859 313.252 16.8911ZM405.353 16.8911C395.923 7.49627 388.207 -0.338652 388.207 -0.519845C388.207 -2.0106 391.963 1.3318 406.491 15.7514L423.217 32.3521L428.385 27.2109L433.552 22.0697L422.277 10.7824C415.987 4.48542 411.254 -0.596982 411.571 -0.713085C411.884 -0.827557 412.713 -0.508228 413.413 -0.00346732C415.639 1.60078 435.179 21.3925 435.179 22.0422C435.179 22.9193 424.1 33.9726 423.221 33.9726C422.823 33.9726 414.783 26.2859 405.353 16.8911ZM497.454 16.8911C488.024 7.49627 480.308 -0.338652 480.308 -0.519845C480.308 -2.01058 484.064 1.33144 498.59 15.7488L515.313 32.3469L520.375 27.3257C523.159 24.5641 525.438 22.06 525.438 21.7612C525.438 21.4623 520.578 16.5312 514.639 10.803C508.699 5.07487 503.732 0.109765 503.601 -0.230545C503.464 -0.584372 503.665 -0.849304 504.069 -0.849304C504.836 -0.849304 526.954 20.4883 527.198 21.4641C527.392 22.2389 516.24 33.9726 515.309 33.9726C514.919 33.9726 506.884 26.2859 497.454 16.8911ZM348.265 5.90889C342.611 0.371605 341.636 -0.849304 342.867 -0.849304C343.276 -0.849304 345.977 1.45202 348.87 4.26475L354.13 9.37884L359.39 4.26475C362.283 1.45202 364.984 -0.849304 365.393 -0.849304C365.96 -0.849304 366.032 -0.660175 365.697 -0.0474846C364.975 1.27148 354.781 11.0634 354.13 11.0634C353.799 11.0634 351.16 8.74389 348.265 5.90889ZM439.875 5.40985C436.786 2.30037 434.258 -0.379993 434.258 -0.546524C434.258 -1.70707 436.429 -0.151079 440.971 4.26475L446.231 9.37884L451.491 4.26475C456.033 -0.151079 458.204 -1.70707 458.204 -0.546524C458.204 0.12004 446.918 11.0634 446.231 11.0634C445.825 11.0634 442.965 8.51933 439.875 5.40985ZM531.976 5.40985C528.886 2.30037 526.359 -0.379993 526.359 -0.546524C526.359 -1.70707 528.53 -0.151079 533.072 4.26475L538.332 9.37884L543.592 4.26475C548.559 -0.564598 549.844 -1.51367 549.844 -0.352613C549.844 0.460477 539.166 11.0634 538.347 11.0634C537.933 11.0634 535.066 8.51933 531.976 5.40985Z" fill="#006699"/>
</g>
</svg>
