<svg width="18" height="18" viewBox="0 0 18 18" fill="none" xmlns="http://www.w3.org/2000/svg">
<path d="M2.625 2.8125C2.625 2.76277 2.64475 2.71508 2.67992 2.67992C2.71508 2.64475 2.76277 2.625 2.8125 2.625H12.9375C12.9872 2.625 13.0349 2.64475 13.0701 2.67992C13.1052 2.71508 13.125 2.76277 13.125 2.8125V10.3125C13.125 10.4617 13.1843 10.6048 13.2898 10.7102C13.3952 10.8157 13.5383 10.875 13.6875 10.875C13.8367 10.875 13.9798 10.8157 14.0852 10.7102C14.1907 10.6048 14.25 10.4617 14.25 10.3125V2.8125C14.25 2.4644 14.1117 2.13056 13.8656 1.88442C13.6194 1.63828 13.2856 1.5 12.9375 1.5H2.8125C2.4644 1.5 2.13056 1.63828 1.88442 1.88442C1.63828 2.13056 1.5 2.4644 1.5 2.8125V15.1875C1.5 15.912 2.088 16.5 2.8125 16.5H8.0625C8.21168 16.5 8.35476 16.4407 8.46025 16.3352C8.56574 16.2298 8.625 16.0867 8.625 15.9375C8.625 15.7883 8.56574 15.6452 8.46025 15.5398C8.35476 15.4343 8.21168 15.375 8.0625 15.375H2.8125C2.76277 15.375 2.71508 15.3552 2.67992 15.3201C2.64475 15.2849 2.625 15.2372 2.625 15.1875V2.8125Z" fill="#007FFF"/>
<path d="M4.6875 5.25C4.53832 5.25 4.39524 5.30926 4.28975 5.41475C4.18426 5.52024 4.125 5.66332 4.125 5.8125C4.125 5.96168 4.18426 6.10476 4.28975 6.21025C4.39524 6.31574 4.53832 6.375 4.6875 6.375H11.0625C11.2117 6.375 11.3548 6.31574 11.4602 6.21025C11.5657 6.10476 11.625 5.96168 11.625 5.8125C11.625 5.66332 11.5657 5.52024 11.4602 5.41475C11.3548 5.30926 11.2117 5.25 11.0625 5.25H4.6875ZM4.125 8.8125C4.125 8.66332 4.18426 8.52024 4.28975 8.41475C4.39524 8.30926 4.53832 8.25 4.6875 8.25H8.0625C8.21168 8.25 8.35476 8.30926 8.46025 8.41475C8.56574 8.52024 8.625 8.66332 8.625 8.8125C8.625 8.96168 8.56574 9.10476 8.46025 9.21025C8.35476 9.31574 8.21168 9.375 8.0625 9.375H4.6875C4.53832 9.375 4.39524 9.31574 4.28975 9.21025C4.18426 9.10476 4.125 8.96168 4.125 8.8125ZM16.335 12.21C16.3903 12.1585 16.4346 12.0964 16.4653 12.0274C16.4961 11.9584 16.5126 11.8839 16.5139 11.8084C16.5153 11.7329 16.5014 11.6578 16.4731 11.5878C16.4448 11.5178 16.4027 11.4541 16.3493 11.4007C16.2959 11.3473 16.2322 11.3052 16.1622 11.2769C16.0922 11.2486 16.0171 11.2347 15.9416 11.2361C15.8661 11.2374 15.7916 11.2539 15.7226 11.2847C15.6536 11.3154 15.5915 11.3597 15.54 11.415L11.8125 15.1425L10.335 13.665C10.2835 13.6097 10.2214 13.5654 10.1524 13.5347C10.0834 13.5039 10.0089 13.4874 9.93339 13.4861C9.85786 13.4847 9.78284 13.4986 9.7128 13.5269C9.64276 13.5552 9.57914 13.5973 9.52572 13.6507C9.47231 13.7041 9.4302 13.7678 9.40191 13.8378C9.37362 13.9078 9.35972 13.9829 9.36106 14.0584C9.36239 14.1339 9.37892 14.2084 9.40966 14.2774C9.44041 14.3464 9.48474 14.4085 9.54 14.46L11.415 16.335C11.5205 16.4403 11.6634 16.4995 11.8125 16.4995C11.9616 16.4995 12.1045 16.4403 12.21 16.335L16.335 12.21Z" fill="#007FFF"/>
</svg>
