<svg width="24" height="24" viewBox="0 0 24 24" fill="none" xmlns="http://www.w3.org/2000/svg">
<path d="M11.9375 19C10.8194 19 9.88368 18.602 9.13021 17.806C8.37674 17.01 8 16.059 8 14.9531V7.86198C8 7.07205 8.27647 6.39757 8.82943 5.83854C9.38238 5.27951 10.0538 5 10.8438 5C11.658 5 12.3355 5.29471 12.8763 5.88412C13.4171 6.47353 13.6875 7.16927 13.6875 7.97135V14.6432C13.6875 15.1293 13.5143 15.5395 13.168 15.8737C12.8216 16.2079 12.4115 16.375 11.9375 16.375C11.4271 16.375 11.0078 16.1927 10.6797 15.8281C10.3516 15.4635 10.1875 15.0382 10.1875 14.5521V7.625H11.5V14.6432C11.5 14.7647 11.5425 14.8681 11.6276 14.9531C11.7127 15.0382 11.816 15.0807 11.9375 15.0807C12.059 15.0807 12.1623 15.0382 12.2474 14.9531C12.3325 14.8681 12.375 14.7647 12.375 14.6432V7.86198C12.375 7.43663 12.2261 7.07205 11.9284 6.76823C11.6306 6.46441 11.2691 6.3125 10.8438 6.3125C10.4184 6.3125 10.0569 6.46745 9.75912 6.77734C9.46137 7.08724 9.3125 7.46094 9.3125 7.89844V15.0807C9.3125 15.8099 9.57075 16.4266 10.0872 16.931C10.6037 17.4353 11.2205 17.6875 11.9375 17.6875C12.691 17.6875 13.3168 17.4201 13.8151 16.8854C14.3134 16.3507 14.5625 15.7188 14.5625 14.9896V7.625H15.875V15.0807C15.875 16.1744 15.4952 17.1012 14.7357 17.8607C13.9762 18.6203 13.0434 19 11.9375 19Z" fill="#0B150F" fill-opacity="0.6"/>
</svg>
