<svg width="24" height="24" viewBox="0 0 24 24" fill="none" xmlns="http://www.w3.org/2000/svg">
<g opacity="0.5">
<path d="M3.50005 7.99983C3.50025 7.05175 3.74552 6.11981 4.21207 5.29446C4.67862 4.46911 5.35059 3.77838 6.16279 3.2893C6.97498 2.80021 7.89982 2.52938 8.84754 2.50309C9.79526 2.4768 10.7337 2.69594 11.5717 3.13925C12.4098 3.58256 13.119 4.23497 13.6306 5.03319C14.1422 5.8314 14.4388 6.74831 14.4915 7.69492C14.5443 8.64154 14.3514 9.58572 13.9317 10.4358C13.512 11.286 12.8797 12.0131 12.0961 12.5468C13.7836 13.1658 15.2472 14.2755 16.2987 15.7333C17.3502 17.1911 17.9413 18.9302 17.9961 20.7268C17.9937 20.9205 17.9166 21.1058 17.7809 21.2441C17.6452 21.3823 17.4613 21.4627 17.2676 21.4685C17.074 21.4743 16.8856 21.405 16.7418 21.2752C16.598 21.1454 16.51 20.965 16.4961 20.7718C16.4365 18.8233 15.6206 16.9745 14.2212 15.6172C12.8219 14.26 10.949 13.5009 8.99955 13.5009C7.0501 13.5009 5.17725 14.26 3.77788 15.6172C2.37851 16.9745 1.5626 18.8233 1.50305 20.7718C1.49304 20.9677 1.40673 21.1518 1.26261 21.2848C1.11849 21.4177 0.928028 21.489 0.732023 21.4832C0.536018 21.4775 0.350062 21.3952 0.213991 21.254C0.0779204 21.1128 0.00255842 20.9239 0.00405005 20.7278C0.0586014 18.9311 0.649657 17.1917 1.70114 15.7338C2.75262 14.2758 4.21639 13.1658 5.90405 12.5468C5.16288 12.0425 4.55634 11.3645 4.13732 10.5719C3.7183 9.77935 3.49952 8.89633 3.50005 7.99983ZM9.00005 3.99983C7.93918 3.99983 6.92177 4.42126 6.17162 5.1714C5.42148 5.92155 5.00005 6.93896 5.00005 7.99983C5.00005 9.0607 5.42148 10.0781 6.17162 10.8283C6.92177 11.5784 7.93918 11.9998 9.00005 11.9998C10.0609 11.9998 11.0783 11.5784 11.8285 10.8283C12.5786 10.0781 13.0001 9.0607 13.0001 7.99983C13.0001 6.93896 12.5786 5.92155 11.8285 5.1714C11.0783 4.42126 10.0609 3.99983 9.00005 3.99983ZM17.2901 7.99983C17.1421 7.99983 16.9981 8.00983 16.8561 8.02983C16.7569 8.04758 16.6552 8.04518 16.557 8.02278C16.4588 8.00037 16.3661 7.95842 16.2845 7.89942C16.2029 7.84042 16.134 7.76558 16.0819 7.67937C16.0298 7.59316 15.9956 7.49734 15.9814 7.39764C15.9672 7.29793 15.9731 7.19638 15.999 7.09904C16.0249 7.00169 16.07 6.91055 16.1319 6.83106C16.1937 6.75156 16.271 6.68534 16.3589 6.63633C16.4469 6.58733 16.5439 6.55655 16.6441 6.54583C17.6386 6.40203 18.6528 6.59303 19.5269 7.08875C20.4011 7.58448 21.0855 8.3568 21.4727 9.28416C21.8598 10.2115 21.9275 11.2413 21.6653 12.2114C21.4031 13.1815 20.8257 14.0368 20.0241 14.6428C21.2024 15.1705 22.203 16.0278 22.9049 17.1115C23.6069 18.1951 23.9803 19.4587 23.9801 20.7498C23.9801 20.9487 23.901 21.1395 23.7604 21.2802C23.6197 21.4208 23.429 21.4998 23.2301 21.4998C23.0311 21.4998 22.8404 21.4208 22.6997 21.2802C22.5591 21.1395 22.4801 20.9487 22.4801 20.7498C22.4799 19.634 22.1204 18.5478 21.4547 17.6523C20.789 16.7568 19.8525 16.0995 18.7841 15.7778L18.2501 15.6178V13.9418L18.6601 13.7328C19.2678 13.425 19.7541 12.9213 20.0404 12.3031C20.3266 11.6849 20.3962 10.9882 20.2379 10.3256C20.0795 9.66297 19.7025 9.07304 19.1676 8.65106C18.6328 8.22907 17.9713 7.99965 17.2901 7.99983Z" fill="white"/>
</g>
</svg>
