<svg width="16" height="16" viewBox="0 0 16 16" fill="none" xmlns="http://www.w3.org/2000/svg">
<g clip-path="url(#clip0_0_232)">
<path d="M13.3404 2.90867L12.008 1.53258C11.8444 1.36456 11.6489 1.23091 11.4329 1.13945C11.217 1.048 10.9849 1.00059 10.7504 1H7.99996C7.32784 1.00085 6.67656 1.23339 6.1559 1.65842C5.63523 2.08345 5.27702 2.67499 5.14163 3.33333H5.08329C4.31003 3.33426 3.5687 3.64185 3.02192 4.18863C2.47514 4.73541 2.16755 5.47674 2.16663 6.25V12.0833C2.16755 12.8566 2.47514 13.5979 3.02192 14.1447C3.5687 14.6915 4.31003 14.9991 5.08329 15H8.58329C9.35656 14.9991 10.0979 14.6915 10.6447 14.1447C11.1914 13.5979 11.499 12.8566 11.5 12.0833V12.025C12.1583 11.8896 12.7498 11.5314 13.1749 11.0107C13.5999 10.4901 13.8324 9.83879 13.8333 9.16667V4.12667C13.8342 3.67191 13.6573 3.23482 13.3404 2.90867ZM8.58329 13.8333H5.08329C4.61916 13.8333 4.17404 13.649 3.84586 13.3208C3.51767 12.9926 3.33329 12.5475 3.33329 12.0833V6.25C3.33329 5.78587 3.51767 5.34075 3.84586 5.01256C4.17404 4.68437 4.61916 4.5 5.08329 4.5V9.16667C5.08422 9.93993 5.39181 10.6813 5.93859 11.228C6.48537 11.7748 7.2267 12.0824 7.99996 12.0833H10.3333C10.3333 12.5475 10.1489 12.9926 9.82073 13.3208C9.49254 13.649 9.04742 13.8333 8.58329 13.8333ZM10.9166 10.9167H7.99996C7.53583 10.9167 7.09071 10.7323 6.76252 10.4041C6.43433 10.0759 6.24996 9.6308 6.24996 9.16667V3.91667C6.24996 3.45254 6.43433 3.00742 6.76252 2.67923C7.09071 2.35104 7.53583 2.16667 7.99996 2.16667H10.3333V3.33333C10.3333 3.64275 10.4562 3.9395 10.675 4.15829C10.8938 4.37708 11.1905 4.5 11.5 4.5H12.6666V9.16667C12.6666 9.6308 12.4823 10.0759 12.1541 10.4041C11.8259 10.7323 11.3808 10.9167 10.9166 10.9167Z" fill="#0B150F" fill-opacity="0.7"/>
</g>
<defs>
<clipPath id="clip0_0_232">
<rect width="14" height="14" fill="white" transform="translate(1 1)"/>
</clipPath>
</defs>
</svg>
