<svg width="32" height="32" viewBox="0 0 32 32" fill="none" xmlns="http://www.w3.org/2000/svg">
<g opacity="0.3">
<path fill-rule="evenodd" clip-rule="evenodd" d="M18.6667 9.33333C18.6667 12.2789 16.2789 14.6667 13.3333 14.6667C10.3878 14.6667 8 12.2789 8 9.33333C8 6.38781 10.3878 4 13.3333 4C16.2789 4 18.6667 6.38781 18.6667 9.33333ZM22.6667 22.6667C22.6667 25.6122 18.488 28 13.3333 28C8.17868 28 4 25.6122 4 22.6667C4 19.7211 8.17868 17.3333 13.3333 17.3333C18.488 17.3333 22.6667 19.7211 22.6667 22.6667ZM24 17C23.4477 17 23 16.5523 23 16V14.3333H21.3333C20.781 14.3333 20.3333 13.8856 20.3333 13.3333C20.3333 12.781 20.781 12.3333 21.3333 12.3333H23V10.6667C23 10.1144 23.4477 9.66667 24 9.66667C24.5523 9.66667 25 10.1144 25 10.6667V12.3333H26.6667C27.2189 12.3333 27.6667 12.781 27.6667 13.3333C27.6667 13.8856 27.2189 14.3333 26.6667 14.3333H25V16C25 16.5523 24.5523 17 24 17Z" fill="#0B150F"/>
</g>
</svg>
