<svg width="130" height="24" viewBox="0 0 130 24" fill="none" xmlns="http://www.w3.org/2000/svg">
<path fill-rule="evenodd" clip-rule="evenodd" d="M7 17V19H17V17H7ZM7 9V11H17V9H7ZM5 15H19V13H5V15ZM5 5V7H19V5H5Z" fill="#0B150F" fill-opacity="0.6"/>
<path fill-rule="evenodd" clip-rule="evenodd" d="M26.2071 10C25.7617 10 25.5386 10.5386 25.8536 10.8536L29.6464 14.6464C29.8417 14.8417 30.1583 14.8417 30.3536 14.6464L34.1464 10.8536C34.4614 10.5386 34.2383 10 33.7929 10H26.2071Z" fill="#0B150F" fill-opacity="0.6"/>
<path fill-rule="evenodd" clip-rule="evenodd" d="M55 15H63V13H55V15ZM52.5 12L49 8.5V15.5L52.5 12ZM49 19H63V17H49V19ZM49 5V7H63V5H49ZM55 11H63V9H55V11Z" fill="#0B150F" fill-opacity="0.6"/>
<path fill-rule="evenodd" clip-rule="evenodd" d="M70.2071 10C69.7617 10 69.5386 10.5386 69.8536 10.8536L73.6464 14.6464C73.8417 14.8417 74.1583 14.8417 74.3536 14.6464L78.1464 10.8536C78.4614 10.5386 78.2383 10 77.7929 10H70.2071Z" fill="#0B150F" fill-opacity="0.6"/>
<path d="M97.5 6.75H107V8.25H97.5V6.75ZM97.5 15.25H107V16.75H97.5V15.25ZM97.5 11H107V12.5H97.5V11Z" fill="#0B150F" fill-opacity="0.6"/>
<path d="M94.5 9C95.3284 9 96 8.32843 96 7.5C96 6.67157 95.3284 6 94.5 6C93.6716 6 93 6.67157 93 7.5C93 8.32843 93.6716 9 94.5 9Z" fill="#0B150F" fill-opacity="0.6"/>
<path d="M94.5 17.5C95.3284 17.5 96 16.8284 96 16C96 15.1716 95.3284 14.5 94.5 14.5C93.6716 14.5 93 15.1716 93 16C93 16.8284 93.6716 17.5 94.5 17.5Z" fill="#0B150F" fill-opacity="0.6"/>
<path d="M94.5 13.25C95.3284 13.25 96 12.5784 96 11.75C96 10.9216 95.3284 10.25 94.5 10.25C93.6716 10.25 93 10.9216 93 11.75C93 12.5784 93.6716 13.25 94.5 13.25Z" fill="#0B150F" fill-opacity="0.6"/>
<path fill-rule="evenodd" clip-rule="evenodd" d="M114.207 10C113.762 10 113.539 10.5386 113.854 10.8536L117.646 14.6464C117.842 14.8417 118.158 14.8417 118.354 14.6464L122.146 10.8536C122.461 10.5386 122.238 10 121.793 10H114.207Z" fill="#0B150F" fill-opacity="0.6"/>
</svg>
