<svg width="32" height="32" viewBox="0 0 32 32" fill="none" xmlns="http://www.w3.org/2000/svg">
<g opacity="0.3">
<path fill-rule="evenodd" clip-rule="evenodd" d="M22.6663 5.33342C24.6483 5.33342 26.2936 6.77494 26.611 8.66675H5.33301V6.66675C5.33301 4.45761 7.12387 2.66675 9.33301 2.66675H12.7586C13.6493 2.66675 14.5146 2.96406 15.2172 3.51155L16.4711 4.48862C17.1737 5.03611 18.0389 5.33342 18.9297 5.33342H22.6663ZM4.63155 10.6667H27.3676C29.0653 10.6667 30.3308 12.2321 29.9751 13.8922L27.5696 25.1176C27.0427 27.5766 24.8696 29.3334 22.3547 29.3334H9.64447C7.1296 29.3334 4.95646 27.5766 4.42952 25.1176L2.02408 13.8922C1.66836 12.2321 2.93383 10.6667 4.63155 10.6667Z" fill="#0B150F"/>
</g>
</svg>
