<svg width="18" height="18" viewBox="0 0 18 18" fill="none" xmlns="http://www.w3.org/2000/svg">
<path d="M8.29672 1.09084C8.50687 0.957516 8.7506 0.886719 8.99947 0.886719C9.24834 0.886719 9.49208 0.957516 9.70222 1.09084L15.9895 5.07784C16.1761 5.1964 16.3298 5.36016 16.4363 5.55394C16.5427 5.74772 16.5986 5.96524 16.5986 6.18634C16.5986 6.40745 16.5427 6.62497 16.4363 6.81875C16.3298 7.01253 16.1761 7.17629 15.9895 7.29484L9.70222 11.2818C9.49208 11.4152 9.24834 11.486 8.99947 11.486C8.7506 11.486 8.50687 11.4152 8.29672 11.2818L2.00947 7.29484C1.82284 7.17629 1.66916 7.01253 1.56269 6.81875C1.45622 6.62497 1.40039 6.40745 1.40039 6.18634C1.40039 5.96524 1.45622 5.74772 1.56269 5.55394C1.66916 5.36016 1.82284 5.1964 2.00947 5.07784L8.29672 1.09084ZM9.09997 2.04109C9.06992 2.02202 9.03507 2.01189 8.99947 2.01189C8.96388 2.01189 8.92902 2.02202 8.89897 2.04109L2.61172 6.02809C2.58508 6.04502 2.56315 6.0684 2.54795 6.09607C2.53275 6.12373 2.52479 6.15478 2.52479 6.18634C2.52479 6.21791 2.53275 6.24896 2.54795 6.27662C2.56315 6.30429 2.58508 6.32767 2.61172 6.34459L8.89897 10.3316C8.92902 10.3507 8.96388 10.3608 8.99947 10.3608C9.03507 10.3608 9.06992 10.3507 9.09997 10.3316L15.3872 6.34459C15.4139 6.32767 15.4358 6.30429 15.451 6.27662C15.4662 6.24896 15.4742 6.21791 15.4742 6.18634C15.4742 6.15478 15.4662 6.12373 15.451 6.09607C15.4358 6.0684 15.4139 6.04502 15.3872 6.02809L9.09997 2.04109Z" fill="#007FFF"/>
<path d="M1.40011 9.24206C1.43965 9.17966 1.4911 9.12567 1.55151 9.08315C1.61192 9.04064 1.68011 9.01044 1.7522 8.99429C1.82428 8.97813 1.89884 8.97633 1.97162 8.98898C2.04439 9.00164 2.11397 9.02851 2.17636 9.06806L8.89936 13.3318C8.92941 13.3509 8.96427 13.361 8.99986 13.361C9.03545 13.361 9.07031 13.3509 9.10036 13.3318L15.8234 9.06806C15.8858 9.02846 15.9553 9.00155 16.0281 8.98884C16.1009 8.97614 16.1755 8.9779 16.2476 8.99403C16.3197 9.01015 16.388 9.04032 16.4484 9.08281C16.5089 9.1253 16.5604 9.17929 16.6 9.24168C16.6396 9.30408 16.6665 9.37366 16.6792 9.44645C16.6919 9.51925 16.6901 9.59384 16.674 9.66595C16.6579 9.73807 16.6277 9.8063 16.5852 9.86676C16.5427 9.92722 16.4888 9.97871 16.4264 10.0183L9.70261 14.2821C9.49247 14.4154 9.24873 14.4862 8.99986 14.4862C8.75099 14.4862 8.50725 14.4154 8.29711 14.2821L1.57336 10.0183C1.44747 9.93833 1.3585 9.81162 1.32601 9.66605C1.29352 9.52049 1.32017 9.36798 1.40011 9.24206Z" fill="#007FFF"/>
<path d="M1.40011 12.2421C1.43965 12.1797 1.4911 12.1257 1.55151 12.0832C1.61192 12.0406 1.68011 12.0104 1.7522 11.9943C1.82428 11.9781 1.89884 11.9763 1.97162 11.989C2.04439 12.0016 2.11397 12.0285 2.17636 12.0681L8.89936 16.3318C8.92941 16.3509 8.96427 16.361 8.99986 16.361C9.03545 16.361 9.07031 16.3509 9.10036 16.3318L15.8234 12.0681C15.9494 11.9881 16.102 11.9615 16.2476 11.994C16.3933 12.0266 16.52 12.1157 16.6 12.2417C16.6799 12.3677 16.7066 12.5203 16.674 12.666C16.6415 12.8116 16.5524 12.9383 16.4264 13.0183L9.70261 17.2821C9.49247 17.4154 9.24873 17.4862 8.99986 17.4862C8.75099 17.4862 8.50725 17.4154 8.29711 17.2821L1.57336 13.0183C1.44747 12.9383 1.3585 12.8116 1.32601 12.6661C1.29352 12.5205 1.32017 12.368 1.40011 12.2421Z" fill="#007FFF"/>
</svg>
