<svg width="18" height="18" viewBox="0 0 18 18" fill="none" xmlns="http://www.w3.org/2000/svg">
<g opacity="0.7">
<path d="M7.24836 7.75C7.12404 7.75 7.00481 7.79939 6.9169 7.88729C6.829 7.9752 6.77961 8.09443 6.77961 8.21875C6.77961 8.34307 6.829 8.4623 6.9169 8.55021C7.00481 8.63811 7.12404 8.6875 7.24836 8.6875H11.3109C11.4352 8.6875 11.5544 8.63811 11.6423 8.55021C11.7302 8.4623 11.7796 8.34307 11.7796 8.21875C11.7796 8.09443 11.7302 7.9752 11.6423 7.88729C11.5544 7.79939 11.4352 7.75 11.3109 7.75H7.24836ZM5.75961 10.25C5.63529 10.25 5.51606 10.2994 5.42815 10.3873C5.34025 10.4752 5.29086 10.5944 5.29086 10.7188C5.29086 10.8431 5.34025 10.9623 5.42815 11.0502C5.51606 11.1381 5.63529 11.1875 5.75961 11.1875H9.82211C9.94643 11.1875 10.0657 11.1381 10.1536 11.0502C10.2415 10.9623 10.2909 10.8431 10.2909 10.7188C10.2909 10.5944 10.2415 10.4752 10.1536 10.3873C10.0657 10.2994 9.94643 10.25 9.82211 10.25H5.75961ZM4.77148 12.75C4.64716 12.75 4.52794 12.7994 4.44003 12.8873C4.35212 12.9752 4.30273 13.0944 4.30273 13.2188C4.30273 13.3431 4.35212 13.4623 4.44003 13.5502C4.52794 13.6381 4.64716 13.6875 4.77148 13.6875H8.83398C8.9583 13.6875 9.07753 13.6381 9.16544 13.5502C9.25335 13.4623 9.30273 13.3431 9.30273 13.2188C9.30273 13.0944 9.25335 12.9752 9.16544 12.8873C9.07753 12.7994 8.9583 12.75 8.83398 12.75H4.77148Z" fill="#0B150F"/>
<path d="M4.07826 1.50001H13.922C14.2608 1.49898 14.5965 1.56499 14.9097 1.69424C15.223 1.8235 15.5075 2.01344 15.747 2.25314C15.9867 2.49263 16.1766 2.77718 16.3059 3.09039C16.4352 3.40361 16.5012 3.7393 16.5001 4.07814C16.5001 4.94314 16.2026 5.82439 15.7951 6.67814C15.3876 7.53126 14.8483 8.40126 14.3251 9.24314L14.3201 9.25126C13.7895 10.1063 13.277 10.9331 12.8951 11.7325C12.5114 12.5344 12.2814 13.2638 12.2814 13.9219C12.2814 14.2053 12.3548 14.4839 12.4946 14.7306C12.6343 14.9772 12.8355 15.1834 13.0787 15.3291C13.3218 15.4748 13.5985 15.555 13.8819 15.5619C14.1653 15.5689 14.4456 15.5023 14.6956 15.3686C14.9455 15.235 15.1566 15.0388 15.3082 14.7994C15.4598 14.5599 15.5468 14.2852 15.5607 14.0021C15.5745 13.719 15.5148 13.4371 15.3873 13.1839C15.2599 12.9308 15.069 12.7149 14.8333 12.5575C14.7821 12.5233 14.7381 12.4793 14.704 12.4281C14.6698 12.3769 14.646 12.3195 14.634 12.2591C14.6221 12.1987 14.6221 12.1365 14.6341 12.0762C14.6462 12.0158 14.67 11.9584 14.7042 11.9072C14.7384 11.856 14.7824 11.8121 14.8336 11.7779C14.8848 11.7437 14.9422 11.72 15.0026 11.708C15.063 11.696 15.1252 11.696 15.1855 11.7081C15.2459 11.7201 15.3033 11.7439 15.3545 11.7781C15.814 12.0857 16.1625 12.5327 16.3486 13.0534C16.5347 13.5741 16.5485 14.1408 16.388 14.6699C16.2275 15.199 15.9011 15.6625 15.4571 15.992C15.0131 16.3216 14.4749 16.4996 13.922 16.5H4.31263C3.62887 16.5 2.97311 16.2284 2.48962 15.7449C2.00613 15.2614 1.73451 14.6056 1.73451 13.9219C1.73451 12.5256 2.52076 11.0119 3.35326 9.60814C3.57076 9.24189 3.79201 8.88189 4.00951 8.52814C4.50951 7.71314 4.98888 6.93251 5.34951 6.19189H3.61888C3.10451 6.19189 2.44013 6.07126 2.01451 5.54501C1.67647 5.13143 1.49442 4.61226 1.50013 4.07814C1.50013 3.39438 1.77175 2.73862 2.25525 2.25513C2.73874 1.77164 3.39449 1.50001 4.07826 1.50001ZM11.3439 13.9219C11.3439 13.0594 11.6414 12.1806 12.0489 11.3281C12.4545 10.4794 12.992 9.61376 13.5133 8.77439L13.5239 8.75689C14.0545 7.90251 14.567 7.07439 14.9489 6.27439C15.3326 5.47126 15.5626 4.73876 15.5626 4.07814C15.5635 3.86246 15.5216 3.64874 15.4394 3.44932C15.3573 3.2499 15.2365 3.06871 15.0839 2.9162C14.9314 2.76369 14.7502 2.64287 14.5508 2.56071C14.3514 2.47856 14.1377 2.43669 13.922 2.43751C13.4869 2.43751 13.0696 2.61036 12.7619 2.91804C12.4542 3.22572 12.2814 3.64302 12.2814 4.07814C12.2814 4.61876 12.5445 5.02126 13.0108 5.33376C13.0942 5.3897 13.1575 5.47098 13.1913 5.56561C13.225 5.66024 13.2275 5.76322 13.1983 5.85936C13.1691 5.9555 13.1098 6.03971 13.0291 6.09958C12.9484 6.15945 12.8506 6.19181 12.7501 6.19189H6.38263C5.97638 7.11876 5.36763 8.11001 4.77201 9.07876C4.56326 9.41876 4.35576 9.75564 4.15951 10.0863C3.31263 11.5156 2.67201 12.8181 2.67201 13.9219C2.67201 14.357 2.84486 14.7743 3.15253 15.082C3.46021 15.3897 3.87751 15.5625 4.31263 15.5625H11.9333C11.5515 15.1011 11.343 14.5208 11.3439 13.9219ZM2.43763 4.07814C2.43138 4.39751 2.53951 4.70814 2.74201 4.95501C2.90076 5.15064 3.20451 5.25439 3.61826 5.25439H11.6558C11.4472 4.8978 11.3394 4.49123 11.3439 4.07814C11.3431 3.47928 11.5516 2.89897 11.9333 2.43751H4.07826C3.64313 2.43751 3.22584 2.61036 2.91816 2.91804C2.61048 3.22572 2.43763 3.64302 2.43763 4.07814Z" fill="#0B150F"/>
</g>
</svg>
