<svg width="12" height="12" viewBox="0 0 12 12" fill="none" xmlns="http://www.w3.org/2000/svg">
<path d="M2.59431 4.09419C2.56445 4.124 2.54076 4.15941 2.5246 4.19839C2.50844 4.23736 2.50012 4.27914 2.50012 4.32134C2.50012 4.36353 2.50844 4.40532 2.5246 4.44429C2.54076 4.48327 2.56445 4.51868 2.59431 4.54849L5.27302 7.2272C5.30283 7.25706 5.33824 7.28075 5.37722 7.29691C5.41619 7.31307 5.45797 7.32139 5.50017 7.32139C5.54236 7.32139 5.58415 7.31307 5.62312 7.29691C5.6621 7.28075 5.69751 7.25706 5.72732 7.2272L8.40603 4.54849C8.43586 4.51866 8.45953 4.48325 8.47567 4.44427C8.49181 4.4053 8.50012 4.36353 8.50012 4.32134C8.50012 4.27915 8.49181 4.23738 8.47567 4.1984C8.45953 4.15943 8.43586 4.12402 8.40603 4.09419C8.3762 4.06435 8.34079 4.04069 8.30181 4.02455C8.26284 4.0084 8.22106 4.00009 8.17888 4.00009C8.13669 4.00009 8.09492 4.0084 8.05594 4.02455C8.01697 4.04069 7.98155 4.06435 7.95172 4.09419L5.50017 6.54531L3.04862 4.09419C3.0188 4.06433 2.98339 4.04064 2.94442 4.02448C2.90544 4.00832 2.86366 4 2.82146 4C2.77927 4 2.73749 4.00832 2.69851 4.02448C2.65953 4.04064 2.62412 4.06433 2.59431 4.09419Z" fill="#0B150F" fill-opacity="0.24"/>
<path d="M2.33985 4.12178C2.36608 4.05852 2.40453 4.00105 2.45299 3.95266L2.59431 4.09419L2.45279 3.95286C2.50118 3.90441 2.55864 3.86596 2.62191 3.83973C2.68517 3.8135 2.75298 3.8 2.82146 3.8C2.88994 3.8 2.95776 3.8135 3.02102 3.83973C3.08427 3.86596 3.14173 3.90439 3.19011 3.95284L3.19003 3.95275L3.04862 4.09419L3.19014 3.95286L5.50017 6.26249L7.8103 3.95276L2.33985 4.12178ZM2.33985 4.12178C2.31362 4.18504 2.30012 4.25286 2.30012 4.32134M2.33985 4.12178L2.30012 4.32134M2.30012 4.32134C2.30012 4.38982 2.31362 4.45763 2.33985 4.5209C2.36607 4.58411 2.40447 4.64155 2.45289 4.68992C2.4529 4.68993 2.45292 4.68995 2.45294 4.68997C2.45296 4.68999 2.45297 4.69 2.45299 4.69002L5.13149 7.36852L2.30012 4.32134ZM8.66045 4.12187C8.63425 4.05863 8.59586 4.00117 8.54745 3.95276L8.40616 4.09406L8.54745 3.95276L8.66045 4.12187ZM8.66045 4.12187C8.68664 4.18511 8.70012 4.25289 8.70012 4.32134C8.70012 4.38979 8.68664 4.45757 8.66045 4.52081C8.63425 4.58405 8.59586 4.64151 8.54745 4.68992L5.86885 7.36852L5.86875 7.36862L5.72732 7.2272C5.69751 7.25706 5.6621 7.28075 5.62312 7.29691C5.58415 7.31307 5.54236 7.32139 5.50017 7.32139C5.45797 7.32139 5.41619 7.31307 5.37722 7.29691L8.66045 4.12187Z" stroke="#0B150F" stroke-opacity="0.24" stroke-width="0.4"/>
</svg>
