<svg width="12" height="12" viewBox="0 0 12 12" fill="none" xmlns="http://www.w3.org/2000/svg">
<path d="M10.5151 2.85967C10.5853 2.92998 10.6247 3.02529 10.6247 3.12467C10.6247 3.22405 10.5853 3.31936 10.5151 3.38967L4.76505 9.13967C4.72984 9.17515 4.68786 9.2032 4.64161 9.22215C4.59536 9.24111 4.54577 9.25059 4.49579 9.25003C4.4458 9.24947 4.39644 9.23888 4.35062 9.2189C4.3048 9.19891 4.26347 9.16993 4.22905 9.13367L1.47905 6.25867C1.44347 6.2234 1.41532 6.18136 1.39625 6.13503C1.37719 6.0887 1.3676 6.03902 1.36806 5.98892C1.36851 5.93882 1.379 5.88932 1.39891 5.84335C1.41881 5.79737 1.44773 5.75585 1.48395 5.72123C1.52017 5.68662 1.56295 5.65961 1.60978 5.64181C1.65661 5.62401 1.70654 5.61577 1.7566 5.61758C1.80667 5.61939 1.85587 5.63122 1.90129 5.65236C1.94671 5.6735 1.98743 5.70353 2.02105 5.74067L4.50605 8.33817L9.98505 2.85967C10.0554 2.78944 10.1507 2.75 10.2501 2.75C10.3494 2.75 10.4447 2.78944 10.5151 2.85967Z" fill="white" stroke="white" stroke-width="0.4"/>
</svg>
