<svg width="20" height="20" viewBox="0 0 20 20" fill="none" xmlns="http://www.w3.org/2000/svg">
<g opacity="0.3">
<path d="M8.54206 1.66675C9.84869 1.6666 11.1283 2.03881 12.231 2.73977C13.3337 3.44073 14.2138 4.44142 14.7682 5.62459C15.3227 6.80776 15.5284 8.12443 15.3614 9.42035C15.1945 10.7163 14.6616 11.9378 13.8254 12.9417L18.5671 17.6834C18.6493 17.7598 18.7095 17.857 18.7412 17.9647C18.7728 18.0724 18.7749 18.1866 18.7471 18.2954C18.7193 18.4042 18.6626 18.5034 18.5831 18.5827C18.5036 18.662 18.4042 18.7184 18.2954 18.7459C18.1867 18.7738 18.0726 18.7718 17.965 18.7403C17.8573 18.7088 17.7602 18.6488 17.6837 18.5667L12.9421 13.8251C12.0936 14.5316 11.0874 15.0233 10.0087 15.2587C8.93005 15.4941 7.81052 15.4662 6.74486 15.1774C5.67921 14.8887 4.69877 14.3475 3.8865 13.5997C3.07422 12.8519 2.45399 11.9195 2.07828 10.8813C1.70256 9.84307 1.58242 8.72966 1.728 7.63522C1.87358 6.54077 2.28061 5.49749 2.91466 4.59361C3.54871 3.68974 4.39112 2.95186 5.37064 2.44241C6.35016 1.93295 7.43798 1.66689 8.54206 1.66675ZM2.91706 8.54175C2.91706 9.28043 3.06256 10.0119 3.34524 10.6943C3.62792 11.3768 4.04226 11.9969 4.56459 12.5192C5.08692 13.0416 5.70701 13.4559 6.38947 13.7386C7.07192 14.0213 7.80338 14.1667 8.54206 14.1667C9.28075 14.1667 10.0122 14.0213 10.6947 13.7386C11.3771 13.4559 11.9972 13.0416 12.5195 12.5192C13.0419 11.9969 13.4562 11.3768 13.7389 10.6943C14.0216 10.0119 14.1671 9.28043 14.1671 8.54175C14.1671 7.04991 13.5744 5.61916 12.5195 4.56427C11.4646 3.50938 10.0339 2.91675 8.54206 2.91675C7.05022 2.91675 5.61948 3.50938 4.56459 4.56427C3.50969 5.61916 2.91706 7.04991 2.91706 8.54175Z" fill="#0B150F"/>
</g>
</svg>
